M48
;DRILL file {KiCad (5.0.2)-1} date 3/20/2019 2:53:42 PM
;FORMAT={-:-/ absolute / inch / decimal}
FMAT,2
INCH,TZ
T1C0.0157
T2C0.0295
T3C0.0315
T4C0.0354
T5C0.0394
T6C0.0433
T7C0.0630
%
G90
G05
T1
X2.532Y-3.639
X2.532Y-3.681
X2.534Y-3.526
X2.536Y-3.563
X2.54Y-3.6
X2.541Y-3.718
X2.634Y-3.764
T2
X3.225Y-4.635
X3.275Y-4.635
X3.325Y-4.635
T3
X2.355Y-4.765
X2.655Y-4.765
X2.34Y-4.48
X2.64Y-4.48
X3.225Y-4.8
X3.525Y-4.8
X3.61Y-3.93
X3.61Y-4.23
X2.355Y-4.635
X2.655Y-4.635
X3.03Y-3.36
X3.33Y-3.36
X2.84Y-4.56
X2.94Y-4.56
X3.04Y-4.56
X2.3216Y-3.42
X2.42Y-3.42
X2.78Y-4.63
X3.08Y-4.63
X3.0216Y-3.7
X3.12Y-3.7
X2.12Y-3.64
X2.12Y-3.7187
X2.12Y-3.7975
X3.47Y-3.925
X3.47Y-4.225
X3.03Y-3.51
X3.33Y-3.51
X2.79Y-4.0122
X2.79Y-4.15
X2.36Y-4.89
X2.66Y-4.89
T4
X2.88Y-4.8
X2.98Y-4.8
T5
X3.18Y-3.9231
X3.18Y-4.12
X3.51Y-3.75
X3.61Y-3.75
X2.32Y-3.9
X2.5169Y-3.9
X3.5Y-4.365
X3.6Y-4.365
X2.12Y-3.1
X2.12Y-3.2
X2.12Y-3.98
X2.12Y-4.08
X2.12Y-4.18
X2.12Y-4.28
X2.12Y-4.38
T6
X2.115Y-4.61
X2.115Y-4.71
X2.115Y-4.81
X3.Y-4.385
X3.1Y-4.385
X3.2Y-4.385
X2.34Y-4.25
X2.44Y-4.25
X2.54Y-4.25
T7
X3.03Y-3.16
X3.53Y-3.16
T0
M30
