  0
SECTION
  2
HEADER
  9
$ANGBASE
  50
0.0
  9
$ANGDIR
  70
  1
  9
$MEASUREMENT
  70
0
  0
ENDSEC
  0
SECTION
  2
TABLES
  0
TABLE
  2
LTYPE
  70
4
  0
LTYPE
  5
40F
  2
CONTINUOUS
  70
0
  3
Solid line
  72
65
  73
0
  40
0.0
  0
LTYPE
  5
410
  2
DASHDOT
 70
0
  3
Dash Dot ____ _ ____ _
 72
65
 73
4
 40
2.0
 49
1.25
 49
-0.25
 49
0.25
 49
-0.25
  0
LTYPE
  5
411
  2
DASHED
 70
0
  3
Dashed __ __ __ __ __
 72
65
 73
2
 40
0.75
 49
0.5
 49
-0.25
  0
LTYPE
  5
43B
  2
DOTTED
 70
0
  3
Dotted .  .  .  .
 72
65
 73
2
 40
0.2
 49
0.0
 49
-0.2
  0
ENDTAB
  0
TABLE
  2
STYLE
  70
4
  0
STYLE
  2
KICAD
  70
0
  40
0
  41
1
  42
1
  50
0
  71
0
  3
isocp.shx
  0
STYLE
  2
KICADB
  70
0
  40
0
  41
1
  42
1
  50
0
  71
0
  3
isocp.shx
  0
STYLE
  2
KICADI
  70
0
  40
0
  41
1
  42
1
  50
15
  71
0
  3
isocp.shx
  0
STYLE
  2
KICADBI
  70
0
  40
0
  41
1
  42
1
  50
15
  71
0
  3
isocp.shx
  0
ENDTAB
  0
TABLE
  2
LAYER
  70
30
  0
LAYER
  2
BLACK
  70
0
  62
7
  6
CONTINUOUS
  0
LAYER
  2
GRAY1
  70
0
  62
251
  6
CONTINUOUS
  0
LAYER
  2
GRAY2
  70
0
  62
8
  6
CONTINUOUS
  0
LAYER
  2
GRAY3
  70
0
  62
9
  6
CONTINUOUS
  0
LAYER
  2
WHITE
  70
0
  62
7
  6
CONTINUOUS
  0
LAYER
  2
LYELLOW
  70
0
  62
51
  6
CONTINUOUS
  0
LAYER
  2
BLUE1
  70
0
  62
178
  6
CONTINUOUS
  0
LAYER
  2
GREEN1
  70
0
  62
98
  6
CONTINUOUS
  0
LAYER
  2
CYAN1
  70
0
  62
138
  6
CONTINUOUS
  0
LAYER
  2
RED1
  70
0
  62
18
  6
CONTINUOUS
  0
LAYER
  2
MAGENTA1
  70
0
  62
228
  6
CONTINUOUS
  0
LAYER
  2
BROWN1
  70
0
  62
58
  6
CONTINUOUS
  0
LAYER
  2
BLUE2
  70
0
  62
5
  6
CONTINUOUS
  0
LAYER
  2
GREEN2
  70
0
  62
3
  6
CONTINUOUS
  0
LAYER
  2
CYAN2
  70
0
  62
4
  6
CONTINUOUS
  0
LAYER
  2
RED2
  70
0
  62
1
  6
CONTINUOUS
  0
LAYER
  2
MAGENTA2
  70
0
  62
6
  6
CONTINUOUS
  0
LAYER
  2
BROWN2
  70
0
  62
54
  6
CONTINUOUS
  0
LAYER
  2
BLUE3
  70
0
  62
171
  6
CONTINUOUS
  0
LAYER
  2
GREEN3
  70
0
  62
91
  6
CONTINUOUS
  0
LAYER
  2
CYAN3
  70
0
  62
131
  6
CONTINUOUS
  0
LAYER
  2
RED3
  70
0
  62
11
  6
CONTINUOUS
  0
LAYER
  2
MAGENTA3
  70
0
  62
221
  6
CONTINUOUS
  0
LAYER
  2
YELLOW3
  70
0
  62
2
  6
CONTINUOUS
  0
LAYER
  2
BLUE4
  70
0
  62
5
  6
CONTINUOUS
  0
LAYER
  2
GREEN4
  70
0
  62
3
  6
CONTINUOUS
  0
LAYER
  2
CYAN4
  70
0
  62
4
  6
CONTINUOUS
  0
LAYER
  2
RED4
  70
0
  62
1
  6
CONTINUOUS
  0
LAYER
  2
MAGENTA4
  70
0
  62
6
  6
CONTINUOUS
  0
LAYER
  2
YELLOW4
  70
0
  62
2
  6
CONTINUOUS
  0
ENDTAB
  0
ENDSEC
  0
SECTION
  2
ENTITIES
0
LINE
8
BLACK
6
CONTINUOUS
10
232.546
20
-126.684
11
232.552
21
-126.684
0
LINE
8
BLACK
6
CONTINUOUS
10
232.552
20
-126.684
11
232.558
21
-126.686
0
LINE
8
BLACK
6
CONTINUOUS
10
232.558
20
-126.686
11
232.565
21
-126.687
0
LINE
8
BLACK
6
CONTINUOUS
10
232.565
20
-126.687
11
232.57
21
-126.69
0
LINE
8
BLACK
6
CONTINUOUS
10
232.57
20
-126.69
11
232.577
21
-126.692
0
LINE
8
BLACK
6
CONTINUOUS
10
232.577
20
-126.692
11
232.582
21
-126.697
0
LINE
8
BLACK
6
CONTINUOUS
10
232.582
20
-126.697
11
232.587
21
-126.7
0
LINE
8
BLACK
6
CONTINUOUS
10
232.587
20
-126.7
11
232.591
21
-126.705
0
LINE
8
BLACK
6
CONTINUOUS
10
232.591
20
-126.705
11
232.596
21
-126.709
0
LINE
8
BLACK
6
CONTINUOUS
10
232.596
20
-126.709
11
232.6
21
-126.715
0
LINE
8
BLACK
6
CONTINUOUS
10
232.6
20
-126.715
11
232.604
21
-126.72
0
LINE
8
BLACK
6
CONTINUOUS
10
232.604
20
-126.72
11
232.606
21
-126.726
0
LINE
8
BLACK
6
CONTINUOUS
10
232.606
20
-126.726
11
232.61
21
-126.732
0
LINE
8
BLACK
6
CONTINUOUS
10
232.61
20
-126.732
11
232.611
21
-126.738
0
LINE
8
BLACK
6
CONTINUOUS
10
232.611
20
-126.738
11
232.613
21
-126.744
0
LINE
8
BLACK
6
CONTINUOUS
10
232.613
20
-126.744
11
232.613
21
-126.751
0
LINE
8
BLACK
6
CONTINUOUS
10
232.613
20
-126.751
11
232.614
21
-126.757
0
LINE
8
BLACK
6
CONTINUOUS
10
232.614
20
-126.757
11
232.614
21
-127.757
0
LINE
8
BLACK
6
CONTINUOUS
10
232.614
20
-127.757
11
232.613
21
-127.764
0
LINE
8
BLACK
6
CONTINUOUS
10
232.613
20
-127.764
11
232.613
21
-127.77
0
LINE
8
BLACK
6
CONTINUOUS
10
232.613
20
-127.77
11
232.611
21
-127.777
0
LINE
8
BLACK
6
CONTINUOUS
10
232.611
20
-127.777
11
232.61
21
-127.783
0
LINE
8
BLACK
6
CONTINUOUS
10
232.61
20
-127.783
11
232.606
21
-127.789
0
LINE
8
BLACK
6
CONTINUOUS
10
232.606
20
-127.789
11
232.604
21
-127.795
0
LINE
8
BLACK
6
CONTINUOUS
10
232.604
20
-127.795
11
232.6
21
-127.8
0
LINE
8
BLACK
6
CONTINUOUS
10
232.6
20
-127.8
11
232.596
21
-127.806
0
LINE
8
BLACK
6
CONTINUOUS
10
232.596
20
-127.806
11
232.591
21
-127.81
0
LINE
8
BLACK
6
CONTINUOUS
10
232.591
20
-127.81
11
232.587
21
-127.815
0
LINE
8
BLACK
6
CONTINUOUS
10
232.587
20
-127.815
11
232.582
21
-127.818
0
LINE
8
BLACK
6
CONTINUOUS
10
232.582
20
-127.818
11
232.577
21
-127.822
0
LINE
8
BLACK
6
CONTINUOUS
10
232.577
20
-127.822
11
232.57
21
-127.825
0
LINE
8
BLACK
6
CONTINUOUS
10
232.57
20
-127.825
11
232.565
21
-127.828
0
LINE
8
BLACK
6
CONTINUOUS
10
232.565
20
-127.828
11
232.558
21
-127.829
0
LINE
8
BLACK
6
CONTINUOUS
10
232.558
20
-127.829
11
232.552
21
-127.831
0
LINE
8
BLACK
6
CONTINUOUS
10
232.552
20
-127.831
11
232.546
21
-127.831
0
LINE
8
BLACK
6
CONTINUOUS
10
232.546
20
-127.831
11
232.539
21
-127.832
0
LINE
8
BLACK
6
CONTINUOUS
10
232.539
20
-127.832
11
232.158
21
-127.832
0
LINE
8
BLACK
6
CONTINUOUS
10
232.158
20
-127.832
11
232.154
21
-127.832
0
LINE
8
BLACK
6
CONTINUOUS
10
232.154
20
-127.832
11
232.15
21
-127.832
0
LINE
8
BLACK
6
CONTINUOUS
10
232.15
20
-127.832
11
232.141
21
-127.829
0
LINE
8
BLACK
6
CONTINUOUS
10
232.141
20
-127.829
11
232.132
21
-127.828
0
LINE
8
BLACK
6
CONTINUOUS
10
232.132
20
-127.828
11
232.129
21
-127.826
0
LINE
8
BLACK
6
CONTINUOUS
10
232.129
20
-127.826
11
232.125
21
-127.824
0
LINE
8
BLACK
6
CONTINUOUS
10
232.125
20
-127.824
11
232.029
21
-127.777
0
LINE
8
BLACK
6
CONTINUOUS
10
232.029
20
-127.777
11
232.02
21
-127.77
0
LINE
8
BLACK
6
CONTINUOUS
10
232.02
20
-127.77
11
232.01
21
-127.763
0
LINE
8
BLACK
6
CONTINUOUS
10
232.01
20
-127.763
11
231.962
21
-127.715
0
LINE
8
BLACK
6
CONTINUOUS
10
231.962
20
-127.715
11
231.955
21
-127.705
0
LINE
8
BLACK
6
CONTINUOUS
10
231.955
20
-127.705
11
231.948
21
-127.696
0
LINE
8
BLACK
6
CONTINUOUS
10
231.948
20
-127.696
11
231.901
21
-127.6
0
LINE
8
BLACK
6
CONTINUOUS
10
231.901
20
-127.6
11
231.899
21
-127.596
0
LINE
8
BLACK
6
CONTINUOUS
10
231.899
20
-127.596
11
231.897
21
-127.593
0
LINE
8
BLACK
6
CONTINUOUS
10
231.897
20
-127.593
11
231.896
21
-127.584
0
LINE
8
BLACK
6
CONTINUOUS
10
231.896
20
-127.584
11
231.893
21
-127.575
0
LINE
8
BLACK
6
CONTINUOUS
10
231.893
20
-127.575
11
231.893
21
-127.571
0
LINE
8
BLACK
6
CONTINUOUS
10
231.893
20
-127.571
11
231.893
21
-127.567
0
LINE
8
BLACK
6
CONTINUOUS
10
231.893
20
-127.567
11
231.893
21
-127.424
0
LINE
8
BLACK
6
CONTINUOUS
10
231.893
20
-127.424
11
231.893
21
-127.42
0
LINE
8
BLACK
6
CONTINUOUS
10
231.893
20
-127.42
11
231.893
21
-127.415
0
LINE
8
BLACK
6
CONTINUOUS
10
231.893
20
-127.415
11
231.896
21
-127.407
0
LINE
8
BLACK
6
CONTINUOUS
10
231.896
20
-127.407
11
231.897
21
-127.398
0
LINE
8
BLACK
6
CONTINUOUS
10
231.897
20
-127.398
11
231.899
21
-127.395
0
LINE
8
BLACK
6
CONTINUOUS
10
231.899
20
-127.395
11
231.901
21
-127.391
0
LINE
8
BLACK
6
CONTINUOUS
10
231.901
20
-127.391
11
231.948
21
-127.295
0
LINE
8
BLACK
6
CONTINUOUS
10
231.948
20
-127.295
11
231.955
21
-127.286
0
LINE
8
BLACK
6
CONTINUOUS
10
231.955
20
-127.286
11
231.962
21
-127.276
0
LINE
8
BLACK
6
CONTINUOUS
10
231.962
20
-127.276
11
232.01
21
-127.228
0
LINE
8
BLACK
6
CONTINUOUS
10
232.01
20
-127.228
11
232.013
21
-127.226
0
LINE
8
BLACK
6
CONTINUOUS
10
232.013
20
-127.226
11
232.016
21
-127.222
0
LINE
8
BLACK
6
CONTINUOUS
10
232.016
20
-127.222
11
232.024
21
-127.218
0
LINE
8
BLACK
6
CONTINUOUS
10
232.024
20
-127.218
11
232.031
21
-127.213
0
LINE
8
BLACK
6
CONTINUOUS
10
232.031
20
-127.213
11
232.032
21
-127.213
0
LINE
8
BLACK
6
CONTINUOUS
10
232.032
20
-127.213
11
232.01
21
-127.191
0
LINE
8
BLACK
6
CONTINUOUS
10
232.01
20
-127.191
11
232.003
21
-127.182
0
LINE
8
BLACK
6
CONTINUOUS
10
232.003
20
-127.182
11
231.996
21
-127.172
0
LINE
8
BLACK
6
CONTINUOUS
10
231.996
20
-127.172
11
231.948
21
-127.077
0
LINE
8
BLACK
6
CONTINUOUS
10
231.948
20
-127.077
11
231.947
21
-127.072
0
LINE
8
BLACK
6
CONTINUOUS
10
231.947
20
-127.072
11
231.945
21
-127.069
0
LINE
8
BLACK
6
CONTINUOUS
10
231.945
20
-127.069
11
231.943
21
-127.06
0
LINE
8
BLACK
6
CONTINUOUS
10
231.943
20
-127.06
11
231.941
21
-127.052
0
LINE
8
BLACK
6
CONTINUOUS
10
231.941
20
-127.052
11
231.941
21
-127.047
0
LINE
8
BLACK
6
CONTINUOUS
10
231.941
20
-127.047
11
231.94
21
-127.043
0
LINE
8
BLACK
6
CONTINUOUS
10
231.94
20
-127.043
11
231.94
21
-126.948
0
LINE
8
BLACK
6
CONTINUOUS
10
231.94
20
-126.948
11
231.941
21
-126.944
0
LINE
8
BLACK
6
CONTINUOUS
10
231.941
20
-126.944
11
231.941
21
-126.939
0
LINE
8
BLACK
6
CONTINUOUS
10
231.941
20
-126.939
11
231.943
21
-126.931
0
LINE
8
BLACK
6
CONTINUOUS
10
231.943
20
-126.931
11
231.945
21
-126.922
0
LINE
8
BLACK
6
CONTINUOUS
10
231.945
20
-126.922
11
231.947
21
-126.918
0
LINE
8
BLACK
6
CONTINUOUS
10
231.947
20
-126.918
11
231.948
21
-126.914
0
LINE
8
BLACK
6
CONTINUOUS
10
231.948
20
-126.914
11
231.996
21
-126.819
0
LINE
8
BLACK
6
CONTINUOUS
10
231.996
20
-126.819
11
232.003
21
-126.809
0
LINE
8
BLACK
6
CONTINUOUS
10
232.003
20
-126.809
11
232.01
21
-126.8
0
LINE
8
BLACK
6
CONTINUOUS
10
232.01
20
-126.8
11
232.057
21
-126.752
0
LINE
8
BLACK
6
CONTINUOUS
10
232.057
20
-126.752
11
232.067
21
-126.745
0
LINE
8
BLACK
6
CONTINUOUS
10
232.067
20
-126.745
11
232.077
21
-126.738
0
LINE
8
BLACK
6
CONTINUOUS
10
232.077
20
-126.738
11
232.172
21
-126.69
0
LINE
8
BLACK
6
CONTINUOUS
10
232.172
20
-126.69
11
232.176
21
-126.689
0
LINE
8
BLACK
6
CONTINUOUS
10
232.176
20
-126.689
11
232.18
21
-126.687
0
LINE
8
BLACK
6
CONTINUOUS
10
232.18
20
-126.687
11
232.189
21
-126.685
0
LINE
8
BLACK
6
CONTINUOUS
10
232.189
20
-126.685
11
232.197
21
-126.683
0
LINE
8
BLACK
6
CONTINUOUS
10
232.197
20
-126.683
11
232.201
21
-126.683
0
LINE
8
BLACK
6
CONTINUOUS
10
232.201
20
-126.683
11
232.206
21
-126.682
0
LINE
8
BLACK
6
CONTINUOUS
10
232.206
20
-126.682
11
232.539
21
-126.682
0
LINE
8
BLACK
6
CONTINUOUS
10
232.539
20
-126.682
11
232.546
21
-126.684
0
LINE
8
BLACK
6
CONTINUOUS
10
232.218
20
-127.309
11
232.103
21
-127.347
0
LINE
8
BLACK
6
CONTINUOUS
10
232.103
20
-127.347
11
232.077
21
-127.373
0
LINE
8
BLACK
6
CONTINUOUS
10
232.077
20
-127.373
11
232.043
21
-127.442
0
LINE
8
BLACK
6
CONTINUOUS
10
232.043
20
-127.442
11
232.043
21
-127.549
0
LINE
8
BLACK
6
CONTINUOUS
10
232.043
20
-127.549
11
232.077
21
-127.618
0
LINE
8
BLACK
6
CONTINUOUS
10
232.077
20
-127.618
11
232.107
21
-127.648
0
LINE
8
BLACK
6
CONTINUOUS
10
232.107
20
-127.648
11
232.176
21
-127.682
0
LINE
8
BLACK
6
CONTINUOUS
10
232.176
20
-127.682
11
232.464
21
-127.682
0
LINE
8
BLACK
6
CONTINUOUS
10
232.464
20
-127.682
11
232.464
21
-127.309
0
LINE
8
BLACK
6
CONTINUOUS
10
232.464
20
-127.309
11
232.218
21
-127.309
0
LINE
8
BLACK
6
CONTINUOUS
10
232.223
20
-126.832
11
232.155
21
-126.867
0
LINE
8
BLACK
6
CONTINUOUS
10
232.155
20
-126.867
11
232.124
21
-126.897
0
LINE
8
BLACK
6
CONTINUOUS
10
232.124
20
-126.897
11
232.09
21
-126.966
0
LINE
8
BLACK
6
CONTINUOUS
10
232.09
20
-126.966
11
232.09
21
-127.025
0
LINE
8
BLACK
6
CONTINUOUS
10
232.09
20
-127.025
11
232.124
21
-127.094
0
LINE
8
BLACK
6
CONTINUOUS
10
232.124
20
-127.094
11
232.155
21
-127.124
0
LINE
8
BLACK
6
CONTINUOUS
10
232.155
20
-127.124
11
232.223
21
-127.159
0
LINE
8
BLACK
6
CONTINUOUS
10
232.223
20
-127.159
11
232.464
21
-127.159
0
LINE
8
BLACK
6
CONTINUOUS
10
232.464
20
-127.159
11
232.464
21
-126.832
0
LINE
8
BLACK
6
CONTINUOUS
10
232.464
20
-126.832
11
232.223
21
-126.832
0
LINE
8
BLACK
6
CONTINUOUS
10
230.543
20
-126.684
11
230.552
21
-126.684
0
LINE
8
BLACK
6
CONTINUOUS
10
230.552
20
-126.684
11
230.556
21
-126.685
0
LINE
8
BLACK
6
CONTINUOUS
10
230.556
20
-126.685
11
230.56
21
-126.685
0
LINE
8
BLACK
6
CONTINUOUS
10
230.56
20
-126.685
11
230.568
21
-126.689
0
LINE
8
BLACK
6
CONTINUOUS
10
230.568
20
-126.689
11
230.577
21
-126.692
0
LINE
8
BLACK
6
CONTINUOUS
10
230.577
20
-126.692
11
230.58
21
-126.695
0
LINE
8
BLACK
6
CONTINUOUS
10
230.58
20
-126.695
11
230.583
21
-126.697
0
LINE
8
BLACK
6
CONTINUOUS
10
230.583
20
-126.697
11
230.59
21
-126.703
0
LINE
8
BLACK
6
CONTINUOUS
10
230.59
20
-126.703
11
230.596
21
-126.709
0
LINE
8
BLACK
6
CONTINUOUS
10
230.596
20
-126.709
11
230.599
21
-126.713
0
LINE
8
BLACK
6
CONTINUOUS
10
230.599
20
-126.713
11
230.601
21
-126.716
0
LINE
8
BLACK
6
CONTINUOUS
10
230.601
20
-126.716
11
230.693
21
-126.852
0
LINE
8
BLACK
6
CONTINUOUS
10
230.693
20
-126.852
11
230.774
21
-126.934
0
LINE
8
BLACK
6
CONTINUOUS
10
230.774
20
-126.934
11
230.858
21
-126.976
0
LINE
8
BLACK
6
CONTINUOUS
10
230.858
20
-126.976
11
230.879
21
-126.992
0
LINE
8
BLACK
6
CONTINUOUS
10
230.879
20
-126.992
11
230.894
21
-127.013
0
LINE
8
BLACK
6
CONTINUOUS
10
230.894
20
-127.013
11
230.9
21
-127.039
0
LINE
8
BLACK
6
CONTINUOUS
10
230.9
20
-127.039
11
230.897
21
-127.064
0
LINE
8
BLACK
6
CONTINUOUS
10
230.897
20
-127.064
11
230.885
21
-127.088
0
LINE
8
BLACK
6
CONTINUOUS
10
230.885
20
-127.088
11
230.866
21
-127.106
0
LINE
8
BLACK
6
CONTINUOUS
10
230.866
20
-127.106
11
230.842
21
-127.116
0
LINE
8
BLACK
6
CONTINUOUS
10
230.842
20
-127.116
11
230.816
21
-127.118
0
LINE
8
BLACK
6
CONTINUOUS
10
230.816
20
-127.118
11
230.791
21
-127.11
0
LINE
8
BLACK
6
CONTINUOUS
10
230.791
20
-127.11
11
230.696
21
-127.063
0
LINE
8
BLACK
6
CONTINUOUS
10
230.696
20
-127.063
11
230.686
21
-127.055
0
LINE
8
BLACK
6
CONTINUOUS
10
230.686
20
-127.055
11
230.676
21
-127.049
0
LINE
8
BLACK
6
CONTINUOUS
10
230.676
20
-127.049
11
230.614
21
-126.986
0
LINE
8
BLACK
6
CONTINUOUS
10
230.614
20
-126.986
11
230.614
21
-127.682
0
LINE
8
BLACK
6
CONTINUOUS
10
230.614
20
-127.682
11
230.825
21
-127.682
0
LINE
8
BLACK
6
CONTINUOUS
10
230.825
20
-127.682
11
230.85
21
-127.687
0
LINE
8
BLACK
6
CONTINUOUS
10
230.85
20
-127.687
11
230.873
21
-127.7
0
LINE
8
BLACK
6
CONTINUOUS
10
230.873
20
-127.7
11
230.89
21
-127.72
0
LINE
8
BLACK
6
CONTINUOUS
10
230.89
20
-127.72
11
230.899
21
-127.744
0
LINE
8
BLACK
6
CONTINUOUS
10
230.899
20
-127.744
11
230.899
21
-127.77
0
LINE
8
BLACK
6
CONTINUOUS
10
230.899
20
-127.77
11
230.89
21
-127.795
0
LINE
8
BLACK
6
CONTINUOUS
10
230.89
20
-127.795
11
230.873
21
-127.815
0
LINE
8
BLACK
6
CONTINUOUS
10
230.873
20
-127.815
11
230.85
21
-127.828
0
LINE
8
BLACK
6
CONTINUOUS
10
230.85
20
-127.828
11
230.825
21
-127.832
0
LINE
8
BLACK
6
CONTINUOUS
10
230.825
20
-127.832
11
230.253
21
-127.832
0
LINE
8
BLACK
6
CONTINUOUS
10
230.253
20
-127.832
11
230.228
21
-127.828
0
LINE
8
BLACK
6
CONTINUOUS
10
230.228
20
-127.828
11
230.205
21
-127.815
0
LINE
8
BLACK
6
CONTINUOUS
10
230.205
20
-127.815
11
230.188
21
-127.795
0
LINE
8
BLACK
6
CONTINUOUS
10
230.188
20
-127.795
11
230.179
21
-127.77
0
LINE
8
BLACK
6
CONTINUOUS
10
230.179
20
-127.77
11
230.179
21
-127.744
0
LINE
8
BLACK
6
CONTINUOUS
10
230.179
20
-127.744
11
230.188
21
-127.72
0
LINE
8
BLACK
6
CONTINUOUS
10
230.188
20
-127.72
11
230.205
21
-127.7
0
LINE
8
BLACK
6
CONTINUOUS
10
230.205
20
-127.7
11
230.228
21
-127.687
0
LINE
8
BLACK
6
CONTINUOUS
10
230.228
20
-127.687
11
230.253
21
-127.682
0
LINE
8
BLACK
6
CONTINUOUS
10
230.253
20
-127.682
11
230.464
21
-127.682
0
LINE
8
BLACK
6
CONTINUOUS
10
230.464
20
-127.682
11
230.464
21
-126.757
0
LINE
8
BLACK
6
CONTINUOUS
10
230.464
20
-126.757
11
230.465
21
-126.753
0
LINE
8
BLACK
6
CONTINUOUS
10
230.465
20
-126.753
11
230.465
21
-126.749
0
LINE
8
BLACK
6
CONTINUOUS
10
230.465
20
-126.749
11
230.467
21
-126.741
0
LINE
8
BLACK
6
CONTINUOUS
10
230.467
20
-126.741
11
230.469
21
-126.732
0
LINE
8
BLACK
6
CONTINUOUS
10
230.469
20
-126.732
11
230.471
21
-126.728
0
LINE
8
BLACK
6
CONTINUOUS
10
230.471
20
-126.728
11
230.472
21
-126.724
0
LINE
8
BLACK
6
CONTINUOUS
10
230.472
20
-126.724
11
230.477
21
-126.717
0
LINE
8
BLACK
6
CONTINUOUS
10
230.477
20
-126.717
11
230.482
21
-126.709
0
LINE
8
BLACK
6
CONTINUOUS
10
230.482
20
-126.709
11
230.485
21
-126.706
0
LINE
8
BLACK
6
CONTINUOUS
10
230.485
20
-126.706
11
230.487
21
-126.703
0
LINE
8
BLACK
6
CONTINUOUS
10
230.487
20
-126.703
11
230.495
21
-126.698
0
LINE
8
BLACK
6
CONTINUOUS
10
230.495
20
-126.698
11
230.502
21
-126.692
0
LINE
8
BLACK
6
CONTINUOUS
10
230.502
20
-126.692
11
230.505
21
-126.691
0
LINE
8
BLACK
6
CONTINUOUS
10
230.505
20
-126.691
11
230.509
21
-126.689
0
LINE
8
BLACK
6
CONTINUOUS
10
230.509
20
-126.689
11
230.518
21
-126.687
0
LINE
8
BLACK
6
CONTINUOUS
10
230.518
20
-126.687
11
230.526
21
-126.684
0
LINE
8
BLACK
6
CONTINUOUS
10
230.526
20
-126.684
11
230.53
21
-126.684
0
LINE
8
BLACK
6
CONTINUOUS
10
230.53
20
-126.684
11
230.534
21
-126.683
0
LINE
8
BLACK
6
CONTINUOUS
10
230.534
20
-126.683
11
230.543
21
-126.684
0
LINE
8
BLACK
6
CONTINUOUS
10
231.708
20
-126.687
11
231.73
21
-126.7
0
LINE
8
BLACK
6
CONTINUOUS
10
231.73
20
-126.7
11
231.747
21
-126.72
0
LINE
8
BLACK
6
CONTINUOUS
10
231.747
20
-126.72
11
231.756
21
-126.744
0
LINE
8
BLACK
6
CONTINUOUS
10
231.756
20
-126.744
11
231.756
21
-126.77
0
LINE
8
BLACK
6
CONTINUOUS
10
231.756
20
-126.77
11
231.747
21
-126.795
0
LINE
8
BLACK
6
CONTINUOUS
10
231.747
20
-126.795
11
231.73
21
-126.815
0
LINE
8
BLACK
6
CONTINUOUS
10
231.73
20
-126.815
11
231.708
21
-126.828
0
LINE
8
BLACK
6
CONTINUOUS
10
231.708
20
-126.828
11
231.682
21
-126.832
0
LINE
8
BLACK
6
CONTINUOUS
10
231.682
20
-126.832
11
231.471
21
-126.832
0
LINE
8
BLACK
6
CONTINUOUS
10
231.471
20
-126.832
11
231.471
21
-127.757
0
LINE
8
BLACK
6
CONTINUOUS
10
231.471
20
-127.757
11
231.467
21
-127.783
0
LINE
8
BLACK
6
CONTINUOUS
10
231.467
20
-127.783
11
231.454
21
-127.806
0
LINE
8
BLACK
6
CONTINUOUS
10
231.454
20
-127.806
11
231.434
21
-127.822
0
LINE
8
BLACK
6
CONTINUOUS
10
231.434
20
-127.822
11
231.409
21
-127.831
0
LINE
8
BLACK
6
CONTINUOUS
10
231.409
20
-127.831
11
231.383
21
-127.831
0
LINE
8
BLACK
6
CONTINUOUS
10
231.383
20
-127.831
11
231.359
21
-127.822
0
LINE
8
BLACK
6
CONTINUOUS
10
231.359
20
-127.822
11
231.339
21
-127.806
0
LINE
8
BLACK
6
CONTINUOUS
10
231.339
20
-127.806
11
231.326
21
-127.783
0
LINE
8
BLACK
6
CONTINUOUS
10
231.326
20
-127.783
11
231.321
21
-127.757
0
LINE
8
BLACK
6
CONTINUOUS
10
231.321
20
-127.757
11
231.321
21
-126.832
0
LINE
8
BLACK
6
CONTINUOUS
10
231.321
20
-126.832
11
231.11
21
-126.832
0
LINE
8
BLACK
6
CONTINUOUS
10
231.11
20
-126.832
11
231.085
21
-126.828
0
LINE
8
BLACK
6
CONTINUOUS
10
231.085
20
-126.828
11
231.062
21
-126.815
0
LINE
8
BLACK
6
CONTINUOUS
10
231.062
20
-126.815
11
231.046
21
-126.795
0
LINE
8
BLACK
6
CONTINUOUS
10
231.046
20
-126.795
11
231.037
21
-126.77
0
LINE
8
BLACK
6
CONTINUOUS
10
231.037
20
-126.77
11
231.037
21
-126.744
0
LINE
8
BLACK
6
CONTINUOUS
10
231.037
20
-126.744
11
231.046
21
-126.72
0
LINE
8
BLACK
6
CONTINUOUS
10
231.046
20
-126.72
11
231.062
21
-126.7
0
LINE
8
BLACK
6
CONTINUOUS
10
231.062
20
-126.7
11
231.085
21
-126.687
0
LINE
8
BLACK
6
CONTINUOUS
10
231.085
20
-126.687
11
231.11
21
-126.682
0
LINE
8
BLACK
6
CONTINUOUS
10
231.11
20
-126.682
11
231.682
21
-126.682
0
LINE
8
BLACK
6
CONTINUOUS
10
231.682
20
-126.682
11
231.708
21
-126.687
0
LINE
8
BLACK
6
CONTINUOUS
10
258.655
20
-94.365
11
258.661
21
-94.365
0
LINE
8
BLACK
6
CONTINUOUS
10
258.661
20
-94.365
11
258.666
21
-94.3668
0
LINE
8
BLACK
6
CONTINUOUS
10
258.666
20
-94.3668
11
258.671
21
-94.3677
0
LINE
8
BLACK
6
CONTINUOUS
10
258.671
20
-94.3677
11
258.675
21
-94.3704
0
LINE
8
BLACK
6
CONTINUOUS
10
258.675
20
-94.3704
11
258.68
21
-94.3722
0
LINE
8
BLACK
6
CONTINUOUS
10
258.68
20
-94.3722
11
258.685
21
-94.3757
0
LINE
8
BLACK
6
CONTINUOUS
10
258.685
20
-94.3757
11
258.689
21
-94.3783
0
LINE
8
BLACK
6
CONTINUOUS
10
258.689
20
-94.3783
11
258.693
21
-94.3824
0
LINE
8
BLACK
6
CONTINUOUS
10
258.693
20
-94.3824
11
258.697
21
-94.3858
0
LINE
8
BLACK
6
CONTINUOUS
10
258.697
20
-94.3858
11
258.699
21
-94.3905
0
LINE
8
BLACK
6
CONTINUOUS
10
258.699
20
-94.3905
11
258.703
21
-94.3945
0
LINE
8
BLACK
6
CONTINUOUS
10
258.703
20
-94.3945
11
258.705
21
-94.3995
0
LINE
8
BLACK
6
CONTINUOUS
10
258.705
20
-94.3995
11
258.707
21
-94.4042
0
LINE
8
BLACK
6
CONTINUOUS
10
258.707
20
-94.4042
11
258.708
21
-94.4094
0
LINE
8
BLACK
6
CONTINUOUS
10
258.708
20
-94.4094
11
258.71
21
-94.4144
0
LINE
8
BLACK
6
CONTINUOUS
10
258.71
20
-94.4144
11
258.71
21
-94.4197
0
LINE
8
BLACK
6
CONTINUOUS
10
258.71
20
-94.4197
11
258.71
21
-94.4198
0
LINE
8
BLACK
6
CONTINUOUS
10
258.71
20
-94.4198
11
258.71
21
-124.63
0
LINE
8
BLACK
6
CONTINUOUS
10
258.71
20
-124.63
11
258.71
21
-124.63
0
LINE
8
BLACK
6
CONTINUOUS
10
258.71
20
-124.63
11
258.71
21
-124.636
0
LINE
8
BLACK
6
CONTINUOUS
10
258.71
20
-124.636
11
258.708
21
-124.641
0
LINE
8
BLACK
6
CONTINUOUS
10
258.708
20
-124.641
11
258.707
21
-124.646
0
LINE
8
BLACK
6
CONTINUOUS
10
258.707
20
-124.646
11
258.705
21
-124.65
0
LINE
8
BLACK
6
CONTINUOUS
10
258.705
20
-124.65
11
258.703
21
-124.655
0
LINE
8
BLACK
6
CONTINUOUS
10
258.703
20
-124.655
11
258.699
21
-124.66
0
LINE
8
BLACK
6
CONTINUOUS
10
258.699
20
-124.66
11
258.697
21
-124.664
0
LINE
8
BLACK
6
CONTINUOUS
10
258.697
20
-124.664
11
258.693
21
-124.668
0
LINE
8
BLACK
6
CONTINUOUS
10
258.693
20
-124.668
11
258.689
21
-124.672
0
LINE
8
BLACK
6
CONTINUOUS
10
258.689
20
-124.672
11
258.685
21
-124.674
0
LINE
8
BLACK
6
CONTINUOUS
10
258.685
20
-124.674
11
258.68
21
-124.678
0
LINE
8
BLACK
6
CONTINUOUS
10
258.68
20
-124.678
11
258.675
21
-124.68
0
LINE
8
BLACK
6
CONTINUOUS
10
258.675
20
-124.68
11
258.671
21
-124.682
0
LINE
8
BLACK
6
CONTINUOUS
10
258.671
20
-124.682
11
258.666
21
-124.683
0
LINE
8
BLACK
6
CONTINUOUS
10
258.666
20
-124.683
11
258.661
21
-124.685
0
LINE
8
BLACK
6
CONTINUOUS
10
258.661
20
-124.685
11
258.655
21
-124.685
0
LINE
8
BLACK
6
CONTINUOUS
10
258.655
20
-124.685
11
258.655
21
-124.685
0
LINE
8
BLACK
6
CONTINUOUS
10
258.655
20
-124.685
11
204.145
21
-124.685
0
LINE
8
BLACK
6
CONTINUOUS
10
204.145
20
-124.685
11
204.145
21
-124.685
0
LINE
8
BLACK
6
CONTINUOUS
10
204.145
20
-124.685
11
204.139
21
-124.685
0
LINE
8
BLACK
6
CONTINUOUS
10
204.139
20
-124.685
11
204.134
21
-124.683
0
LINE
8
BLACK
6
CONTINUOUS
10
204.134
20
-124.683
11
204.129
21
-124.682
0
LINE
8
BLACK
6
CONTINUOUS
10
204.129
20
-124.682
11
204.125
21
-124.68
0
LINE
8
BLACK
6
CONTINUOUS
10
204.125
20
-124.68
11
204.12
21
-124.678
0
LINE
8
BLACK
6
CONTINUOUS
10
204.12
20
-124.678
11
204.115
21
-124.674
0
LINE
8
BLACK
6
CONTINUOUS
10
204.115
20
-124.674
11
204.111
21
-124.672
0
LINE
8
BLACK
6
CONTINUOUS
10
204.111
20
-124.672
11
204.107
21
-124.668
0
LINE
8
BLACK
6
CONTINUOUS
10
204.107
20
-124.668
11
204.103
21
-124.664
0
LINE
8
BLACK
6
CONTINUOUS
10
204.103
20
-124.664
11
204.101
21
-124.66
0
LINE
8
BLACK
6
CONTINUOUS
10
204.101
20
-124.66
11
204.097
21
-124.655
0
LINE
8
BLACK
6
CONTINUOUS
10
204.097
20
-124.655
11
204.095
21
-124.65
0
LINE
8
BLACK
6
CONTINUOUS
10
204.095
20
-124.65
11
204.093
21
-124.646
0
LINE
8
BLACK
6
CONTINUOUS
10
204.093
20
-124.646
11
204.092
21
-124.641
0
LINE
8
BLACK
6
CONTINUOUS
10
204.092
20
-124.641
11
204.09
21
-124.636
0
LINE
8
BLACK
6
CONTINUOUS
10
204.09
20
-124.636
11
204.09
21
-124.614
0
LINE
8
BLACK
6
CONTINUOUS
10
204.09
20
-124.614
11
204.09
21
-94.4198
0
LINE
8
BLACK
6
CONTINUOUS
10
204.09
20
-94.4198
11
204.09
21
-94.4197
0
LINE
8
BLACK
6
CONTINUOUS
10
204.09
20
-94.4197
11
204.09
21
-94.4144
0
LINE
8
BLACK
6
CONTINUOUS
10
204.09
20
-94.4144
11
204.092
21
-94.4094
0
LINE
8
BLACK
6
CONTINUOUS
10
204.092
20
-94.4094
11
204.093
21
-94.4042
0
LINE
8
BLACK
6
CONTINUOUS
10
204.093
20
-94.4042
11
204.095
21
-94.3995
0
LINE
8
BLACK
6
CONTINUOUS
10
204.095
20
-94.3995
11
204.097
21
-94.3945
0
LINE
8
BLACK
6
CONTINUOUS
10
204.097
20
-94.3945
11
204.101
21
-94.3905
0
LINE
8
BLACK
6
CONTINUOUS
10
204.101
20
-94.3905
11
204.103
21
-94.3858
0
LINE
8
BLACK
6
CONTINUOUS
10
204.103
20
-94.3858
11
204.107
21
-94.3824
0
LINE
8
BLACK
6
CONTINUOUS
10
204.107
20
-94.3824
11
204.111
21
-94.3783
0
LINE
8
BLACK
6
CONTINUOUS
10
204.111
20
-94.3783
11
204.115
21
-94.3757
0
LINE
8
BLACK
6
CONTINUOUS
10
204.115
20
-94.3757
11
204.12
21
-94.3722
0
LINE
8
BLACK
6
CONTINUOUS
10
204.12
20
-94.3722
11
204.125
21
-94.3704
0
LINE
8
BLACK
6
CONTINUOUS
10
204.125
20
-94.3704
11
204.129
21
-94.3677
0
LINE
8
BLACK
6
CONTINUOUS
10
204.129
20
-94.3677
11
204.134
21
-94.3668
0
LINE
8
BLACK
6
CONTINUOUS
10
204.134
20
-94.3668
11
204.139
21
-94.365
0
LINE
8
BLACK
6
CONTINUOUS
10
204.139
20
-94.365
11
204.145
21
-94.365
0
LINE
8
BLACK
6
CONTINUOUS
10
204.145
20
-94.365
11
204.145
21
-94.365
0
LINE
8
BLACK
6
CONTINUOUS
10
204.145
20
-94.365
11
258.655
21
-94.365
0
LINE
8
BLACK
6
CONTINUOUS
10
258.655
20
-94.365
11
258.655
21
-94.365
0
LINE
8
BLACK
6
CONTINUOUS
10
204.21
20
-94.485
11
204.21
21
-124.565
0
LINE
8
BLACK
6
CONTINUOUS
10
204.21
20
-124.565
11
258.59
21
-124.565
0
LINE
8
BLACK
6
CONTINUOUS
10
258.59
20
-124.565
11
258.59
21
-94.485
0
LINE
8
BLACK
6
CONTINUOUS
10
258.59
20
-94.485
11
204.21
21
-94.485
0
LINE
8
BLACK
6
CONTINUOUS
10
251.614
20
-89.7795
11
251.626
21
-89.7812
0
LINE
8
BLACK
6
CONTINUOUS
10
251.626
20
-89.7812
11
251.769
21
-89.8288
0
LINE
8
BLACK
6
CONTINUOUS
10
251.769
20
-89.8288
11
251.773
21
-89.8309
0
LINE
8
BLACK
6
CONTINUOUS
10
251.773
20
-89.8309
11
251.777
21
-89.832
0
LINE
8
BLACK
6
CONTINUOUS
10
251.777
20
-89.832
11
251.784
21
-89.8371
0
LINE
8
BLACK
6
CONTINUOUS
10
251.784
20
-89.8371
11
251.792
21
-89.8413
0
LINE
8
BLACK
6
CONTINUOUS
10
251.792
20
-89.8413
11
251.795
21
-89.8445
0
LINE
8
BLACK
6
CONTINUOUS
10
251.795
20
-89.8445
11
251.798
21
-89.847
0
LINE
8
BLACK
6
CONTINUOUS
10
251.798
20
-89.847
11
251.894
21
-89.9422
0
LINE
8
BLACK
6
CONTINUOUS
10
251.894
20
-89.9422
11
251.9
21
-89.952
0
LINE
8
BLACK
6
CONTINUOUS
10
251.9
20
-89.952
11
251.908
21
-89.9617
0
LINE
8
BLACK
6
CONTINUOUS
10
251.908
20
-89.9617
11
251.955
21
-90.0569
0
LINE
8
BLACK
6
CONTINUOUS
10
251.955
20
-90.0569
11
251.958
21
-90.0648
0
LINE
8
BLACK
6
CONTINUOUS
10
251.958
20
-90.0648
11
251.961
21
-90.0723
0
LINE
8
BLACK
6
CONTINUOUS
10
251.961
20
-90.0723
11
252.008
21
-90.2628
0
LINE
8
BLACK
6
CONTINUOUS
10
252.008
20
-90.2628
11
252.009
21
-90.2719
0
LINE
8
BLACK
6
CONTINUOUS
10
252.009
20
-90.2719
11
252.011
21
-90.281
0
LINE
8
BLACK
6
CONTINUOUS
10
252.011
20
-90.281
11
252.011
21
-90.4238
0
LINE
8
BLACK
6
CONTINUOUS
10
252.011
20
-90.4238
11
252.009
21
-90.4328
0
LINE
8
BLACK
6
CONTINUOUS
10
252.009
20
-90.4328
11
252.008
21
-90.442
0
LINE
8
BLACK
6
CONTINUOUS
10
252.008
20
-90.442
11
251.961
21
-90.6325
0
LINE
8
BLACK
6
CONTINUOUS
10
251.961
20
-90.6325
11
251.958
21
-90.64
0
LINE
8
BLACK
6
CONTINUOUS
10
251.958
20
-90.64
11
251.955
21
-90.6478
0
LINE
8
BLACK
6
CONTINUOUS
10
251.955
20
-90.6478
11
251.908
21
-90.7431
0
LINE
8
BLACK
6
CONTINUOUS
10
251.908
20
-90.7431
11
251.9
21
-90.7527
0
LINE
8
BLACK
6
CONTINUOUS
10
251.9
20
-90.7527
11
251.894
21
-90.7626
0
LINE
8
BLACK
6
CONTINUOUS
10
251.894
20
-90.7626
11
251.798
21
-90.8578
0
LINE
8
BLACK
6
CONTINUOUS
10
251.798
20
-90.8578
11
251.795
21
-90.8603
0
LINE
8
BLACK
6
CONTINUOUS
10
251.795
20
-90.8603
11
251.792
21
-90.8635
0
LINE
8
BLACK
6
CONTINUOUS
10
251.792
20
-90.8635
11
251.784
21
-90.8677
0
LINE
8
BLACK
6
CONTINUOUS
10
251.784
20
-90.8677
11
251.777
21
-90.8727
0
LINE
8
BLACK
6
CONTINUOUS
10
251.777
20
-90.8727
11
251.773
21
-90.8739
0
LINE
8
BLACK
6
CONTINUOUS
10
251.773
20
-90.8739
11
251.769
21
-90.8759
0
LINE
8
BLACK
6
CONTINUOUS
10
251.769
20
-90.8759
11
251.626
21
-90.9235
0
LINE
8
BLACK
6
CONTINUOUS
10
251.626
20
-90.9235
11
251.614
21
-90.9253
0
LINE
8
BLACK
6
CONTINUOUS
10
251.614
20
-90.9253
11
251.602
21
-90.9274
0
LINE
8
BLACK
6
CONTINUOUS
10
251.602
20
-90.9274
11
251.507
21
-90.9274
0
LINE
8
BLACK
6
CONTINUOUS
10
251.507
20
-90.9274
11
251.495
21
-90.9253
0
LINE
8
BLACK
6
CONTINUOUS
10
251.495
20
-90.9253
11
251.483
21
-90.9235
0
LINE
8
BLACK
6
CONTINUOUS
10
251.483
20
-90.9235
11
251.341
21
-90.8759
0
LINE
8
BLACK
6
CONTINUOUS
10
251.341
20
-90.8759
11
251.337
21
-90.8739
0
LINE
8
BLACK
6
CONTINUOUS
10
251.337
20
-90.8739
11
251.333
21
-90.8727
0
LINE
8
BLACK
6
CONTINUOUS
10
251.333
20
-90.8727
11
251.325
21
-90.8677
0
LINE
8
BLACK
6
CONTINUOUS
10
251.325
20
-90.8677
11
251.318
21
-90.8635
0
LINE
8
BLACK
6
CONTINUOUS
10
251.318
20
-90.8635
11
251.315
21
-90.8603
0
LINE
8
BLACK
6
CONTINUOUS
10
251.315
20
-90.8603
11
251.311
21
-90.8578
0
LINE
8
BLACK
6
CONTINUOUS
10
251.311
20
-90.8578
11
251.264
21
-90.8102
0
LINE
8
BLACK
6
CONTINUOUS
10
251.264
20
-90.8102
11
251.249
21
-90.7888
0
LINE
8
BLACK
6
CONTINUOUS
10
251.249
20
-90.7888
11
251.242
21
-90.7637
0
LINE
8
BLACK
6
CONTINUOUS
10
251.242
20
-90.7637
11
251.244
21
-90.7377
0
LINE
8
BLACK
6
CONTINUOUS
10
251.244
20
-90.7377
11
251.255
21
-90.7141
0
LINE
8
BLACK
6
CONTINUOUS
10
251.255
20
-90.7141
11
251.274
21
-90.6957
0
LINE
8
BLACK
6
CONTINUOUS
10
251.274
20
-90.6957
11
251.297
21
-90.6847
0
LINE
8
BLACK
6
CONTINUOUS
10
251.297
20
-90.6847
11
251.323
21
-90.6824
0
LINE
8
BLACK
6
CONTINUOUS
10
251.323
20
-90.6824
11
251.348
21
-90.6892
0
LINE
8
BLACK
6
CONTINUOUS
10
251.348
20
-90.6892
11
251.37
21
-90.7041
0
LINE
8
BLACK
6
CONTINUOUS
10
251.37
20
-90.7041
11
251.405
21
-90.7392
0
LINE
8
BLACK
6
CONTINUOUS
10
251.405
20
-90.7392
11
251.519
21
-90.7774
0
LINE
8
BLACK
6
CONTINUOUS
10
251.519
20
-90.7774
11
251.59
21
-90.7774
0
LINE
8
BLACK
6
CONTINUOUS
10
251.59
20
-90.7774
11
251.705
21
-90.7392
0
LINE
8
BLACK
6
CONTINUOUS
10
251.705
20
-90.7392
11
251.779
21
-90.6651
0
LINE
8
BLACK
6
CONTINUOUS
10
251.779
20
-90.6651
11
251.817
21
-90.5881
0
LINE
8
BLACK
6
CONTINUOUS
10
251.817
20
-90.5881
11
251.861
21
-90.4146
0
LINE
8
BLACK
6
CONTINUOUS
10
251.861
20
-90.4146
11
251.861
21
-90.2902
0
LINE
8
BLACK
6
CONTINUOUS
10
251.861
20
-90.2902
11
251.817
21
-90.1167
0
LINE
8
BLACK
6
CONTINUOUS
10
251.817
20
-90.1167
11
251.779
21
-90.0397
0
LINE
8
BLACK
6
CONTINUOUS
10
251.779
20
-90.0397
11
251.705
21
-89.9656
0
LINE
8
BLACK
6
CONTINUOUS
10
251.705
20
-89.9656
11
251.59
21
-89.9274
0
LINE
8
BLACK
6
CONTINUOUS
10
251.59
20
-89.9274
11
251.519
21
-89.9274
0
LINE
8
BLACK
6
CONTINUOUS
10
251.519
20
-89.9274
11
251.405
21
-89.9656
0
LINE
8
BLACK
6
CONTINUOUS
10
251.405
20
-89.9656
11
251.37
21
-90.0007
0
LINE
8
BLACK
6
CONTINUOUS
10
251.37
20
-90.0007
11
251.348
21
-90.0156
0
LINE
8
BLACK
6
CONTINUOUS
10
251.348
20
-90.0156
11
251.323
21
-90.0223
0
LINE
8
BLACK
6
CONTINUOUS
10
251.323
20
-90.0223
11
251.297
21
-90.0201
0
LINE
8
BLACK
6
CONTINUOUS
10
251.297
20
-90.0201
11
251.274
21
-90.0091
0
LINE
8
BLACK
6
CONTINUOUS
10
251.274
20
-90.0091
11
251.255
21
-89.9906
0
LINE
8
BLACK
6
CONTINUOUS
10
251.255
20
-89.9906
11
251.244
21
-89.967
0
LINE
8
BLACK
6
CONTINUOUS
10
251.244
20
-89.967
11
251.242
21
-89.9411
0
LINE
8
BLACK
6
CONTINUOUS
10
251.242
20
-89.9411
11
251.249
21
-89.9159
0
LINE
8
BLACK
6
CONTINUOUS
10
251.249
20
-89.9159
11
251.264
21
-89.8946
0
LINE
8
BLACK
6
CONTINUOUS
10
251.264
20
-89.8946
11
251.311
21
-89.847
0
LINE
8
BLACK
6
CONTINUOUS
10
251.311
20
-89.847
11
251.315
21
-89.8445
0
LINE
8
BLACK
6
CONTINUOUS
10
251.315
20
-89.8445
11
251.318
21
-89.8413
0
LINE
8
BLACK
6
CONTINUOUS
10
251.318
20
-89.8413
11
251.325
21
-89.8371
0
LINE
8
BLACK
6
CONTINUOUS
10
251.325
20
-89.8371
11
251.333
21
-89.832
0
LINE
8
BLACK
6
CONTINUOUS
10
251.333
20
-89.832
11
251.337
21
-89.8309
0
LINE
8
BLACK
6
CONTINUOUS
10
251.337
20
-89.8309
11
251.341
21
-89.8288
0
LINE
8
BLACK
6
CONTINUOUS
10
251.341
20
-89.8288
11
251.483
21
-89.7812
0
LINE
8
BLACK
6
CONTINUOUS
10
251.483
20
-89.7812
11
251.495
21
-89.7795
0
LINE
8
BLACK
6
CONTINUOUS
10
251.495
20
-89.7795
11
251.507
21
-89.7774
0
LINE
8
BLACK
6
CONTINUOUS
10
251.507
20
-89.7774
11
251.602
21
-89.7774
0
LINE
8
BLACK
6
CONTINUOUS
10
251.602
20
-89.7774
11
251.614
21
-89.7795
0
LINE
8
BLACK
6
CONTINUOUS
10
250.749
20
-89.7781
11
250.754
21
-89.7779
0
LINE
8
BLACK
6
CONTINUOUS
10
250.754
20
-89.7779
11
250.762
21
-89.7804
0
LINE
8
BLACK
6
CONTINUOUS
10
250.762
20
-89.7804
11
250.771
21
-89.7819
0
LINE
8
BLACK
6
CONTINUOUS
10
250.771
20
-89.7819
11
250.775
21
-89.7841
0
LINE
8
BLACK
6
CONTINUOUS
10
250.775
20
-89.7841
11
250.779
21
-89.7853
0
LINE
8
BLACK
6
CONTINUOUS
10
250.779
20
-89.7853
11
250.874
21
-89.8329
0
LINE
8
BLACK
6
CONTINUOUS
10
250.874
20
-89.8329
11
250.884
21
-89.8401
0
LINE
8
BLACK
6
CONTINUOUS
10
250.884
20
-89.8401
11
250.894
21
-89.847
0
LINE
8
BLACK
6
CONTINUOUS
10
250.894
20
-89.847
11
250.941
21
-89.8946
0
LINE
8
BLACK
6
CONTINUOUS
10
250.941
20
-89.8946
11
250.948
21
-89.9044
0
LINE
8
BLACK
6
CONTINUOUS
10
250.948
20
-89.9044
11
250.955
21
-89.9141
0
LINE
8
BLACK
6
CONTINUOUS
10
250.955
20
-89.9141
11
251.003
21
-90.0093
0
LINE
8
BLACK
6
CONTINUOUS
10
251.003
20
-90.0093
11
251.004
21
-90.0135
0
LINE
8
BLACK
6
CONTINUOUS
10
251.004
20
-90.0135
11
251.006
21
-90.0172
0
LINE
8
BLACK
6
CONTINUOUS
10
251.006
20
-90.0172
11
251.008
21
-90.0259
0
LINE
8
BLACK
6
CONTINUOUS
10
251.008
20
-90.0259
11
251.01
21
-90.0343
0
LINE
8
BLACK
6
CONTINUOUS
10
251.01
20
-90.0343
11
251.01
21
-90.0386
0
LINE
8
BLACK
6
CONTINUOUS
10
251.01
20
-90.0386
11
251.011
21
-90.0429
0
LINE
8
BLACK
6
CONTINUOUS
10
251.011
20
-90.0429
11
251.011
21
-90.0905
0
LINE
8
BLACK
6
CONTINUOUS
10
251.011
20
-90.0905
11
251.01
21
-90.0947
0
LINE
8
BLACK
6
CONTINUOUS
10
251.01
20
-90.0947
11
251.01
21
-90.0991
0
LINE
8
BLACK
6
CONTINUOUS
10
251.01
20
-90.0991
11
251.008
21
-90.1075
0
LINE
8
BLACK
6
CONTINUOUS
10
251.008
20
-90.1075
11
251.006
21
-90.1161
0
LINE
8
BLACK
6
CONTINUOUS
10
251.006
20
-90.1161
11
251.004
21
-90.1199
0
LINE
8
BLACK
6
CONTINUOUS
10
251.004
20
-90.1199
11
251.003
21
-90.124
0
LINE
8
BLACK
6
CONTINUOUS
10
251.003
20
-90.124
11
250.955
21
-90.2193
0
LINE
8
BLACK
6
CONTINUOUS
10
250.955
20
-90.2193
11
250.948
21
-90.2289
0
LINE
8
BLACK
6
CONTINUOUS
10
250.948
20
-90.2289
11
250.941
21
-90.2387
0
LINE
8
BLACK
6
CONTINUOUS
10
250.941
20
-90.2387
11
250.899
21
-90.281
0
LINE
8
BLACK
6
CONTINUOUS
10
250.899
20
-90.281
11
250.941
21
-90.3232
0
LINE
8
BLACK
6
CONTINUOUS
10
250.941
20
-90.3232
11
250.948
21
-90.333
0
LINE
8
BLACK
6
CONTINUOUS
10
250.948
20
-90.333
11
250.955
21
-90.3426
0
LINE
8
BLACK
6
CONTINUOUS
10
250.955
20
-90.3426
11
251.003
21
-90.4379
0
LINE
8
BLACK
6
CONTINUOUS
10
251.003
20
-90.4379
11
251.004
21
-90.442
0
LINE
8
BLACK
6
CONTINUOUS
10
251.004
20
-90.442
11
251.006
21
-90.4458
0
LINE
8
BLACK
6
CONTINUOUS
10
251.006
20
-90.4458
11
251.008
21
-90.4544
0
LINE
8
BLACK
6
CONTINUOUS
10
251.008
20
-90.4544
11
251.01
21
-90.4629
0
LINE
8
BLACK
6
CONTINUOUS
10
251.01
20
-90.4629
11
251.01
21
-90.4672
0
LINE
8
BLACK
6
CONTINUOUS
10
251.01
20
-90.4672
11
251.011
21
-90.4714
0
LINE
8
BLACK
6
CONTINUOUS
10
251.011
20
-90.4714
11
251.011
21
-90.6619
0
LINE
8
BLACK
6
CONTINUOUS
10
251.011
20
-90.6619
11
251.01
21
-90.6662
0
LINE
8
BLACK
6
CONTINUOUS
10
251.01
20
-90.6662
11
251.01
21
-90.6705
0
LINE
8
BLACK
6
CONTINUOUS
10
251.01
20
-90.6705
11
251.008
21
-90.6789
0
LINE
8
BLACK
6
CONTINUOUS
10
251.008
20
-90.6789
11
251.006
21
-90.6876
0
LINE
8
BLACK
6
CONTINUOUS
10
251.006
20
-90.6876
11
251.004
21
-90.6913
0
LINE
8
BLACK
6
CONTINUOUS
10
251.004
20
-90.6913
11
251.003
21
-90.6954
0
LINE
8
BLACK
6
CONTINUOUS
10
251.003
20
-90.6954
11
250.955
21
-90.7907
0
LINE
8
BLACK
6
CONTINUOUS
10
250.955
20
-90.7907
11
250.948
21
-90.8003
0
LINE
8
BLACK
6
CONTINUOUS
10
250.948
20
-90.8003
11
250.941
21
-90.8102
0
LINE
8
BLACK
6
CONTINUOUS
10
250.941
20
-90.8102
11
250.894
21
-90.8578
0
LINE
8
BLACK
6
CONTINUOUS
10
250.894
20
-90.8578
11
250.884
21
-90.8647
0
LINE
8
BLACK
6
CONTINUOUS
10
250.884
20
-90.8647
11
250.874
21
-90.8718
0
LINE
8
BLACK
6
CONTINUOUS
10
250.874
20
-90.8718
11
250.779
21
-90.9195
0
LINE
8
BLACK
6
CONTINUOUS
10
250.779
20
-90.9195
11
250.775
21
-90.9207
0
LINE
8
BLACK
6
CONTINUOUS
10
250.775
20
-90.9207
11
250.771
21
-90.9229
0
LINE
8
BLACK
6
CONTINUOUS
10
250.771
20
-90.9229
11
250.762
21
-90.9244
0
LINE
8
BLACK
6
CONTINUOUS
10
250.762
20
-90.9244
11
250.754
21
-90.9269
0
LINE
8
BLACK
6
CONTINUOUS
10
250.754
20
-90.9269
11
250.749
21
-90.9266
0
LINE
8
BLACK
6
CONTINUOUS
10
250.749
20
-90.9266
11
250.745
21
-90.9274
0
LINE
8
BLACK
6
CONTINUOUS
10
250.745
20
-90.9274
11
250.555
21
-90.9274
0
LINE
8
BLACK
6
CONTINUOUS
10
250.555
20
-90.9274
11
250.551
21
-90.9266
0
LINE
8
BLACK
6
CONTINUOUS
10
250.551
20
-90.9266
11
250.546
21
-90.9269
0
LINE
8
BLACK
6
CONTINUOUS
10
250.546
20
-90.9269
11
250.538
21
-90.9244
0
LINE
8
BLACK
6
CONTINUOUS
10
250.538
20
-90.9244
11
250.529
21
-90.9229
0
LINE
8
BLACK
6
CONTINUOUS
10
250.529
20
-90.9229
11
250.525
21
-90.9207
0
LINE
8
BLACK
6
CONTINUOUS
10
250.525
20
-90.9207
11
250.521
21
-90.9195
0
LINE
8
BLACK
6
CONTINUOUS
10
250.521
20
-90.9195
11
250.426
21
-90.8718
0
LINE
8
BLACK
6
CONTINUOUS
10
250.426
20
-90.8718
11
250.416
21
-90.8647
0
LINE
8
BLACK
6
CONTINUOUS
10
250.416
20
-90.8647
11
250.406
21
-90.8578
0
LINE
8
BLACK
6
CONTINUOUS
10
250.406
20
-90.8578
11
250.359
21
-90.8102
0
LINE
8
BLACK
6
CONTINUOUS
10
250.359
20
-90.8102
11
250.352
21
-90.8003
0
LINE
8
BLACK
6
CONTINUOUS
10
250.352
20
-90.8003
11
250.345
21
-90.7907
0
LINE
8
BLACK
6
CONTINUOUS
10
250.345
20
-90.7907
11
250.297
21
-90.6954
0
LINE
8
BLACK
6
CONTINUOUS
10
250.297
20
-90.6954
11
250.296
21
-90.6913
0
LINE
8
BLACK
6
CONTINUOUS
10
250.296
20
-90.6913
11
250.294
21
-90.6876
0
LINE
8
BLACK
6
CONTINUOUS
10
250.294
20
-90.6876
11
250.292
21
-90.6789
0
LINE
8
BLACK
6
CONTINUOUS
10
250.292
20
-90.6789
11
250.29
21
-90.6705
0
LINE
8
BLACK
6
CONTINUOUS
10
250.29
20
-90.6705
11
250.29
21
-90.6662
0
LINE
8
BLACK
6
CONTINUOUS
10
250.29
20
-90.6662
11
250.289
21
-90.6619
0
LINE
8
BLACK
6
CONTINUOUS
10
250.289
20
-90.6619
11
250.289
21
-90.4714
0
LINE
8
BLACK
6
CONTINUOUS
10
250.289
20
-90.4714
11
250.29
21
-90.4672
0
LINE
8
BLACK
6
CONTINUOUS
10
250.29
20
-90.4672
11
250.29
21
-90.4629
0
LINE
8
BLACK
6
CONTINUOUS
10
250.29
20
-90.4629
11
250.292
21
-90.4544
0
LINE
8
BLACK
6
CONTINUOUS
10
250.292
20
-90.4544
11
250.294
21
-90.4458
0
LINE
8
BLACK
6
CONTINUOUS
10
250.294
20
-90.4458
11
250.296
21
-90.442
0
LINE
8
BLACK
6
CONTINUOUS
10
250.296
20
-90.442
11
250.297
21
-90.4379
0
LINE
8
BLACK
6
CONTINUOUS
10
250.297
20
-90.4379
11
250.345
21
-90.3426
0
LINE
8
BLACK
6
CONTINUOUS
10
250.345
20
-90.3426
11
250.352
21
-90.333
0
LINE
8
BLACK
6
CONTINUOUS
10
250.352
20
-90.333
11
250.359
21
-90.3232
0
LINE
8
BLACK
6
CONTINUOUS
10
250.359
20
-90.3232
11
250.401
21
-90.281
0
LINE
8
BLACK
6
CONTINUOUS
10
250.401
20
-90.281
11
250.359
21
-90.2387
0
LINE
8
BLACK
6
CONTINUOUS
10
250.359
20
-90.2387
11
250.352
21
-90.2289
0
LINE
8
BLACK
6
CONTINUOUS
10
250.352
20
-90.2289
11
250.345
21
-90.2193
0
LINE
8
BLACK
6
CONTINUOUS
10
250.345
20
-90.2193
11
250.297
21
-90.124
0
LINE
8
BLACK
6
CONTINUOUS
10
250.297
20
-90.124
11
250.296
21
-90.1199
0
LINE
8
BLACK
6
CONTINUOUS
10
250.296
20
-90.1199
11
250.294
21
-90.1161
0
LINE
8
BLACK
6
CONTINUOUS
10
250.294
20
-90.1161
11
250.292
21
-90.1075
0
LINE
8
BLACK
6
CONTINUOUS
10
250.292
20
-90.1075
11
250.29
21
-90.099
0
LINE
8
BLACK
6
CONTINUOUS
10
250.29
20
-90.099
11
250.29
21
-90.0947
0
LINE
8
BLACK
6
CONTINUOUS
10
250.29
20
-90.0947
11
250.289
21
-90.0905
0
LINE
8
BLACK
6
CONTINUOUS
10
250.289
20
-90.0905
11
250.289
21
-90.0429
0
LINE
8
BLACK
6
CONTINUOUS
10
250.289
20
-90.0429
11
250.29
21
-90.0386
0
LINE
8
BLACK
6
CONTINUOUS
10
250.29
20
-90.0386
11
250.29
21
-90.0343
0
LINE
8
BLACK
6
CONTINUOUS
10
250.29
20
-90.0343
11
250.292
21
-90.0259
0
LINE
8
BLACK
6
CONTINUOUS
10
250.292
20
-90.0259
11
250.294
21
-90.0172
0
LINE
8
BLACK
6
CONTINUOUS
10
250.294
20
-90.0172
11
250.296
21
-90.0135
0
LINE
8
BLACK
6
CONTINUOUS
10
250.296
20
-90.0135
11
250.297
21
-90.0093
0
LINE
8
BLACK
6
CONTINUOUS
10
250.297
20
-90.0093
11
250.345
21
-89.9141
0
LINE
8
BLACK
6
CONTINUOUS
10
250.345
20
-89.9141
11
250.352
21
-89.9044
0
LINE
8
BLACK
6
CONTINUOUS
10
250.352
20
-89.9044
11
250.359
21
-89.8946
0
LINE
8
BLACK
6
CONTINUOUS
10
250.359
20
-89.8946
11
250.406
21
-89.847
0
LINE
8
BLACK
6
CONTINUOUS
10
250.406
20
-89.847
11
250.416
21
-89.8401
0
LINE
8
BLACK
6
CONTINUOUS
10
250.416
20
-89.8401
11
250.426
21
-89.8329
0
LINE
8
BLACK
6
CONTINUOUS
10
250.426
20
-89.8329
11
250.521
21
-89.7853
0
LINE
8
BLACK
6
CONTINUOUS
10
250.521
20
-89.7853
11
250.525
21
-89.7841
0
LINE
8
BLACK
6
CONTINUOUS
10
250.525
20
-89.7841
11
250.529
21
-89.7819
0
LINE
8
BLACK
6
CONTINUOUS
10
250.529
20
-89.7819
11
250.538
21
-89.7804
0
LINE
8
BLACK
6
CONTINUOUS
10
250.538
20
-89.7804
11
250.546
21
-89.7779
0
LINE
8
BLACK
6
CONTINUOUS
10
250.546
20
-89.7779
11
250.551
21
-89.7781
0
LINE
8
BLACK
6
CONTINUOUS
10
250.551
20
-89.7781
11
250.555
21
-89.7774
0
LINE
8
BLACK
6
CONTINUOUS
10
250.555
20
-89.7774
11
250.745
21
-89.7774
0
LINE
8
BLACK
6
CONTINUOUS
10
250.745
20
-89.7774
11
250.749
21
-89.7781
0
LINE
8
BLACK
6
CONTINUOUS
10
250.572
20
-90.356
11
250.504
21
-90.3902
0
LINE
8
BLACK
6
CONTINUOUS
10
250.504
20
-90.3902
11
250.474
21
-90.4206
0
LINE
8
BLACK
6
CONTINUOUS
10
250.474
20
-90.4206
11
250.439
21
-90.4891
0
LINE
8
BLACK
6
CONTINUOUS
10
250.439
20
-90.4891
11
250.439
21
-90.6442
0
LINE
8
BLACK
6
CONTINUOUS
10
250.439
20
-90.6442
11
250.474
21
-90.7127
0
LINE
8
BLACK
6
CONTINUOUS
10
250.474
20
-90.7127
11
250.504
21
-90.7431
0
LINE
8
BLACK
6
CONTINUOUS
10
250.504
20
-90.7431
11
250.572
21
-90.7774
0
LINE
8
BLACK
6
CONTINUOUS
10
250.572
20
-90.7774
11
250.728
21
-90.7774
0
LINE
8
BLACK
6
CONTINUOUS
10
250.728
20
-90.7774
11
250.796
21
-90.7431
0
LINE
8
BLACK
6
CONTINUOUS
10
250.796
20
-90.7431
11
250.826
21
-90.7127
0
LINE
8
BLACK
6
CONTINUOUS
10
250.826
20
-90.7127
11
250.861
21
-90.6442
0
LINE
8
BLACK
6
CONTINUOUS
10
250.861
20
-90.6442
11
250.861
21
-90.4891
0
LINE
8
BLACK
6
CONTINUOUS
10
250.861
20
-90.4891
11
250.826
21
-90.4206
0
LINE
8
BLACK
6
CONTINUOUS
10
250.826
20
-90.4206
11
250.796
21
-90.3902
0
LINE
8
BLACK
6
CONTINUOUS
10
250.796
20
-90.3902
11
250.728
21
-90.356
0
LINE
8
BLACK
6
CONTINUOUS
10
250.728
20
-90.356
11
250.572
21
-90.356
0
LINE
8
BLACK
6
CONTINUOUS
10
250.572
20
-89.9274
11
250.504
21
-89.9616
0
LINE
8
BLACK
6
CONTINUOUS
10
250.504
20
-89.9616
11
250.474
21
-89.992
0
LINE
8
BLACK
6
CONTINUOUS
10
250.474
20
-89.992
11
250.439
21
-90.0606
0
LINE
8
BLACK
6
CONTINUOUS
10
250.439
20
-90.0606
11
250.439
21
-90.0728
0
LINE
8
BLACK
6
CONTINUOUS
10
250.439
20
-90.0728
11
250.474
21
-90.1413
0
LINE
8
BLACK
6
CONTINUOUS
10
250.474
20
-90.1413
11
250.504
21
-90.1717
0
LINE
8
BLACK
6
CONTINUOUS
10
250.504
20
-90.1717
11
250.572
21
-90.206
0
LINE
8
BLACK
6
CONTINUOUS
10
250.572
20
-90.206
11
250.728
21
-90.206
0
LINE
8
BLACK
6
CONTINUOUS
10
250.728
20
-90.206
11
250.796
21
-90.1717
0
LINE
8
BLACK
6
CONTINUOUS
10
250.796
20
-90.1717
11
250.826
21
-90.1413
0
LINE
8
BLACK
6
CONTINUOUS
10
250.826
20
-90.1413
11
250.861
21
-90.0728
0
LINE
8
BLACK
6
CONTINUOUS
10
250.861
20
-90.0728
11
250.861
21
-90.0606
0
LINE
8
BLACK
6
CONTINUOUS
10
250.861
20
-90.0606
11
250.826
21
-89.992
0
LINE
8
BLACK
6
CONTINUOUS
10
250.826
20
-89.992
11
250.796
21
-89.9616
0
LINE
8
BLACK
6
CONTINUOUS
10
250.796
20
-89.9616
11
250.728
21
-89.9274
0
LINE
8
BLACK
6
CONTINUOUS
10
250.728
20
-89.9274
11
250.572
21
-89.9274
0
LINE
8
BLACK
6
CONTINUOUS
10
251.429
20
-89.4027
11
251.448
21
-89.4133
0
LINE
8
BLACK
6
CONTINUOUS
10
251.448
20
-89.4133
11
251.461
21
-89.4295
0
LINE
8
BLACK
6
CONTINUOUS
10
251.461
20
-89.4295
11
251.469
21
-89.4494
0
LINE
8
BLACK
6
CONTINUOUS
10
251.469
20
-89.4494
11
251.469
21
-89.4706
0
LINE
8
BLACK
6
CONTINUOUS
10
251.469
20
-89.4706
11
251.461
21
-89.4905
0
LINE
8
BLACK
6
CONTINUOUS
10
251.461
20
-89.4905
11
251.448
21
-89.5067
0
LINE
8
BLACK
6
CONTINUOUS
10
251.448
20
-89.5067
11
251.429
21
-89.5173
0
LINE
8
BLACK
6
CONTINUOUS
10
251.429
20
-89.5173
11
251.414
21
-89.52
0
LINE
8
BLACK
6
CONTINUOUS
10
251.414
20
-89.52
11
250.886
21
-89.52
0
LINE
8
BLACK
6
CONTINUOUS
10
250.886
20
-89.52
11
250.871
21
-89.5173
0
LINE
8
BLACK
6
CONTINUOUS
10
250.871
20
-89.5173
11
250.852
21
-89.5067
0
LINE
8
BLACK
6
CONTINUOUS
10
250.852
20
-89.5067
11
250.839
21
-89.4905
0
LINE
8
BLACK
6
CONTINUOUS
10
250.839
20
-89.4905
11
250.831
21
-89.4706
0
LINE
8
BLACK
6
CONTINUOUS
10
250.831
20
-89.4706
11
250.831
21
-89.4494
0
LINE
8
BLACK
6
CONTINUOUS
10
250.831
20
-89.4494
11
250.839
21
-89.4295
0
LINE
8
BLACK
6
CONTINUOUS
10
250.839
20
-89.4295
11
250.852
21
-89.4133
0
LINE
8
BLACK
6
CONTINUOUS
10
250.852
20
-89.4133
11
250.871
21
-89.4027
0
LINE
8
BLACK
6
CONTINUOUS
10
250.871
20
-89.4027
11
250.886
21
-89.4
0
LINE
8
BLACK
6
CONTINUOUS
10
250.886
20
-89.4
11
251.414
21
-89.4
0
LINE
8
BLACK
6
CONTINUOUS
10
251.414
20
-89.4
11
251.429
21
-89.4027
0
LINE
8
BLACK
6
CONTINUOUS
10
251.429
20
-87.9827
11
251.448
21
-87.9933
0
LINE
8
BLACK
6
CONTINUOUS
10
251.448
20
-87.9933
11
251.461
21
-88.0095
0
LINE
8
BLACK
6
CONTINUOUS
10
251.461
20
-88.0095
11
251.469
21
-88.0294
0
LINE
8
BLACK
6
CONTINUOUS
10
251.469
20
-88.0294
11
251.469
21
-88.0506
0
LINE
8
BLACK
6
CONTINUOUS
10
251.469
20
-88.0506
11
251.461
21
-88.0705
0
LINE
8
BLACK
6
CONTINUOUS
10
251.461
20
-88.0705
11
251.448
21
-88.0867
0
LINE
8
BLACK
6
CONTINUOUS
10
251.448
20
-88.0867
11
251.429
21
-88.0973
0
LINE
8
BLACK
6
CONTINUOUS
10
251.429
20
-88.0973
11
251.414
21
-88.1
0
LINE
8
BLACK
6
CONTINUOUS
10
251.414
20
-88.1
11
250.886
21
-88.1
0
LINE
8
BLACK
6
CONTINUOUS
10
250.886
20
-88.1
11
250.871
21
-88.0973
0
LINE
8
BLACK
6
CONTINUOUS
10
250.871
20
-88.0973
11
250.852
21
-88.0867
0
LINE
8
BLACK
6
CONTINUOUS
10
250.852
20
-88.0867
11
250.839
21
-88.0705
0
LINE
8
BLACK
6
CONTINUOUS
10
250.839
20
-88.0705
11
250.831
21
-88.0506
0
LINE
8
BLACK
6
CONTINUOUS
10
250.831
20
-88.0506
11
250.831
21
-88.0294
0
LINE
8
BLACK
6
CONTINUOUS
10
250.831
20
-88.0294
11
250.839
21
-88.0095
0
LINE
8
BLACK
6
CONTINUOUS
10
250.839
20
-88.0095
11
250.852
21
-87.9933
0
LINE
8
BLACK
6
CONTINUOUS
10
250.852
20
-87.9933
11
250.871
21
-87.9827
0
LINE
8
BLACK
6
CONTINUOUS
10
250.871
20
-87.9827
11
250.886
21
-87.98
0
LINE
8
BLACK
6
CONTINUOUS
10
250.886
20
-87.98
11
251.414
21
-87.98
0
LINE
8
BLACK
6
CONTINUOUS
10
251.414
20
-87.98
11
251.429
21
-87.9827
0
CIRCLE
8
BLACK
10
255.97
20
-57.17
40
1.35
0
CIRCLE
8
BLACK
10
210.14
20
-57.24
40
1.35
0
CIRCLE
8
BLACK
10
233.03
20
-39.52
40
1.35
0
CIRCLE
8
BLACK
10
232.91
20
-119.56
40
1.35
0
CIRCLE
8
BLACK
10
209.99
20
-102.16
40
1.25
0
CIRCLE
8
BLACK
10
205.65
20
-86.2
40
0.4
0
CIRCLE
8
BLACK
10
205.65
20
-88.74
40
0.4
0
CIRCLE
8
BLACK
10
205.65
20
-91.28
40
0.4
0
CIRCLE
8
BLACK
10
234.53
20
-113.72
40
0.5
0
CIRCLE
8
BLACK
10
234.53
20
-107.22
40
0.5
0
CIRCLE
8
BLACK
10
208.28
20
-64.262
40
1.2
0
CIRCLE
8
BLACK
10
208.28
20
-51.562
40
1.2
0
CIRCLE
8
BLACK
10
219.18
20
-69.012
40
1.3
0
CIRCLE
8
BLACK
10
247.18
20
-69.012
40
1.3
0
CIRCLE
8
BLACK
10
233.18
20
-46.812
40
1.3
0
CIRCLE
8
BLACK
10
243.18
20
-77.17
40
0.4
0
CIRCLE
8
BLACK
10
258.42
20
-110.19
40
0.4
0
CIRCLE
8
BLACK
10
243.18
20
-79.71
40
0.4
0
CIRCLE
8
BLACK
10
258.42
20
-107.65
40
0.4
0
CIRCLE
8
BLACK
10
243.18
20
-82.25
40
0.4
0
CIRCLE
8
BLACK
10
258.42
20
-105.11
40
0.4
0
CIRCLE
8
BLACK
10
243.18
20
-84.79
40
0.4
0
CIRCLE
8
BLACK
10
258.42
20
-102.57
40
0.4
0
CIRCLE
8
BLACK
10
243.18
20
-87.33
40
0.4
0
CIRCLE
8
BLACK
10
258.42
20
-100.03
40
0.4
0
CIRCLE
8
BLACK
10
243.18
20
-89.87
40
0.4
0
CIRCLE
8
BLACK
10
258.42
20
-97.49
40
0.4
0
CIRCLE
8
BLACK
10
243.18
20
-92.41
40
0.4
0
CIRCLE
8
BLACK
10
258.42
20
-94.95
40
0.4
0
CIRCLE
8
BLACK
10
243.18
20
-94.95
40
0.4
0
CIRCLE
8
BLACK
10
258.42
20
-92.41
40
0.4
0
CIRCLE
8
BLACK
10
243.18
20
-97.49
40
0.4
0
CIRCLE
8
BLACK
10
258.42
20
-89.87
40
0.4
0
CIRCLE
8
BLACK
10
243.18
20
-100.03
40
0.4
0
CIRCLE
8
BLACK
10
258.42
20
-87.33
40
0.4
0
CIRCLE
8
BLACK
10
243.18
20
-102.57
40
0.4
0
CIRCLE
8
BLACK
10
258.42
20
-84.79
40
0.4
0
CIRCLE
8
BLACK
10
243.18
20
-105.11
40
0.4
0
CIRCLE
8
BLACK
10
258.42
20
-82.25
40
0.4
0
CIRCLE
8
BLACK
10
243.18
20
-107.65
40
0.4
0
CIRCLE
8
BLACK
10
258.42
20
-79.71
40
0.4
0
CIRCLE
8
BLACK
10
243.18
20
-110.19
40
0.4
0
CIRCLE
8
BLACK
10
258.42
20
-77.17
40
0.4
0
CIRCLE
8
BLACK
10
243.18
20
-112.73
40
0.4
0
CIRCLE
8
BLACK
10
258.42
20
-112.73
40
0.4
0
CIRCLE
8
BLACK
10
208.28
20
-79.502
40
0.4
0
CIRCLE
8
BLACK
10
208.28
20
-82.002
40
0.4
0
CIRCLE
8
BLACK
10
213.6
20
-89.37
40
0.5
0
CIRCLE
8
BLACK
10
213.6
20
-84.37
40
0.5
0
CIRCLE
8
BLACK
10
227.69
20
-94.72
40
0.4
0
CIRCLE
8
BLACK
10
224.19
20
-94.72
40
0.4
0
CIRCLE
8
BLACK
10
223.325
20
-110.1
40
0.5
0
CIRCLE
8
BLACK
10
223.325
20
-115.1
40
0.5
0
CIRCLE
8
BLACK
10
226.9
20
-105.1
40
0.4
0
CIRCLE
8
BLACK
10
226.9
20
-101.6
40
0.4
0
CIRCLE
8
BLACK
10
232.9
20
-90.6
40
0.8
0
CIRCLE
8
BLACK
10
232.9
20
-75.36
40
0.8
0
CIRCLE
8
BLACK
10
239.15
20
-89.02
40
0.5
0
CIRCLE
8
BLACK
10
236.61
20
-89.02
40
0.5
0
CIRCLE
8
BLACK
10
206.05
20
-100.56
40
0.5
0
CIRCLE
8
BLACK
10
206.05
20
-103.1
40
0.5
0
CIRCLE
8
BLACK
10
210.6
20
-95.39
40
0.4
0
CIRCLE
8
BLACK
10
210.6
20
-97.93
40
0.4
0
CIRCLE
8
BLACK
10
210.6
20
-92.85
40
0.4
0
CIRCLE
8
BLACK
10
218.23
20
-94.09
40
0.55
0
CIRCLE
8
BLACK
10
218.23
20
-96.63
40
0.55
0
CIRCLE
8
BLACK
10
218.23
20
-99.17
40
0.55
0
CIRCLE
8
BLACK
10
235.075
20
-95.795
40
0.4
0
CIRCLE
8
BLACK
10
235.075
20
-98.335
40
0.4
0
CIRCLE
8
BLACK
10
235.075
20
-100.875
40
0.4
0
CIRCLE
8
BLACK
10
204.216
20
-75.692
40
0.5
0
CIRCLE
8
BLACK
10
206.756
20
-75.692
40
0.5
0
CIRCLE
8
BLACK
10
209.296
20
-75.692
40
0.5
0
CIRCLE
8
BLACK
10
253.774
20
-82.257
40
0.55
0
CIRCLE
8
BLACK
10
251.234
20
-82.257
40
0.55
0
CIRCLE
8
BLACK
10
248.694
20
-82.257
40
0.55
0
CIRCLE
8
BLACK
10
247.424
20
-92.925
40
0.4
0
CIRCLE
8
BLACK
10
255.044
20
-85.305
40
0.4
0
CIRCLE
8
BLACK
10
249.964
20
-92.925
40
0.4
0
CIRCLE
8
BLACK
10
252.504
20
-85.305
40
0.4
0
CIRCLE
8
BLACK
10
252.504
20
-92.925
40
0.4
0
CIRCLE
8
BLACK
10
249.964
20
-85.305
40
0.4
0
CIRCLE
8
BLACK
10
255.044
20
-92.925
40
0.4
0
CIRCLE
8
BLACK
10
247.424
20
-85.305
40
0.4
0
CIRCLE
8
BLACK
10
248.6
20
-98.7
40
0.4
0
CIRCLE
8
BLACK
10
253.48
20
-98.7
40
0.4
0
CIRCLE
8
BLACK
10
206.425
20
-110.2
40
0.75
0
CIRCLE
8
BLACK
10
213.425
20
-110.2
40
0.75
0
CIRCLE
8
BLACK
10
255.55
20
-115.875
40
1.2
0
CIRCLE
8
BLACK
10
255.55
20
-103.175
40
1.2
0
CIRCLE
8
BLACK
10
244.65
20
-120.625
40
1.3
0
CIRCLE
8
BLACK
10
216.65
20
-120.625
40
1.3
0
CIRCLE
8
BLACK
10
230.65
20
-98.425
40
1.3
0
LINE
8
BLACK
6
CONTINUOUS
10
252.467
20
-33.6773
11
252.483
21
-33.6861
0
LINE
8
BLACK
6
CONTINUOUS
10
252.483
20
-33.6861
11
252.494
21
-33.6996
0
LINE
8
BLACK
6
CONTINUOUS
10
252.494
20
-33.6996
11
252.5
21
-33.7162
0
LINE
8
BLACK
6
CONTINUOUS
10
252.5
20
-33.7162
11
252.5
21
-33.7338
0
LINE
8
BLACK
6
CONTINUOUS
10
252.5
20
-33.7338
11
252.499
21
-33.7379
0
LINE
8
BLACK
6
CONTINUOUS
10
252.499
20
-33.7379
11
252.499
21
-33.738
0
LINE
8
BLACK
6
CONTINUOUS
10
252.499
20
-33.738
11
252.5
21
-33.7439
0
LINE
8
BLACK
6
CONTINUOUS
10
252.5
20
-33.7439
11
252.588
21
-34.4631
0
LINE
8
BLACK
6
CONTINUOUS
10
252.588
20
-34.4631
11
252.869
21
-35.7535
0
LINE
8
BLACK
6
CONTINUOUS
10
252.869
20
-35.7535
11
253.303
21
-37.0001
0
LINE
8
BLACK
6
CONTINUOUS
10
253.303
20
-37.0001
11
253.884
21
-38.1855
0
LINE
8
BLACK
6
CONTINUOUS
10
253.884
20
-38.1855
11
254.603
21
-39.2925
0
LINE
8
BLACK
6
CONTINUOUS
10
254.603
20
-39.2925
11
255.45
21
-40.3051
0
LINE
8
BLACK
6
CONTINUOUS
10
255.45
20
-40.3051
11
256.413
21
-41.2086
0
LINE
8
BLACK
6
CONTINUOUS
10
256.413
20
-41.2086
11
257.477
21
-41.99
0
LINE
8
BLACK
6
CONTINUOUS
10
257.477
20
-41.99
11
258.627
21
-42.6379
0
LINE
8
BLACK
6
CONTINUOUS
10
258.627
20
-42.6379
11
259.846
21
-43.1429
0
LINE
8
BLACK
6
CONTINUOUS
10
259.846
20
-43.1429
11
261.118
21
-43.4977
0
LINE
8
BLACK
6
CONTINUOUS
10
261.118
20
-43.4977
11
262.426
21
-43.6977
0
LINE
8
BLACK
6
CONTINUOUS
10
262.426
20
-43.6977
11
262.426
21
-43.6978
0
LINE
8
BLACK
6
CONTINUOUS
10
262.426
20
-43.6978
11
262.432
21
-43.6991
0
LINE
8
BLACK
6
CONTINUOUS
10
262.432
20
-43.6991
11
262.438
21
-43.7011
0
LINE
8
BLACK
6
CONTINUOUS
10
262.438
20
-43.7011
11
262.438
21
-43.7012
0
LINE
8
BLACK
6
CONTINUOUS
10
262.438
20
-43.7012
11
262.441
21
-43.7
0
LINE
8
BLACK
6
CONTINUOUS
10
262.441
20
-43.7
11
262.459
21
-43.7
0
LINE
8
BLACK
6
CONTINUOUS
10
262.459
20
-43.7
11
262.475
21
-43.706
0
LINE
8
BLACK
6
CONTINUOUS
10
262.475
20
-43.706
11
262.489
21
-43.7174
0
LINE
8
BLACK
6
CONTINUOUS
10
262.489
20
-43.7174
11
262.498
21
-43.7326
0
LINE
8
BLACK
6
CONTINUOUS
10
262.498
20
-43.7326
11
262.5
21
-43.7456
0
LINE
8
BLACK
6
CONTINUOUS
10
262.5
20
-43.7456
11
262.5
21
-115.804
0
LINE
8
BLACK
6
CONTINUOUS
10
262.5
20
-115.804
11
262.498
21
-115.817
0
LINE
8
BLACK
6
CONTINUOUS
10
262.498
20
-115.817
11
262.489
21
-115.833
0
LINE
8
BLACK
6
CONTINUOUS
10
262.489
20
-115.833
11
262.475
21
-115.844
0
LINE
8
BLACK
6
CONTINUOUS
10
262.475
20
-115.844
11
262.459
21
-115.85
0
LINE
8
BLACK
6
CONTINUOUS
10
262.459
20
-115.85
11
262.452
21
-115.85
0
LINE
8
BLACK
6
CONTINUOUS
10
262.452
20
-115.85
11
261.586
21
-115.93
0
LINE
8
BLACK
6
CONTINUOUS
10
261.586
20
-115.93
11
260.341
21
-116.18
0
LINE
8
BLACK
6
CONTINUOUS
10
260.341
20
-116.18
11
259.137
21
-116.584
0
LINE
8
BLACK
6
CONTINUOUS
10
259.137
20
-116.584
11
257.993
21
-117.136
0
LINE
8
BLACK
6
CONTINUOUS
10
257.993
20
-117.136
11
256.927
21
-117.827
0
LINE
8
BLACK
6
CONTINUOUS
10
256.927
20
-117.827
11
255.957
21
-118.646
0
LINE
8
BLACK
6
CONTINUOUS
10
255.957
20
-118.646
11
255.096
21
-119.58
0
LINE
8
BLACK
6
CONTINUOUS
10
255.096
20
-119.58
11
254.36
21
-120.615
0
LINE
8
BLACK
6
CONTINUOUS
10
254.36
20
-120.615
11
253.759
21
-121.733
0
LINE
8
BLACK
6
CONTINUOUS
10
253.759
20
-121.733
11
253.303
21
-122.918
0
LINE
8
BLACK
6
CONTINUOUS
10
253.303
20
-122.918
11
252.999
21
-124.151
0
LINE
8
BLACK
6
CONTINUOUS
10
252.999
20
-124.151
11
252.852
21
-125.416
0
LINE
8
BLACK
6
CONTINUOUS
10
252.852
20
-125.416
11
252.851
21
-125.422
0
LINE
8
BLACK
6
CONTINUOUS
10
252.851
20
-125.422
11
252.849
21
-125.428
0
LINE
8
BLACK
6
CONTINUOUS
10
252.849
20
-125.428
11
252.846
21
-125.434
0
LINE
8
BLACK
6
CONTINUOUS
10
252.846
20
-125.434
11
252.843
21
-125.439
0
LINE
8
BLACK
6
CONTINUOUS
10
252.843
20
-125.439
11
252.839
21
-125.444
0
LINE
8
BLACK
6
CONTINUOUS
10
252.839
20
-125.444
11
252.834
21
-125.448
0
LINE
8
BLACK
6
CONTINUOUS
10
252.834
20
-125.448
11
252.829
21
-125.452
0
LINE
8
BLACK
6
CONTINUOUS
10
252.829
20
-125.452
11
252.824
21
-125.455
0
LINE
8
BLACK
6
CONTINUOUS
10
252.824
20
-125.455
11
252.818
21
-125.458
0
LINE
8
BLACK
6
CONTINUOUS
10
252.818
20
-125.458
11
252.817
21
-125.458
0
LINE
8
BLACK
6
CONTINUOUS
10
252.817
20
-125.458
11
252.817
21
-125.458
0
LINE
8
BLACK
6
CONTINUOUS
10
252.817
20
-125.458
11
252.817
21
-125.458
0
LINE
8
BLACK
6
CONTINUOUS
10
252.817
20
-125.458
11
252.812
21
-125.459
0
LINE
8
BLACK
6
CONTINUOUS
10
252.812
20
-125.459
11
252.806
21
-125.46
0
LINE
8
BLACK
6
CONTINUOUS
10
252.806
20
-125.46
11
252.804
21
-125.46
0
LINE
8
BLACK
6
CONTINUOUS
10
252.804
20
-125.46
11
252.804
21
-125.46
0
LINE
8
BLACK
6
CONTINUOUS
10
252.804
20
-125.46
11
252.803
21
-125.46
0
LINE
8
BLACK
6
CONTINUOUS
10
252.803
20
-125.46
11
252.799
21
-125.46
0
LINE
8
BLACK
6
CONTINUOUS
10
252.799
20
-125.46
11
252.799
21
-125.46
0
LINE
8
BLACK
6
CONTINUOUS
10
252.799
20
-125.46
11
213.226
21
-125.46
0
LINE
8
BLACK
6
CONTINUOUS
10
213.226
20
-125.46
11
213.213
21
-125.458
0
LINE
8
BLACK
6
CONTINUOUS
10
213.213
20
-125.458
11
213.197
21
-125.449
0
LINE
8
BLACK
6
CONTINUOUS
10
213.197
20
-125.449
11
213.19
21
-125.44
0
LINE
8
BLACK
6
CONTINUOUS
10
213.19
20
-125.44
11
213.189
21
-125.44
0
LINE
8
BLACK
6
CONTINUOUS
10
213.189
20
-125.44
11
213.185
21
-125.436
0
LINE
8
BLACK
6
CONTINUOUS
10
213.185
20
-125.436
11
213.181
21
-125.431
0
LINE
8
BLACK
6
CONTINUOUS
10
213.181
20
-125.431
11
213.178
21
-125.427
0
LINE
8
BLACK
6
CONTINUOUS
10
213.178
20
-125.427
11
213.175
21
-125.422
0
LINE
8
BLACK
6
CONTINUOUS
10
213.175
20
-125.422
11
213.173
21
-125.416
0
LINE
8
BLACK
6
CONTINUOUS
10
213.173
20
-125.416
11
213.171
21
-125.411
0
LINE
8
BLACK
6
CONTINUOUS
10
213.171
20
-125.411
11
213.17
21
-125.405
0
LINE
8
BLACK
6
CONTINUOUS
10
213.17
20
-125.405
11
213.164
21
-125.336
0
LINE
8
BLACK
6
CONTINUOUS
10
213.164
20
-125.336
11
212.957
21
-124.039
0
LINE
8
BLACK
6
CONTINUOUS
10
212.957
20
-124.039
11
212.601
21
-122.776
0
LINE
8
BLACK
6
CONTINUOUS
10
212.601
20
-122.776
11
212.101
21
-121.563
0
LINE
8
BLACK
6
CONTINUOUS
10
212.101
20
-121.563
11
211.462
21
-120.417
0
LINE
8
BLACK
6
CONTINUOUS
10
211.462
20
-120.417
11
210.694
21
-119.353
0
LINE
8
BLACK
6
CONTINUOUS
10
210.694
20
-119.353
11
209.806
21
-118.386
0
LINE
8
BLACK
6
CONTINUOUS
10
209.806
20
-118.386
11
208.812
21
-117.529
0
LINE
8
BLACK
6
CONTINUOUS
10
208.812
20
-117.529
11
207.725
21
-116.794
0
LINE
8
BLACK
6
CONTINUOUS
10
207.725
20
-116.794
11
206.56
21
-116.19
0
LINE
8
BLACK
6
CONTINUOUS
10
206.56
20
-116.19
11
205.332
21
-115.727
0
LINE
8
BLACK
6
CONTINUOUS
10
205.332
20
-115.727
11
204.058
21
-115.411
0
LINE
8
BLACK
6
CONTINUOUS
10
204.058
20
-115.411
11
202.777
21
-115.247
0
LINE
8
BLACK
6
CONTINUOUS
10
202.777
20
-115.247
11
202.769
21
-115.25
0
LINE
8
BLACK
6
CONTINUOUS
10
202.769
20
-115.25
11
202.751
21
-115.25
0
LINE
8
BLACK
6
CONTINUOUS
10
202.751
20
-115.25
11
202.735
21
-115.244
0
LINE
8
BLACK
6
CONTINUOUS
10
202.735
20
-115.244
11
202.721
21
-115.233
0
LINE
8
BLACK
6
CONTINUOUS
10
202.721
20
-115.233
11
202.712
21
-115.217
0
LINE
8
BLACK
6
CONTINUOUS
10
202.712
20
-115.217
11
202.71
21
-115.204
0
LINE
8
BLACK
6
CONTINUOUS
10
202.71
20
-115.204
11
202.71
21
-44.0656
0
LINE
8
BLACK
6
CONTINUOUS
10
202.71
20
-44.0656
11
202.712
21
-44.0526
0
LINE
8
BLACK
6
CONTINUOUS
10
202.712
20
-44.0526
11
202.721
21
-44.0374
0
LINE
8
BLACK
6
CONTINUOUS
10
202.721
20
-44.0374
11
202.735
21
-44.026
0
LINE
8
BLACK
6
CONTINUOUS
10
202.735
20
-44.026
11
202.751
21
-44.02
0
LINE
8
BLACK
6
CONTINUOUS
10
202.751
20
-44.02
11
202.769
21
-44.02
0
LINE
8
BLACK
6
CONTINUOUS
10
202.769
20
-44.02
11
202.771
21
-44.0208
0
LINE
8
BLACK
6
CONTINUOUS
10
202.771
20
-44.0208
11
202.776
21
-44.0202
0
LINE
8
BLACK
6
CONTINUOUS
10
202.776
20
-44.0202
11
202.787
21
-44.0192
0
LINE
8
BLACK
6
CONTINUOUS
10
202.787
20
-44.0192
11
204.091
21
-43.8329
0
LINE
8
BLACK
6
CONTINUOUS
10
204.091
20
-43.8329
11
205.363
21
-43.4961
0
LINE
8
BLACK
6
CONTINUOUS
10
205.363
20
-43.4961
11
206.587
21
-43.0132
0
LINE
8
BLACK
6
CONTINUOUS
10
206.587
20
-43.0132
11
207.746
21
-42.3907
0
LINE
8
BLACK
6
CONTINUOUS
10
207.746
20
-42.3907
11
208.825
21
-41.6373
0
LINE
8
BLACK
6
CONTINUOUS
10
208.825
20
-41.6373
11
209.808
21
-40.7632
0
LINE
8
BLACK
6
CONTINUOUS
10
209.808
20
-40.7632
11
210.683
21
-39.7803
0
LINE
8
BLACK
6
CONTINUOUS
10
210.683
20
-39.7803
11
211.437
21
-38.7021
0
LINE
8
BLACK
6
CONTINUOUS
10
211.437
20
-38.7021
11
212.06
21
-37.5433
0
LINE
8
BLACK
6
CONTINUOUS
10
212.06
20
-37.5433
11
212.544
21
-36.3196
0
LINE
8
BLACK
6
CONTINUOUS
10
212.544
20
-36.3196
11
212.882
21
-35.0479
0
LINE
8
BLACK
6
CONTINUOUS
10
212.882
20
-35.0479
11
213.069
21
-33.7426
0
LINE
8
BLACK
6
CONTINUOUS
10
213.069
20
-33.7426
11
213.07
21
-33.7377
0
LINE
8
BLACK
6
CONTINUOUS
10
213.07
20
-33.7377
11
213.072
21
-33.7321
0
LINE
8
BLACK
6
CONTINUOUS
10
213.072
20
-33.7321
11
213.074
21
-33.7267
0
LINE
8
BLACK
6
CONTINUOUS
10
213.074
20
-33.7267
11
213.077
21
-33.7217
0
LINE
8
BLACK
6
CONTINUOUS
10
213.077
20
-33.7217
11
213.08
21
-33.7171
0
LINE
8
BLACK
6
CONTINUOUS
10
213.08
20
-33.7171
11
213.082
21
-33.7154
0
LINE
8
BLACK
6
CONTINUOUS
10
213.082
20
-33.7154
11
213.086
21
-33.7046
0
LINE
8
BLACK
6
CONTINUOUS
10
213.086
20
-33.7046
11
213.097
21
-33.6911
0
LINE
8
BLACK
6
CONTINUOUS
10
213.097
20
-33.6911
11
213.113
21
-33.6823
0
LINE
8
BLACK
6
CONTINUOUS
10
213.113
20
-33.6823
11
213.126
21
-33.68
0
LINE
8
BLACK
6
CONTINUOUS
10
213.126
20
-33.68
11
252.454
21
-33.675
0
LINE
8
BLACK
6
CONTINUOUS
10
252.454
20
-33.675
11
252.467
21
-33.6773
0
LINE
8
BLACK
6
CONTINUOUS
10
213.165
20
-33.78
11
212.98
21
-35.065
0
LINE
8
BLACK
6
CONTINUOUS
10
212.98
20
-35.065
11
212.979
21
-35.07
0
LINE
8
BLACK
6
CONTINUOUS
10
212.979
20
-35.07
11
212.979
21
-35.0704
0
LINE
8
BLACK
6
CONTINUOUS
10
212.979
20
-35.0704
11
212.979
21
-35.0708
0
LINE
8
BLACK
6
CONTINUOUS
10
212.979
20
-35.0708
11
212.64
21
-36.3481
0
LINE
8
BLACK
6
CONTINUOUS
10
212.64
20
-36.3481
11
212.64
21
-36.3481
0
LINE
8
BLACK
6
CONTINUOUS
10
212.64
20
-36.3481
11
212.64
21
-36.3482
0
LINE
8
BLACK
6
CONTINUOUS
10
212.64
20
-36.3482
11
212.638
21
-36.3529
0
LINE
8
BLACK
6
CONTINUOUS
10
212.638
20
-36.3529
11
212.638
21
-36.3533
0
LINE
8
BLACK
6
CONTINUOUS
10
212.638
20
-36.3533
11
212.638
21
-36.3537
0
LINE
8
BLACK
6
CONTINUOUS
10
212.638
20
-36.3537
11
212.152
21
-37.5827
0
LINE
8
BLACK
6
CONTINUOUS
10
212.152
20
-37.5827
11
212.152
21
-37.5827
0
LINE
8
BLACK
6
CONTINUOUS
10
212.152
20
-37.5827
11
212.152
21
-37.5828
0
LINE
8
BLACK
6
CONTINUOUS
10
212.152
20
-37.5828
11
212.15
21
-37.5873
0
LINE
8
BLACK
6
CONTINUOUS
10
212.15
20
-37.5873
11
212.15
21
-37.5877
0
LINE
8
BLACK
6
CONTINUOUS
10
212.15
20
-37.5877
11
212.15
21
-37.588
0
LINE
8
BLACK
6
CONTINUOUS
10
212.15
20
-37.588
11
211.524
21
-38.752
0
LINE
8
BLACK
6
CONTINUOUS
10
211.524
20
-38.752
11
211.521
21
-38.7564
0
LINE
8
BLACK
6
CONTINUOUS
10
211.521
20
-38.7564
11
211.521
21
-38.7567
0
LINE
8
BLACK
6
CONTINUOUS
10
211.521
20
-38.7567
11
211.521
21
-38.757
0
LINE
8
BLACK
6
CONTINUOUS
10
211.521
20
-38.757
11
210.763
21
-39.84
0
LINE
8
BLACK
6
CONTINUOUS
10
210.763
20
-39.84
11
210.76
21
-39.844
0
LINE
8
BLACK
6
CONTINUOUS
10
210.76
20
-39.844
11
210.76
21
-39.8443
0
LINE
8
BLACK
6
CONTINUOUS
10
210.76
20
-39.8443
11
210.76
21
-39.8446
0
LINE
8
BLACK
6
CONTINUOUS
10
210.76
20
-39.8446
11
209.881
21
-40.8319
0
LINE
8
BLACK
6
CONTINUOUS
10
209.881
20
-40.8319
11
209.878
21
-40.8355
0
LINE
8
BLACK
6
CONTINUOUS
10
209.878
20
-40.8355
11
209.877
21
-40.8357
0
LINE
8
BLACK
6
CONTINUOUS
10
209.877
20
-40.8357
11
209.877
21
-40.836
0
LINE
8
BLACK
6
CONTINUOUS
10
209.877
20
-40.836
11
208.889
21
-41.714
0
LINE
8
BLACK
6
CONTINUOUS
10
208.889
20
-41.714
11
208.889
21
-41.714
0
LINE
8
BLACK
6
CONTINUOUS
10
208.889
20
-41.714
11
208.889
21
-41.7141
0
LINE
8
BLACK
6
CONTINUOUS
10
208.889
20
-41.7141
11
208.885
21
-41.7172
0
LINE
8
BLACK
6
CONTINUOUS
10
208.885
20
-41.7172
11
208.885
21
-41.7174
0
LINE
8
BLACK
6
CONTINUOUS
10
208.885
20
-41.7174
11
208.885
21
-41.7176
0
LINE
8
BLACK
6
CONTINUOUS
10
208.885
20
-41.7176
11
207.801
21
-42.4744
0
LINE
8
BLACK
6
CONTINUOUS
10
207.801
20
-42.4744
11
207.801
21
-42.4744
0
LINE
8
BLACK
6
CONTINUOUS
10
207.801
20
-42.4744
11
207.801
21
-42.4745
0
LINE
8
BLACK
6
CONTINUOUS
10
207.801
20
-42.4745
11
207.797
21
-42.4771
0
LINE
8
BLACK
6
CONTINUOUS
10
207.797
20
-42.4771
11
207.796
21
-42.4773
0
LINE
8
BLACK
6
CONTINUOUS
10
207.796
20
-42.4773
11
207.796
21
-42.4775
0
LINE
8
BLACK
6
CONTINUOUS
10
207.796
20
-42.4775
11
206.632
21
-43.1026
0
LINE
8
BLACK
6
CONTINUOUS
10
206.632
20
-43.1026
11
206.632
21
-43.1026
0
LINE
8
BLACK
6
CONTINUOUS
10
206.632
20
-43.1026
11
206.632
21
-43.1027
0
LINE
8
BLACK
6
CONTINUOUS
10
206.632
20
-43.1027
11
206.627
21
-43.1048
0
LINE
8
BLACK
6
CONTINUOUS
10
206.627
20
-43.1048
11
206.627
21
-43.1049
0
LINE
8
BLACK
6
CONTINUOUS
10
206.627
20
-43.1049
11
206.626
21
-43.1051
0
LINE
8
BLACK
6
CONTINUOUS
10
206.626
20
-43.1051
11
205.397
21
-43.5902
0
LINE
8
BLACK
6
CONTINUOUS
10
205.397
20
-43.5902
11
205.392
21
-43.5918
0
LINE
8
BLACK
6
CONTINUOUS
10
205.392
20
-43.5918
11
205.392
21
-43.5919
0
LINE
8
BLACK
6
CONTINUOUS
10
205.392
20
-43.5919
11
205.391
21
-43.592
0
LINE
8
BLACK
6
CONTINUOUS
10
205.391
20
-43.592
11
204.114
21
-43.9303
0
LINE
8
BLACK
6
CONTINUOUS
10
204.114
20
-43.9303
11
204.109
21
-43.9314
0
LINE
8
BLACK
6
CONTINUOUS
10
204.109
20
-43.9314
11
204.109
21
-43.9314
0
LINE
8
BLACK
6
CONTINUOUS
10
204.109
20
-43.9314
11
204.108
21
-43.9315
0
LINE
8
BLACK
6
CONTINUOUS
10
204.108
20
-43.9315
11
202.81
21
-44.117
0
LINE
8
BLACK
6
CONTINUOUS
10
202.81
20
-44.117
11
202.81
21
-115.151
0
LINE
8
BLACK
6
CONTINUOUS
10
202.81
20
-115.151
11
204.074
21
-115.312
0
LINE
8
BLACK
6
CONTINUOUS
10
204.074
20
-115.312
11
204.079
21
-115.313
0
LINE
8
BLACK
6
CONTINUOUS
10
204.079
20
-115.313
11
204.079
21
-115.313
0
LINE
8
BLACK
6
CONTINUOUS
10
204.079
20
-115.313
11
204.08
21
-115.313
0
LINE
8
BLACK
6
CONTINUOUS
10
204.08
20
-115.313
11
205.359
21
-115.631
0
LINE
8
BLACK
6
CONTINUOUS
10
205.359
20
-115.631
11
205.359
21
-115.631
0
LINE
8
BLACK
6
CONTINUOUS
10
205.359
20
-115.631
11
205.359
21
-115.631
0
LINE
8
BLACK
6
CONTINUOUS
10
205.359
20
-115.631
11
205.364
21
-115.632
0
LINE
8
BLACK
6
CONTINUOUS
10
205.364
20
-115.632
11
205.364
21
-115.633
0
LINE
8
BLACK
6
CONTINUOUS
10
205.364
20
-115.633
11
205.365
21
-115.633
0
LINE
8
BLACK
6
CONTINUOUS
10
205.365
20
-115.633
11
206.598
21
-116.098
0
LINE
8
BLACK
6
CONTINUOUS
10
206.598
20
-116.098
11
206.603
21
-116.1
0
LINE
8
BLACK
6
CONTINUOUS
10
206.603
20
-116.1
11
206.603
21
-116.1
0
LINE
8
BLACK
6
CONTINUOUS
10
206.603
20
-116.1
11
206.603
21
-116.1
0
LINE
8
BLACK
6
CONTINUOUS
10
206.603
20
-116.1
11
207.774
21
-116.706
0
LINE
8
BLACK
6
CONTINUOUS
10
207.774
20
-116.706
11
207.774
21
-116.706
0
LINE
8
BLACK
6
CONTINUOUS
10
207.774
20
-116.706
11
207.774
21
-116.706
0
LINE
8
BLACK
6
CONTINUOUS
10
207.774
20
-116.706
11
207.778
21
-116.709
0
LINE
8
BLACK
6
CONTINUOUS
10
207.778
20
-116.709
11
207.779
21
-116.709
0
LINE
8
BLACK
6
CONTINUOUS
10
207.779
20
-116.709
11
207.779
21
-116.709
0
LINE
8
BLACK
6
CONTINUOUS
10
207.779
20
-116.709
11
208.871
21
-117.448
0
LINE
8
BLACK
6
CONTINUOUS
10
208.871
20
-117.448
11
208.875
21
-117.451
0
LINE
8
BLACK
6
CONTINUOUS
10
208.875
20
-117.451
11
208.875
21
-117.451
0
LINE
8
BLACK
6
CONTINUOUS
10
208.875
20
-117.451
11
208.875
21
-117.451
0
LINE
8
BLACK
6
CONTINUOUS
10
208.875
20
-117.451
11
209.874
21
-118.312
0
LINE
8
BLACK
6
CONTINUOUS
10
209.874
20
-118.312
11
209.874
21
-118.312
0
LINE
8
BLACK
6
CONTINUOUS
10
209.874
20
-118.312
11
209.874
21
-118.312
0
LINE
8
BLACK
6
CONTINUOUS
10
209.874
20
-118.312
11
209.878
21
-118.315
0
LINE
8
BLACK
6
CONTINUOUS
10
209.878
20
-118.315
11
209.878
21
-118.316
0
LINE
8
BLACK
6
CONTINUOUS
10
209.878
20
-118.316
11
209.878
21
-118.316
0
LINE
8
BLACK
6
CONTINUOUS
10
209.878
20
-118.316
11
210.769
21
-119.287
0
LINE
8
BLACK
6
CONTINUOUS
10
210.769
20
-119.287
11
210.772
21
-119.291
0
LINE
8
BLACK
6
CONTINUOUS
10
210.772
20
-119.291
11
210.773
21
-119.291
0
LINE
8
BLACK
6
CONTINUOUS
10
210.773
20
-119.291
11
210.773
21
-119.292
0
LINE
8
BLACK
6
CONTINUOUS
10
210.773
20
-119.292
11
211.545
21
-120.36
0
LINE
8
BLACK
6
CONTINUOUS
10
211.545
20
-120.36
11
211.545
21
-120.36
0
LINE
8
BLACK
6
CONTINUOUS
10
211.545
20
-120.36
11
211.545
21
-120.36
0
LINE
8
BLACK
6
CONTINUOUS
10
211.545
20
-120.36
11
211.547
21
-120.365
0
LINE
8
BLACK
6
CONTINUOUS
10
211.547
20
-120.365
11
211.548
21
-120.365
0
LINE
8
BLACK
6
CONTINUOUS
10
211.548
20
-120.365
11
211.548
21
-120.365
0
LINE
8
BLACK
6
CONTINUOUS
10
211.548
20
-120.365
11
212.189
21
-121.517
0
LINE
8
BLACK
6
CONTINUOUS
10
212.189
20
-121.517
11
212.189
21
-121.517
0
LINE
8
BLACK
6
CONTINUOUS
10
212.189
20
-121.517
11
212.189
21
-121.517
0
LINE
8
BLACK
6
CONTINUOUS
10
212.189
20
-121.517
11
212.192
21
-121.521
0
LINE
8
BLACK
6
CONTINUOUS
10
212.192
20
-121.521
11
212.192
21
-121.522
0
LINE
8
BLACK
6
CONTINUOUS
10
212.192
20
-121.522
11
212.192
21
-121.522
0
LINE
8
BLACK
6
CONTINUOUS
10
212.192
20
-121.522
11
212.695
21
-122.74
0
LINE
8
BLACK
6
CONTINUOUS
10
212.695
20
-122.74
11
212.697
21
-122.745
0
LINE
8
BLACK
6
CONTINUOUS
10
212.697
20
-122.745
11
212.697
21
-122.746
0
LINE
8
BLACK
6
CONTINUOUS
10
212.697
20
-122.746
11
212.697
21
-122.746
0
LINE
8
BLACK
6
CONTINUOUS
10
212.697
20
-122.746
11
213.054
21
-124.015
0
LINE
8
BLACK
6
CONTINUOUS
10
213.054
20
-124.015
11
213.054
21
-124.015
0
LINE
8
BLACK
6
CONTINUOUS
10
213.054
20
-124.015
11
213.054
21
-124.015
0
LINE
8
BLACK
6
CONTINUOUS
10
213.054
20
-124.015
11
213.056
21
-124.02
0
LINE
8
BLACK
6
CONTINUOUS
10
213.056
20
-124.02
11
213.056
21
-124.02
0
LINE
8
BLACK
6
CONTINUOUS
10
213.056
20
-124.02
11
213.056
21
-124.02
0
LINE
8
BLACK
6
CONTINUOUS
10
213.056
20
-124.02
11
213.263
21
-125.322
0
LINE
8
BLACK
6
CONTINUOUS
10
213.263
20
-125.322
11
213.263
21
-125.324
0
LINE
8
BLACK
6
CONTINUOUS
10
213.263
20
-125.324
11
213.263
21
-125.325
0
LINE
8
BLACK
6
CONTINUOUS
10
213.263
20
-125.325
11
213.266
21
-125.36
0
LINE
8
BLACK
6
CONTINUOUS
10
213.266
20
-125.36
11
252.758
21
-125.36
0
LINE
8
BLACK
6
CONTINUOUS
10
252.758
20
-125.36
11
252.9
21
-124.137
0
LINE
8
BLACK
6
CONTINUOUS
10
252.9
20
-124.137
11
252.901
21
-124.131
0
LINE
8
BLACK
6
CONTINUOUS
10
252.901
20
-124.131
11
252.901
21
-124.131
0
LINE
8
BLACK
6
CONTINUOUS
10
252.901
20
-124.131
11
253.207
21
-122.891
0
LINE
8
BLACK
6
CONTINUOUS
10
253.207
20
-122.891
11
253.207
21
-122.891
0
LINE
8
BLACK
6
CONTINUOUS
10
253.207
20
-122.891
11
253.208
21
-122.885
0
LINE
8
BLACK
6
CONTINUOUS
10
253.208
20
-122.885
11
253.667
21
-121.694
0
LINE
8
BLACK
6
CONTINUOUS
10
253.667
20
-121.694
11
253.669
21
-121.689
0
LINE
8
BLACK
6
CONTINUOUS
10
253.669
20
-121.689
11
253.669
21
-121.689
0
LINE
8
BLACK
6
CONTINUOUS
10
253.669
20
-121.689
11
254.273
21
-120.564
0
LINE
8
BLACK
6
CONTINUOUS
10
254.273
20
-120.564
11
254.274
21
-120.564
0
LINE
8
BLACK
6
CONTINUOUS
10
254.274
20
-120.564
11
254.275
21
-120.562
0
LINE
8
BLACK
6
CONTINUOUS
10
254.275
20
-120.562
11
254.277
21
-120.559
0
LINE
8
BLACK
6
CONTINUOUS
10
254.277
20
-120.559
11
254.277
21
-120.559
0
LINE
8
BLACK
6
CONTINUOUS
10
254.277
20
-120.559
11
255.017
21
-119.519
0
LINE
8
BLACK
6
CONTINUOUS
10
255.017
20
-119.519
11
255.021
21
-119.515
0
LINE
8
BLACK
6
CONTINUOUS
10
255.021
20
-119.515
11
255.885
21
-118.576
0
LINE
8
BLACK
6
CONTINUOUS
10
255.885
20
-118.576
11
255.89
21
-118.571
0
LINE
8
BLACK
6
CONTINUOUS
10
255.89
20
-118.571
11
255.89
21
-118.571
0
LINE
8
BLACK
6
CONTINUOUS
10
255.89
20
-118.571
11
256.865
21
-117.749
0
LINE
8
BLACK
6
CONTINUOUS
10
256.865
20
-117.749
11
256.87
21
-117.745
0
LINE
8
BLACK
6
CONTINUOUS
10
256.87
20
-117.745
11
257.941
21
-117.051
0
LINE
8
BLACK
6
CONTINUOUS
10
257.941
20
-117.051
11
257.941
21
-117.051
0
LINE
8
BLACK
6
CONTINUOUS
10
257.941
20
-117.051
11
257.944
21
-117.049
0
LINE
8
BLACK
6
CONTINUOUS
10
257.944
20
-117.049
11
257.947
21
-117.047
0
LINE
8
BLACK
6
CONTINUOUS
10
257.947
20
-117.047
11
257.947
21
-117.047
0
LINE
8
BLACK
6
CONTINUOUS
10
257.947
20
-117.047
11
259.096
21
-116.493
0
LINE
8
BLACK
6
CONTINUOUS
10
259.096
20
-116.493
11
259.102
21
-116.491
0
LINE
8
BLACK
6
CONTINUOUS
10
259.102
20
-116.491
11
260.312
21
-116.084
0
LINE
8
BLACK
6
CONTINUOUS
10
260.312
20
-116.084
11
260.318
21
-116.083
0
LINE
8
BLACK
6
CONTINUOUS
10
260.318
20
-116.083
11
260.318
21
-116.083
0
LINE
8
BLACK
6
CONTINUOUS
10
260.318
20
-116.083
11
261.569
21
-115.832
0
LINE
8
BLACK
6
CONTINUOUS
10
261.569
20
-115.832
11
261.572
21
-115.831
0
LINE
8
BLACK
6
CONTINUOUS
10
261.572
20
-115.831
11
261.574
21
-115.831
0
LINE
8
BLACK
6
CONTINUOUS
10
261.574
20
-115.831
11
262.4
21
-115.754
0
LINE
8
BLACK
6
CONTINUOUS
10
262.4
20
-115.754
11
262.4
21
-43.7949
0
LINE
8
BLACK
6
CONTINUOUS
10
262.4
20
-43.7949
11
261.1
21
-43.5961
0
LINE
8
BLACK
6
CONTINUOUS
10
261.1
20
-43.5961
11
261.099
21
-43.596
0
LINE
8
BLACK
6
CONTINUOUS
10
261.099
20
-43.596
11
261.097
21
-43.5954
0
LINE
8
BLACK
6
CONTINUOUS
10
261.097
20
-43.5954
11
261.094
21
-43.5949
0
LINE
8
BLACK
6
CONTINUOUS
10
261.094
20
-43.5949
11
259.817
21
-43.2384
0
LINE
8
BLACK
6
CONTINUOUS
10
259.817
20
-43.2384
11
259.816
21
-43.2383
0
LINE
8
BLACK
6
CONTINUOUS
10
259.816
20
-43.2383
11
259.813
21
-43.2373
0
LINE
8
BLACK
6
CONTINUOUS
10
259.813
20
-43.2373
11
259.811
21
-43.2364
0
LINE
8
BLACK
6
CONTINUOUS
10
259.811
20
-43.2364
11
258.586
21
-42.7291
0
LINE
8
BLACK
6
CONTINUOUS
10
258.586
20
-42.7291
11
258.585
21
-42.7289
0
LINE
8
BLACK
6
CONTINUOUS
10
258.585
20
-42.7289
11
258.583
21
-42.7277
0
LINE
8
BLACK
6
CONTINUOUS
10
258.583
20
-42.7277
11
258.58
21
-42.7265
0
LINE
8
BLACK
6
CONTINUOUS
10
258.58
20
-42.7265
11
257.425
21
-42.0756
0
LINE
8
BLACK
6
CONTINUOUS
10
257.425
20
-42.0756
11
257.424
21
-42.0754
0
LINE
8
BLACK
6
CONTINUOUS
10
257.424
20
-42.0754
11
257.422
21
-42.0739
0
LINE
8
BLACK
6
CONTINUOUS
10
257.422
20
-42.0739
11
257.42
21
-42.0724
0
LINE
8
BLACK
6
CONTINUOUS
10
257.42
20
-42.0724
11
256.351
21
-41.2874
0
LINE
8
BLACK
6
CONTINUOUS
10
256.351
20
-41.2874
11
256.351
21
-41.2871
0
LINE
8
BLACK
6
CONTINUOUS
10
256.351
20
-41.2871
11
256.349
21
-41.2854
0
LINE
8
BLACK
6
CONTINUOUS
10
256.349
20
-41.2854
11
256.346
21
-41.2836
0
LINE
8
BLACK
6
CONTINUOUS
10
256.346
20
-41.2836
11
255.38
21
-40.3759
0
LINE
8
BLACK
6
CONTINUOUS
10
255.38
20
-40.3759
11
255.379
21
-40.3756
0
LINE
8
BLACK
6
CONTINUOUS
10
255.379
20
-40.3756
11
255.377
21
-40.3735
0
LINE
8
BLACK
6
CONTINUOUS
10
255.377
20
-40.3735
11
255.375
21
-40.3715
0
LINE
8
BLACK
6
CONTINUOUS
10
255.375
20
-40.3715
11
254.525
21
-39.3543
0
LINE
8
BLACK
6
CONTINUOUS
10
254.525
20
-39.3543
11
254.525
21
-39.3543
0
LINE
8
BLACK
6
CONTINUOUS
10
254.525
20
-39.3543
11
254.525
21
-39.3543
0
LINE
8
BLACK
6
CONTINUOUS
10
254.525
20
-39.3543
11
254.524
21
-39.3539
0
LINE
8
BLACK
6
CONTINUOUS
10
254.524
20
-39.3539
11
254.523
21
-39.3517
0
LINE
8
BLACK
6
CONTINUOUS
10
254.523
20
-39.3517
11
254.521
21
-39.3495
0
LINE
8
BLACK
6
CONTINUOUS
10
254.521
20
-39.3495
11
253.799
21
-38.2374
0
LINE
8
BLACK
6
CONTINUOUS
10
253.799
20
-38.2374
11
253.798
21
-38.237
0
LINE
8
BLACK
6
CONTINUOUS
10
253.798
20
-38.237
11
253.797
21
-38.2346
0
LINE
8
BLACK
6
CONTINUOUS
10
253.797
20
-38.2346
11
253.796
21
-38.2322
0
LINE
8
BLACK
6
CONTINUOUS
10
253.796
20
-38.2322
11
253.212
21
-37.0414
0
LINE
8
BLACK
6
CONTINUOUS
10
253.212
20
-37.0414
11
253.212
21
-37.0409
0
LINE
8
BLACK
6
CONTINUOUS
10
253.212
20
-37.0409
11
253.211
21
-37.0384
0
LINE
8
BLACK
6
CONTINUOUS
10
253.211
20
-37.0384
11
253.21
21
-37.0358
0
LINE
8
BLACK
6
CONTINUOUS
10
253.21
20
-37.0358
11
252.774
21
-35.7835
0
LINE
8
BLACK
6
CONTINUOUS
10
252.774
20
-35.7835
11
252.773
21
-35.783
0
LINE
8
BLACK
6
CONTINUOUS
10
252.773
20
-35.783
11
252.773
21
-35.7804
0
LINE
8
BLACK
6
CONTINUOUS
10
252.773
20
-35.7804
11
252.772
21
-35.7777
0
LINE
8
BLACK
6
CONTINUOUS
10
252.772
20
-35.7777
11
252.489
21
-34.4821
0
LINE
8
BLACK
6
CONTINUOUS
10
252.489
20
-34.4821
11
252.489
21
-34.4816
0
LINE
8
BLACK
6
CONTINUOUS
10
252.489
20
-34.4816
11
252.489
21
-34.4796
0
LINE
8
BLACK
6
CONTINUOUS
10
252.489
20
-34.4796
11
252.489
21
-34.4775
0
LINE
8
BLACK
6
CONTINUOUS
10
252.489
20
-34.4775
11
252.403
21
-33.775
0
LINE
8
BLACK
6
CONTINUOUS
10
252.403
20
-33.775
11
213.165
21
-33.78
0
CIRCLE
8
BLACK
10
255.97
20
-57.17
40
1.35
0
CIRCLE
8
BLACK
10
210.14
20
-57.24
40
1.35
0
CIRCLE
8
BLACK
10
233.03
20
-39.52
40
1.35
0
CIRCLE
8
BLACK
10
232.91
20
-119.56
40
1.35
0
CIRCLE
8
BLACK
10
209.99
20
-102.16
40
1.25
0
CIRCLE
8
BLACK
10
205.65
20
-86.2
40
0.4
0
CIRCLE
8
BLACK
10
205.65
20
-88.74
40
0.4
0
CIRCLE
8
BLACK
10
205.65
20
-91.28
40
0.4
0
CIRCLE
8
BLACK
10
234.53
20
-113.72
40
0.5
0
CIRCLE
8
BLACK
10
234.53
20
-107.22
40
0.5
0
CIRCLE
8
BLACK
10
208.28
20
-64.262
40
1.2
0
CIRCLE
8
BLACK
10
208.28
20
-51.562
40
1.2
0
CIRCLE
8
BLACK
10
219.18
20
-69.012
40
1.3
0
CIRCLE
8
BLACK
10
247.18
20
-69.012
40
1.3
0
CIRCLE
8
BLACK
10
233.18
20
-46.812
40
1.3
0
CIRCLE
8
BLACK
10
243.18
20
-77.17
40
0.4
0
CIRCLE
8
BLACK
10
258.42
20
-110.19
40
0.4
0
CIRCLE
8
BLACK
10
243.18
20
-79.71
40
0.4
0
CIRCLE
8
BLACK
10
258.42
20
-107.65
40
0.4
0
CIRCLE
8
BLACK
10
243.18
20
-82.25
40
0.4
0
CIRCLE
8
BLACK
10
258.42
20
-105.11
40
0.4
0
CIRCLE
8
BLACK
10
243.18
20
-84.79
40
0.4
0
CIRCLE
8
BLACK
10
258.42
20
-102.57
40
0.4
0
CIRCLE
8
BLACK
10
243.18
20
-87.33
40
0.4
0
CIRCLE
8
BLACK
10
258.42
20
-100.03
40
0.4
0
CIRCLE
8
BLACK
10
243.18
20
-89.87
40
0.4
0
CIRCLE
8
BLACK
10
258.42
20
-97.49
40
0.4
0
CIRCLE
8
BLACK
10
243.18
20
-92.41
40
0.4
0
CIRCLE
8
BLACK
10
258.42
20
-94.95
40
0.4
0
CIRCLE
8
BLACK
10
243.18
20
-94.95
40
0.4
0
CIRCLE
8
BLACK
10
258.42
20
-92.41
40
0.4
0
CIRCLE
8
BLACK
10
243.18
20
-97.49
40
0.4
0
CIRCLE
8
BLACK
10
258.42
20
-89.87
40
0.4
0
CIRCLE
8
BLACK
10
243.18
20
-100.03
40
0.4
0
CIRCLE
8
BLACK
10
258.42
20
-87.33
40
0.4
0
CIRCLE
8
BLACK
10
243.18
20
-102.57
40
0.4
0
CIRCLE
8
BLACK
10
258.42
20
-84.79
40
0.4
0
CIRCLE
8
BLACK
10
243.18
20
-105.11
40
0.4
0
CIRCLE
8
BLACK
10
258.42
20
-82.25
40
0.4
0
CIRCLE
8
BLACK
10
243.18
20
-107.65
40
0.4
0
CIRCLE
8
BLACK
10
258.42
20
-79.71
40
0.4
0
CIRCLE
8
BLACK
10
243.18
20
-110.19
40
0.4
0
CIRCLE
8
BLACK
10
258.42
20
-77.17
40
0.4
0
CIRCLE
8
BLACK
10
243.18
20
-112.73
40
0.4
0
CIRCLE
8
BLACK
10
258.42
20
-112.73
40
0.4
0
CIRCLE
8
BLACK
10
208.28
20
-79.502
40
0.4
0
CIRCLE
8
BLACK
10
208.28
20
-82.002
40
0.4
0
CIRCLE
8
BLACK
10
213.6
20
-89.37
40
0.5
0
CIRCLE
8
BLACK
10
213.6
20
-84.37
40
0.5
0
CIRCLE
8
BLACK
10
227.69
20
-94.72
40
0.4
0
CIRCLE
8
BLACK
10
224.19
20
-94.72
40
0.4
0
CIRCLE
8
BLACK
10
223.325
20
-110.1
40
0.5
0
CIRCLE
8
BLACK
10
223.325
20
-115.1
40
0.5
0
CIRCLE
8
BLACK
10
226.9
20
-105.1
40
0.4
0
CIRCLE
8
BLACK
10
226.9
20
-101.6
40
0.4
0
CIRCLE
8
BLACK
10
232.9
20
-90.6
40
0.8
0
CIRCLE
8
BLACK
10
232.9
20
-75.36
40
0.8
0
CIRCLE
8
BLACK
10
239.15
20
-89.02
40
0.5
0
CIRCLE
8
BLACK
10
236.61
20
-89.02
40
0.5
0
CIRCLE
8
BLACK
10
206.05
20
-100.56
40
0.5
0
CIRCLE
8
BLACK
10
206.05
20
-103.1
40
0.5
0
CIRCLE
8
BLACK
10
210.6
20
-95.39
40
0.4
0
CIRCLE
8
BLACK
10
210.6
20
-97.93
40
0.4
0
CIRCLE
8
BLACK
10
210.6
20
-92.85
40
0.4
0
CIRCLE
8
BLACK
10
218.23
20
-94.09
40
0.55
0
CIRCLE
8
BLACK
10
218.23
20
-96.63
40
0.55
0
CIRCLE
8
BLACK
10
218.23
20
-99.17
40
0.55
0
CIRCLE
8
BLACK
10
235.075
20
-95.795
40
0.4
0
CIRCLE
8
BLACK
10
235.075
20
-98.335
40
0.4
0
CIRCLE
8
BLACK
10
235.075
20
-100.875
40
0.4
0
CIRCLE
8
BLACK
10
204.216
20
-75.692
40
0.5
0
CIRCLE
8
BLACK
10
206.756
20
-75.692
40
0.5
0
CIRCLE
8
BLACK
10
209.296
20
-75.692
40
0.5
0
CIRCLE
8
BLACK
10
253.774
20
-82.257
40
0.55
0
CIRCLE
8
BLACK
10
251.234
20
-82.257
40
0.55
0
CIRCLE
8
BLACK
10
248.694
20
-82.257
40
0.55
0
CIRCLE
8
BLACK
10
247.424
20
-92.925
40
0.4
0
CIRCLE
8
BLACK
10
255.044
20
-85.305
40
0.4
0
CIRCLE
8
BLACK
10
249.964
20
-92.925
40
0.4
0
CIRCLE
8
BLACK
10
252.504
20
-85.305
40
0.4
0
CIRCLE
8
BLACK
10
252.504
20
-92.925
40
0.4
0
CIRCLE
8
BLACK
10
249.964
20
-85.305
40
0.4
0
CIRCLE
8
BLACK
10
255.044
20
-92.925
40
0.4
0
CIRCLE
8
BLACK
10
247.424
20
-85.305
40
0.4
0
CIRCLE
8
BLACK
10
248.6
20
-98.7
40
0.4
0
CIRCLE
8
BLACK
10
253.48
20
-98.7
40
0.4
0
CIRCLE
8
BLACK
10
206.425
20
-110.2
40
0.75
0
CIRCLE
8
BLACK
10
213.425
20
-110.2
40
0.75
0
CIRCLE
8
BLACK
10
255.55
20
-115.875
40
1.2
0
CIRCLE
8
BLACK
10
255.55
20
-103.175
40
1.2
0
CIRCLE
8
BLACK
10
244.65
20
-120.625
40
1.3
0
CIRCLE
8
BLACK
10
216.65
20
-120.625
40
1.3
0
CIRCLE
8
BLACK
10
230.65
20
-98.425
40
1.3
  0
ENDSEC
  0
EOF
