  0
SECTION
  2
HEADER
  9
$ANGBASE
  50
0.0
  9
$ANGDIR
  70
  1
  9
$MEASUREMENT
  70
0
  0
ENDSEC
  0
SECTION
  2
TABLES
  0
TABLE
  2
LTYPE
  70
4
  0
LTYPE
  5
40F
  2
CONTINUOUS
  70
0
  3
Solid line
  72
65
  73
0
  40
0.0
  0
LTYPE
  5
410
  2
DASHDOT
 70
0
  3
Dash Dot ____ _ ____ _
 72
65
 73
4
 40
2.0
 49
1.25
 49
-0.25
 49
0.25
 49
-0.25
  0
LTYPE
  5
411
  2
DASHED
 70
0
  3
Dashed __ __ __ __ __
 72
65
 73
2
 40
0.75
 49
0.5
 49
-0.25
  0
LTYPE
  5
43B
  2
DOTTED
 70
0
  3
Dotted .  .  .  .
 72
65
 73
2
 40
0.2
 49
0.0
 49
-0.2
  0
ENDTAB
  0
TABLE
  2
STYLE
  70
4
  0
STYLE
  2
KICAD
  70
0
  40
0
  41
1
  42
1
  50
0
  71
0
  3
isocp.shx
  0
STYLE
  2
KICADB
  70
0
  40
0
  41
1
  42
1
  50
0
  71
0
  3
isocp.shx
  0
STYLE
  2
KICADI
  70
0
  40
0
  41
1
  42
1
  50
15
  71
0
  3
isocp.shx
  0
STYLE
  2
KICADBI
  70
0
  40
0
  41
1
  42
1
  50
15
  71
0
  3
isocp.shx
  0
ENDTAB
  0
TABLE
  2
LAYER
  70
30
  0
LAYER
  2
BLACK
  70
0
  62
7
  6
CONTINUOUS
  0
LAYER
  2
GRAY1
  70
0
  62
251
  6
CONTINUOUS
  0
LAYER
  2
GRAY2
  70
0
  62
8
  6
CONTINUOUS
  0
LAYER
  2
GRAY3
  70
0
  62
9
  6
CONTINUOUS
  0
LAYER
  2
WHITE
  70
0
  62
7
  6
CONTINUOUS
  0
LAYER
  2
LYELLOW
  70
0
  62
51
  6
CONTINUOUS
  0
LAYER
  2
BLUE1
  70
0
  62
178
  6
CONTINUOUS
  0
LAYER
  2
GREEN1
  70
0
  62
98
  6
CONTINUOUS
  0
LAYER
  2
CYAN1
  70
0
  62
138
  6
CONTINUOUS
  0
LAYER
  2
RED1
  70
0
  62
18
  6
CONTINUOUS
  0
LAYER
  2
MAGENTA1
  70
0
  62
228
  6
CONTINUOUS
  0
LAYER
  2
BROWN1
  70
0
  62
58
  6
CONTINUOUS
  0
LAYER
  2
BLUE2
  70
0
  62
5
  6
CONTINUOUS
  0
LAYER
  2
GREEN2
  70
0
  62
3
  6
CONTINUOUS
  0
LAYER
  2
CYAN2
  70
0
  62
4
  6
CONTINUOUS
  0
LAYER
  2
RED2
  70
0
  62
1
  6
CONTINUOUS
  0
LAYER
  2
MAGENTA2
  70
0
  62
6
  6
CONTINUOUS
  0
LAYER
  2
BROWN2
  70
0
  62
54
  6
CONTINUOUS
  0
LAYER
  2
BLUE3
  70
0
  62
171
  6
CONTINUOUS
  0
LAYER
  2
GREEN3
  70
0
  62
91
  6
CONTINUOUS
  0
LAYER
  2
CYAN3
  70
0
  62
131
  6
CONTINUOUS
  0
LAYER
  2
RED3
  70
0
  62
11
  6
CONTINUOUS
  0
LAYER
  2
MAGENTA3
  70
0
  62
221
  6
CONTINUOUS
  0
LAYER
  2
YELLOW3
  70
0
  62
2
  6
CONTINUOUS
  0
LAYER
  2
BLUE4
  70
0
  62
5
  6
CONTINUOUS
  0
LAYER
  2
GREEN4
  70
0
  62
3
  6
CONTINUOUS
  0
LAYER
  2
CYAN4
  70
0
  62
4
  6
CONTINUOUS
  0
LAYER
  2
RED4
  70
0
  62
1
  6
CONTINUOUS
  0
LAYER
  2
MAGENTA4
  70
0
  62
6
  6
CONTINUOUS
  0
LAYER
  2
YELLOW4
  70
0
  62
2
  6
CONTINUOUS
  0
ENDTAB
  0
ENDSEC
  0
SECTION
  2
ENTITIES
0
LINE
8
BLACK
6
CONTINUOUS
10
252.467
20
-33.6773
11
252.483
21
-33.6861
0
LINE
8
BLACK
6
CONTINUOUS
10
252.483
20
-33.6861
11
252.494
21
-33.6996
0
LINE
8
BLACK
6
CONTINUOUS
10
252.494
20
-33.6996
11
252.5
21
-33.7162
0
LINE
8
BLACK
6
CONTINUOUS
10
252.5
20
-33.7162
11
252.5
21
-33.7338
0
LINE
8
BLACK
6
CONTINUOUS
10
252.5
20
-33.7338
11
252.499
21
-33.7379
0
LINE
8
BLACK
6
CONTINUOUS
10
252.499
20
-33.7379
11
252.499
21
-33.738
0
LINE
8
BLACK
6
CONTINUOUS
10
252.499
20
-33.738
11
252.5
21
-33.7439
0
LINE
8
BLACK
6
CONTINUOUS
10
252.5
20
-33.7439
11
252.588
21
-34.4631
0
LINE
8
BLACK
6
CONTINUOUS
10
252.588
20
-34.4631
11
252.869
21
-35.7535
0
LINE
8
BLACK
6
CONTINUOUS
10
252.869
20
-35.7535
11
253.303
21
-37.0001
0
LINE
8
BLACK
6
CONTINUOUS
10
253.303
20
-37.0001
11
253.884
21
-38.1855
0
LINE
8
BLACK
6
CONTINUOUS
10
253.884
20
-38.1855
11
254.603
21
-39.2925
0
LINE
8
BLACK
6
CONTINUOUS
10
254.603
20
-39.2925
11
255.45
21
-40.3051
0
LINE
8
BLACK
6
CONTINUOUS
10
255.45
20
-40.3051
11
256.413
21
-41.2086
0
LINE
8
BLACK
6
CONTINUOUS
10
256.413
20
-41.2086
11
257.477
21
-41.99
0
LINE
8
BLACK
6
CONTINUOUS
10
257.477
20
-41.99
11
258.627
21
-42.6379
0
LINE
8
BLACK
6
CONTINUOUS
10
258.627
20
-42.6379
11
259.846
21
-43.1429
0
LINE
8
BLACK
6
CONTINUOUS
10
259.846
20
-43.1429
11
261.118
21
-43.4977
0
LINE
8
BLACK
6
CONTINUOUS
10
261.118
20
-43.4977
11
262.426
21
-43.6977
0
LINE
8
BLACK
6
CONTINUOUS
10
262.426
20
-43.6977
11
262.426
21
-43.6978
0
LINE
8
BLACK
6
CONTINUOUS
10
262.426
20
-43.6978
11
262.432
21
-43.6991
0
LINE
8
BLACK
6
CONTINUOUS
10
262.432
20
-43.6991
11
262.438
21
-43.7011
0
LINE
8
BLACK
6
CONTINUOUS
10
262.438
20
-43.7011
11
262.438
21
-43.7012
0
LINE
8
BLACK
6
CONTINUOUS
10
262.438
20
-43.7012
11
262.441
21
-43.7
0
LINE
8
BLACK
6
CONTINUOUS
10
262.441
20
-43.7
11
262.459
21
-43.7
0
LINE
8
BLACK
6
CONTINUOUS
10
262.459
20
-43.7
11
262.475
21
-43.706
0
LINE
8
BLACK
6
CONTINUOUS
10
262.475
20
-43.706
11
262.489
21
-43.7174
0
LINE
8
BLACK
6
CONTINUOUS
10
262.489
20
-43.7174
11
262.498
21
-43.7326
0
LINE
8
BLACK
6
CONTINUOUS
10
262.498
20
-43.7326
11
262.5
21
-43.7456
0
LINE
8
BLACK
6
CONTINUOUS
10
262.5
20
-43.7456
11
262.5
21
-115.804
0
LINE
8
BLACK
6
CONTINUOUS
10
262.5
20
-115.804
11
262.498
21
-115.817
0
LINE
8
BLACK
6
CONTINUOUS
10
262.498
20
-115.817
11
262.489
21
-115.833
0
LINE
8
BLACK
6
CONTINUOUS
10
262.489
20
-115.833
11
262.475
21
-115.844
0
LINE
8
BLACK
6
CONTINUOUS
10
262.475
20
-115.844
11
262.459
21
-115.85
0
LINE
8
BLACK
6
CONTINUOUS
10
262.459
20
-115.85
11
262.452
21
-115.85
0
LINE
8
BLACK
6
CONTINUOUS
10
262.452
20
-115.85
11
261.586
21
-115.93
0
LINE
8
BLACK
6
CONTINUOUS
10
261.586
20
-115.93
11
260.341
21
-116.18
0
LINE
8
BLACK
6
CONTINUOUS
10
260.341
20
-116.18
11
259.137
21
-116.584
0
LINE
8
BLACK
6
CONTINUOUS
10
259.137
20
-116.584
11
257.993
21
-117.136
0
LINE
8
BLACK
6
CONTINUOUS
10
257.993
20
-117.136
11
256.927
21
-117.827
0
LINE
8
BLACK
6
CONTINUOUS
10
256.927
20
-117.827
11
255.957
21
-118.646
0
LINE
8
BLACK
6
CONTINUOUS
10
255.957
20
-118.646
11
255.096
21
-119.58
0
LINE
8
BLACK
6
CONTINUOUS
10
255.096
20
-119.58
11
254.36
21
-120.615
0
LINE
8
BLACK
6
CONTINUOUS
10
254.36
20
-120.615
11
253.759
21
-121.733
0
LINE
8
BLACK
6
CONTINUOUS
10
253.759
20
-121.733
11
253.303
21
-122.918
0
LINE
8
BLACK
6
CONTINUOUS
10
253.303
20
-122.918
11
252.999
21
-124.151
0
LINE
8
BLACK
6
CONTINUOUS
10
252.999
20
-124.151
11
252.852
21
-125.416
0
LINE
8
BLACK
6
CONTINUOUS
10
252.852
20
-125.416
11
252.851
21
-125.422
0
LINE
8
BLACK
6
CONTINUOUS
10
252.851
20
-125.422
11
252.849
21
-125.428
0
LINE
8
BLACK
6
CONTINUOUS
10
252.849
20
-125.428
11
252.846
21
-125.434
0
LINE
8
BLACK
6
CONTINUOUS
10
252.846
20
-125.434
11
252.843
21
-125.439
0
LINE
8
BLACK
6
CONTINUOUS
10
252.843
20
-125.439
11
252.839
21
-125.444
0
LINE
8
BLACK
6
CONTINUOUS
10
252.839
20
-125.444
11
252.834
21
-125.448
0
LINE
8
BLACK
6
CONTINUOUS
10
252.834
20
-125.448
11
252.829
21
-125.452
0
LINE
8
BLACK
6
CONTINUOUS
10
252.829
20
-125.452
11
252.824
21
-125.455
0
LINE
8
BLACK
6
CONTINUOUS
10
252.824
20
-125.455
11
252.818
21
-125.458
0
LINE
8
BLACK
6
CONTINUOUS
10
252.818
20
-125.458
11
252.817
21
-125.458
0
LINE
8
BLACK
6
CONTINUOUS
10
252.817
20
-125.458
11
252.817
21
-125.458
0
LINE
8
BLACK
6
CONTINUOUS
10
252.817
20
-125.458
11
252.817
21
-125.458
0
LINE
8
BLACK
6
CONTINUOUS
10
252.817
20
-125.458
11
252.812
21
-125.459
0
LINE
8
BLACK
6
CONTINUOUS
10
252.812
20
-125.459
11
252.806
21
-125.46
0
LINE
8
BLACK
6
CONTINUOUS
10
252.806
20
-125.46
11
252.804
21
-125.46
0
LINE
8
BLACK
6
CONTINUOUS
10
252.804
20
-125.46
11
252.804
21
-125.46
0
LINE
8
BLACK
6
CONTINUOUS
10
252.804
20
-125.46
11
252.803
21
-125.46
0
LINE
8
BLACK
6
CONTINUOUS
10
252.803
20
-125.46
11
252.799
21
-125.46
0
LINE
8
BLACK
6
CONTINUOUS
10
252.799
20
-125.46
11
252.799
21
-125.46
0
LINE
8
BLACK
6
CONTINUOUS
10
252.799
20
-125.46
11
213.226
21
-125.46
0
LINE
8
BLACK
6
CONTINUOUS
10
213.226
20
-125.46
11
213.213
21
-125.458
0
LINE
8
BLACK
6
CONTINUOUS
10
213.213
20
-125.458
11
213.197
21
-125.449
0
LINE
8
BLACK
6
CONTINUOUS
10
213.197
20
-125.449
11
213.19
21
-125.44
0
LINE
8
BLACK
6
CONTINUOUS
10
213.19
20
-125.44
11
213.189
21
-125.44
0
LINE
8
BLACK
6
CONTINUOUS
10
213.189
20
-125.44
11
213.185
21
-125.436
0
LINE
8
BLACK
6
CONTINUOUS
10
213.185
20
-125.436
11
213.181
21
-125.431
0
LINE
8
BLACK
6
CONTINUOUS
10
213.181
20
-125.431
11
213.178
21
-125.427
0
LINE
8
BLACK
6
CONTINUOUS
10
213.178
20
-125.427
11
213.175
21
-125.422
0
LINE
8
BLACK
6
CONTINUOUS
10
213.175
20
-125.422
11
213.173
21
-125.416
0
LINE
8
BLACK
6
CONTINUOUS
10
213.173
20
-125.416
11
213.171
21
-125.411
0
LINE
8
BLACK
6
CONTINUOUS
10
213.171
20
-125.411
11
213.17
21
-125.405
0
LINE
8
BLACK
6
CONTINUOUS
10
213.17
20
-125.405
11
213.164
21
-125.336
0
LINE
8
BLACK
6
CONTINUOUS
10
213.164
20
-125.336
11
212.957
21
-124.039
0
LINE
8
BLACK
6
CONTINUOUS
10
212.957
20
-124.039
11
212.601
21
-122.776
0
LINE
8
BLACK
6
CONTINUOUS
10
212.601
20
-122.776
11
212.101
21
-121.563
0
LINE
8
BLACK
6
CONTINUOUS
10
212.101
20
-121.563
11
211.462
21
-120.417
0
LINE
8
BLACK
6
CONTINUOUS
10
211.462
20
-120.417
11
210.694
21
-119.353
0
LINE
8
BLACK
6
CONTINUOUS
10
210.694
20
-119.353
11
209.806
21
-118.386
0
LINE
8
BLACK
6
CONTINUOUS
10
209.806
20
-118.386
11
208.812
21
-117.529
0
LINE
8
BLACK
6
CONTINUOUS
10
208.812
20
-117.529
11
207.725
21
-116.794
0
LINE
8
BLACK
6
CONTINUOUS
10
207.725
20
-116.794
11
206.56
21
-116.19
0
LINE
8
BLACK
6
CONTINUOUS
10
206.56
20
-116.19
11
205.332
21
-115.727
0
LINE
8
BLACK
6
CONTINUOUS
10
205.332
20
-115.727
11
204.058
21
-115.411
0
LINE
8
BLACK
6
CONTINUOUS
10
204.058
20
-115.411
11
202.777
21
-115.247
0
LINE
8
BLACK
6
CONTINUOUS
10
202.777
20
-115.247
11
202.769
21
-115.25
0
LINE
8
BLACK
6
CONTINUOUS
10
202.769
20
-115.25
11
202.751
21
-115.25
0
LINE
8
BLACK
6
CONTINUOUS
10
202.751
20
-115.25
11
202.735
21
-115.244
0
LINE
8
BLACK
6
CONTINUOUS
10
202.735
20
-115.244
11
202.721
21
-115.233
0
LINE
8
BLACK
6
CONTINUOUS
10
202.721
20
-115.233
11
202.712
21
-115.217
0
LINE
8
BLACK
6
CONTINUOUS
10
202.712
20
-115.217
11
202.71
21
-115.204
0
LINE
8
BLACK
6
CONTINUOUS
10
202.71
20
-115.204
11
202.71
21
-44.0656
0
LINE
8
BLACK
6
CONTINUOUS
10
202.71
20
-44.0656
11
202.712
21
-44.0526
0
LINE
8
BLACK
6
CONTINUOUS
10
202.712
20
-44.0526
11
202.721
21
-44.0374
0
LINE
8
BLACK
6
CONTINUOUS
10
202.721
20
-44.0374
11
202.735
21
-44.026
0
LINE
8
BLACK
6
CONTINUOUS
10
202.735
20
-44.026
11
202.751
21
-44.02
0
LINE
8
BLACK
6
CONTINUOUS
10
202.751
20
-44.02
11
202.769
21
-44.02
0
LINE
8
BLACK
6
CONTINUOUS
10
202.769
20
-44.02
11
202.771
21
-44.0208
0
LINE
8
BLACK
6
CONTINUOUS
10
202.771
20
-44.0208
11
202.776
21
-44.0202
0
LINE
8
BLACK
6
CONTINUOUS
10
202.776
20
-44.0202
11
202.787
21
-44.0192
0
LINE
8
BLACK
6
CONTINUOUS
10
202.787
20
-44.0192
11
204.091
21
-43.8329
0
LINE
8
BLACK
6
CONTINUOUS
10
204.091
20
-43.8329
11
205.363
21
-43.4961
0
LINE
8
BLACK
6
CONTINUOUS
10
205.363
20
-43.4961
11
206.587
21
-43.0132
0
LINE
8
BLACK
6
CONTINUOUS
10
206.587
20
-43.0132
11
207.746
21
-42.3907
0
LINE
8
BLACK
6
CONTINUOUS
10
207.746
20
-42.3907
11
208.825
21
-41.6373
0
LINE
8
BLACK
6
CONTINUOUS
10
208.825
20
-41.6373
11
209.808
21
-40.7632
0
LINE
8
BLACK
6
CONTINUOUS
10
209.808
20
-40.7632
11
210.683
21
-39.7803
0
LINE
8
BLACK
6
CONTINUOUS
10
210.683
20
-39.7803
11
211.437
21
-38.7021
0
LINE
8
BLACK
6
CONTINUOUS
10
211.437
20
-38.7021
11
212.06
21
-37.5433
0
LINE
8
BLACK
6
CONTINUOUS
10
212.06
20
-37.5433
11
212.544
21
-36.3196
0
LINE
8
BLACK
6
CONTINUOUS
10
212.544
20
-36.3196
11
212.882
21
-35.0479
0
LINE
8
BLACK
6
CONTINUOUS
10
212.882
20
-35.0479
11
213.069
21
-33.7426
0
LINE
8
BLACK
6
CONTINUOUS
10
213.069
20
-33.7426
11
213.07
21
-33.7377
0
LINE
8
BLACK
6
CONTINUOUS
10
213.07
20
-33.7377
11
213.072
21
-33.7321
0
LINE
8
BLACK
6
CONTINUOUS
10
213.072
20
-33.7321
11
213.074
21
-33.7267
0
LINE
8
BLACK
6
CONTINUOUS
10
213.074
20
-33.7267
11
213.077
21
-33.7217
0
LINE
8
BLACK
6
CONTINUOUS
10
213.077
20
-33.7217
11
213.08
21
-33.7171
0
LINE
8
BLACK
6
CONTINUOUS
10
213.08
20
-33.7171
11
213.082
21
-33.7154
0
LINE
8
BLACK
6
CONTINUOUS
10
213.082
20
-33.7154
11
213.086
21
-33.7046
0
LINE
8
BLACK
6
CONTINUOUS
10
213.086
20
-33.7046
11
213.097
21
-33.6911
0
LINE
8
BLACK
6
CONTINUOUS
10
213.097
20
-33.6911
11
213.113
21
-33.6823
0
LINE
8
BLACK
6
CONTINUOUS
10
213.113
20
-33.6823
11
213.126
21
-33.68
0
LINE
8
BLACK
6
CONTINUOUS
10
213.126
20
-33.68
11
252.454
21
-33.675
0
LINE
8
BLACK
6
CONTINUOUS
10
252.454
20
-33.675
11
252.467
21
-33.6773
0
LINE
8
BLACK
6
CONTINUOUS
10
213.165
20
-33.78
11
212.98
21
-35.065
0
LINE
8
BLACK
6
CONTINUOUS
10
212.98
20
-35.065
11
212.979
21
-35.07
0
LINE
8
BLACK
6
CONTINUOUS
10
212.979
20
-35.07
11
212.979
21
-35.0704
0
LINE
8
BLACK
6
CONTINUOUS
10
212.979
20
-35.0704
11
212.979
21
-35.0708
0
LINE
8
BLACK
6
CONTINUOUS
10
212.979
20
-35.0708
11
212.64
21
-36.3481
0
LINE
8
BLACK
6
CONTINUOUS
10
212.64
20
-36.3481
11
212.64
21
-36.3481
0
LINE
8
BLACK
6
CONTINUOUS
10
212.64
20
-36.3481
11
212.64
21
-36.3482
0
LINE
8
BLACK
6
CONTINUOUS
10
212.64
20
-36.3482
11
212.638
21
-36.3529
0
LINE
8
BLACK
6
CONTINUOUS
10
212.638
20
-36.3529
11
212.638
21
-36.3533
0
LINE
8
BLACK
6
CONTINUOUS
10
212.638
20
-36.3533
11
212.638
21
-36.3537
0
LINE
8
BLACK
6
CONTINUOUS
10
212.638
20
-36.3537
11
212.152
21
-37.5827
0
LINE
8
BLACK
6
CONTINUOUS
10
212.152
20
-37.5827
11
212.152
21
-37.5827
0
LINE
8
BLACK
6
CONTINUOUS
10
212.152
20
-37.5827
11
212.152
21
-37.5828
0
LINE
8
BLACK
6
CONTINUOUS
10
212.152
20
-37.5828
11
212.15
21
-37.5873
0
LINE
8
BLACK
6
CONTINUOUS
10
212.15
20
-37.5873
11
212.15
21
-37.5877
0
LINE
8
BLACK
6
CONTINUOUS
10
212.15
20
-37.5877
11
212.15
21
-37.588
0
LINE
8
BLACK
6
CONTINUOUS
10
212.15
20
-37.588
11
211.524
21
-38.752
0
LINE
8
BLACK
6
CONTINUOUS
10
211.524
20
-38.752
11
211.521
21
-38.7564
0
LINE
8
BLACK
6
CONTINUOUS
10
211.521
20
-38.7564
11
211.521
21
-38.7567
0
LINE
8
BLACK
6
CONTINUOUS
10
211.521
20
-38.7567
11
211.521
21
-38.757
0
LINE
8
BLACK
6
CONTINUOUS
10
211.521
20
-38.757
11
210.763
21
-39.84
0
LINE
8
BLACK
6
CONTINUOUS
10
210.763
20
-39.84
11
210.76
21
-39.844
0
LINE
8
BLACK
6
CONTINUOUS
10
210.76
20
-39.844
11
210.76
21
-39.8443
0
LINE
8
BLACK
6
CONTINUOUS
10
210.76
20
-39.8443
11
210.76
21
-39.8446
0
LINE
8
BLACK
6
CONTINUOUS
10
210.76
20
-39.8446
11
209.881
21
-40.8319
0
LINE
8
BLACK
6
CONTINUOUS
10
209.881
20
-40.8319
11
209.878
21
-40.8355
0
LINE
8
BLACK
6
CONTINUOUS
10
209.878
20
-40.8355
11
209.877
21
-40.8357
0
LINE
8
BLACK
6
CONTINUOUS
10
209.877
20
-40.8357
11
209.877
21
-40.836
0
LINE
8
BLACK
6
CONTINUOUS
10
209.877
20
-40.836
11
208.889
21
-41.714
0
LINE
8
BLACK
6
CONTINUOUS
10
208.889
20
-41.714
11
208.889
21
-41.714
0
LINE
8
BLACK
6
CONTINUOUS
10
208.889
20
-41.714
11
208.889
21
-41.7141
0
LINE
8
BLACK
6
CONTINUOUS
10
208.889
20
-41.7141
11
208.885
21
-41.7172
0
LINE
8
BLACK
6
CONTINUOUS
10
208.885
20
-41.7172
11
208.885
21
-41.7174
0
LINE
8
BLACK
6
CONTINUOUS
10
208.885
20
-41.7174
11
208.885
21
-41.7176
0
LINE
8
BLACK
6
CONTINUOUS
10
208.885
20
-41.7176
11
207.801
21
-42.4744
0
LINE
8
BLACK
6
CONTINUOUS
10
207.801
20
-42.4744
11
207.801
21
-42.4744
0
LINE
8
BLACK
6
CONTINUOUS
10
207.801
20
-42.4744
11
207.801
21
-42.4745
0
LINE
8
BLACK
6
CONTINUOUS
10
207.801
20
-42.4745
11
207.797
21
-42.4771
0
LINE
8
BLACK
6
CONTINUOUS
10
207.797
20
-42.4771
11
207.796
21
-42.4773
0
LINE
8
BLACK
6
CONTINUOUS
10
207.796
20
-42.4773
11
207.796
21
-42.4775
0
LINE
8
BLACK
6
CONTINUOUS
10
207.796
20
-42.4775
11
206.632
21
-43.1026
0
LINE
8
BLACK
6
CONTINUOUS
10
206.632
20
-43.1026
11
206.632
21
-43.1026
0
LINE
8
BLACK
6
CONTINUOUS
10
206.632
20
-43.1026
11
206.632
21
-43.1027
0
LINE
8
BLACK
6
CONTINUOUS
10
206.632
20
-43.1027
11
206.627
21
-43.1048
0
LINE
8
BLACK
6
CONTINUOUS
10
206.627
20
-43.1048
11
206.627
21
-43.1049
0
LINE
8
BLACK
6
CONTINUOUS
10
206.627
20
-43.1049
11
206.626
21
-43.1051
0
LINE
8
BLACK
6
CONTINUOUS
10
206.626
20
-43.1051
11
205.397
21
-43.5902
0
LINE
8
BLACK
6
CONTINUOUS
10
205.397
20
-43.5902
11
205.392
21
-43.5918
0
LINE
8
BLACK
6
CONTINUOUS
10
205.392
20
-43.5918
11
205.392
21
-43.5919
0
LINE
8
BLACK
6
CONTINUOUS
10
205.392
20
-43.5919
11
205.391
21
-43.592
0
LINE
8
BLACK
6
CONTINUOUS
10
205.391
20
-43.592
11
204.114
21
-43.9303
0
LINE
8
BLACK
6
CONTINUOUS
10
204.114
20
-43.9303
11
204.109
21
-43.9314
0
LINE
8
BLACK
6
CONTINUOUS
10
204.109
20
-43.9314
11
204.109
21
-43.9314
0
LINE
8
BLACK
6
CONTINUOUS
10
204.109
20
-43.9314
11
204.108
21
-43.9315
0
LINE
8
BLACK
6
CONTINUOUS
10
204.108
20
-43.9315
11
202.81
21
-44.117
0
LINE
8
BLACK
6
CONTINUOUS
10
202.81
20
-44.117
11
202.81
21
-115.151
0
LINE
8
BLACK
6
CONTINUOUS
10
202.81
20
-115.151
11
204.074
21
-115.312
0
LINE
8
BLACK
6
CONTINUOUS
10
204.074
20
-115.312
11
204.079
21
-115.313
0
LINE
8
BLACK
6
CONTINUOUS
10
204.079
20
-115.313
11
204.079
21
-115.313
0
LINE
8
BLACK
6
CONTINUOUS
10
204.079
20
-115.313
11
204.08
21
-115.313
0
LINE
8
BLACK
6
CONTINUOUS
10
204.08
20
-115.313
11
205.359
21
-115.631
0
LINE
8
BLACK
6
CONTINUOUS
10
205.359
20
-115.631
11
205.359
21
-115.631
0
LINE
8
BLACK
6
CONTINUOUS
10
205.359
20
-115.631
11
205.359
21
-115.631
0
LINE
8
BLACK
6
CONTINUOUS
10
205.359
20
-115.631
11
205.364
21
-115.632
0
LINE
8
BLACK
6
CONTINUOUS
10
205.364
20
-115.632
11
205.364
21
-115.633
0
LINE
8
BLACK
6
CONTINUOUS
10
205.364
20
-115.633
11
205.365
21
-115.633
0
LINE
8
BLACK
6
CONTINUOUS
10
205.365
20
-115.633
11
206.598
21
-116.098
0
LINE
8
BLACK
6
CONTINUOUS
10
206.598
20
-116.098
11
206.603
21
-116.1
0
LINE
8
BLACK
6
CONTINUOUS
10
206.603
20
-116.1
11
206.603
21
-116.1
0
LINE
8
BLACK
6
CONTINUOUS
10
206.603
20
-116.1
11
206.603
21
-116.1
0
LINE
8
BLACK
6
CONTINUOUS
10
206.603
20
-116.1
11
207.774
21
-116.706
0
LINE
8
BLACK
6
CONTINUOUS
10
207.774
20
-116.706
11
207.774
21
-116.706
0
LINE
8
BLACK
6
CONTINUOUS
10
207.774
20
-116.706
11
207.774
21
-116.706
0
LINE
8
BLACK
6
CONTINUOUS
10
207.774
20
-116.706
11
207.778
21
-116.709
0
LINE
8
BLACK
6
CONTINUOUS
10
207.778
20
-116.709
11
207.779
21
-116.709
0
LINE
8
BLACK
6
CONTINUOUS
10
207.779
20
-116.709
11
207.779
21
-116.709
0
LINE
8
BLACK
6
CONTINUOUS
10
207.779
20
-116.709
11
208.871
21
-117.448
0
LINE
8
BLACK
6
CONTINUOUS
10
208.871
20
-117.448
11
208.875
21
-117.451
0
LINE
8
BLACK
6
CONTINUOUS
10
208.875
20
-117.451
11
208.875
21
-117.451
0
LINE
8
BLACK
6
CONTINUOUS
10
208.875
20
-117.451
11
208.875
21
-117.451
0
LINE
8
BLACK
6
CONTINUOUS
10
208.875
20
-117.451
11
209.874
21
-118.312
0
LINE
8
BLACK
6
CONTINUOUS
10
209.874
20
-118.312
11
209.874
21
-118.312
0
LINE
8
BLACK
6
CONTINUOUS
10
209.874
20
-118.312
11
209.874
21
-118.312
0
LINE
8
BLACK
6
CONTINUOUS
10
209.874
20
-118.312
11
209.878
21
-118.315
0
LINE
8
BLACK
6
CONTINUOUS
10
209.878
20
-118.315
11
209.878
21
-118.316
0
LINE
8
BLACK
6
CONTINUOUS
10
209.878
20
-118.316
11
209.878
21
-118.316
0
LINE
8
BLACK
6
CONTINUOUS
10
209.878
20
-118.316
11
210.769
21
-119.287
0
LINE
8
BLACK
6
CONTINUOUS
10
210.769
20
-119.287
11
210.772
21
-119.291
0
LINE
8
BLACK
6
CONTINUOUS
10
210.772
20
-119.291
11
210.773
21
-119.291
0
LINE
8
BLACK
6
CONTINUOUS
10
210.773
20
-119.291
11
210.773
21
-119.292
0
LINE
8
BLACK
6
CONTINUOUS
10
210.773
20
-119.292
11
211.545
21
-120.36
0
LINE
8
BLACK
6
CONTINUOUS
10
211.545
20
-120.36
11
211.545
21
-120.36
0
LINE
8
BLACK
6
CONTINUOUS
10
211.545
20
-120.36
11
211.545
21
-120.36
0
LINE
8
BLACK
6
CONTINUOUS
10
211.545
20
-120.36
11
211.547
21
-120.365
0
LINE
8
BLACK
6
CONTINUOUS
10
211.547
20
-120.365
11
211.548
21
-120.365
0
LINE
8
BLACK
6
CONTINUOUS
10
211.548
20
-120.365
11
211.548
21
-120.365
0
LINE
8
BLACK
6
CONTINUOUS
10
211.548
20
-120.365
11
212.189
21
-121.517
0
LINE
8
BLACK
6
CONTINUOUS
10
212.189
20
-121.517
11
212.189
21
-121.517
0
LINE
8
BLACK
6
CONTINUOUS
10
212.189
20
-121.517
11
212.189
21
-121.517
0
LINE
8
BLACK
6
CONTINUOUS
10
212.189
20
-121.517
11
212.192
21
-121.521
0
LINE
8
BLACK
6
CONTINUOUS
10
212.192
20
-121.521
11
212.192
21
-121.522
0
LINE
8
BLACK
6
CONTINUOUS
10
212.192
20
-121.522
11
212.192
21
-121.522
0
LINE
8
BLACK
6
CONTINUOUS
10
212.192
20
-121.522
11
212.695
21
-122.74
0
LINE
8
BLACK
6
CONTINUOUS
10
212.695
20
-122.74
11
212.697
21
-122.745
0
LINE
8
BLACK
6
CONTINUOUS
10
212.697
20
-122.745
11
212.697
21
-122.746
0
LINE
8
BLACK
6
CONTINUOUS
10
212.697
20
-122.746
11
212.697
21
-122.746
0
LINE
8
BLACK
6
CONTINUOUS
10
212.697
20
-122.746
11
213.054
21
-124.015
0
LINE
8
BLACK
6
CONTINUOUS
10
213.054
20
-124.015
11
213.054
21
-124.015
0
LINE
8
BLACK
6
CONTINUOUS
10
213.054
20
-124.015
11
213.054
21
-124.015
0
LINE
8
BLACK
6
CONTINUOUS
10
213.054
20
-124.015
11
213.056
21
-124.02
0
LINE
8
BLACK
6
CONTINUOUS
10
213.056
20
-124.02
11
213.056
21
-124.02
0
LINE
8
BLACK
6
CONTINUOUS
10
213.056
20
-124.02
11
213.056
21
-124.02
0
LINE
8
BLACK
6
CONTINUOUS
10
213.056
20
-124.02
11
213.263
21
-125.322
0
LINE
8
BLACK
6
CONTINUOUS
10
213.263
20
-125.322
11
213.263
21
-125.324
0
LINE
8
BLACK
6
CONTINUOUS
10
213.263
20
-125.324
11
213.263
21
-125.325
0
LINE
8
BLACK
6
CONTINUOUS
10
213.263
20
-125.325
11
213.266
21
-125.36
0
LINE
8
BLACK
6
CONTINUOUS
10
213.266
20
-125.36
11
252.758
21
-125.36
0
LINE
8
BLACK
6
CONTINUOUS
10
252.758
20
-125.36
11
252.9
21
-124.137
0
LINE
8
BLACK
6
CONTINUOUS
10
252.9
20
-124.137
11
252.901
21
-124.131
0
LINE
8
BLACK
6
CONTINUOUS
10
252.901
20
-124.131
11
252.901
21
-124.131
0
LINE
8
BLACK
6
CONTINUOUS
10
252.901
20
-124.131
11
253.207
21
-122.891
0
LINE
8
BLACK
6
CONTINUOUS
10
253.207
20
-122.891
11
253.207
21
-122.891
0
LINE
8
BLACK
6
CONTINUOUS
10
253.207
20
-122.891
11
253.208
21
-122.885
0
LINE
8
BLACK
6
CONTINUOUS
10
253.208
20
-122.885
11
253.667
21
-121.694
0
LINE
8
BLACK
6
CONTINUOUS
10
253.667
20
-121.694
11
253.669
21
-121.689
0
LINE
8
BLACK
6
CONTINUOUS
10
253.669
20
-121.689
11
253.669
21
-121.689
0
LINE
8
BLACK
6
CONTINUOUS
10
253.669
20
-121.689
11
254.273
21
-120.564
0
LINE
8
BLACK
6
CONTINUOUS
10
254.273
20
-120.564
11
254.274
21
-120.564
0
LINE
8
BLACK
6
CONTINUOUS
10
254.274
20
-120.564
11
254.275
21
-120.562
0
LINE
8
BLACK
6
CONTINUOUS
10
254.275
20
-120.562
11
254.277
21
-120.559
0
LINE
8
BLACK
6
CONTINUOUS
10
254.277
20
-120.559
11
254.277
21
-120.559
0
LINE
8
BLACK
6
CONTINUOUS
10
254.277
20
-120.559
11
255.017
21
-119.519
0
LINE
8
BLACK
6
CONTINUOUS
10
255.017
20
-119.519
11
255.021
21
-119.515
0
LINE
8
BLACK
6
CONTINUOUS
10
255.021
20
-119.515
11
255.885
21
-118.576
0
LINE
8
BLACK
6
CONTINUOUS
10
255.885
20
-118.576
11
255.89
21
-118.571
0
LINE
8
BLACK
6
CONTINUOUS
10
255.89
20
-118.571
11
255.89
21
-118.571
0
LINE
8
BLACK
6
CONTINUOUS
10
255.89
20
-118.571
11
256.865
21
-117.749
0
LINE
8
BLACK
6
CONTINUOUS
10
256.865
20
-117.749
11
256.87
21
-117.745
0
LINE
8
BLACK
6
CONTINUOUS
10
256.87
20
-117.745
11
257.941
21
-117.051
0
LINE
8
BLACK
6
CONTINUOUS
10
257.941
20
-117.051
11
257.941
21
-117.051
0
LINE
8
BLACK
6
CONTINUOUS
10
257.941
20
-117.051
11
257.944
21
-117.049
0
LINE
8
BLACK
6
CONTINUOUS
10
257.944
20
-117.049
11
257.947
21
-117.047
0
LINE
8
BLACK
6
CONTINUOUS
10
257.947
20
-117.047
11
257.947
21
-117.047
0
LINE
8
BLACK
6
CONTINUOUS
10
257.947
20
-117.047
11
259.096
21
-116.493
0
LINE
8
BLACK
6
CONTINUOUS
10
259.096
20
-116.493
11
259.102
21
-116.491
0
LINE
8
BLACK
6
CONTINUOUS
10
259.102
20
-116.491
11
260.312
21
-116.084
0
LINE
8
BLACK
6
CONTINUOUS
10
260.312
20
-116.084
11
260.318
21
-116.083
0
LINE
8
BLACK
6
CONTINUOUS
10
260.318
20
-116.083
11
260.318
21
-116.083
0
LINE
8
BLACK
6
CONTINUOUS
10
260.318
20
-116.083
11
261.569
21
-115.832
0
LINE
8
BLACK
6
CONTINUOUS
10
261.569
20
-115.832
11
261.572
21
-115.831
0
LINE
8
BLACK
6
CONTINUOUS
10
261.572
20
-115.831
11
261.574
21
-115.831
0
LINE
8
BLACK
6
CONTINUOUS
10
261.574
20
-115.831
11
262.4
21
-115.754
0
LINE
8
BLACK
6
CONTINUOUS
10
262.4
20
-115.754
11
262.4
21
-43.7949
0
LINE
8
BLACK
6
CONTINUOUS
10
262.4
20
-43.7949
11
261.1
21
-43.5961
0
LINE
8
BLACK
6
CONTINUOUS
10
261.1
20
-43.5961
11
261.099
21
-43.596
0
LINE
8
BLACK
6
CONTINUOUS
10
261.099
20
-43.596
11
261.097
21
-43.5954
0
LINE
8
BLACK
6
CONTINUOUS
10
261.097
20
-43.5954
11
261.094
21
-43.5949
0
LINE
8
BLACK
6
CONTINUOUS
10
261.094
20
-43.5949
11
259.817
21
-43.2384
0
LINE
8
BLACK
6
CONTINUOUS
10
259.817
20
-43.2384
11
259.816
21
-43.2383
0
LINE
8
BLACK
6
CONTINUOUS
10
259.816
20
-43.2383
11
259.813
21
-43.2373
0
LINE
8
BLACK
6
CONTINUOUS
10
259.813
20
-43.2373
11
259.811
21
-43.2364
0
LINE
8
BLACK
6
CONTINUOUS
10
259.811
20
-43.2364
11
258.586
21
-42.7291
0
LINE
8
BLACK
6
CONTINUOUS
10
258.586
20
-42.7291
11
258.585
21
-42.7289
0
LINE
8
BLACK
6
CONTINUOUS
10
258.585
20
-42.7289
11
258.583
21
-42.7277
0
LINE
8
BLACK
6
CONTINUOUS
10
258.583
20
-42.7277
11
258.58
21
-42.7265
0
LINE
8
BLACK
6
CONTINUOUS
10
258.58
20
-42.7265
11
257.425
21
-42.0756
0
LINE
8
BLACK
6
CONTINUOUS
10
257.425
20
-42.0756
11
257.424
21
-42.0754
0
LINE
8
BLACK
6
CONTINUOUS
10
257.424
20
-42.0754
11
257.422
21
-42.0739
0
LINE
8
BLACK
6
CONTINUOUS
10
257.422
20
-42.0739
11
257.42
21
-42.0724
0
LINE
8
BLACK
6
CONTINUOUS
10
257.42
20
-42.0724
11
256.351
21
-41.2874
0
LINE
8
BLACK
6
CONTINUOUS
10
256.351
20
-41.2874
11
256.351
21
-41.2871
0
LINE
8
BLACK
6
CONTINUOUS
10
256.351
20
-41.2871
11
256.349
21
-41.2854
0
LINE
8
BLACK
6
CONTINUOUS
10
256.349
20
-41.2854
11
256.346
21
-41.2836
0
LINE
8
BLACK
6
CONTINUOUS
10
256.346
20
-41.2836
11
255.38
21
-40.3759
0
LINE
8
BLACK
6
CONTINUOUS
10
255.38
20
-40.3759
11
255.379
21
-40.3756
0
LINE
8
BLACK
6
CONTINUOUS
10
255.379
20
-40.3756
11
255.377
21
-40.3735
0
LINE
8
BLACK
6
CONTINUOUS
10
255.377
20
-40.3735
11
255.375
21
-40.3715
0
LINE
8
BLACK
6
CONTINUOUS
10
255.375
20
-40.3715
11
254.525
21
-39.3543
0
LINE
8
BLACK
6
CONTINUOUS
10
254.525
20
-39.3543
11
254.525
21
-39.3543
0
LINE
8
BLACK
6
CONTINUOUS
10
254.525
20
-39.3543
11
254.525
21
-39.3543
0
LINE
8
BLACK
6
CONTINUOUS
10
254.525
20
-39.3543
11
254.524
21
-39.3539
0
LINE
8
BLACK
6
CONTINUOUS
10
254.524
20
-39.3539
11
254.523
21
-39.3517
0
LINE
8
BLACK
6
CONTINUOUS
10
254.523
20
-39.3517
11
254.521
21
-39.3495
0
LINE
8
BLACK
6
CONTINUOUS
10
254.521
20
-39.3495
11
253.799
21
-38.2374
0
LINE
8
BLACK
6
CONTINUOUS
10
253.799
20
-38.2374
11
253.798
21
-38.237
0
LINE
8
BLACK
6
CONTINUOUS
10
253.798
20
-38.237
11
253.797
21
-38.2346
0
LINE
8
BLACK
6
CONTINUOUS
10
253.797
20
-38.2346
11
253.796
21
-38.2322
0
LINE
8
BLACK
6
CONTINUOUS
10
253.796
20
-38.2322
11
253.212
21
-37.0414
0
LINE
8
BLACK
6
CONTINUOUS
10
253.212
20
-37.0414
11
253.212
21
-37.0409
0
LINE
8
BLACK
6
CONTINUOUS
10
253.212
20
-37.0409
11
253.211
21
-37.0384
0
LINE
8
BLACK
6
CONTINUOUS
10
253.211
20
-37.0384
11
253.21
21
-37.0358
0
LINE
8
BLACK
6
CONTINUOUS
10
253.21
20
-37.0358
11
252.774
21
-35.7835
0
LINE
8
BLACK
6
CONTINUOUS
10
252.774
20
-35.7835
11
252.773
21
-35.783
0
LINE
8
BLACK
6
CONTINUOUS
10
252.773
20
-35.783
11
252.773
21
-35.7804
0
LINE
8
BLACK
6
CONTINUOUS
10
252.773
20
-35.7804
11
252.772
21
-35.7777
0
LINE
8
BLACK
6
CONTINUOUS
10
252.772
20
-35.7777
11
252.489
21
-34.4821
0
LINE
8
BLACK
6
CONTINUOUS
10
252.489
20
-34.4821
11
252.489
21
-34.4816
0
LINE
8
BLACK
6
CONTINUOUS
10
252.489
20
-34.4816
11
252.489
21
-34.4796
0
LINE
8
BLACK
6
CONTINUOUS
10
252.489
20
-34.4796
11
252.489
21
-34.4775
0
LINE
8
BLACK
6
CONTINUOUS
10
252.489
20
-34.4775
11
252.403
21
-33.775
0
LINE
8
BLACK
6
CONTINUOUS
10
252.403
20
-33.775
11
213.165
21
-33.78
  0
ENDSEC
  0
EOF
