G04 #@! TF.GenerationSoftware,KiCad,Pcbnew,(5.0.2)-1*
G04 #@! TF.CreationDate,2019-03-20T14:53:53-04:00*
G04 #@! TF.ProjectId,_saved__saved_tDCS,5f736176-6564-45f5-9f73-617665645f74,rev?*
G04 #@! TF.SameCoordinates,Original*
G04 #@! TF.FileFunction,Copper,L2,Bot*
G04 #@! TF.FilePolarity,Positive*
%FSLAX46Y46*%
G04 Gerber Fmt 4.6, Leading zero omitted, Abs format (unit mm)*
G04 Created by KiCad (PCBNEW (5.0.2)-1) date 3/20/2019 2:53:53 PM*
%MOMM*%
%LPD*%
G01*
G04 APERTURE LIST*
G04 #@! TA.AperFunction,ComponentPad*
%ADD10O,1.600000X1.600000*%
G04 #@! TD*
G04 #@! TA.AperFunction,ComponentPad*
%ADD11C,1.600000*%
G04 #@! TD*
G04 #@! TA.AperFunction,ComponentPad*
%ADD12R,1.700000X1.700000*%
G04 #@! TD*
G04 #@! TA.AperFunction,ComponentPad*
%ADD13O,1.700000X1.700000*%
G04 #@! TD*
G04 #@! TA.AperFunction,ComponentPad*
%ADD14R,1.600000X1.600000*%
G04 #@! TD*
G04 #@! TA.AperFunction,ComponentPad*
%ADD15R,1.800000X1.800000*%
G04 #@! TD*
G04 #@! TA.AperFunction,ComponentPad*
%ADD16C,1.800000*%
G04 #@! TD*
G04 #@! TA.AperFunction,ComponentPad*
%ADD17R,3.200000X3.200000*%
G04 #@! TD*
G04 #@! TA.AperFunction,ComponentPad*
%ADD18O,3.200000X3.200000*%
G04 #@! TD*
G04 #@! TA.AperFunction,ComponentPad*
%ADD19O,1.050000X1.500000*%
G04 #@! TD*
G04 #@! TA.AperFunction,ComponentPad*
%ADD20R,1.050000X1.500000*%
G04 #@! TD*
G04 #@! TA.AperFunction,ComponentPad*
%ADD21O,1.905000X2.000000*%
G04 #@! TD*
G04 #@! TA.AperFunction,ComponentPad*
%ADD22R,1.905000X2.000000*%
G04 #@! TD*
G04 #@! TA.AperFunction,ComponentPad*
%ADD23R,2.000000X1.905000*%
G04 #@! TD*
G04 #@! TA.AperFunction,ComponentPad*
%ADD24O,2.000000X1.905000*%
G04 #@! TD*
G04 #@! TA.AperFunction,ComponentPad*
%ADD25R,1.350000X1.350000*%
G04 #@! TD*
G04 #@! TA.AperFunction,ComponentPad*
%ADD26O,1.350000X1.350000*%
G04 #@! TD*
G04 #@! TA.AperFunction,ComponentPad*
%ADD27R,2.000000X2.000000*%
G04 #@! TD*
G04 #@! TA.AperFunction,ComponentPad*
%ADD28C,2.000000*%
G04 #@! TD*
G04 #@! TA.AperFunction,ComponentPad*
%ADD29C,1.440000*%
G04 #@! TD*
G04 #@! TA.AperFunction,ViaPad*
%ADD30C,0.800000*%
G04 #@! TD*
G04 #@! TA.AperFunction,Conductor*
%ADD31C,0.250000*%
G04 #@! TD*
G04 #@! TA.AperFunction,Conductor*
%ADD32C,0.254000*%
G04 #@! TD*
G04 APERTURE END LIST*
D10*
G04 #@! TO.P,R9,2*
G04 #@! TO.N,Net-(J3-Pad2)*
X89535000Y-121920000D03*
D11*
G04 #@! TO.P,R9,1*
G04 #@! TO.N,Net-(Q3-Pad2)*
X81915000Y-121920000D03*
G04 #@! TD*
G04 #@! TO.P,R6,1*
G04 #@! TO.N,Net-(C5-Pad1)*
X67437000Y-117729000D03*
D10*
G04 #@! TO.P,R6,2*
G04 #@! TO.N,Net-(J1-Pad5)*
X59817000Y-117729000D03*
G04 #@! TD*
D11*
G04 #@! TO.P,R10,1*
G04 #@! TO.N,Net-(C5-Pad1)*
X59436000Y-113792000D03*
D10*
G04 #@! TO.P,R10,2*
G04 #@! TO.N,boostout-*
X67056000Y-113792000D03*
G04 #@! TD*
D12*
G04 #@! TO.P,BT2,1*
G04 #@! TO.N,Net-(BT2-Pad1)*
X53848000Y-81280000D03*
D13*
G04 #@! TO.P,BT2,2*
G04 #@! TO.N,boostout-*
X53848000Y-78740000D03*
G04 #@! TD*
D14*
G04 #@! TO.P,C1,1*
G04 #@! TO.N,+9V*
X61468000Y-86868000D03*
D11*
G04 #@! TO.P,C1,2*
G04 #@! TO.N,boostout-*
X58968000Y-86868000D03*
G04 #@! TD*
D14*
G04 #@! TO.P,C3,1*
G04 #@! TO.N,Net-(C3-Pad1)*
X79248000Y-93980000D03*
D11*
G04 #@! TO.P,C3,2*
G04 #@! TO.N,Net-(C3-Pad2)*
X76748000Y-93980000D03*
G04 #@! TD*
D15*
G04 #@! TO.P,D1,1*
G04 #@! TO.N,Net-(D1-Pad1)*
X75692000Y-121920000D03*
D16*
G04 #@! TO.P,D1,2*
G04 #@! TO.N,boostout-*
X73152000Y-121920000D03*
G04 #@! TD*
D17*
G04 #@! TO.P,D2,1*
G04 #@! TO.N,Net-(C3-Pad1)*
X89662000Y-80264000D03*
D18*
G04 #@! TO.P,D2,2*
G04 #@! TO.N,Net-(D2-Pad2)*
X76962000Y-80264000D03*
G04 #@! TD*
D12*
G04 #@! TO.P,J1,1*
G04 #@! TO.N,Net-(J1-Pad1)*
X53848000Y-101092000D03*
D13*
G04 #@! TO.P,J1,2*
G04 #@! TO.N,+5V*
X53848000Y-103632000D03*
G04 #@! TO.P,J1,3*
G04 #@! TO.N,boostout-*
X53848000Y-106172000D03*
G04 #@! TO.P,J1,4*
G04 #@! TO.N,Net-(J1-Pad4)*
X53848000Y-108712000D03*
G04 #@! TO.P,J1,5*
G04 #@! TO.N,Net-(J1-Pad5)*
X53848000Y-111252000D03*
G04 #@! TD*
G04 #@! TO.P,J2,2*
G04 #@! TO.N,boostout+*
X91694000Y-95250000D03*
D12*
G04 #@! TO.P,J2,1*
G04 #@! TO.N,boostout-*
X89154000Y-95250000D03*
G04 #@! TD*
G04 #@! TO.P,J3,1*
G04 #@! TO.N,Net-(J3-Pad1)*
X88900000Y-110871000D03*
D13*
G04 #@! TO.P,J3,2*
G04 #@! TO.N,Net-(J3-Pad2)*
X91440000Y-110871000D03*
G04 #@! TD*
D19*
G04 #@! TO.P,Q1,2*
G04 #@! TO.N,Net-(D1-Pad1)*
X83185000Y-117729000D03*
G04 #@! TO.P,Q1,3*
G04 #@! TO.N,Net-(J3-Pad1)*
X84455000Y-117729000D03*
D20*
G04 #@! TO.P,Q1,1*
G04 #@! TO.N,Net-(Q1-Pad1)*
X81915000Y-117729000D03*
G04 #@! TD*
D21*
G04 #@! TO.P,Q2,3*
G04 #@! TO.N,boostout-*
X81280000Y-111379000D03*
G04 #@! TO.P,Q2,2*
G04 #@! TO.N,Net-(D1-Pad1)*
X78740000Y-111379000D03*
D22*
G04 #@! TO.P,Q2,1*
G04 #@! TO.N,Net-(C5-Pad1)*
X76200000Y-111379000D03*
G04 #@! TD*
D23*
G04 #@! TO.P,Q3,1*
G04 #@! TO.N,Net-(J1-Pad4)*
X53721000Y-117094000D03*
D24*
G04 #@! TO.P,Q3,2*
G04 #@! TO.N,Net-(Q3-Pad2)*
X53721000Y-119634000D03*
G04 #@! TO.P,Q3,3*
G04 #@! TO.N,Net-(J1-Pad1)*
X53721000Y-122174000D03*
G04 #@! TD*
D10*
G04 #@! TO.P,R1,2*
G04 #@! TO.N,boostout+*
X88138000Y-99695000D03*
D11*
G04 #@! TO.P,R1,1*
G04 #@! TO.N,Net-(D1-Pad1)*
X88138000Y-107315000D03*
G04 #@! TD*
D10*
G04 #@! TO.P,R2,2*
G04 #@! TO.N,boostout-*
X70612000Y-117602000D03*
D11*
G04 #@! TO.P,R2,1*
G04 #@! TO.N,Net-(Q1-Pad1)*
X78232000Y-117602000D03*
G04 #@! TD*
G04 #@! TO.P,R3,1*
G04 #@! TO.N,Net-(J3-Pad2)*
X91694000Y-107442000D03*
D10*
G04 #@! TO.P,R3,2*
G04 #@! TO.N,boostout+*
X91694000Y-99822000D03*
G04 #@! TD*
G04 #@! TO.P,R4,2*
G04 #@! TO.N,Net-(C3-Pad2)*
X76962000Y-85344000D03*
D11*
G04 #@! TO.P,R4,1*
G04 #@! TO.N,Net-(C3-Pad1)*
X84582000Y-85344000D03*
G04 #@! TD*
G04 #@! TO.P,R5,1*
G04 #@! TO.N,Net-(C3-Pad2)*
X76962000Y-89154000D03*
D10*
G04 #@! TO.P,R5,2*
G04 #@! TO.N,boostout-*
X84582000Y-89154000D03*
G04 #@! TD*
D11*
G04 #@! TO.P,R7,1*
G04 #@! TO.N,Net-(J1-Pad1)*
X59944000Y-124206000D03*
D10*
G04 #@! TO.P,R7,2*
G04 #@! TO.N,boostout-*
X67564000Y-124206000D03*
G04 #@! TD*
G04 #@! TO.P,R8,2*
G04 #@! TO.N,boostout-*
X67437000Y-121031000D03*
D11*
G04 #@! TO.P,R8,1*
G04 #@! TO.N,Net-(J1-Pad4)*
X59817000Y-121031000D03*
G04 #@! TD*
D25*
G04 #@! TO.P,SW1,1*
G04 #@! TO.N,N/C*
X53848000Y-92456000D03*
D26*
G04 #@! TO.P,SW1,2*
G04 #@! TO.N,Net-(JP1-Pad2)*
X53848000Y-94456000D03*
G04 #@! TO.P,SW1,3*
G04 #@! TO.N,+9V*
X53848000Y-96456000D03*
G04 #@! TD*
D22*
G04 #@! TO.P,U2,1*
G04 #@! TO.N,+9V*
X64516000Y-107950000D03*
D21*
G04 #@! TO.P,U2,2*
G04 #@! TO.N,boostout-*
X61976000Y-107950000D03*
G04 #@! TO.P,U2,3*
G04 #@! TO.N,+5V*
X59436000Y-107950000D03*
G04 #@! TD*
D27*
G04 #@! TO.P,C2,1*
G04 #@! TO.N,+9V*
X58928000Y-99060000D03*
D28*
G04 #@! TO.P,C2,2*
G04 #@! TO.N,boostout-*
X63928000Y-99060000D03*
G04 #@! TD*
G04 #@! TO.P,C4,2*
G04 #@! TO.N,boostout-*
X80772000Y-99648000D03*
D27*
G04 #@! TO.P,C4,1*
G04 #@! TO.N,boostout+*
X80772000Y-104648000D03*
G04 #@! TD*
D14*
G04 #@! TO.P,C5,1*
G04 #@! TO.N,Net-(C5-Pad1)*
X70866000Y-105410000D03*
D11*
G04 #@! TO.P,C5,2*
G04 #@! TO.N,boostout-*
X70866000Y-101910000D03*
G04 #@! TD*
D29*
G04 #@! TO.P,RV1,3*
G04 #@! TO.N,N/C*
X77216000Y-115824000D03*
G04 #@! TO.P,RV1,2*
G04 #@! TO.N,Net-(Q1-Pad1)*
X74676000Y-115824000D03*
G04 #@! TO.P,RV1,1*
G04 #@! TO.N,boostout-*
X72136000Y-115824000D03*
G04 #@! TD*
D30*
G04 #@! TO.N,boostout-*
X64414400Y-90500200D03*
X64516000Y-91440000D03*
X64312800Y-92430600D03*
X64363600Y-89560400D03*
X64312800Y-93497400D03*
X64541400Y-94437200D03*
X66903600Y-95605600D03*
G04 #@! TD*
D31*
G04 #@! TO.N,boostout-*
X64516000Y-89916000D02*
X64516000Y-91440000D01*
X64516000Y-91440000D02*
X64516000Y-92456000D01*
X64516000Y-93472000D02*
X64516000Y-93980000D01*
X64516000Y-93980000D02*
X64770000Y-94234000D01*
X65137847Y-94601847D02*
X65899847Y-94601847D01*
X65899847Y-94601847D02*
X66544153Y-95246153D01*
G04 #@! TD*
D32*
G04 #@! TO.N,boostout-*
G36*
X94265001Y-125265000D02*
X68503733Y-125265000D01*
X68795041Y-124943423D01*
X68955904Y-124555039D01*
X68833915Y-124333000D01*
X67691000Y-124333000D01*
X67691000Y-124353000D01*
X67437000Y-124353000D01*
X67437000Y-124333000D01*
X66294085Y-124333000D01*
X66172096Y-124555039D01*
X66332959Y-124943423D01*
X66624267Y-125265000D01*
X60914396Y-125265000D01*
X61160534Y-125018862D01*
X61379000Y-124491439D01*
X61379000Y-123920561D01*
X61352656Y-123856961D01*
X66172096Y-123856961D01*
X66294085Y-124079000D01*
X67437000Y-124079000D01*
X67437000Y-122935371D01*
X67691000Y-122935371D01*
X67691000Y-124079000D01*
X68833915Y-124079000D01*
X68955904Y-123856961D01*
X68795041Y-123468577D01*
X68419134Y-123053611D01*
X67913041Y-122814086D01*
X67691000Y-122935371D01*
X67437000Y-122935371D01*
X67214959Y-122814086D01*
X66708866Y-123053611D01*
X66332959Y-123468577D01*
X66172096Y-123856961D01*
X61352656Y-123856961D01*
X61160534Y-123393138D01*
X60756862Y-122989466D01*
X60229439Y-122771000D01*
X59658561Y-122771000D01*
X59131138Y-122989466D01*
X58727466Y-123393138D01*
X58509000Y-123920561D01*
X58509000Y-124491439D01*
X58727466Y-125018862D01*
X58973604Y-125265000D01*
X51735000Y-125265000D01*
X51735000Y-119634000D01*
X52054900Y-119634000D01*
X52178109Y-120253411D01*
X52528977Y-120778523D01*
X52716767Y-120904000D01*
X52528977Y-121029477D01*
X52178109Y-121554589D01*
X52054900Y-122174000D01*
X52178109Y-122793411D01*
X52528977Y-123318523D01*
X53054089Y-123669391D01*
X53517150Y-123761500D01*
X53924850Y-123761500D01*
X54387911Y-123669391D01*
X54913023Y-123318523D01*
X55263891Y-122793411D01*
X55387100Y-122174000D01*
X55263891Y-121554589D01*
X54913023Y-121029477D01*
X54725233Y-120904000D01*
X54913023Y-120778523D01*
X54935047Y-120745561D01*
X58382000Y-120745561D01*
X58382000Y-121316439D01*
X58600466Y-121843862D01*
X59004138Y-122247534D01*
X59531561Y-122466000D01*
X60102439Y-122466000D01*
X60629862Y-122247534D01*
X61033534Y-121843862D01*
X61225655Y-121380039D01*
X66045096Y-121380039D01*
X66205959Y-121768423D01*
X66581866Y-122183389D01*
X67087959Y-122422914D01*
X67310000Y-122301629D01*
X67310000Y-121158000D01*
X67564000Y-121158000D01*
X67564000Y-122301629D01*
X67786041Y-122422914D01*
X68292134Y-122183389D01*
X68668041Y-121768423D01*
X68704939Y-121679336D01*
X71605542Y-121679336D01*
X71631161Y-122289460D01*
X71815357Y-122734148D01*
X72071841Y-122820554D01*
X72972395Y-121920000D01*
X72071841Y-121019446D01*
X71815357Y-121105852D01*
X71605542Y-121679336D01*
X68704939Y-121679336D01*
X68828904Y-121380039D01*
X68706915Y-121158000D01*
X67564000Y-121158000D01*
X67310000Y-121158000D01*
X66167085Y-121158000D01*
X66045096Y-121380039D01*
X61225655Y-121380039D01*
X61252000Y-121316439D01*
X61252000Y-120745561D01*
X61225656Y-120681961D01*
X66045096Y-120681961D01*
X66167085Y-120904000D01*
X67310000Y-120904000D01*
X67310000Y-119760371D01*
X67564000Y-119760371D01*
X67564000Y-120904000D01*
X68706915Y-120904000D01*
X68742164Y-120839841D01*
X72251446Y-120839841D01*
X73152000Y-121740395D01*
X73166143Y-121726253D01*
X73345748Y-121905858D01*
X73331605Y-121920000D01*
X73345748Y-121934143D01*
X73166143Y-122113748D01*
X73152000Y-122099605D01*
X72251446Y-123000159D01*
X72337852Y-123256643D01*
X72911336Y-123466458D01*
X73521460Y-123440839D01*
X73966148Y-123256643D01*
X74052553Y-123000161D01*
X74167110Y-123114718D01*
X74201942Y-123079886D01*
X74334191Y-123277809D01*
X74544235Y-123418157D01*
X74792000Y-123467440D01*
X76592000Y-123467440D01*
X76839765Y-123418157D01*
X77049809Y-123277809D01*
X77190157Y-123067765D01*
X77239440Y-122820000D01*
X77239440Y-121634561D01*
X80480000Y-121634561D01*
X80480000Y-122205439D01*
X80698466Y-122732862D01*
X81102138Y-123136534D01*
X81629561Y-123355000D01*
X82200439Y-123355000D01*
X82727862Y-123136534D01*
X83131534Y-122732862D01*
X83350000Y-122205439D01*
X83350000Y-121920000D01*
X88071887Y-121920000D01*
X88183260Y-122479909D01*
X88500423Y-122954577D01*
X88975091Y-123271740D01*
X89393667Y-123355000D01*
X89676333Y-123355000D01*
X90094909Y-123271740D01*
X90569577Y-122954577D01*
X90886740Y-122479909D01*
X90998113Y-121920000D01*
X90886740Y-121360091D01*
X90569577Y-120885423D01*
X90094909Y-120568260D01*
X89676333Y-120485000D01*
X89393667Y-120485000D01*
X88975091Y-120568260D01*
X88500423Y-120885423D01*
X88183260Y-121360091D01*
X88071887Y-121920000D01*
X83350000Y-121920000D01*
X83350000Y-121634561D01*
X83131534Y-121107138D01*
X82727862Y-120703466D01*
X82200439Y-120485000D01*
X81629561Y-120485000D01*
X81102138Y-120703466D01*
X80698466Y-121107138D01*
X80480000Y-121634561D01*
X77239440Y-121634561D01*
X77239440Y-121020000D01*
X77190157Y-120772235D01*
X77049809Y-120562191D01*
X76839765Y-120421843D01*
X76592000Y-120372560D01*
X74792000Y-120372560D01*
X74544235Y-120421843D01*
X74334191Y-120562191D01*
X74201942Y-120760114D01*
X74167110Y-120725282D01*
X74052553Y-120839839D01*
X73966148Y-120583357D01*
X73392664Y-120373542D01*
X72782540Y-120399161D01*
X72337852Y-120583357D01*
X72251446Y-120839841D01*
X68742164Y-120839841D01*
X68828904Y-120681961D01*
X68668041Y-120293577D01*
X68292134Y-119878611D01*
X67786041Y-119639086D01*
X67564000Y-119760371D01*
X67310000Y-119760371D01*
X67087959Y-119639086D01*
X66581866Y-119878611D01*
X66205959Y-120293577D01*
X66045096Y-120681961D01*
X61225656Y-120681961D01*
X61033534Y-120218138D01*
X60629862Y-119814466D01*
X60102439Y-119596000D01*
X59531561Y-119596000D01*
X59004138Y-119814466D01*
X58600466Y-120218138D01*
X58382000Y-120745561D01*
X54935047Y-120745561D01*
X55263891Y-120253411D01*
X55387100Y-119634000D01*
X55263891Y-119014589D01*
X55001912Y-118622509D01*
X55178809Y-118504309D01*
X55319157Y-118294265D01*
X55368440Y-118046500D01*
X55368440Y-117729000D01*
X58353887Y-117729000D01*
X58465260Y-118288909D01*
X58782423Y-118763577D01*
X59257091Y-119080740D01*
X59675667Y-119164000D01*
X59958333Y-119164000D01*
X60376909Y-119080740D01*
X60851577Y-118763577D01*
X61168740Y-118288909D01*
X61280113Y-117729000D01*
X61223336Y-117443561D01*
X66002000Y-117443561D01*
X66002000Y-118014439D01*
X66220466Y-118541862D01*
X66624138Y-118945534D01*
X67151561Y-119164000D01*
X67722439Y-119164000D01*
X68249862Y-118945534D01*
X68653534Y-118541862D01*
X68872000Y-118014439D01*
X68872000Y-117951039D01*
X69220096Y-117951039D01*
X69380959Y-118339423D01*
X69756866Y-118754389D01*
X70262959Y-118993914D01*
X70485000Y-118872629D01*
X70485000Y-117729000D01*
X70739000Y-117729000D01*
X70739000Y-118872629D01*
X70961041Y-118993914D01*
X71467134Y-118754389D01*
X71843041Y-118339423D01*
X72003904Y-117951039D01*
X71881915Y-117729000D01*
X70739000Y-117729000D01*
X70485000Y-117729000D01*
X69342085Y-117729000D01*
X69220096Y-117951039D01*
X68872000Y-117951039D01*
X68872000Y-117443561D01*
X68793051Y-117252961D01*
X69220096Y-117252961D01*
X69342085Y-117475000D01*
X70485000Y-117475000D01*
X70485000Y-116331371D01*
X70739000Y-116331371D01*
X70739000Y-117475000D01*
X71881915Y-117475000D01*
X72003904Y-117252961D01*
X71977521Y-117189263D01*
X72476644Y-117162892D01*
X72841869Y-117011611D01*
X72906169Y-116773774D01*
X72136000Y-116003605D01*
X72121858Y-116017748D01*
X71942253Y-115838143D01*
X71956395Y-115824000D01*
X72315605Y-115824000D01*
X73085774Y-116594169D01*
X73323611Y-116529869D01*
X73405649Y-116297886D01*
X73527286Y-116591546D01*
X73908454Y-116972714D01*
X74406474Y-117179000D01*
X74945526Y-117179000D01*
X75443546Y-116972714D01*
X75824714Y-116591546D01*
X75946000Y-116298735D01*
X76067286Y-116591546D01*
X76448454Y-116972714D01*
X76867525Y-117146298D01*
X76797000Y-117316561D01*
X76797000Y-117887439D01*
X77015466Y-118414862D01*
X77419138Y-118818534D01*
X77946561Y-119037000D01*
X78517439Y-119037000D01*
X79044862Y-118818534D01*
X79448534Y-118414862D01*
X79667000Y-117887439D01*
X79667000Y-117316561D01*
X79527178Y-116979000D01*
X80742560Y-116979000D01*
X80742560Y-118479000D01*
X80791843Y-118726765D01*
X80932191Y-118936809D01*
X81142235Y-119077157D01*
X81390000Y-119126440D01*
X82440000Y-119126440D01*
X82687765Y-119077157D01*
X82733134Y-119046842D01*
X83185000Y-119136725D01*
X83637609Y-119046695D01*
X83820001Y-118924825D01*
X84002392Y-119046695D01*
X84455000Y-119136725D01*
X84907609Y-119046695D01*
X85291313Y-118790313D01*
X85547695Y-118406608D01*
X85615000Y-118068245D01*
X85615000Y-117389754D01*
X85547695Y-117051391D01*
X85291313Y-116667687D01*
X84907608Y-116411305D01*
X84455000Y-116321275D01*
X84002391Y-116411305D01*
X83820000Y-116533175D01*
X83637608Y-116411305D01*
X83185000Y-116321275D01*
X82733133Y-116411157D01*
X82687765Y-116380843D01*
X82440000Y-116331560D01*
X81390000Y-116331560D01*
X81142235Y-116380843D01*
X80932191Y-116521191D01*
X80791843Y-116731235D01*
X80742560Y-116979000D01*
X79527178Y-116979000D01*
X79448534Y-116789138D01*
X79044862Y-116385466D01*
X78537179Y-116175177D01*
X78571000Y-116093526D01*
X78571000Y-115554474D01*
X78364714Y-115056454D01*
X77983546Y-114675286D01*
X77485526Y-114469000D01*
X76946474Y-114469000D01*
X76448454Y-114675286D01*
X76067286Y-115056454D01*
X75946000Y-115349265D01*
X75824714Y-115056454D01*
X75443546Y-114675286D01*
X74945526Y-114469000D01*
X74406474Y-114469000D01*
X73908454Y-114675286D01*
X73527286Y-115056454D01*
X73412675Y-115333151D01*
X73323611Y-115118131D01*
X73085774Y-115053831D01*
X72315605Y-115824000D01*
X71956395Y-115824000D01*
X71186226Y-115053831D01*
X70948389Y-115118131D01*
X70768667Y-115626342D01*
X70797108Y-116164644D01*
X70842705Y-116274725D01*
X70739000Y-116331371D01*
X70485000Y-116331371D01*
X70262959Y-116210086D01*
X69756866Y-116449611D01*
X69380959Y-116864577D01*
X69220096Y-117252961D01*
X68793051Y-117252961D01*
X68653534Y-116916138D01*
X68249862Y-116512466D01*
X67722439Y-116294000D01*
X67151561Y-116294000D01*
X66624138Y-116512466D01*
X66220466Y-116916138D01*
X66002000Y-117443561D01*
X61223336Y-117443561D01*
X61168740Y-117169091D01*
X60851577Y-116694423D01*
X60376909Y-116377260D01*
X59958333Y-116294000D01*
X59675667Y-116294000D01*
X59257091Y-116377260D01*
X58782423Y-116694423D01*
X58465260Y-117169091D01*
X58353887Y-117729000D01*
X55368440Y-117729000D01*
X55368440Y-116141500D01*
X55319157Y-115893735D01*
X55178809Y-115683691D01*
X54968765Y-115543343D01*
X54721000Y-115494060D01*
X52721000Y-115494060D01*
X52473235Y-115543343D01*
X52263191Y-115683691D01*
X52122843Y-115893735D01*
X52073560Y-116141500D01*
X52073560Y-118046500D01*
X52122843Y-118294265D01*
X52263191Y-118504309D01*
X52440088Y-118622509D01*
X52178109Y-119014589D01*
X52054900Y-119634000D01*
X51735000Y-119634000D01*
X51735000Y-113506561D01*
X58001000Y-113506561D01*
X58001000Y-114077439D01*
X58219466Y-114604862D01*
X58623138Y-115008534D01*
X59150561Y-115227000D01*
X59721439Y-115227000D01*
X60248862Y-115008534D01*
X60652534Y-114604862D01*
X60844655Y-114141039D01*
X65664096Y-114141039D01*
X65824959Y-114529423D01*
X66200866Y-114944389D01*
X66706959Y-115183914D01*
X66929000Y-115062629D01*
X66929000Y-113919000D01*
X67183000Y-113919000D01*
X67183000Y-115062629D01*
X67405041Y-115183914D01*
X67911134Y-114944389D01*
X67974692Y-114874226D01*
X71365831Y-114874226D01*
X72136000Y-115644395D01*
X72906169Y-114874226D01*
X72841869Y-114636389D01*
X72333658Y-114456667D01*
X71795356Y-114485108D01*
X71430131Y-114636389D01*
X71365831Y-114874226D01*
X67974692Y-114874226D01*
X68287041Y-114529423D01*
X68447904Y-114141039D01*
X68325915Y-113919000D01*
X67183000Y-113919000D01*
X66929000Y-113919000D01*
X65786085Y-113919000D01*
X65664096Y-114141039D01*
X60844655Y-114141039D01*
X60871000Y-114077439D01*
X60871000Y-113506561D01*
X60844656Y-113442961D01*
X65664096Y-113442961D01*
X65786085Y-113665000D01*
X66929000Y-113665000D01*
X66929000Y-112521371D01*
X67183000Y-112521371D01*
X67183000Y-113665000D01*
X68325915Y-113665000D01*
X68447904Y-113442961D01*
X68287041Y-113054577D01*
X67911134Y-112639611D01*
X67405041Y-112400086D01*
X67183000Y-112521371D01*
X66929000Y-112521371D01*
X66706959Y-112400086D01*
X66200866Y-112639611D01*
X65824959Y-113054577D01*
X65664096Y-113442961D01*
X60844656Y-113442961D01*
X60652534Y-112979138D01*
X60248862Y-112575466D01*
X59721439Y-112357000D01*
X59150561Y-112357000D01*
X58623138Y-112575466D01*
X58219466Y-112979138D01*
X58001000Y-113506561D01*
X51735000Y-113506561D01*
X51735000Y-108712000D01*
X52333908Y-108712000D01*
X52449161Y-109291418D01*
X52777375Y-109782625D01*
X53075761Y-109982000D01*
X52777375Y-110181375D01*
X52449161Y-110672582D01*
X52333908Y-111252000D01*
X52449161Y-111831418D01*
X52777375Y-112322625D01*
X53268582Y-112650839D01*
X53701744Y-112737000D01*
X53994256Y-112737000D01*
X54427418Y-112650839D01*
X54918625Y-112322625D01*
X55246839Y-111831418D01*
X55362092Y-111252000D01*
X55246839Y-110672582D01*
X55050674Y-110379000D01*
X74600060Y-110379000D01*
X74600060Y-112379000D01*
X74649343Y-112626765D01*
X74789691Y-112836809D01*
X74999735Y-112977157D01*
X75247500Y-113026440D01*
X77152500Y-113026440D01*
X77400265Y-112977157D01*
X77610309Y-112836809D01*
X77728509Y-112659912D01*
X78120590Y-112921891D01*
X78740000Y-113045100D01*
X79359411Y-112921891D01*
X79884523Y-112571023D01*
X80019159Y-112369526D01*
X80413076Y-112754973D01*
X80907020Y-112969563D01*
X81153000Y-112849594D01*
X81153000Y-111506000D01*
X81407000Y-111506000D01*
X81407000Y-112849594D01*
X81652980Y-112969563D01*
X82146924Y-112754973D01*
X82589318Y-112322091D01*
X82832380Y-111752864D01*
X82705572Y-111506000D01*
X81407000Y-111506000D01*
X81153000Y-111506000D01*
X81133000Y-111506000D01*
X81133000Y-111252000D01*
X81153000Y-111252000D01*
X81153000Y-109908406D01*
X81407000Y-109908406D01*
X81407000Y-111252000D01*
X82705572Y-111252000D01*
X82832380Y-111005136D01*
X82589318Y-110435909D01*
X82165292Y-110021000D01*
X87402560Y-110021000D01*
X87402560Y-111721000D01*
X87451843Y-111968765D01*
X87592191Y-112178809D01*
X87802235Y-112319157D01*
X88050000Y-112368440D01*
X89750000Y-112368440D01*
X89997765Y-112319157D01*
X90207809Y-112178809D01*
X90348157Y-111968765D01*
X90357184Y-111923381D01*
X90369375Y-111941625D01*
X90860582Y-112269839D01*
X91293744Y-112356000D01*
X91586256Y-112356000D01*
X92019418Y-112269839D01*
X92510625Y-111941625D01*
X92838839Y-111450418D01*
X92954092Y-110871000D01*
X92838839Y-110291582D01*
X92510625Y-109800375D01*
X92019418Y-109472161D01*
X91586256Y-109386000D01*
X91293744Y-109386000D01*
X90860582Y-109472161D01*
X90369375Y-109800375D01*
X90357184Y-109818619D01*
X90348157Y-109773235D01*
X90207809Y-109563191D01*
X89997765Y-109422843D01*
X89750000Y-109373560D01*
X88050000Y-109373560D01*
X87802235Y-109422843D01*
X87592191Y-109563191D01*
X87451843Y-109773235D01*
X87402560Y-110021000D01*
X82165292Y-110021000D01*
X82146924Y-110003027D01*
X81652980Y-109788437D01*
X81407000Y-109908406D01*
X81153000Y-109908406D01*
X80907020Y-109788437D01*
X80413076Y-110003027D01*
X80019159Y-110388474D01*
X79884523Y-110186977D01*
X79359410Y-109836109D01*
X78740000Y-109712900D01*
X78120589Y-109836109D01*
X77728509Y-110098088D01*
X77610309Y-109921191D01*
X77400265Y-109780843D01*
X77152500Y-109731560D01*
X75247500Y-109731560D01*
X74999735Y-109780843D01*
X74789691Y-109921191D01*
X74649343Y-110131235D01*
X74600060Y-110379000D01*
X55050674Y-110379000D01*
X54918625Y-110181375D01*
X54620239Y-109982000D01*
X54918625Y-109782625D01*
X55246839Y-109291418D01*
X55362092Y-108712000D01*
X55246839Y-108132582D01*
X54988634Y-107746150D01*
X57848500Y-107746150D01*
X57848500Y-108153849D01*
X57940609Y-108616910D01*
X58291477Y-109142023D01*
X58816589Y-109492891D01*
X59436000Y-109616100D01*
X60055410Y-109492891D01*
X60580523Y-109142023D01*
X60715159Y-108940526D01*
X61109076Y-109325973D01*
X61603020Y-109540563D01*
X61849000Y-109420594D01*
X61849000Y-108077000D01*
X61829000Y-108077000D01*
X61829000Y-107823000D01*
X61849000Y-107823000D01*
X61849000Y-106479406D01*
X62103000Y-106479406D01*
X62103000Y-107823000D01*
X62123000Y-107823000D01*
X62123000Y-108077000D01*
X62103000Y-108077000D01*
X62103000Y-109420594D01*
X62348980Y-109540563D01*
X62842924Y-109325973D01*
X62968745Y-109202857D01*
X63105691Y-109407809D01*
X63315735Y-109548157D01*
X63563500Y-109597440D01*
X65468500Y-109597440D01*
X65716265Y-109548157D01*
X65926309Y-109407809D01*
X66066657Y-109197765D01*
X66115940Y-108950000D01*
X66115940Y-107029561D01*
X86703000Y-107029561D01*
X86703000Y-107600439D01*
X86921466Y-108127862D01*
X87325138Y-108531534D01*
X87852561Y-108750000D01*
X88423439Y-108750000D01*
X88950862Y-108531534D01*
X89354534Y-108127862D01*
X89573000Y-107600439D01*
X89573000Y-107156561D01*
X90259000Y-107156561D01*
X90259000Y-107727439D01*
X90477466Y-108254862D01*
X90881138Y-108658534D01*
X91408561Y-108877000D01*
X91979439Y-108877000D01*
X92506862Y-108658534D01*
X92910534Y-108254862D01*
X93129000Y-107727439D01*
X93129000Y-107156561D01*
X92910534Y-106629138D01*
X92506862Y-106225466D01*
X91979439Y-106007000D01*
X91408561Y-106007000D01*
X90881138Y-106225466D01*
X90477466Y-106629138D01*
X90259000Y-107156561D01*
X89573000Y-107156561D01*
X89573000Y-107029561D01*
X89354534Y-106502138D01*
X88950862Y-106098466D01*
X88423439Y-105880000D01*
X87852561Y-105880000D01*
X87325138Y-106098466D01*
X86921466Y-106502138D01*
X86703000Y-107029561D01*
X66115940Y-107029561D01*
X66115940Y-106950000D01*
X66066657Y-106702235D01*
X65926309Y-106492191D01*
X65716265Y-106351843D01*
X65468500Y-106302560D01*
X63563500Y-106302560D01*
X63315735Y-106351843D01*
X63105691Y-106492191D01*
X62968745Y-106697143D01*
X62842924Y-106574027D01*
X62348980Y-106359437D01*
X62103000Y-106479406D01*
X61849000Y-106479406D01*
X61603020Y-106359437D01*
X61109076Y-106574027D01*
X60715159Y-106959474D01*
X60580523Y-106757977D01*
X60055411Y-106407109D01*
X59436000Y-106283900D01*
X58816590Y-106407109D01*
X58291477Y-106757977D01*
X57940609Y-107283089D01*
X57848500Y-107746150D01*
X54988634Y-107746150D01*
X54918625Y-107641375D01*
X54599522Y-107428157D01*
X54729358Y-107367183D01*
X55119645Y-106938924D01*
X55289476Y-106528890D01*
X55168155Y-106299000D01*
X53975000Y-106299000D01*
X53975000Y-106319000D01*
X53721000Y-106319000D01*
X53721000Y-106299000D01*
X52527845Y-106299000D01*
X52406524Y-106528890D01*
X52576355Y-106938924D01*
X52966642Y-107367183D01*
X53096478Y-107428157D01*
X52777375Y-107641375D01*
X52449161Y-108132582D01*
X52333908Y-108712000D01*
X51735000Y-108712000D01*
X51735000Y-103632000D01*
X52333908Y-103632000D01*
X52449161Y-104211418D01*
X52777375Y-104702625D01*
X53096478Y-104915843D01*
X52966642Y-104976817D01*
X52576355Y-105405076D01*
X52406524Y-105815110D01*
X52527845Y-106045000D01*
X53721000Y-106045000D01*
X53721000Y-106025000D01*
X53975000Y-106025000D01*
X53975000Y-106045000D01*
X55168155Y-106045000D01*
X55289476Y-105815110D01*
X55119645Y-105405076D01*
X54729358Y-104976817D01*
X54599522Y-104915843D01*
X54918625Y-104702625D01*
X54980515Y-104610000D01*
X69418560Y-104610000D01*
X69418560Y-106210000D01*
X69467843Y-106457765D01*
X69608191Y-106667809D01*
X69818235Y-106808157D01*
X70066000Y-106857440D01*
X71666000Y-106857440D01*
X71913765Y-106808157D01*
X72123809Y-106667809D01*
X72264157Y-106457765D01*
X72313440Y-106210000D01*
X72313440Y-104610000D01*
X72264157Y-104362235D01*
X72123809Y-104152191D01*
X71913765Y-104011843D01*
X71666000Y-103962560D01*
X70066000Y-103962560D01*
X69818235Y-104011843D01*
X69608191Y-104152191D01*
X69467843Y-104362235D01*
X69418560Y-104610000D01*
X54980515Y-104610000D01*
X55246839Y-104211418D01*
X55358909Y-103648000D01*
X79124560Y-103648000D01*
X79124560Y-105648000D01*
X79173843Y-105895765D01*
X79314191Y-106105809D01*
X79524235Y-106246157D01*
X79772000Y-106295440D01*
X81772000Y-106295440D01*
X82019765Y-106246157D01*
X82229809Y-106105809D01*
X82370157Y-105895765D01*
X82419440Y-105648000D01*
X82419440Y-103648000D01*
X82370157Y-103400235D01*
X82229809Y-103190191D01*
X82019765Y-103049843D01*
X81772000Y-103000560D01*
X79772000Y-103000560D01*
X79524235Y-103049843D01*
X79314191Y-103190191D01*
X79173843Y-103400235D01*
X79124560Y-103648000D01*
X55358909Y-103648000D01*
X55362092Y-103632000D01*
X55246839Y-103052582D01*
X55156744Y-102917745D01*
X70037861Y-102917745D01*
X70111995Y-103163864D01*
X70649223Y-103356965D01*
X71219454Y-103329778D01*
X71620005Y-103163864D01*
X71694139Y-102917745D01*
X70866000Y-102089605D01*
X70037861Y-102917745D01*
X55156744Y-102917745D01*
X54918625Y-102561375D01*
X54900381Y-102549184D01*
X54945765Y-102540157D01*
X55155809Y-102399809D01*
X55296157Y-102189765D01*
X55345440Y-101942000D01*
X55345440Y-101693223D01*
X69419035Y-101693223D01*
X69446222Y-102263454D01*
X69612136Y-102664005D01*
X69858255Y-102738139D01*
X70686395Y-101910000D01*
X71045605Y-101910000D01*
X71873745Y-102738139D01*
X72119864Y-102664005D01*
X72312965Y-102126777D01*
X72285778Y-101556546D01*
X72119864Y-101155995D01*
X71873745Y-101081861D01*
X71045605Y-101910000D01*
X70686395Y-101910000D01*
X69858255Y-101081861D01*
X69612136Y-101155995D01*
X69419035Y-101693223D01*
X55345440Y-101693223D01*
X55345440Y-100902255D01*
X70037861Y-100902255D01*
X70866000Y-101730395D01*
X71694139Y-100902255D01*
X71663499Y-100800532D01*
X79799073Y-100800532D01*
X79897736Y-101067387D01*
X80507461Y-101293908D01*
X81157460Y-101269856D01*
X81646264Y-101067387D01*
X81744927Y-100800532D01*
X80772000Y-99827605D01*
X79799073Y-100800532D01*
X71663499Y-100800532D01*
X71620005Y-100656136D01*
X71082777Y-100463035D01*
X70512546Y-100490222D01*
X70111995Y-100656136D01*
X70037861Y-100902255D01*
X55345440Y-100902255D01*
X55345440Y-100242000D01*
X55296157Y-99994235D01*
X55155809Y-99784191D01*
X54945765Y-99643843D01*
X54698000Y-99594560D01*
X52998000Y-99594560D01*
X52750235Y-99643843D01*
X52540191Y-99784191D01*
X52399843Y-99994235D01*
X52350560Y-100242000D01*
X52350560Y-101942000D01*
X52399843Y-102189765D01*
X52540191Y-102399809D01*
X52750235Y-102540157D01*
X52795619Y-102549184D01*
X52777375Y-102561375D01*
X52449161Y-103052582D01*
X52333908Y-103632000D01*
X51735000Y-103632000D01*
X51735000Y-98060000D01*
X57280560Y-98060000D01*
X57280560Y-100060000D01*
X57329843Y-100307765D01*
X57470191Y-100517809D01*
X57680235Y-100658157D01*
X57928000Y-100707440D01*
X59928000Y-100707440D01*
X60175765Y-100658157D01*
X60385809Y-100517809D01*
X60526157Y-100307765D01*
X60545099Y-100212532D01*
X62955073Y-100212532D01*
X63053736Y-100479387D01*
X63663461Y-100705908D01*
X64313460Y-100681856D01*
X64802264Y-100479387D01*
X64900927Y-100212532D01*
X63928000Y-99239605D01*
X62955073Y-100212532D01*
X60545099Y-100212532D01*
X60575440Y-100060000D01*
X60575440Y-98795461D01*
X62282092Y-98795461D01*
X62306144Y-99445460D01*
X62508613Y-99934264D01*
X62775468Y-100032927D01*
X63748395Y-99060000D01*
X64107605Y-99060000D01*
X65080532Y-100032927D01*
X65347387Y-99934264D01*
X65552017Y-99383461D01*
X79126092Y-99383461D01*
X79150144Y-100033460D01*
X79352613Y-100522264D01*
X79619468Y-100620927D01*
X80592395Y-99648000D01*
X80951605Y-99648000D01*
X81924532Y-100620927D01*
X82191387Y-100522264D01*
X82417908Y-99912539D01*
X82409859Y-99695000D01*
X86674887Y-99695000D01*
X86786260Y-100254909D01*
X87103423Y-100729577D01*
X87578091Y-101046740D01*
X87996667Y-101130000D01*
X88279333Y-101130000D01*
X88697909Y-101046740D01*
X89172577Y-100729577D01*
X89489740Y-100254909D01*
X89575851Y-99822000D01*
X90230887Y-99822000D01*
X90342260Y-100381909D01*
X90659423Y-100856577D01*
X91134091Y-101173740D01*
X91552667Y-101257000D01*
X91835333Y-101257000D01*
X92253909Y-101173740D01*
X92728577Y-100856577D01*
X93045740Y-100381909D01*
X93157113Y-99822000D01*
X93045740Y-99262091D01*
X92728577Y-98787423D01*
X92253909Y-98470260D01*
X91835333Y-98387000D01*
X91552667Y-98387000D01*
X91134091Y-98470260D01*
X90659423Y-98787423D01*
X90342260Y-99262091D01*
X90230887Y-99822000D01*
X89575851Y-99822000D01*
X89601113Y-99695000D01*
X89489740Y-99135091D01*
X89172577Y-98660423D01*
X88697909Y-98343260D01*
X88279333Y-98260000D01*
X87996667Y-98260000D01*
X87578091Y-98343260D01*
X87103423Y-98660423D01*
X86786260Y-99135091D01*
X86674887Y-99695000D01*
X82409859Y-99695000D01*
X82393856Y-99262540D01*
X82191387Y-98773736D01*
X81924532Y-98675073D01*
X80951605Y-99648000D01*
X80592395Y-99648000D01*
X79619468Y-98675073D01*
X79352613Y-98773736D01*
X79126092Y-99383461D01*
X65552017Y-99383461D01*
X65573908Y-99324539D01*
X65549856Y-98674540D01*
X65475683Y-98495468D01*
X79799073Y-98495468D01*
X80772000Y-99468395D01*
X81744927Y-98495468D01*
X81646264Y-98228613D01*
X81036539Y-98002092D01*
X80386540Y-98026144D01*
X79897736Y-98228613D01*
X79799073Y-98495468D01*
X65475683Y-98495468D01*
X65347387Y-98185736D01*
X65080532Y-98087073D01*
X64107605Y-99060000D01*
X63748395Y-99060000D01*
X62775468Y-98087073D01*
X62508613Y-98185736D01*
X62282092Y-98795461D01*
X60575440Y-98795461D01*
X60575440Y-98060000D01*
X60545100Y-97907468D01*
X62955073Y-97907468D01*
X63928000Y-98880395D01*
X64900927Y-97907468D01*
X64802264Y-97640613D01*
X64192539Y-97414092D01*
X63542540Y-97438144D01*
X63053736Y-97640613D01*
X62955073Y-97907468D01*
X60545100Y-97907468D01*
X60526157Y-97812235D01*
X60385809Y-97602191D01*
X60175765Y-97461843D01*
X59928000Y-97412560D01*
X57928000Y-97412560D01*
X57680235Y-97461843D01*
X57470191Y-97602191D01*
X57329843Y-97812235D01*
X57280560Y-98060000D01*
X51735000Y-98060000D01*
X51735000Y-94456000D01*
X52512336Y-94456000D01*
X52614007Y-94967136D01*
X52903543Y-95400457D01*
X52986669Y-95456000D01*
X52903543Y-95511543D01*
X52614007Y-95944864D01*
X52512336Y-96456000D01*
X52614007Y-96967136D01*
X52903543Y-97400457D01*
X53336864Y-97689993D01*
X53718978Y-97766000D01*
X53977022Y-97766000D01*
X54359136Y-97689993D01*
X54792457Y-97400457D01*
X55081993Y-96967136D01*
X55183664Y-96456000D01*
X55081993Y-95944864D01*
X54808632Y-95535750D01*
X87669000Y-95535750D01*
X87669000Y-96226309D01*
X87765673Y-96459698D01*
X87944301Y-96638327D01*
X88177690Y-96735000D01*
X88868250Y-96735000D01*
X89027000Y-96576250D01*
X89027000Y-95377000D01*
X87827750Y-95377000D01*
X87669000Y-95535750D01*
X54808632Y-95535750D01*
X54792457Y-95511543D01*
X54709331Y-95456000D01*
X54792457Y-95400457D01*
X55081993Y-94967136D01*
X55183664Y-94456000D01*
X55081993Y-93944864D01*
X54914746Y-93694561D01*
X75313000Y-93694561D01*
X75313000Y-94265439D01*
X75531466Y-94792862D01*
X75935138Y-95196534D01*
X76462561Y-95415000D01*
X77033439Y-95415000D01*
X77560862Y-95196534D01*
X77829899Y-94927497D01*
X77849843Y-95027765D01*
X77990191Y-95237809D01*
X78200235Y-95378157D01*
X78448000Y-95427440D01*
X80048000Y-95427440D01*
X80295765Y-95378157D01*
X80505809Y-95237809D01*
X80646157Y-95027765D01*
X80695440Y-94780000D01*
X80695440Y-94273691D01*
X87669000Y-94273691D01*
X87669000Y-94964250D01*
X87827750Y-95123000D01*
X89027000Y-95123000D01*
X89027000Y-93923750D01*
X89281000Y-93923750D01*
X89281000Y-95123000D01*
X89301000Y-95123000D01*
X89301000Y-95377000D01*
X89281000Y-95377000D01*
X89281000Y-96576250D01*
X89439750Y-96735000D01*
X90130310Y-96735000D01*
X90363699Y-96638327D01*
X90542327Y-96459698D01*
X90608904Y-96298967D01*
X90623375Y-96320625D01*
X91114582Y-96648839D01*
X91547744Y-96735000D01*
X91840256Y-96735000D01*
X92273418Y-96648839D01*
X92764625Y-96320625D01*
X93092839Y-95829418D01*
X93208092Y-95250000D01*
X93092839Y-94670582D01*
X92764625Y-94179375D01*
X92273418Y-93851161D01*
X91840256Y-93765000D01*
X91547744Y-93765000D01*
X91114582Y-93851161D01*
X90623375Y-94179375D01*
X90608904Y-94201033D01*
X90542327Y-94040302D01*
X90363699Y-93861673D01*
X90130310Y-93765000D01*
X89439750Y-93765000D01*
X89281000Y-93923750D01*
X89027000Y-93923750D01*
X88868250Y-93765000D01*
X88177690Y-93765000D01*
X87944301Y-93861673D01*
X87765673Y-94040302D01*
X87669000Y-94273691D01*
X80695440Y-94273691D01*
X80695440Y-93180000D01*
X80646157Y-92932235D01*
X80505809Y-92722191D01*
X80295765Y-92581843D01*
X80048000Y-92532560D01*
X78448000Y-92532560D01*
X78200235Y-92581843D01*
X77990191Y-92722191D01*
X77849843Y-92932235D01*
X77829899Y-93032503D01*
X77560862Y-92763466D01*
X77033439Y-92545000D01*
X76462561Y-92545000D01*
X75935138Y-92763466D01*
X75531466Y-93167138D01*
X75313000Y-93694561D01*
X54914746Y-93694561D01*
X54886286Y-93651968D01*
X54980809Y-93588809D01*
X55121157Y-93378765D01*
X55170440Y-93131000D01*
X55170440Y-91781000D01*
X55121157Y-91533235D01*
X54980809Y-91323191D01*
X54770765Y-91182843D01*
X54523000Y-91133560D01*
X53173000Y-91133560D01*
X52925235Y-91182843D01*
X52715191Y-91323191D01*
X52574843Y-91533235D01*
X52525560Y-91781000D01*
X52525560Y-93131000D01*
X52574843Y-93378765D01*
X52715191Y-93588809D01*
X52809714Y-93651968D01*
X52614007Y-93944864D01*
X52512336Y-94456000D01*
X51735000Y-94456000D01*
X51735000Y-88868561D01*
X75527000Y-88868561D01*
X75527000Y-89439439D01*
X75745466Y-89966862D01*
X76149138Y-90370534D01*
X76676561Y-90589000D01*
X77247439Y-90589000D01*
X77774862Y-90370534D01*
X78178534Y-89966862D01*
X78370655Y-89503039D01*
X83190096Y-89503039D01*
X83350959Y-89891423D01*
X83726866Y-90306389D01*
X84232959Y-90545914D01*
X84455000Y-90424629D01*
X84455000Y-89281000D01*
X84709000Y-89281000D01*
X84709000Y-90424629D01*
X84931041Y-90545914D01*
X85437134Y-90306389D01*
X85813041Y-89891423D01*
X85973904Y-89503039D01*
X85851915Y-89281000D01*
X84709000Y-89281000D01*
X84455000Y-89281000D01*
X83312085Y-89281000D01*
X83190096Y-89503039D01*
X78370655Y-89503039D01*
X78397000Y-89439439D01*
X78397000Y-88868561D01*
X78370656Y-88804961D01*
X83190096Y-88804961D01*
X83312085Y-89027000D01*
X84455000Y-89027000D01*
X84455000Y-87883371D01*
X84709000Y-87883371D01*
X84709000Y-89027000D01*
X85851915Y-89027000D01*
X85973904Y-88804961D01*
X85813041Y-88416577D01*
X85437134Y-88001611D01*
X84931041Y-87762086D01*
X84709000Y-87883371D01*
X84455000Y-87883371D01*
X84232959Y-87762086D01*
X83726866Y-88001611D01*
X83350959Y-88416577D01*
X83190096Y-88804961D01*
X78370656Y-88804961D01*
X78178534Y-88341138D01*
X77774862Y-87937466D01*
X77247439Y-87719000D01*
X76676561Y-87719000D01*
X76149138Y-87937466D01*
X75745466Y-88341138D01*
X75527000Y-88868561D01*
X51735000Y-88868561D01*
X51735000Y-87875745D01*
X58139861Y-87875745D01*
X58213995Y-88121864D01*
X58751223Y-88314965D01*
X59321454Y-88287778D01*
X59722005Y-88121864D01*
X59796139Y-87875745D01*
X58968000Y-87047605D01*
X58139861Y-87875745D01*
X51735000Y-87875745D01*
X51735000Y-86651223D01*
X57521035Y-86651223D01*
X57548222Y-87221454D01*
X57714136Y-87622005D01*
X57960255Y-87696139D01*
X58788395Y-86868000D01*
X59147605Y-86868000D01*
X59975745Y-87696139D01*
X60023307Y-87681813D01*
X60069843Y-87915765D01*
X60210191Y-88125809D01*
X60420235Y-88266157D01*
X60668000Y-88315440D01*
X62268000Y-88315440D01*
X62515765Y-88266157D01*
X62725809Y-88125809D01*
X62866157Y-87915765D01*
X62915440Y-87668000D01*
X62915440Y-86068000D01*
X62866157Y-85820235D01*
X62725809Y-85610191D01*
X62515765Y-85469843D01*
X62268000Y-85420560D01*
X60668000Y-85420560D01*
X60420235Y-85469843D01*
X60210191Y-85610191D01*
X60069843Y-85820235D01*
X60023307Y-86054187D01*
X59975745Y-86039861D01*
X59147605Y-86868000D01*
X58788395Y-86868000D01*
X57960255Y-86039861D01*
X57714136Y-86113995D01*
X57521035Y-86651223D01*
X51735000Y-86651223D01*
X51735000Y-85860255D01*
X58139861Y-85860255D01*
X58968000Y-86688395D01*
X59796139Y-85860255D01*
X59722005Y-85614136D01*
X59184777Y-85421035D01*
X58614546Y-85448222D01*
X58213995Y-85614136D01*
X58139861Y-85860255D01*
X51735000Y-85860255D01*
X51735000Y-85344000D01*
X75498887Y-85344000D01*
X75610260Y-85903909D01*
X75927423Y-86378577D01*
X76402091Y-86695740D01*
X76820667Y-86779000D01*
X77103333Y-86779000D01*
X77521909Y-86695740D01*
X77996577Y-86378577D01*
X78313740Y-85903909D01*
X78425113Y-85344000D01*
X78368336Y-85058561D01*
X83147000Y-85058561D01*
X83147000Y-85629439D01*
X83365466Y-86156862D01*
X83769138Y-86560534D01*
X84296561Y-86779000D01*
X84867439Y-86779000D01*
X85394862Y-86560534D01*
X85798534Y-86156862D01*
X86017000Y-85629439D01*
X86017000Y-85058561D01*
X85798534Y-84531138D01*
X85394862Y-84127466D01*
X84867439Y-83909000D01*
X84296561Y-83909000D01*
X83769138Y-84127466D01*
X83365466Y-84531138D01*
X83147000Y-85058561D01*
X78368336Y-85058561D01*
X78313740Y-84784091D01*
X77996577Y-84309423D01*
X77521909Y-83992260D01*
X77103333Y-83909000D01*
X76820667Y-83909000D01*
X76402091Y-83992260D01*
X75927423Y-84309423D01*
X75610260Y-84784091D01*
X75498887Y-85344000D01*
X51735000Y-85344000D01*
X51735000Y-80430000D01*
X52350560Y-80430000D01*
X52350560Y-82130000D01*
X52399843Y-82377765D01*
X52540191Y-82587809D01*
X52750235Y-82728157D01*
X52998000Y-82777440D01*
X54698000Y-82777440D01*
X54945765Y-82728157D01*
X55155809Y-82587809D01*
X55296157Y-82377765D01*
X55345440Y-82130000D01*
X55345440Y-80430000D01*
X55312421Y-80264000D01*
X74683214Y-80264000D01*
X74856676Y-81136054D01*
X75350655Y-81875345D01*
X76089946Y-82369324D01*
X76741872Y-82499000D01*
X77182128Y-82499000D01*
X77834054Y-82369324D01*
X78573345Y-81875345D01*
X79067324Y-81136054D01*
X79240786Y-80264000D01*
X79067324Y-79391946D01*
X78580926Y-78664000D01*
X87414560Y-78664000D01*
X87414560Y-81864000D01*
X87463843Y-82111765D01*
X87604191Y-82321809D01*
X87814235Y-82462157D01*
X88062000Y-82511440D01*
X91262000Y-82511440D01*
X91509765Y-82462157D01*
X91719809Y-82321809D01*
X91860157Y-82111765D01*
X91909440Y-81864000D01*
X91909440Y-78664000D01*
X91860157Y-78416235D01*
X91719809Y-78206191D01*
X91509765Y-78065843D01*
X91262000Y-78016560D01*
X88062000Y-78016560D01*
X87814235Y-78065843D01*
X87604191Y-78206191D01*
X87463843Y-78416235D01*
X87414560Y-78664000D01*
X78580926Y-78664000D01*
X78573345Y-78652655D01*
X77834054Y-78158676D01*
X77182128Y-78029000D01*
X76741872Y-78029000D01*
X76089946Y-78158676D01*
X75350655Y-78652655D01*
X74856676Y-79391946D01*
X74683214Y-80264000D01*
X55312421Y-80264000D01*
X55296157Y-80182235D01*
X55155809Y-79972191D01*
X54945765Y-79831843D01*
X54842292Y-79811261D01*
X55119645Y-79506924D01*
X55289476Y-79096890D01*
X55168155Y-78867000D01*
X53975000Y-78867000D01*
X53975000Y-78887000D01*
X53721000Y-78887000D01*
X53721000Y-78867000D01*
X52527845Y-78867000D01*
X52406524Y-79096890D01*
X52576355Y-79506924D01*
X52853708Y-79811261D01*
X52750235Y-79831843D01*
X52540191Y-79972191D01*
X52399843Y-80182235D01*
X52350560Y-80430000D01*
X51735000Y-80430000D01*
X51735000Y-78383110D01*
X52406524Y-78383110D01*
X52527845Y-78613000D01*
X53721000Y-78613000D01*
X53721000Y-77419181D01*
X53975000Y-77419181D01*
X53975000Y-78613000D01*
X55168155Y-78613000D01*
X55289476Y-78383110D01*
X55119645Y-77973076D01*
X54729358Y-77544817D01*
X54204892Y-77298514D01*
X53975000Y-77419181D01*
X53721000Y-77419181D01*
X53491108Y-77298514D01*
X52966642Y-77544817D01*
X52576355Y-77973076D01*
X52406524Y-78383110D01*
X51735000Y-78383110D01*
X51735000Y-76735000D01*
X94265000Y-76735000D01*
X94265001Y-125265000D01*
X94265001Y-125265000D01*
G37*
X94265001Y-125265000D02*
X68503733Y-125265000D01*
X68795041Y-124943423D01*
X68955904Y-124555039D01*
X68833915Y-124333000D01*
X67691000Y-124333000D01*
X67691000Y-124353000D01*
X67437000Y-124353000D01*
X67437000Y-124333000D01*
X66294085Y-124333000D01*
X66172096Y-124555039D01*
X66332959Y-124943423D01*
X66624267Y-125265000D01*
X60914396Y-125265000D01*
X61160534Y-125018862D01*
X61379000Y-124491439D01*
X61379000Y-123920561D01*
X61352656Y-123856961D01*
X66172096Y-123856961D01*
X66294085Y-124079000D01*
X67437000Y-124079000D01*
X67437000Y-122935371D01*
X67691000Y-122935371D01*
X67691000Y-124079000D01*
X68833915Y-124079000D01*
X68955904Y-123856961D01*
X68795041Y-123468577D01*
X68419134Y-123053611D01*
X67913041Y-122814086D01*
X67691000Y-122935371D01*
X67437000Y-122935371D01*
X67214959Y-122814086D01*
X66708866Y-123053611D01*
X66332959Y-123468577D01*
X66172096Y-123856961D01*
X61352656Y-123856961D01*
X61160534Y-123393138D01*
X60756862Y-122989466D01*
X60229439Y-122771000D01*
X59658561Y-122771000D01*
X59131138Y-122989466D01*
X58727466Y-123393138D01*
X58509000Y-123920561D01*
X58509000Y-124491439D01*
X58727466Y-125018862D01*
X58973604Y-125265000D01*
X51735000Y-125265000D01*
X51735000Y-119634000D01*
X52054900Y-119634000D01*
X52178109Y-120253411D01*
X52528977Y-120778523D01*
X52716767Y-120904000D01*
X52528977Y-121029477D01*
X52178109Y-121554589D01*
X52054900Y-122174000D01*
X52178109Y-122793411D01*
X52528977Y-123318523D01*
X53054089Y-123669391D01*
X53517150Y-123761500D01*
X53924850Y-123761500D01*
X54387911Y-123669391D01*
X54913023Y-123318523D01*
X55263891Y-122793411D01*
X55387100Y-122174000D01*
X55263891Y-121554589D01*
X54913023Y-121029477D01*
X54725233Y-120904000D01*
X54913023Y-120778523D01*
X54935047Y-120745561D01*
X58382000Y-120745561D01*
X58382000Y-121316439D01*
X58600466Y-121843862D01*
X59004138Y-122247534D01*
X59531561Y-122466000D01*
X60102439Y-122466000D01*
X60629862Y-122247534D01*
X61033534Y-121843862D01*
X61225655Y-121380039D01*
X66045096Y-121380039D01*
X66205959Y-121768423D01*
X66581866Y-122183389D01*
X67087959Y-122422914D01*
X67310000Y-122301629D01*
X67310000Y-121158000D01*
X67564000Y-121158000D01*
X67564000Y-122301629D01*
X67786041Y-122422914D01*
X68292134Y-122183389D01*
X68668041Y-121768423D01*
X68704939Y-121679336D01*
X71605542Y-121679336D01*
X71631161Y-122289460D01*
X71815357Y-122734148D01*
X72071841Y-122820554D01*
X72972395Y-121920000D01*
X72071841Y-121019446D01*
X71815357Y-121105852D01*
X71605542Y-121679336D01*
X68704939Y-121679336D01*
X68828904Y-121380039D01*
X68706915Y-121158000D01*
X67564000Y-121158000D01*
X67310000Y-121158000D01*
X66167085Y-121158000D01*
X66045096Y-121380039D01*
X61225655Y-121380039D01*
X61252000Y-121316439D01*
X61252000Y-120745561D01*
X61225656Y-120681961D01*
X66045096Y-120681961D01*
X66167085Y-120904000D01*
X67310000Y-120904000D01*
X67310000Y-119760371D01*
X67564000Y-119760371D01*
X67564000Y-120904000D01*
X68706915Y-120904000D01*
X68742164Y-120839841D01*
X72251446Y-120839841D01*
X73152000Y-121740395D01*
X73166143Y-121726253D01*
X73345748Y-121905858D01*
X73331605Y-121920000D01*
X73345748Y-121934143D01*
X73166143Y-122113748D01*
X73152000Y-122099605D01*
X72251446Y-123000159D01*
X72337852Y-123256643D01*
X72911336Y-123466458D01*
X73521460Y-123440839D01*
X73966148Y-123256643D01*
X74052553Y-123000161D01*
X74167110Y-123114718D01*
X74201942Y-123079886D01*
X74334191Y-123277809D01*
X74544235Y-123418157D01*
X74792000Y-123467440D01*
X76592000Y-123467440D01*
X76839765Y-123418157D01*
X77049809Y-123277809D01*
X77190157Y-123067765D01*
X77239440Y-122820000D01*
X77239440Y-121634561D01*
X80480000Y-121634561D01*
X80480000Y-122205439D01*
X80698466Y-122732862D01*
X81102138Y-123136534D01*
X81629561Y-123355000D01*
X82200439Y-123355000D01*
X82727862Y-123136534D01*
X83131534Y-122732862D01*
X83350000Y-122205439D01*
X83350000Y-121920000D01*
X88071887Y-121920000D01*
X88183260Y-122479909D01*
X88500423Y-122954577D01*
X88975091Y-123271740D01*
X89393667Y-123355000D01*
X89676333Y-123355000D01*
X90094909Y-123271740D01*
X90569577Y-122954577D01*
X90886740Y-122479909D01*
X90998113Y-121920000D01*
X90886740Y-121360091D01*
X90569577Y-120885423D01*
X90094909Y-120568260D01*
X89676333Y-120485000D01*
X89393667Y-120485000D01*
X88975091Y-120568260D01*
X88500423Y-120885423D01*
X88183260Y-121360091D01*
X88071887Y-121920000D01*
X83350000Y-121920000D01*
X83350000Y-121634561D01*
X83131534Y-121107138D01*
X82727862Y-120703466D01*
X82200439Y-120485000D01*
X81629561Y-120485000D01*
X81102138Y-120703466D01*
X80698466Y-121107138D01*
X80480000Y-121634561D01*
X77239440Y-121634561D01*
X77239440Y-121020000D01*
X77190157Y-120772235D01*
X77049809Y-120562191D01*
X76839765Y-120421843D01*
X76592000Y-120372560D01*
X74792000Y-120372560D01*
X74544235Y-120421843D01*
X74334191Y-120562191D01*
X74201942Y-120760114D01*
X74167110Y-120725282D01*
X74052553Y-120839839D01*
X73966148Y-120583357D01*
X73392664Y-120373542D01*
X72782540Y-120399161D01*
X72337852Y-120583357D01*
X72251446Y-120839841D01*
X68742164Y-120839841D01*
X68828904Y-120681961D01*
X68668041Y-120293577D01*
X68292134Y-119878611D01*
X67786041Y-119639086D01*
X67564000Y-119760371D01*
X67310000Y-119760371D01*
X67087959Y-119639086D01*
X66581866Y-119878611D01*
X66205959Y-120293577D01*
X66045096Y-120681961D01*
X61225656Y-120681961D01*
X61033534Y-120218138D01*
X60629862Y-119814466D01*
X60102439Y-119596000D01*
X59531561Y-119596000D01*
X59004138Y-119814466D01*
X58600466Y-120218138D01*
X58382000Y-120745561D01*
X54935047Y-120745561D01*
X55263891Y-120253411D01*
X55387100Y-119634000D01*
X55263891Y-119014589D01*
X55001912Y-118622509D01*
X55178809Y-118504309D01*
X55319157Y-118294265D01*
X55368440Y-118046500D01*
X55368440Y-117729000D01*
X58353887Y-117729000D01*
X58465260Y-118288909D01*
X58782423Y-118763577D01*
X59257091Y-119080740D01*
X59675667Y-119164000D01*
X59958333Y-119164000D01*
X60376909Y-119080740D01*
X60851577Y-118763577D01*
X61168740Y-118288909D01*
X61280113Y-117729000D01*
X61223336Y-117443561D01*
X66002000Y-117443561D01*
X66002000Y-118014439D01*
X66220466Y-118541862D01*
X66624138Y-118945534D01*
X67151561Y-119164000D01*
X67722439Y-119164000D01*
X68249862Y-118945534D01*
X68653534Y-118541862D01*
X68872000Y-118014439D01*
X68872000Y-117951039D01*
X69220096Y-117951039D01*
X69380959Y-118339423D01*
X69756866Y-118754389D01*
X70262959Y-118993914D01*
X70485000Y-118872629D01*
X70485000Y-117729000D01*
X70739000Y-117729000D01*
X70739000Y-118872629D01*
X70961041Y-118993914D01*
X71467134Y-118754389D01*
X71843041Y-118339423D01*
X72003904Y-117951039D01*
X71881915Y-117729000D01*
X70739000Y-117729000D01*
X70485000Y-117729000D01*
X69342085Y-117729000D01*
X69220096Y-117951039D01*
X68872000Y-117951039D01*
X68872000Y-117443561D01*
X68793051Y-117252961D01*
X69220096Y-117252961D01*
X69342085Y-117475000D01*
X70485000Y-117475000D01*
X70485000Y-116331371D01*
X70739000Y-116331371D01*
X70739000Y-117475000D01*
X71881915Y-117475000D01*
X72003904Y-117252961D01*
X71977521Y-117189263D01*
X72476644Y-117162892D01*
X72841869Y-117011611D01*
X72906169Y-116773774D01*
X72136000Y-116003605D01*
X72121858Y-116017748D01*
X71942253Y-115838143D01*
X71956395Y-115824000D01*
X72315605Y-115824000D01*
X73085774Y-116594169D01*
X73323611Y-116529869D01*
X73405649Y-116297886D01*
X73527286Y-116591546D01*
X73908454Y-116972714D01*
X74406474Y-117179000D01*
X74945526Y-117179000D01*
X75443546Y-116972714D01*
X75824714Y-116591546D01*
X75946000Y-116298735D01*
X76067286Y-116591546D01*
X76448454Y-116972714D01*
X76867525Y-117146298D01*
X76797000Y-117316561D01*
X76797000Y-117887439D01*
X77015466Y-118414862D01*
X77419138Y-118818534D01*
X77946561Y-119037000D01*
X78517439Y-119037000D01*
X79044862Y-118818534D01*
X79448534Y-118414862D01*
X79667000Y-117887439D01*
X79667000Y-117316561D01*
X79527178Y-116979000D01*
X80742560Y-116979000D01*
X80742560Y-118479000D01*
X80791843Y-118726765D01*
X80932191Y-118936809D01*
X81142235Y-119077157D01*
X81390000Y-119126440D01*
X82440000Y-119126440D01*
X82687765Y-119077157D01*
X82733134Y-119046842D01*
X83185000Y-119136725D01*
X83637609Y-119046695D01*
X83820001Y-118924825D01*
X84002392Y-119046695D01*
X84455000Y-119136725D01*
X84907609Y-119046695D01*
X85291313Y-118790313D01*
X85547695Y-118406608D01*
X85615000Y-118068245D01*
X85615000Y-117389754D01*
X85547695Y-117051391D01*
X85291313Y-116667687D01*
X84907608Y-116411305D01*
X84455000Y-116321275D01*
X84002391Y-116411305D01*
X83820000Y-116533175D01*
X83637608Y-116411305D01*
X83185000Y-116321275D01*
X82733133Y-116411157D01*
X82687765Y-116380843D01*
X82440000Y-116331560D01*
X81390000Y-116331560D01*
X81142235Y-116380843D01*
X80932191Y-116521191D01*
X80791843Y-116731235D01*
X80742560Y-116979000D01*
X79527178Y-116979000D01*
X79448534Y-116789138D01*
X79044862Y-116385466D01*
X78537179Y-116175177D01*
X78571000Y-116093526D01*
X78571000Y-115554474D01*
X78364714Y-115056454D01*
X77983546Y-114675286D01*
X77485526Y-114469000D01*
X76946474Y-114469000D01*
X76448454Y-114675286D01*
X76067286Y-115056454D01*
X75946000Y-115349265D01*
X75824714Y-115056454D01*
X75443546Y-114675286D01*
X74945526Y-114469000D01*
X74406474Y-114469000D01*
X73908454Y-114675286D01*
X73527286Y-115056454D01*
X73412675Y-115333151D01*
X73323611Y-115118131D01*
X73085774Y-115053831D01*
X72315605Y-115824000D01*
X71956395Y-115824000D01*
X71186226Y-115053831D01*
X70948389Y-115118131D01*
X70768667Y-115626342D01*
X70797108Y-116164644D01*
X70842705Y-116274725D01*
X70739000Y-116331371D01*
X70485000Y-116331371D01*
X70262959Y-116210086D01*
X69756866Y-116449611D01*
X69380959Y-116864577D01*
X69220096Y-117252961D01*
X68793051Y-117252961D01*
X68653534Y-116916138D01*
X68249862Y-116512466D01*
X67722439Y-116294000D01*
X67151561Y-116294000D01*
X66624138Y-116512466D01*
X66220466Y-116916138D01*
X66002000Y-117443561D01*
X61223336Y-117443561D01*
X61168740Y-117169091D01*
X60851577Y-116694423D01*
X60376909Y-116377260D01*
X59958333Y-116294000D01*
X59675667Y-116294000D01*
X59257091Y-116377260D01*
X58782423Y-116694423D01*
X58465260Y-117169091D01*
X58353887Y-117729000D01*
X55368440Y-117729000D01*
X55368440Y-116141500D01*
X55319157Y-115893735D01*
X55178809Y-115683691D01*
X54968765Y-115543343D01*
X54721000Y-115494060D01*
X52721000Y-115494060D01*
X52473235Y-115543343D01*
X52263191Y-115683691D01*
X52122843Y-115893735D01*
X52073560Y-116141500D01*
X52073560Y-118046500D01*
X52122843Y-118294265D01*
X52263191Y-118504309D01*
X52440088Y-118622509D01*
X52178109Y-119014589D01*
X52054900Y-119634000D01*
X51735000Y-119634000D01*
X51735000Y-113506561D01*
X58001000Y-113506561D01*
X58001000Y-114077439D01*
X58219466Y-114604862D01*
X58623138Y-115008534D01*
X59150561Y-115227000D01*
X59721439Y-115227000D01*
X60248862Y-115008534D01*
X60652534Y-114604862D01*
X60844655Y-114141039D01*
X65664096Y-114141039D01*
X65824959Y-114529423D01*
X66200866Y-114944389D01*
X66706959Y-115183914D01*
X66929000Y-115062629D01*
X66929000Y-113919000D01*
X67183000Y-113919000D01*
X67183000Y-115062629D01*
X67405041Y-115183914D01*
X67911134Y-114944389D01*
X67974692Y-114874226D01*
X71365831Y-114874226D01*
X72136000Y-115644395D01*
X72906169Y-114874226D01*
X72841869Y-114636389D01*
X72333658Y-114456667D01*
X71795356Y-114485108D01*
X71430131Y-114636389D01*
X71365831Y-114874226D01*
X67974692Y-114874226D01*
X68287041Y-114529423D01*
X68447904Y-114141039D01*
X68325915Y-113919000D01*
X67183000Y-113919000D01*
X66929000Y-113919000D01*
X65786085Y-113919000D01*
X65664096Y-114141039D01*
X60844655Y-114141039D01*
X60871000Y-114077439D01*
X60871000Y-113506561D01*
X60844656Y-113442961D01*
X65664096Y-113442961D01*
X65786085Y-113665000D01*
X66929000Y-113665000D01*
X66929000Y-112521371D01*
X67183000Y-112521371D01*
X67183000Y-113665000D01*
X68325915Y-113665000D01*
X68447904Y-113442961D01*
X68287041Y-113054577D01*
X67911134Y-112639611D01*
X67405041Y-112400086D01*
X67183000Y-112521371D01*
X66929000Y-112521371D01*
X66706959Y-112400086D01*
X66200866Y-112639611D01*
X65824959Y-113054577D01*
X65664096Y-113442961D01*
X60844656Y-113442961D01*
X60652534Y-112979138D01*
X60248862Y-112575466D01*
X59721439Y-112357000D01*
X59150561Y-112357000D01*
X58623138Y-112575466D01*
X58219466Y-112979138D01*
X58001000Y-113506561D01*
X51735000Y-113506561D01*
X51735000Y-108712000D01*
X52333908Y-108712000D01*
X52449161Y-109291418D01*
X52777375Y-109782625D01*
X53075761Y-109982000D01*
X52777375Y-110181375D01*
X52449161Y-110672582D01*
X52333908Y-111252000D01*
X52449161Y-111831418D01*
X52777375Y-112322625D01*
X53268582Y-112650839D01*
X53701744Y-112737000D01*
X53994256Y-112737000D01*
X54427418Y-112650839D01*
X54918625Y-112322625D01*
X55246839Y-111831418D01*
X55362092Y-111252000D01*
X55246839Y-110672582D01*
X55050674Y-110379000D01*
X74600060Y-110379000D01*
X74600060Y-112379000D01*
X74649343Y-112626765D01*
X74789691Y-112836809D01*
X74999735Y-112977157D01*
X75247500Y-113026440D01*
X77152500Y-113026440D01*
X77400265Y-112977157D01*
X77610309Y-112836809D01*
X77728509Y-112659912D01*
X78120590Y-112921891D01*
X78740000Y-113045100D01*
X79359411Y-112921891D01*
X79884523Y-112571023D01*
X80019159Y-112369526D01*
X80413076Y-112754973D01*
X80907020Y-112969563D01*
X81153000Y-112849594D01*
X81153000Y-111506000D01*
X81407000Y-111506000D01*
X81407000Y-112849594D01*
X81652980Y-112969563D01*
X82146924Y-112754973D01*
X82589318Y-112322091D01*
X82832380Y-111752864D01*
X82705572Y-111506000D01*
X81407000Y-111506000D01*
X81153000Y-111506000D01*
X81133000Y-111506000D01*
X81133000Y-111252000D01*
X81153000Y-111252000D01*
X81153000Y-109908406D01*
X81407000Y-109908406D01*
X81407000Y-111252000D01*
X82705572Y-111252000D01*
X82832380Y-111005136D01*
X82589318Y-110435909D01*
X82165292Y-110021000D01*
X87402560Y-110021000D01*
X87402560Y-111721000D01*
X87451843Y-111968765D01*
X87592191Y-112178809D01*
X87802235Y-112319157D01*
X88050000Y-112368440D01*
X89750000Y-112368440D01*
X89997765Y-112319157D01*
X90207809Y-112178809D01*
X90348157Y-111968765D01*
X90357184Y-111923381D01*
X90369375Y-111941625D01*
X90860582Y-112269839D01*
X91293744Y-112356000D01*
X91586256Y-112356000D01*
X92019418Y-112269839D01*
X92510625Y-111941625D01*
X92838839Y-111450418D01*
X92954092Y-110871000D01*
X92838839Y-110291582D01*
X92510625Y-109800375D01*
X92019418Y-109472161D01*
X91586256Y-109386000D01*
X91293744Y-109386000D01*
X90860582Y-109472161D01*
X90369375Y-109800375D01*
X90357184Y-109818619D01*
X90348157Y-109773235D01*
X90207809Y-109563191D01*
X89997765Y-109422843D01*
X89750000Y-109373560D01*
X88050000Y-109373560D01*
X87802235Y-109422843D01*
X87592191Y-109563191D01*
X87451843Y-109773235D01*
X87402560Y-110021000D01*
X82165292Y-110021000D01*
X82146924Y-110003027D01*
X81652980Y-109788437D01*
X81407000Y-109908406D01*
X81153000Y-109908406D01*
X80907020Y-109788437D01*
X80413076Y-110003027D01*
X80019159Y-110388474D01*
X79884523Y-110186977D01*
X79359410Y-109836109D01*
X78740000Y-109712900D01*
X78120589Y-109836109D01*
X77728509Y-110098088D01*
X77610309Y-109921191D01*
X77400265Y-109780843D01*
X77152500Y-109731560D01*
X75247500Y-109731560D01*
X74999735Y-109780843D01*
X74789691Y-109921191D01*
X74649343Y-110131235D01*
X74600060Y-110379000D01*
X55050674Y-110379000D01*
X54918625Y-110181375D01*
X54620239Y-109982000D01*
X54918625Y-109782625D01*
X55246839Y-109291418D01*
X55362092Y-108712000D01*
X55246839Y-108132582D01*
X54988634Y-107746150D01*
X57848500Y-107746150D01*
X57848500Y-108153849D01*
X57940609Y-108616910D01*
X58291477Y-109142023D01*
X58816589Y-109492891D01*
X59436000Y-109616100D01*
X60055410Y-109492891D01*
X60580523Y-109142023D01*
X60715159Y-108940526D01*
X61109076Y-109325973D01*
X61603020Y-109540563D01*
X61849000Y-109420594D01*
X61849000Y-108077000D01*
X61829000Y-108077000D01*
X61829000Y-107823000D01*
X61849000Y-107823000D01*
X61849000Y-106479406D01*
X62103000Y-106479406D01*
X62103000Y-107823000D01*
X62123000Y-107823000D01*
X62123000Y-108077000D01*
X62103000Y-108077000D01*
X62103000Y-109420594D01*
X62348980Y-109540563D01*
X62842924Y-109325973D01*
X62968745Y-109202857D01*
X63105691Y-109407809D01*
X63315735Y-109548157D01*
X63563500Y-109597440D01*
X65468500Y-109597440D01*
X65716265Y-109548157D01*
X65926309Y-109407809D01*
X66066657Y-109197765D01*
X66115940Y-108950000D01*
X66115940Y-107029561D01*
X86703000Y-107029561D01*
X86703000Y-107600439D01*
X86921466Y-108127862D01*
X87325138Y-108531534D01*
X87852561Y-108750000D01*
X88423439Y-108750000D01*
X88950862Y-108531534D01*
X89354534Y-108127862D01*
X89573000Y-107600439D01*
X89573000Y-107156561D01*
X90259000Y-107156561D01*
X90259000Y-107727439D01*
X90477466Y-108254862D01*
X90881138Y-108658534D01*
X91408561Y-108877000D01*
X91979439Y-108877000D01*
X92506862Y-108658534D01*
X92910534Y-108254862D01*
X93129000Y-107727439D01*
X93129000Y-107156561D01*
X92910534Y-106629138D01*
X92506862Y-106225466D01*
X91979439Y-106007000D01*
X91408561Y-106007000D01*
X90881138Y-106225466D01*
X90477466Y-106629138D01*
X90259000Y-107156561D01*
X89573000Y-107156561D01*
X89573000Y-107029561D01*
X89354534Y-106502138D01*
X88950862Y-106098466D01*
X88423439Y-105880000D01*
X87852561Y-105880000D01*
X87325138Y-106098466D01*
X86921466Y-106502138D01*
X86703000Y-107029561D01*
X66115940Y-107029561D01*
X66115940Y-106950000D01*
X66066657Y-106702235D01*
X65926309Y-106492191D01*
X65716265Y-106351843D01*
X65468500Y-106302560D01*
X63563500Y-106302560D01*
X63315735Y-106351843D01*
X63105691Y-106492191D01*
X62968745Y-106697143D01*
X62842924Y-106574027D01*
X62348980Y-106359437D01*
X62103000Y-106479406D01*
X61849000Y-106479406D01*
X61603020Y-106359437D01*
X61109076Y-106574027D01*
X60715159Y-106959474D01*
X60580523Y-106757977D01*
X60055411Y-106407109D01*
X59436000Y-106283900D01*
X58816590Y-106407109D01*
X58291477Y-106757977D01*
X57940609Y-107283089D01*
X57848500Y-107746150D01*
X54988634Y-107746150D01*
X54918625Y-107641375D01*
X54599522Y-107428157D01*
X54729358Y-107367183D01*
X55119645Y-106938924D01*
X55289476Y-106528890D01*
X55168155Y-106299000D01*
X53975000Y-106299000D01*
X53975000Y-106319000D01*
X53721000Y-106319000D01*
X53721000Y-106299000D01*
X52527845Y-106299000D01*
X52406524Y-106528890D01*
X52576355Y-106938924D01*
X52966642Y-107367183D01*
X53096478Y-107428157D01*
X52777375Y-107641375D01*
X52449161Y-108132582D01*
X52333908Y-108712000D01*
X51735000Y-108712000D01*
X51735000Y-103632000D01*
X52333908Y-103632000D01*
X52449161Y-104211418D01*
X52777375Y-104702625D01*
X53096478Y-104915843D01*
X52966642Y-104976817D01*
X52576355Y-105405076D01*
X52406524Y-105815110D01*
X52527845Y-106045000D01*
X53721000Y-106045000D01*
X53721000Y-106025000D01*
X53975000Y-106025000D01*
X53975000Y-106045000D01*
X55168155Y-106045000D01*
X55289476Y-105815110D01*
X55119645Y-105405076D01*
X54729358Y-104976817D01*
X54599522Y-104915843D01*
X54918625Y-104702625D01*
X54980515Y-104610000D01*
X69418560Y-104610000D01*
X69418560Y-106210000D01*
X69467843Y-106457765D01*
X69608191Y-106667809D01*
X69818235Y-106808157D01*
X70066000Y-106857440D01*
X71666000Y-106857440D01*
X71913765Y-106808157D01*
X72123809Y-106667809D01*
X72264157Y-106457765D01*
X72313440Y-106210000D01*
X72313440Y-104610000D01*
X72264157Y-104362235D01*
X72123809Y-104152191D01*
X71913765Y-104011843D01*
X71666000Y-103962560D01*
X70066000Y-103962560D01*
X69818235Y-104011843D01*
X69608191Y-104152191D01*
X69467843Y-104362235D01*
X69418560Y-104610000D01*
X54980515Y-104610000D01*
X55246839Y-104211418D01*
X55358909Y-103648000D01*
X79124560Y-103648000D01*
X79124560Y-105648000D01*
X79173843Y-105895765D01*
X79314191Y-106105809D01*
X79524235Y-106246157D01*
X79772000Y-106295440D01*
X81772000Y-106295440D01*
X82019765Y-106246157D01*
X82229809Y-106105809D01*
X82370157Y-105895765D01*
X82419440Y-105648000D01*
X82419440Y-103648000D01*
X82370157Y-103400235D01*
X82229809Y-103190191D01*
X82019765Y-103049843D01*
X81772000Y-103000560D01*
X79772000Y-103000560D01*
X79524235Y-103049843D01*
X79314191Y-103190191D01*
X79173843Y-103400235D01*
X79124560Y-103648000D01*
X55358909Y-103648000D01*
X55362092Y-103632000D01*
X55246839Y-103052582D01*
X55156744Y-102917745D01*
X70037861Y-102917745D01*
X70111995Y-103163864D01*
X70649223Y-103356965D01*
X71219454Y-103329778D01*
X71620005Y-103163864D01*
X71694139Y-102917745D01*
X70866000Y-102089605D01*
X70037861Y-102917745D01*
X55156744Y-102917745D01*
X54918625Y-102561375D01*
X54900381Y-102549184D01*
X54945765Y-102540157D01*
X55155809Y-102399809D01*
X55296157Y-102189765D01*
X55345440Y-101942000D01*
X55345440Y-101693223D01*
X69419035Y-101693223D01*
X69446222Y-102263454D01*
X69612136Y-102664005D01*
X69858255Y-102738139D01*
X70686395Y-101910000D01*
X71045605Y-101910000D01*
X71873745Y-102738139D01*
X72119864Y-102664005D01*
X72312965Y-102126777D01*
X72285778Y-101556546D01*
X72119864Y-101155995D01*
X71873745Y-101081861D01*
X71045605Y-101910000D01*
X70686395Y-101910000D01*
X69858255Y-101081861D01*
X69612136Y-101155995D01*
X69419035Y-101693223D01*
X55345440Y-101693223D01*
X55345440Y-100902255D01*
X70037861Y-100902255D01*
X70866000Y-101730395D01*
X71694139Y-100902255D01*
X71663499Y-100800532D01*
X79799073Y-100800532D01*
X79897736Y-101067387D01*
X80507461Y-101293908D01*
X81157460Y-101269856D01*
X81646264Y-101067387D01*
X81744927Y-100800532D01*
X80772000Y-99827605D01*
X79799073Y-100800532D01*
X71663499Y-100800532D01*
X71620005Y-100656136D01*
X71082777Y-100463035D01*
X70512546Y-100490222D01*
X70111995Y-100656136D01*
X70037861Y-100902255D01*
X55345440Y-100902255D01*
X55345440Y-100242000D01*
X55296157Y-99994235D01*
X55155809Y-99784191D01*
X54945765Y-99643843D01*
X54698000Y-99594560D01*
X52998000Y-99594560D01*
X52750235Y-99643843D01*
X52540191Y-99784191D01*
X52399843Y-99994235D01*
X52350560Y-100242000D01*
X52350560Y-101942000D01*
X52399843Y-102189765D01*
X52540191Y-102399809D01*
X52750235Y-102540157D01*
X52795619Y-102549184D01*
X52777375Y-102561375D01*
X52449161Y-103052582D01*
X52333908Y-103632000D01*
X51735000Y-103632000D01*
X51735000Y-98060000D01*
X57280560Y-98060000D01*
X57280560Y-100060000D01*
X57329843Y-100307765D01*
X57470191Y-100517809D01*
X57680235Y-100658157D01*
X57928000Y-100707440D01*
X59928000Y-100707440D01*
X60175765Y-100658157D01*
X60385809Y-100517809D01*
X60526157Y-100307765D01*
X60545099Y-100212532D01*
X62955073Y-100212532D01*
X63053736Y-100479387D01*
X63663461Y-100705908D01*
X64313460Y-100681856D01*
X64802264Y-100479387D01*
X64900927Y-100212532D01*
X63928000Y-99239605D01*
X62955073Y-100212532D01*
X60545099Y-100212532D01*
X60575440Y-100060000D01*
X60575440Y-98795461D01*
X62282092Y-98795461D01*
X62306144Y-99445460D01*
X62508613Y-99934264D01*
X62775468Y-100032927D01*
X63748395Y-99060000D01*
X64107605Y-99060000D01*
X65080532Y-100032927D01*
X65347387Y-99934264D01*
X65552017Y-99383461D01*
X79126092Y-99383461D01*
X79150144Y-100033460D01*
X79352613Y-100522264D01*
X79619468Y-100620927D01*
X80592395Y-99648000D01*
X80951605Y-99648000D01*
X81924532Y-100620927D01*
X82191387Y-100522264D01*
X82417908Y-99912539D01*
X82409859Y-99695000D01*
X86674887Y-99695000D01*
X86786260Y-100254909D01*
X87103423Y-100729577D01*
X87578091Y-101046740D01*
X87996667Y-101130000D01*
X88279333Y-101130000D01*
X88697909Y-101046740D01*
X89172577Y-100729577D01*
X89489740Y-100254909D01*
X89575851Y-99822000D01*
X90230887Y-99822000D01*
X90342260Y-100381909D01*
X90659423Y-100856577D01*
X91134091Y-101173740D01*
X91552667Y-101257000D01*
X91835333Y-101257000D01*
X92253909Y-101173740D01*
X92728577Y-100856577D01*
X93045740Y-100381909D01*
X93157113Y-99822000D01*
X93045740Y-99262091D01*
X92728577Y-98787423D01*
X92253909Y-98470260D01*
X91835333Y-98387000D01*
X91552667Y-98387000D01*
X91134091Y-98470260D01*
X90659423Y-98787423D01*
X90342260Y-99262091D01*
X90230887Y-99822000D01*
X89575851Y-99822000D01*
X89601113Y-99695000D01*
X89489740Y-99135091D01*
X89172577Y-98660423D01*
X88697909Y-98343260D01*
X88279333Y-98260000D01*
X87996667Y-98260000D01*
X87578091Y-98343260D01*
X87103423Y-98660423D01*
X86786260Y-99135091D01*
X86674887Y-99695000D01*
X82409859Y-99695000D01*
X82393856Y-99262540D01*
X82191387Y-98773736D01*
X81924532Y-98675073D01*
X80951605Y-99648000D01*
X80592395Y-99648000D01*
X79619468Y-98675073D01*
X79352613Y-98773736D01*
X79126092Y-99383461D01*
X65552017Y-99383461D01*
X65573908Y-99324539D01*
X65549856Y-98674540D01*
X65475683Y-98495468D01*
X79799073Y-98495468D01*
X80772000Y-99468395D01*
X81744927Y-98495468D01*
X81646264Y-98228613D01*
X81036539Y-98002092D01*
X80386540Y-98026144D01*
X79897736Y-98228613D01*
X79799073Y-98495468D01*
X65475683Y-98495468D01*
X65347387Y-98185736D01*
X65080532Y-98087073D01*
X64107605Y-99060000D01*
X63748395Y-99060000D01*
X62775468Y-98087073D01*
X62508613Y-98185736D01*
X62282092Y-98795461D01*
X60575440Y-98795461D01*
X60575440Y-98060000D01*
X60545100Y-97907468D01*
X62955073Y-97907468D01*
X63928000Y-98880395D01*
X64900927Y-97907468D01*
X64802264Y-97640613D01*
X64192539Y-97414092D01*
X63542540Y-97438144D01*
X63053736Y-97640613D01*
X62955073Y-97907468D01*
X60545100Y-97907468D01*
X60526157Y-97812235D01*
X60385809Y-97602191D01*
X60175765Y-97461843D01*
X59928000Y-97412560D01*
X57928000Y-97412560D01*
X57680235Y-97461843D01*
X57470191Y-97602191D01*
X57329843Y-97812235D01*
X57280560Y-98060000D01*
X51735000Y-98060000D01*
X51735000Y-94456000D01*
X52512336Y-94456000D01*
X52614007Y-94967136D01*
X52903543Y-95400457D01*
X52986669Y-95456000D01*
X52903543Y-95511543D01*
X52614007Y-95944864D01*
X52512336Y-96456000D01*
X52614007Y-96967136D01*
X52903543Y-97400457D01*
X53336864Y-97689993D01*
X53718978Y-97766000D01*
X53977022Y-97766000D01*
X54359136Y-97689993D01*
X54792457Y-97400457D01*
X55081993Y-96967136D01*
X55183664Y-96456000D01*
X55081993Y-95944864D01*
X54808632Y-95535750D01*
X87669000Y-95535750D01*
X87669000Y-96226309D01*
X87765673Y-96459698D01*
X87944301Y-96638327D01*
X88177690Y-96735000D01*
X88868250Y-96735000D01*
X89027000Y-96576250D01*
X89027000Y-95377000D01*
X87827750Y-95377000D01*
X87669000Y-95535750D01*
X54808632Y-95535750D01*
X54792457Y-95511543D01*
X54709331Y-95456000D01*
X54792457Y-95400457D01*
X55081993Y-94967136D01*
X55183664Y-94456000D01*
X55081993Y-93944864D01*
X54914746Y-93694561D01*
X75313000Y-93694561D01*
X75313000Y-94265439D01*
X75531466Y-94792862D01*
X75935138Y-95196534D01*
X76462561Y-95415000D01*
X77033439Y-95415000D01*
X77560862Y-95196534D01*
X77829899Y-94927497D01*
X77849843Y-95027765D01*
X77990191Y-95237809D01*
X78200235Y-95378157D01*
X78448000Y-95427440D01*
X80048000Y-95427440D01*
X80295765Y-95378157D01*
X80505809Y-95237809D01*
X80646157Y-95027765D01*
X80695440Y-94780000D01*
X80695440Y-94273691D01*
X87669000Y-94273691D01*
X87669000Y-94964250D01*
X87827750Y-95123000D01*
X89027000Y-95123000D01*
X89027000Y-93923750D01*
X89281000Y-93923750D01*
X89281000Y-95123000D01*
X89301000Y-95123000D01*
X89301000Y-95377000D01*
X89281000Y-95377000D01*
X89281000Y-96576250D01*
X89439750Y-96735000D01*
X90130310Y-96735000D01*
X90363699Y-96638327D01*
X90542327Y-96459698D01*
X90608904Y-96298967D01*
X90623375Y-96320625D01*
X91114582Y-96648839D01*
X91547744Y-96735000D01*
X91840256Y-96735000D01*
X92273418Y-96648839D01*
X92764625Y-96320625D01*
X93092839Y-95829418D01*
X93208092Y-95250000D01*
X93092839Y-94670582D01*
X92764625Y-94179375D01*
X92273418Y-93851161D01*
X91840256Y-93765000D01*
X91547744Y-93765000D01*
X91114582Y-93851161D01*
X90623375Y-94179375D01*
X90608904Y-94201033D01*
X90542327Y-94040302D01*
X90363699Y-93861673D01*
X90130310Y-93765000D01*
X89439750Y-93765000D01*
X89281000Y-93923750D01*
X89027000Y-93923750D01*
X88868250Y-93765000D01*
X88177690Y-93765000D01*
X87944301Y-93861673D01*
X87765673Y-94040302D01*
X87669000Y-94273691D01*
X80695440Y-94273691D01*
X80695440Y-93180000D01*
X80646157Y-92932235D01*
X80505809Y-92722191D01*
X80295765Y-92581843D01*
X80048000Y-92532560D01*
X78448000Y-92532560D01*
X78200235Y-92581843D01*
X77990191Y-92722191D01*
X77849843Y-92932235D01*
X77829899Y-93032503D01*
X77560862Y-92763466D01*
X77033439Y-92545000D01*
X76462561Y-92545000D01*
X75935138Y-92763466D01*
X75531466Y-93167138D01*
X75313000Y-93694561D01*
X54914746Y-93694561D01*
X54886286Y-93651968D01*
X54980809Y-93588809D01*
X55121157Y-93378765D01*
X55170440Y-93131000D01*
X55170440Y-91781000D01*
X55121157Y-91533235D01*
X54980809Y-91323191D01*
X54770765Y-91182843D01*
X54523000Y-91133560D01*
X53173000Y-91133560D01*
X52925235Y-91182843D01*
X52715191Y-91323191D01*
X52574843Y-91533235D01*
X52525560Y-91781000D01*
X52525560Y-93131000D01*
X52574843Y-93378765D01*
X52715191Y-93588809D01*
X52809714Y-93651968D01*
X52614007Y-93944864D01*
X52512336Y-94456000D01*
X51735000Y-94456000D01*
X51735000Y-88868561D01*
X75527000Y-88868561D01*
X75527000Y-89439439D01*
X75745466Y-89966862D01*
X76149138Y-90370534D01*
X76676561Y-90589000D01*
X77247439Y-90589000D01*
X77774862Y-90370534D01*
X78178534Y-89966862D01*
X78370655Y-89503039D01*
X83190096Y-89503039D01*
X83350959Y-89891423D01*
X83726866Y-90306389D01*
X84232959Y-90545914D01*
X84455000Y-90424629D01*
X84455000Y-89281000D01*
X84709000Y-89281000D01*
X84709000Y-90424629D01*
X84931041Y-90545914D01*
X85437134Y-90306389D01*
X85813041Y-89891423D01*
X85973904Y-89503039D01*
X85851915Y-89281000D01*
X84709000Y-89281000D01*
X84455000Y-89281000D01*
X83312085Y-89281000D01*
X83190096Y-89503039D01*
X78370655Y-89503039D01*
X78397000Y-89439439D01*
X78397000Y-88868561D01*
X78370656Y-88804961D01*
X83190096Y-88804961D01*
X83312085Y-89027000D01*
X84455000Y-89027000D01*
X84455000Y-87883371D01*
X84709000Y-87883371D01*
X84709000Y-89027000D01*
X85851915Y-89027000D01*
X85973904Y-88804961D01*
X85813041Y-88416577D01*
X85437134Y-88001611D01*
X84931041Y-87762086D01*
X84709000Y-87883371D01*
X84455000Y-87883371D01*
X84232959Y-87762086D01*
X83726866Y-88001611D01*
X83350959Y-88416577D01*
X83190096Y-88804961D01*
X78370656Y-88804961D01*
X78178534Y-88341138D01*
X77774862Y-87937466D01*
X77247439Y-87719000D01*
X76676561Y-87719000D01*
X76149138Y-87937466D01*
X75745466Y-88341138D01*
X75527000Y-88868561D01*
X51735000Y-88868561D01*
X51735000Y-87875745D01*
X58139861Y-87875745D01*
X58213995Y-88121864D01*
X58751223Y-88314965D01*
X59321454Y-88287778D01*
X59722005Y-88121864D01*
X59796139Y-87875745D01*
X58968000Y-87047605D01*
X58139861Y-87875745D01*
X51735000Y-87875745D01*
X51735000Y-86651223D01*
X57521035Y-86651223D01*
X57548222Y-87221454D01*
X57714136Y-87622005D01*
X57960255Y-87696139D01*
X58788395Y-86868000D01*
X59147605Y-86868000D01*
X59975745Y-87696139D01*
X60023307Y-87681813D01*
X60069843Y-87915765D01*
X60210191Y-88125809D01*
X60420235Y-88266157D01*
X60668000Y-88315440D01*
X62268000Y-88315440D01*
X62515765Y-88266157D01*
X62725809Y-88125809D01*
X62866157Y-87915765D01*
X62915440Y-87668000D01*
X62915440Y-86068000D01*
X62866157Y-85820235D01*
X62725809Y-85610191D01*
X62515765Y-85469843D01*
X62268000Y-85420560D01*
X60668000Y-85420560D01*
X60420235Y-85469843D01*
X60210191Y-85610191D01*
X60069843Y-85820235D01*
X60023307Y-86054187D01*
X59975745Y-86039861D01*
X59147605Y-86868000D01*
X58788395Y-86868000D01*
X57960255Y-86039861D01*
X57714136Y-86113995D01*
X57521035Y-86651223D01*
X51735000Y-86651223D01*
X51735000Y-85860255D01*
X58139861Y-85860255D01*
X58968000Y-86688395D01*
X59796139Y-85860255D01*
X59722005Y-85614136D01*
X59184777Y-85421035D01*
X58614546Y-85448222D01*
X58213995Y-85614136D01*
X58139861Y-85860255D01*
X51735000Y-85860255D01*
X51735000Y-85344000D01*
X75498887Y-85344000D01*
X75610260Y-85903909D01*
X75927423Y-86378577D01*
X76402091Y-86695740D01*
X76820667Y-86779000D01*
X77103333Y-86779000D01*
X77521909Y-86695740D01*
X77996577Y-86378577D01*
X78313740Y-85903909D01*
X78425113Y-85344000D01*
X78368336Y-85058561D01*
X83147000Y-85058561D01*
X83147000Y-85629439D01*
X83365466Y-86156862D01*
X83769138Y-86560534D01*
X84296561Y-86779000D01*
X84867439Y-86779000D01*
X85394862Y-86560534D01*
X85798534Y-86156862D01*
X86017000Y-85629439D01*
X86017000Y-85058561D01*
X85798534Y-84531138D01*
X85394862Y-84127466D01*
X84867439Y-83909000D01*
X84296561Y-83909000D01*
X83769138Y-84127466D01*
X83365466Y-84531138D01*
X83147000Y-85058561D01*
X78368336Y-85058561D01*
X78313740Y-84784091D01*
X77996577Y-84309423D01*
X77521909Y-83992260D01*
X77103333Y-83909000D01*
X76820667Y-83909000D01*
X76402091Y-83992260D01*
X75927423Y-84309423D01*
X75610260Y-84784091D01*
X75498887Y-85344000D01*
X51735000Y-85344000D01*
X51735000Y-80430000D01*
X52350560Y-80430000D01*
X52350560Y-82130000D01*
X52399843Y-82377765D01*
X52540191Y-82587809D01*
X52750235Y-82728157D01*
X52998000Y-82777440D01*
X54698000Y-82777440D01*
X54945765Y-82728157D01*
X55155809Y-82587809D01*
X55296157Y-82377765D01*
X55345440Y-82130000D01*
X55345440Y-80430000D01*
X55312421Y-80264000D01*
X74683214Y-80264000D01*
X74856676Y-81136054D01*
X75350655Y-81875345D01*
X76089946Y-82369324D01*
X76741872Y-82499000D01*
X77182128Y-82499000D01*
X77834054Y-82369324D01*
X78573345Y-81875345D01*
X79067324Y-81136054D01*
X79240786Y-80264000D01*
X79067324Y-79391946D01*
X78580926Y-78664000D01*
X87414560Y-78664000D01*
X87414560Y-81864000D01*
X87463843Y-82111765D01*
X87604191Y-82321809D01*
X87814235Y-82462157D01*
X88062000Y-82511440D01*
X91262000Y-82511440D01*
X91509765Y-82462157D01*
X91719809Y-82321809D01*
X91860157Y-82111765D01*
X91909440Y-81864000D01*
X91909440Y-78664000D01*
X91860157Y-78416235D01*
X91719809Y-78206191D01*
X91509765Y-78065843D01*
X91262000Y-78016560D01*
X88062000Y-78016560D01*
X87814235Y-78065843D01*
X87604191Y-78206191D01*
X87463843Y-78416235D01*
X87414560Y-78664000D01*
X78580926Y-78664000D01*
X78573345Y-78652655D01*
X77834054Y-78158676D01*
X77182128Y-78029000D01*
X76741872Y-78029000D01*
X76089946Y-78158676D01*
X75350655Y-78652655D01*
X74856676Y-79391946D01*
X74683214Y-80264000D01*
X55312421Y-80264000D01*
X55296157Y-80182235D01*
X55155809Y-79972191D01*
X54945765Y-79831843D01*
X54842292Y-79811261D01*
X55119645Y-79506924D01*
X55289476Y-79096890D01*
X55168155Y-78867000D01*
X53975000Y-78867000D01*
X53975000Y-78887000D01*
X53721000Y-78887000D01*
X53721000Y-78867000D01*
X52527845Y-78867000D01*
X52406524Y-79096890D01*
X52576355Y-79506924D01*
X52853708Y-79811261D01*
X52750235Y-79831843D01*
X52540191Y-79972191D01*
X52399843Y-80182235D01*
X52350560Y-80430000D01*
X51735000Y-80430000D01*
X51735000Y-78383110D01*
X52406524Y-78383110D01*
X52527845Y-78613000D01*
X53721000Y-78613000D01*
X53721000Y-77419181D01*
X53975000Y-77419181D01*
X53975000Y-78613000D01*
X55168155Y-78613000D01*
X55289476Y-78383110D01*
X55119645Y-77973076D01*
X54729358Y-77544817D01*
X54204892Y-77298514D01*
X53975000Y-77419181D01*
X53721000Y-77419181D01*
X53491108Y-77298514D01*
X52966642Y-77544817D01*
X52576355Y-77973076D01*
X52406524Y-78383110D01*
X51735000Y-78383110D01*
X51735000Y-76735000D01*
X94265000Y-76735000D01*
X94265001Y-125265000D01*
G04 #@! TD*
M02*
