G04 #@! TF.GenerationSoftware,KiCad,Pcbnew,(5.0.2)-1*
G04 #@! TF.CreationDate,2019-03-20T14:53:53-04:00*
G04 #@! TF.ProjectId,_saved__saved_tDCS,5f736176-6564-45f5-9f73-617665645f74,rev?*
G04 #@! TF.SameCoordinates,Original*
G04 #@! TF.FileFunction,Copper,L1,Top*
G04 #@! TF.FilePolarity,Positive*
%FSLAX46Y46*%
G04 Gerber Fmt 4.6, Leading zero omitted, Abs format (unit mm)*
G04 Created by KiCad (PCBNEW (5.0.2)-1) date 3/20/2019 2:53:53 PM*
%MOMM*%
%LPD*%
G01*
G04 APERTURE LIST*
G04 #@! TA.AperFunction,ComponentPad*
%ADD10O,1.600000X1.600000*%
G04 #@! TD*
G04 #@! TA.AperFunction,ComponentPad*
%ADD11C,1.600000*%
G04 #@! TD*
G04 #@! TA.AperFunction,ComponentPad*
%ADD12R,1.700000X1.700000*%
G04 #@! TD*
G04 #@! TA.AperFunction,ComponentPad*
%ADD13O,1.700000X1.700000*%
G04 #@! TD*
G04 #@! TA.AperFunction,ComponentPad*
%ADD14R,1.600000X1.600000*%
G04 #@! TD*
G04 #@! TA.AperFunction,ComponentPad*
%ADD15R,1.800000X1.800000*%
G04 #@! TD*
G04 #@! TA.AperFunction,ComponentPad*
%ADD16C,1.800000*%
G04 #@! TD*
G04 #@! TA.AperFunction,ComponentPad*
%ADD17R,3.200000X3.200000*%
G04 #@! TD*
G04 #@! TA.AperFunction,ComponentPad*
%ADD18O,3.200000X3.200000*%
G04 #@! TD*
G04 #@! TA.AperFunction,SMDPad,CuDef*
%ADD19C,0.500000*%
G04 #@! TD*
G04 #@! TA.AperFunction,Conductor*
%ADD20C,0.100000*%
G04 #@! TD*
G04 #@! TA.AperFunction,SMDPad,CuDef*
%ADD21R,2.350000X5.100000*%
G04 #@! TD*
G04 #@! TA.AperFunction,ComponentPad*
%ADD22O,1.050000X1.500000*%
G04 #@! TD*
G04 #@! TA.AperFunction,ComponentPad*
%ADD23R,1.050000X1.500000*%
G04 #@! TD*
G04 #@! TA.AperFunction,ComponentPad*
%ADD24O,1.905000X2.000000*%
G04 #@! TD*
G04 #@! TA.AperFunction,ComponentPad*
%ADD25R,1.905000X2.000000*%
G04 #@! TD*
G04 #@! TA.AperFunction,ComponentPad*
%ADD26R,2.000000X1.905000*%
G04 #@! TD*
G04 #@! TA.AperFunction,ComponentPad*
%ADD27O,2.000000X1.905000*%
G04 #@! TD*
G04 #@! TA.AperFunction,ComponentPad*
%ADD28R,1.350000X1.350000*%
G04 #@! TD*
G04 #@! TA.AperFunction,ComponentPad*
%ADD29O,1.350000X1.350000*%
G04 #@! TD*
G04 #@! TA.AperFunction,SMDPad,CuDef*
%ADD30R,1.100000X4.600000*%
G04 #@! TD*
G04 #@! TA.AperFunction,SMDPad,CuDef*
%ADD31R,10.800000X9.400000*%
G04 #@! TD*
G04 #@! TA.AperFunction,ComponentPad*
%ADD32R,2.000000X2.000000*%
G04 #@! TD*
G04 #@! TA.AperFunction,ComponentPad*
%ADD33C,2.000000*%
G04 #@! TD*
G04 #@! TA.AperFunction,ComponentPad*
%ADD34C,1.440000*%
G04 #@! TD*
G04 #@! TA.AperFunction,ViaPad*
%ADD35C,0.800000*%
G04 #@! TD*
G04 #@! TA.AperFunction,Conductor*
%ADD36C,0.250000*%
G04 #@! TD*
G04 #@! TA.AperFunction,Conductor*
%ADD37C,2.000000*%
G04 #@! TD*
G04 #@! TA.AperFunction,Conductor*
%ADD38C,0.254000*%
G04 #@! TD*
G04 APERTURE END LIST*
D10*
G04 #@! TO.P,R9,2*
G04 #@! TO.N,Net-(J3-Pad2)*
X89535000Y-121920000D03*
D11*
G04 #@! TO.P,R9,1*
G04 #@! TO.N,Net-(Q3-Pad2)*
X81915000Y-121920000D03*
G04 #@! TD*
G04 #@! TO.P,R6,1*
G04 #@! TO.N,Net-(C5-Pad1)*
X67437000Y-117729000D03*
D10*
G04 #@! TO.P,R6,2*
G04 #@! TO.N,Net-(J1-Pad5)*
X59817000Y-117729000D03*
G04 #@! TD*
D11*
G04 #@! TO.P,R10,1*
G04 #@! TO.N,Net-(C5-Pad1)*
X59436000Y-113792000D03*
D10*
G04 #@! TO.P,R10,2*
G04 #@! TO.N,boostout-*
X67056000Y-113792000D03*
G04 #@! TD*
D12*
G04 #@! TO.P,BT2,1*
G04 #@! TO.N,Net-(BT2-Pad1)*
X53848000Y-81280000D03*
D13*
G04 #@! TO.P,BT2,2*
G04 #@! TO.N,boostout-*
X53848000Y-78740000D03*
G04 #@! TD*
D14*
G04 #@! TO.P,C1,1*
G04 #@! TO.N,+9V*
X61468000Y-86868000D03*
D11*
G04 #@! TO.P,C1,2*
G04 #@! TO.N,boostout-*
X58968000Y-86868000D03*
G04 #@! TD*
D14*
G04 #@! TO.P,C3,1*
G04 #@! TO.N,Net-(C3-Pad1)*
X79248000Y-93980000D03*
D11*
G04 #@! TO.P,C3,2*
G04 #@! TO.N,Net-(C3-Pad2)*
X76748000Y-93980000D03*
G04 #@! TD*
D15*
G04 #@! TO.P,D1,1*
G04 #@! TO.N,Net-(D1-Pad1)*
X75692000Y-121920000D03*
D16*
G04 #@! TO.P,D1,2*
G04 #@! TO.N,boostout-*
X73152000Y-121920000D03*
G04 #@! TD*
D17*
G04 #@! TO.P,D2,1*
G04 #@! TO.N,Net-(C3-Pad1)*
X89662000Y-80264000D03*
D18*
G04 #@! TO.P,D2,2*
G04 #@! TO.N,Net-(D2-Pad2)*
X76962000Y-80264000D03*
G04 #@! TD*
D12*
G04 #@! TO.P,J1,1*
G04 #@! TO.N,Net-(J1-Pad1)*
X53848000Y-101092000D03*
D13*
G04 #@! TO.P,J1,2*
G04 #@! TO.N,+5V*
X53848000Y-103632000D03*
G04 #@! TO.P,J1,3*
G04 #@! TO.N,boostout-*
X53848000Y-106172000D03*
G04 #@! TO.P,J1,4*
G04 #@! TO.N,Net-(J1-Pad4)*
X53848000Y-108712000D03*
G04 #@! TO.P,J1,5*
G04 #@! TO.N,Net-(J1-Pad5)*
X53848000Y-111252000D03*
G04 #@! TD*
G04 #@! TO.P,J2,2*
G04 #@! TO.N,boostout+*
X91694000Y-95250000D03*
D12*
G04 #@! TO.P,J2,1*
G04 #@! TO.N,boostout-*
X89154000Y-95250000D03*
G04 #@! TD*
G04 #@! TO.P,J3,1*
G04 #@! TO.N,Net-(J3-Pad1)*
X88900000Y-110871000D03*
D13*
G04 #@! TO.P,J3,2*
G04 #@! TO.N,Net-(J3-Pad2)*
X91440000Y-110871000D03*
G04 #@! TD*
D19*
G04 #@! TO.P,JP1,1*
G04 #@! TO.N,Net-(BT2-Pad1)*
X54864000Y-87234000D03*
D20*
G04 #@! TD*
G04 #@! TO.N,Net-(BT2-Pad1)*
G04 #@! TO.C,JP1*
G36*
X54114000Y-87734000D02*
X54114000Y-87234000D01*
X54114602Y-87234000D01*
X54114602Y-87209466D01*
X54119412Y-87160635D01*
X54128984Y-87112510D01*
X54143228Y-87065555D01*
X54162005Y-87020222D01*
X54185136Y-86976949D01*
X54212396Y-86936150D01*
X54243524Y-86898221D01*
X54278221Y-86863524D01*
X54316150Y-86832396D01*
X54356949Y-86805136D01*
X54400222Y-86782005D01*
X54445555Y-86763228D01*
X54492510Y-86748984D01*
X54540635Y-86739412D01*
X54589466Y-86734602D01*
X54614000Y-86734602D01*
X54614000Y-86734000D01*
X55114000Y-86734000D01*
X55114000Y-86734602D01*
X55138534Y-86734602D01*
X55187365Y-86739412D01*
X55235490Y-86748984D01*
X55282445Y-86763228D01*
X55327778Y-86782005D01*
X55371051Y-86805136D01*
X55411850Y-86832396D01*
X55449779Y-86863524D01*
X55484476Y-86898221D01*
X55515604Y-86936150D01*
X55542864Y-86976949D01*
X55565995Y-87020222D01*
X55584772Y-87065555D01*
X55599016Y-87112510D01*
X55608588Y-87160635D01*
X55613398Y-87209466D01*
X55613398Y-87234000D01*
X55614000Y-87234000D01*
X55614000Y-87734000D01*
X54114000Y-87734000D01*
X54114000Y-87734000D01*
G37*
D19*
G04 #@! TO.P,JP1,2*
G04 #@! TO.N,Net-(JP1-Pad2)*
X54864000Y-88534000D03*
D20*
G04 #@! TD*
G04 #@! TO.N,Net-(JP1-Pad2)*
G04 #@! TO.C,JP1*
G36*
X55613398Y-88534000D02*
X55613398Y-88558534D01*
X55608588Y-88607365D01*
X55599016Y-88655490D01*
X55584772Y-88702445D01*
X55565995Y-88747778D01*
X55542864Y-88791051D01*
X55515604Y-88831850D01*
X55484476Y-88869779D01*
X55449779Y-88904476D01*
X55411850Y-88935604D01*
X55371051Y-88962864D01*
X55327778Y-88985995D01*
X55282445Y-89004772D01*
X55235490Y-89019016D01*
X55187365Y-89028588D01*
X55138534Y-89033398D01*
X55114000Y-89033398D01*
X55114000Y-89034000D01*
X54614000Y-89034000D01*
X54614000Y-89033398D01*
X54589466Y-89033398D01*
X54540635Y-89028588D01*
X54492510Y-89019016D01*
X54445555Y-89004772D01*
X54400222Y-88985995D01*
X54356949Y-88962864D01*
X54316150Y-88935604D01*
X54278221Y-88904476D01*
X54243524Y-88869779D01*
X54212396Y-88831850D01*
X54185136Y-88791051D01*
X54162005Y-88747778D01*
X54143228Y-88702445D01*
X54128984Y-88655490D01*
X54119412Y-88607365D01*
X54114602Y-88558534D01*
X54114602Y-88534000D01*
X54114000Y-88534000D01*
X54114000Y-88034000D01*
X55614000Y-88034000D01*
X55614000Y-88534000D01*
X55613398Y-88534000D01*
X55613398Y-88534000D01*
G37*
D19*
G04 #@! TO.P,JP2,2*
G04 #@! TO.N,boostout+*
X90312000Y-86614000D03*
D20*
G04 #@! TD*
G04 #@! TO.N,boostout+*
G04 #@! TO.C,JP2*
G36*
X90312000Y-85864602D02*
X90336534Y-85864602D01*
X90385365Y-85869412D01*
X90433490Y-85878984D01*
X90480445Y-85893228D01*
X90525778Y-85912005D01*
X90569051Y-85935136D01*
X90609850Y-85962396D01*
X90647779Y-85993524D01*
X90682476Y-86028221D01*
X90713604Y-86066150D01*
X90740864Y-86106949D01*
X90763995Y-86150222D01*
X90782772Y-86195555D01*
X90797016Y-86242510D01*
X90806588Y-86290635D01*
X90811398Y-86339466D01*
X90811398Y-86364000D01*
X90812000Y-86364000D01*
X90812000Y-86864000D01*
X90811398Y-86864000D01*
X90811398Y-86888534D01*
X90806588Y-86937365D01*
X90797016Y-86985490D01*
X90782772Y-87032445D01*
X90763995Y-87077778D01*
X90740864Y-87121051D01*
X90713604Y-87161850D01*
X90682476Y-87199779D01*
X90647779Y-87234476D01*
X90609850Y-87265604D01*
X90569051Y-87292864D01*
X90525778Y-87315995D01*
X90480445Y-87334772D01*
X90433490Y-87349016D01*
X90385365Y-87358588D01*
X90336534Y-87363398D01*
X90312000Y-87363398D01*
X90312000Y-87364000D01*
X89812000Y-87364000D01*
X89812000Y-85864000D01*
X90312000Y-85864000D01*
X90312000Y-85864602D01*
X90312000Y-85864602D01*
G37*
D19*
G04 #@! TO.P,JP2,1*
G04 #@! TO.N,Net-(C3-Pad1)*
X89012000Y-86614000D03*
D20*
G04 #@! TD*
G04 #@! TO.N,Net-(C3-Pad1)*
G04 #@! TO.C,JP2*
G36*
X89512000Y-87364000D02*
X89012000Y-87364000D01*
X89012000Y-87363398D01*
X88987466Y-87363398D01*
X88938635Y-87358588D01*
X88890510Y-87349016D01*
X88843555Y-87334772D01*
X88798222Y-87315995D01*
X88754949Y-87292864D01*
X88714150Y-87265604D01*
X88676221Y-87234476D01*
X88641524Y-87199779D01*
X88610396Y-87161850D01*
X88583136Y-87121051D01*
X88560005Y-87077778D01*
X88541228Y-87032445D01*
X88526984Y-86985490D01*
X88517412Y-86937365D01*
X88512602Y-86888534D01*
X88512602Y-86864000D01*
X88512000Y-86864000D01*
X88512000Y-86364000D01*
X88512602Y-86364000D01*
X88512602Y-86339466D01*
X88517412Y-86290635D01*
X88526984Y-86242510D01*
X88541228Y-86195555D01*
X88560005Y-86150222D01*
X88583136Y-86106949D01*
X88610396Y-86066150D01*
X88641524Y-86028221D01*
X88676221Y-85993524D01*
X88714150Y-85962396D01*
X88754949Y-85935136D01*
X88798222Y-85912005D01*
X88843555Y-85893228D01*
X88890510Y-85878984D01*
X88938635Y-85869412D01*
X88987466Y-85864602D01*
X89012000Y-85864602D01*
X89012000Y-85864000D01*
X89512000Y-85864000D01*
X89512000Y-87364000D01*
X89512000Y-87364000D01*
G37*
D21*
G04 #@! TO.P,L1,1*
G04 #@! TO.N,+9V*
X57361000Y-80264000D03*
G04 #@! TO.P,L1,2*
G04 #@! TO.N,Net-(D2-Pad2)*
X61511000Y-80264000D03*
G04 #@! TD*
D22*
G04 #@! TO.P,Q1,2*
G04 #@! TO.N,Net-(D1-Pad1)*
X83185000Y-117729000D03*
G04 #@! TO.P,Q1,3*
G04 #@! TO.N,Net-(J3-Pad1)*
X84455000Y-117729000D03*
D23*
G04 #@! TO.P,Q1,1*
G04 #@! TO.N,Net-(Q1-Pad1)*
X81915000Y-117729000D03*
G04 #@! TD*
D24*
G04 #@! TO.P,Q2,3*
G04 #@! TO.N,boostout-*
X81280000Y-111379000D03*
G04 #@! TO.P,Q2,2*
G04 #@! TO.N,Net-(D1-Pad1)*
X78740000Y-111379000D03*
D25*
G04 #@! TO.P,Q2,1*
G04 #@! TO.N,Net-(C5-Pad1)*
X76200000Y-111379000D03*
G04 #@! TD*
D26*
G04 #@! TO.P,Q3,1*
G04 #@! TO.N,Net-(J1-Pad4)*
X53721000Y-117094000D03*
D27*
G04 #@! TO.P,Q3,2*
G04 #@! TO.N,Net-(Q3-Pad2)*
X53721000Y-119634000D03*
G04 #@! TO.P,Q3,3*
G04 #@! TO.N,Net-(J1-Pad1)*
X53721000Y-122174000D03*
G04 #@! TD*
D10*
G04 #@! TO.P,R1,2*
G04 #@! TO.N,boostout+*
X88138000Y-99695000D03*
D11*
G04 #@! TO.P,R1,1*
G04 #@! TO.N,Net-(D1-Pad1)*
X88138000Y-107315000D03*
G04 #@! TD*
D10*
G04 #@! TO.P,R2,2*
G04 #@! TO.N,boostout-*
X70612000Y-117602000D03*
D11*
G04 #@! TO.P,R2,1*
G04 #@! TO.N,Net-(Q1-Pad1)*
X78232000Y-117602000D03*
G04 #@! TD*
G04 #@! TO.P,R3,1*
G04 #@! TO.N,Net-(J3-Pad2)*
X91694000Y-107442000D03*
D10*
G04 #@! TO.P,R3,2*
G04 #@! TO.N,boostout+*
X91694000Y-99822000D03*
G04 #@! TD*
G04 #@! TO.P,R4,2*
G04 #@! TO.N,Net-(C3-Pad2)*
X76962000Y-85344000D03*
D11*
G04 #@! TO.P,R4,1*
G04 #@! TO.N,Net-(C3-Pad1)*
X84582000Y-85344000D03*
G04 #@! TD*
G04 #@! TO.P,R5,1*
G04 #@! TO.N,Net-(C3-Pad2)*
X76962000Y-89154000D03*
D10*
G04 #@! TO.P,R5,2*
G04 #@! TO.N,boostout-*
X84582000Y-89154000D03*
G04 #@! TD*
D11*
G04 #@! TO.P,R7,1*
G04 #@! TO.N,Net-(J1-Pad1)*
X59944000Y-124206000D03*
D10*
G04 #@! TO.P,R7,2*
G04 #@! TO.N,boostout-*
X67564000Y-124206000D03*
G04 #@! TD*
G04 #@! TO.P,R8,2*
G04 #@! TO.N,boostout-*
X67437000Y-121031000D03*
D11*
G04 #@! TO.P,R8,1*
G04 #@! TO.N,Net-(J1-Pad4)*
X59817000Y-121031000D03*
G04 #@! TD*
D28*
G04 #@! TO.P,SW1,1*
G04 #@! TO.N,N/C*
X53848000Y-92456000D03*
D29*
G04 #@! TO.P,SW1,2*
G04 #@! TO.N,Net-(JP1-Pad2)*
X53848000Y-94456000D03*
G04 #@! TO.P,SW1,3*
G04 #@! TO.N,+9V*
X53848000Y-96456000D03*
G04 #@! TD*
D30*
G04 #@! TO.P,U1,1*
G04 #@! TO.N,boostout-*
X65942000Y-91373000D03*
G04 #@! TO.P,U1,2*
G04 #@! TO.N,+9V*
X67642000Y-91373000D03*
G04 #@! TO.P,U1,3*
G04 #@! TO.N,Net-(D2-Pad2)*
X69342000Y-91373000D03*
G04 #@! TO.P,U1,4*
G04 #@! TO.N,+9V*
X71042000Y-91373000D03*
G04 #@! TO.P,U1,5*
G04 #@! TO.N,Net-(C3-Pad2)*
X72742000Y-91373000D03*
D31*
G04 #@! TO.P,U1,3*
G04 #@! TO.N,Net-(D2-Pad2)*
X69342000Y-82223000D03*
G04 #@! TD*
D25*
G04 #@! TO.P,U2,1*
G04 #@! TO.N,+9V*
X64516000Y-107950000D03*
D24*
G04 #@! TO.P,U2,2*
G04 #@! TO.N,boostout-*
X61976000Y-107950000D03*
G04 #@! TO.P,U2,3*
G04 #@! TO.N,+5V*
X59436000Y-107950000D03*
G04 #@! TD*
D32*
G04 #@! TO.P,C2,1*
G04 #@! TO.N,+9V*
X58928000Y-99060000D03*
D33*
G04 #@! TO.P,C2,2*
G04 #@! TO.N,boostout-*
X63928000Y-99060000D03*
G04 #@! TD*
G04 #@! TO.P,C4,2*
G04 #@! TO.N,boostout-*
X80772000Y-99648000D03*
D32*
G04 #@! TO.P,C4,1*
G04 #@! TO.N,boostout+*
X80772000Y-104648000D03*
G04 #@! TD*
D14*
G04 #@! TO.P,C5,1*
G04 #@! TO.N,Net-(C5-Pad1)*
X70866000Y-105410000D03*
D11*
G04 #@! TO.P,C5,2*
G04 #@! TO.N,boostout-*
X70866000Y-101910000D03*
G04 #@! TD*
D34*
G04 #@! TO.P,RV1,3*
G04 #@! TO.N,N/C*
X77216000Y-115824000D03*
G04 #@! TO.P,RV1,2*
G04 #@! TO.N,Net-(Q1-Pad1)*
X74676000Y-115824000D03*
G04 #@! TO.P,RV1,1*
G04 #@! TO.N,boostout-*
X72136000Y-115824000D03*
G04 #@! TD*
D35*
G04 #@! TO.N,boostout-*
X64414400Y-90500200D03*
X64516000Y-91440000D03*
X64312800Y-92430600D03*
X64363600Y-89560400D03*
X64312800Y-93497400D03*
X64541400Y-94437200D03*
X66903600Y-95605600D03*
G04 #@! TD*
D36*
G04 #@! TO.N,+9V*
X61468000Y-85818000D02*
X61468000Y-86868000D01*
X61468000Y-85746000D02*
X61468000Y-85818000D01*
X57361000Y-81639000D02*
X61468000Y-85746000D01*
X57361000Y-80264000D02*
X57361000Y-81639000D01*
X67642000Y-87835000D02*
X67642000Y-91373000D01*
X67437000Y-87630000D02*
X67642000Y-87835000D01*
X63280000Y-87630000D02*
X67437000Y-87630000D01*
X61468000Y-86868000D02*
X62518000Y-86868000D01*
X62518000Y-86868000D02*
X63280000Y-87630000D01*
X68517001Y-93998001D02*
X67642000Y-93123000D01*
X70966999Y-93998001D02*
X68517001Y-93998001D01*
X71042000Y-93923000D02*
X70966999Y-93998001D01*
X71042000Y-91373000D02*
X71042000Y-93923000D01*
X67642000Y-93123000D02*
X67642000Y-91373000D01*
X61705000Y-99060000D02*
X67642000Y-93123000D01*
X58928000Y-99060000D02*
X61705000Y-99060000D01*
X58928000Y-97810000D02*
X58928000Y-99060000D01*
X57574000Y-96456000D02*
X58928000Y-97810000D01*
X53848000Y-96456000D02*
X57574000Y-96456000D01*
X61705000Y-100587000D02*
X61705000Y-99060000D01*
X64516000Y-103398000D02*
X61705000Y-100587000D01*
X64516000Y-107950000D02*
X64516000Y-103398000D01*
G04 #@! TO.N,boostout-*
X65942000Y-88823000D02*
X65765000Y-88646000D01*
X65942000Y-91373000D02*
X65942000Y-88823000D01*
X65765000Y-88646000D02*
X64516000Y-88646000D01*
X64516000Y-88646000D02*
X64516000Y-89916000D01*
X64516000Y-92456000D02*
X63500000Y-92456000D01*
X63500000Y-92456000D02*
X62992000Y-92964000D01*
X64516000Y-92456000D02*
X64516000Y-93472000D01*
X64770000Y-94234000D02*
X65137847Y-94601847D01*
G04 #@! TO.N,Net-(C3-Pad1)*
X89012000Y-85766408D02*
X89012000Y-86614000D01*
X89012000Y-82764000D02*
X89012000Y-85766408D01*
X89662000Y-82114000D02*
X89012000Y-82764000D01*
X89662000Y-80264000D02*
X89662000Y-82114000D01*
X85852000Y-86614000D02*
X89012000Y-86614000D01*
X84582000Y-85344000D02*
X85852000Y-86614000D01*
X79248000Y-90678000D02*
X84582000Y-85344000D01*
X79248000Y-93980000D02*
X79248000Y-90678000D01*
X84582000Y-84212630D02*
X84582000Y-85344000D01*
X84582000Y-83494000D02*
X84582000Y-84212630D01*
X87812000Y-80264000D02*
X84582000Y-83494000D01*
X89662000Y-80264000D02*
X87812000Y-80264000D01*
G04 #@! TO.N,Net-(C3-Pad2)*
X76962000Y-86475370D02*
X76962000Y-89154000D01*
X76962000Y-85344000D02*
X76962000Y-86475370D01*
X72742000Y-89623000D02*
X72742000Y-91373000D01*
X73542000Y-88823000D02*
X72742000Y-89623000D01*
X74630000Y-88823000D02*
X73542000Y-88823000D01*
X74961000Y-89154000D02*
X74630000Y-88823000D01*
X76962000Y-89154000D02*
X74961000Y-89154000D01*
X74141000Y-91373000D02*
X76748000Y-93980000D01*
X72742000Y-91373000D02*
X74141000Y-91373000D01*
G04 #@! TO.N,boostout+*
X90312000Y-93868000D02*
X91694000Y-95250000D01*
X90312000Y-86614000D02*
X90312000Y-93868000D01*
X91694000Y-96452081D02*
X91694000Y-99822000D01*
X91694000Y-95250000D02*
X91694000Y-96452081D01*
X88265000Y-99822000D02*
X88138000Y-99695000D01*
X91694000Y-99822000D02*
X88265000Y-99822000D01*
X83185000Y-104648000D02*
X80772000Y-104648000D01*
X88138000Y-99695000D02*
X83185000Y-104648000D01*
G04 #@! TO.N,Net-(C5-Pad1)*
X63373000Y-117729000D02*
X67437000Y-117729000D01*
X59436000Y-113792000D02*
X63373000Y-117729000D01*
X73787000Y-111379000D02*
X76200000Y-111379000D01*
X67437000Y-117729000D02*
X73787000Y-111379000D01*
X70866000Y-106460000D02*
X70866000Y-105410000D01*
X70866000Y-107247500D02*
X70866000Y-106460000D01*
X74997500Y-111379000D02*
X70866000Y-107247500D01*
X76200000Y-111379000D02*
X74997500Y-111379000D01*
G04 #@! TO.N,Net-(D1-Pad1)*
X78740000Y-111426500D02*
X78740000Y-111379000D01*
X83185000Y-117729000D02*
X83185000Y-115824000D01*
X83185000Y-115824000D02*
X79990000Y-112629000D01*
X79990000Y-112629000D02*
X79942500Y-112629000D01*
X79942500Y-112629000D02*
X78740000Y-111426500D01*
X78740000Y-111331500D02*
X78740000Y-111379000D01*
X81956501Y-108114999D02*
X78740000Y-111331500D01*
X87338001Y-108114999D02*
X81956501Y-108114999D01*
X88138000Y-107315000D02*
X87338001Y-108114999D01*
X83185000Y-118729000D02*
X83185000Y-117729000D01*
X79994000Y-121920000D02*
X83185000Y-118729000D01*
X75692000Y-121920000D02*
X79994000Y-121920000D01*
G04 #@! TO.N,Net-(D2-Pad2)*
X67383000Y-80264000D02*
X69342000Y-82223000D01*
D37*
X61511000Y-80264000D02*
X67383000Y-80264000D01*
D36*
X69342000Y-82223000D02*
X69342000Y-91373000D01*
D37*
X75003000Y-82223000D02*
X76962000Y-80264000D01*
D36*
X69342000Y-82223000D02*
X75003000Y-82223000D01*
G04 #@! TO.N,Net-(J1-Pad1)*
X53721000Y-123376500D02*
X53721000Y-122174000D01*
X54550500Y-124206000D02*
X53721000Y-123376500D01*
X59944000Y-124206000D02*
X54550500Y-124206000D01*
X53673500Y-122174000D02*
X53721000Y-122174000D01*
X52222989Y-120723489D02*
X53673500Y-122174000D01*
X52222989Y-101617011D02*
X52222989Y-120723489D01*
X52748000Y-101092000D02*
X52222989Y-101617011D01*
X53848000Y-101092000D02*
X52748000Y-101092000D01*
G04 #@! TO.N,+5V*
X58233500Y-107950000D02*
X59436000Y-107950000D01*
X55280499Y-104996999D02*
X58233500Y-107950000D01*
X54010918Y-104996999D02*
X55280499Y-104996999D01*
X53848000Y-104834081D02*
X54010918Y-104996999D01*
X53848000Y-103632000D02*
X53848000Y-104834081D01*
G04 #@! TO.N,Net-(J1-Pad4)*
X52672999Y-114843499D02*
X53721000Y-115891500D01*
X52672999Y-109887001D02*
X52672999Y-114843499D01*
X53848000Y-108712000D02*
X52672999Y-109887001D01*
X53721000Y-115891500D02*
X53721000Y-117094000D01*
X53768500Y-117094000D02*
X53721000Y-117094000D01*
X54971000Y-118296500D02*
X53768500Y-117094000D01*
X54971000Y-118344000D02*
X54971000Y-118296500D01*
X57658000Y-121031000D02*
X54971000Y-118344000D01*
X59817000Y-121031000D02*
X57658000Y-121031000D01*
G04 #@! TO.N,Net-(J1-Pad5)*
X59817000Y-117221000D02*
X59817000Y-117729000D01*
X53848000Y-111252000D02*
X59817000Y-117221000D01*
G04 #@! TO.N,Net-(J3-Pad1)*
X87800000Y-110871000D02*
X88900000Y-110871000D01*
X84455000Y-114216000D02*
X87800000Y-110871000D01*
X84455000Y-117729000D02*
X84455000Y-114216000D01*
G04 #@! TO.N,Net-(J3-Pad2)*
X91440000Y-120015000D02*
X91440000Y-110871000D01*
X89535000Y-121920000D02*
X91440000Y-120015000D01*
X91694000Y-110617000D02*
X91440000Y-110871000D01*
X91694000Y-107442000D02*
X91694000Y-110617000D01*
G04 #@! TO.N,Net-(JP1-Pad2)*
X54864000Y-93440000D02*
X53848000Y-94456000D01*
X54864000Y-88534000D02*
X54864000Y-93440000D01*
G04 #@! TO.N,Net-(Q1-Pad1)*
X76454000Y-117602000D02*
X78232000Y-117602000D01*
X74676000Y-115824000D02*
X76454000Y-117602000D01*
X78359000Y-117729000D02*
X78232000Y-117602000D01*
X81915000Y-117729000D02*
X78359000Y-117729000D01*
G04 #@! TO.N,Net-(Q3-Pad2)*
X53721000Y-119634000D02*
X53673500Y-119634000D01*
X81115001Y-122719999D02*
X81915000Y-121920000D01*
X80689999Y-123145001D02*
X81115001Y-122719999D01*
X72563999Y-123145001D02*
X80689999Y-123145001D01*
X71574999Y-122156001D02*
X72563999Y-123145001D01*
X56290501Y-122156001D02*
X71574999Y-122156001D01*
X53768500Y-119634000D02*
X56290501Y-122156001D01*
X53721000Y-119634000D02*
X53768500Y-119634000D01*
G04 #@! TO.N,Net-(BT2-Pad1)*
X53848000Y-86218000D02*
X54864000Y-87234000D01*
X53848000Y-81280000D02*
X53848000Y-86218000D01*
G04 #@! TD*
D38*
G04 #@! TO.N,boostout-*
G36*
X94265001Y-125265000D02*
X68503733Y-125265000D01*
X68795041Y-124943423D01*
X68955904Y-124555039D01*
X68833915Y-124333000D01*
X67691000Y-124333000D01*
X67691000Y-124353000D01*
X67437000Y-124353000D01*
X67437000Y-124333000D01*
X66294085Y-124333000D01*
X66172096Y-124555039D01*
X66332959Y-124943423D01*
X66624267Y-125265000D01*
X60914396Y-125265000D01*
X61160534Y-125018862D01*
X61379000Y-124491439D01*
X61379000Y-123920561D01*
X61160534Y-123393138D01*
X60756862Y-122989466D01*
X60579502Y-122916001D01*
X66999623Y-122916001D01*
X66708866Y-123053611D01*
X66332959Y-123468577D01*
X66172096Y-123856961D01*
X66294085Y-124079000D01*
X67437000Y-124079000D01*
X67437000Y-124059000D01*
X67691000Y-124059000D01*
X67691000Y-124079000D01*
X68833915Y-124079000D01*
X68955904Y-123856961D01*
X68795041Y-123468577D01*
X68419134Y-123053611D01*
X68128377Y-122916001D01*
X71260198Y-122916001D01*
X71973670Y-123629474D01*
X72016070Y-123692930D01*
X72267462Y-123860905D01*
X72489147Y-123905001D01*
X72489151Y-123905001D01*
X72563998Y-123919889D01*
X72638845Y-123905001D01*
X80615152Y-123905001D01*
X80689999Y-123919889D01*
X80764846Y-123905001D01*
X80764851Y-123905001D01*
X80986536Y-123860905D01*
X81237928Y-123692930D01*
X81280330Y-123629471D01*
X81576698Y-123333103D01*
X81629561Y-123355000D01*
X82200439Y-123355000D01*
X82727862Y-123136534D01*
X83131534Y-122732862D01*
X83350000Y-122205439D01*
X83350000Y-121634561D01*
X83131534Y-121107138D01*
X82727862Y-120703466D01*
X82414949Y-120573853D01*
X83669476Y-119319327D01*
X83732929Y-119276929D01*
X83775327Y-119213476D01*
X83775329Y-119213474D01*
X83877941Y-119059904D01*
X83900904Y-119025537D01*
X83909095Y-118984356D01*
X84002392Y-119046695D01*
X84455000Y-119136725D01*
X84907609Y-119046695D01*
X85291313Y-118790313D01*
X85547695Y-118406608D01*
X85615000Y-118068245D01*
X85615000Y-117389754D01*
X85547695Y-117051391D01*
X85291313Y-116667687D01*
X85215000Y-116616697D01*
X85215000Y-114530801D01*
X87582098Y-112163704D01*
X87592191Y-112178809D01*
X87802235Y-112319157D01*
X88050000Y-112368440D01*
X89750000Y-112368440D01*
X89997765Y-112319157D01*
X90207809Y-112178809D01*
X90348157Y-111968765D01*
X90357184Y-111923381D01*
X90369375Y-111941625D01*
X90680001Y-112149179D01*
X90680000Y-119700198D01*
X89858886Y-120521312D01*
X89676333Y-120485000D01*
X89393667Y-120485000D01*
X88975091Y-120568260D01*
X88500423Y-120885423D01*
X88183260Y-121360091D01*
X88071887Y-121920000D01*
X88183260Y-122479909D01*
X88500423Y-122954577D01*
X88975091Y-123271740D01*
X89393667Y-123355000D01*
X89676333Y-123355000D01*
X90094909Y-123271740D01*
X90569577Y-122954577D01*
X90886740Y-122479909D01*
X90998113Y-121920000D01*
X90933688Y-121596114D01*
X91924473Y-120605329D01*
X91987929Y-120562929D01*
X92040000Y-120485000D01*
X92155904Y-120311538D01*
X92174482Y-120218138D01*
X92200000Y-120089852D01*
X92200000Y-120089848D01*
X92214888Y-120015000D01*
X92200000Y-119940152D01*
X92200000Y-112149178D01*
X92510625Y-111941625D01*
X92838839Y-111450418D01*
X92954092Y-110871000D01*
X92838839Y-110291582D01*
X92510625Y-109800375D01*
X92454000Y-109762539D01*
X92454000Y-108680430D01*
X92506862Y-108658534D01*
X92910534Y-108254862D01*
X93129000Y-107727439D01*
X93129000Y-107156561D01*
X92910534Y-106629138D01*
X92506862Y-106225466D01*
X91979439Y-106007000D01*
X91408561Y-106007000D01*
X90881138Y-106225466D01*
X90477466Y-106629138D01*
X90259000Y-107156561D01*
X90259000Y-107727439D01*
X90477466Y-108254862D01*
X90881138Y-108658534D01*
X90934000Y-108680430D01*
X90934001Y-109457557D01*
X90860582Y-109472161D01*
X90369375Y-109800375D01*
X90357184Y-109818619D01*
X90348157Y-109773235D01*
X90207809Y-109563191D01*
X89997765Y-109422843D01*
X89750000Y-109373560D01*
X88050000Y-109373560D01*
X87802235Y-109422843D01*
X87592191Y-109563191D01*
X87451843Y-109773235D01*
X87402560Y-110021000D01*
X87402560Y-110222517D01*
X87315526Y-110280671D01*
X87315524Y-110280673D01*
X87252071Y-110323071D01*
X87209673Y-110386524D01*
X83970528Y-113625671D01*
X83907072Y-113668071D01*
X83864672Y-113731527D01*
X83864671Y-113731528D01*
X83739097Y-113919463D01*
X83680112Y-114216000D01*
X83695001Y-114290852D01*
X83695001Y-115250728D01*
X83669476Y-115233673D01*
X81407002Y-112971201D01*
X81407002Y-112849595D01*
X81652980Y-112969563D01*
X82146924Y-112754973D01*
X82589318Y-112322091D01*
X82832380Y-111752864D01*
X82705572Y-111506000D01*
X81407000Y-111506000D01*
X81407000Y-111526000D01*
X81153000Y-111526000D01*
X81153000Y-111506000D01*
X81133000Y-111506000D01*
X81133000Y-111252000D01*
X81153000Y-111252000D01*
X81153000Y-111232000D01*
X81407000Y-111232000D01*
X81407000Y-111252000D01*
X82705572Y-111252000D01*
X82832380Y-111005136D01*
X82589318Y-110435909D01*
X82146924Y-110003027D01*
X81652980Y-109788437D01*
X81407002Y-109908405D01*
X81407002Y-109744000D01*
X81402302Y-109744000D01*
X82271304Y-108874999D01*
X87263154Y-108874999D01*
X87338001Y-108889887D01*
X87412848Y-108874999D01*
X87412853Y-108874999D01*
X87634538Y-108830903D01*
X87792716Y-108725211D01*
X87852561Y-108750000D01*
X88423439Y-108750000D01*
X88950862Y-108531534D01*
X89354534Y-108127862D01*
X89573000Y-107600439D01*
X89573000Y-107029561D01*
X89354534Y-106502138D01*
X88950862Y-106098466D01*
X88423439Y-105880000D01*
X87852561Y-105880000D01*
X87325138Y-106098466D01*
X86921466Y-106502138D01*
X86703000Y-107029561D01*
X86703000Y-107354999D01*
X82031347Y-107354999D01*
X81956500Y-107340111D01*
X81881653Y-107354999D01*
X81881649Y-107354999D01*
X81659964Y-107399095D01*
X81597403Y-107440897D01*
X81472027Y-107524670D01*
X81472025Y-107524672D01*
X81408572Y-107567070D01*
X81366174Y-107630523D01*
X79193576Y-109803122D01*
X78740000Y-109712900D01*
X78120589Y-109836109D01*
X77728509Y-110098088D01*
X77610309Y-109921191D01*
X77400265Y-109780843D01*
X77152500Y-109731560D01*
X75247500Y-109731560D01*
X74999735Y-109780843D01*
X74789691Y-109921191D01*
X74719516Y-110026214D01*
X71626000Y-106932699D01*
X71626000Y-106857440D01*
X71666000Y-106857440D01*
X71913765Y-106808157D01*
X72123809Y-106667809D01*
X72264157Y-106457765D01*
X72313440Y-106210000D01*
X72313440Y-104610000D01*
X72264157Y-104362235D01*
X72123809Y-104152191D01*
X71913765Y-104011843D01*
X71666000Y-103962560D01*
X70066000Y-103962560D01*
X69818235Y-104011843D01*
X69608191Y-104152191D01*
X69467843Y-104362235D01*
X69418560Y-104610000D01*
X69418560Y-106210000D01*
X69467843Y-106457765D01*
X69608191Y-106667809D01*
X69818235Y-106808157D01*
X70066000Y-106857440D01*
X70106000Y-106857440D01*
X70106000Y-107172653D01*
X70091112Y-107247500D01*
X70106000Y-107322347D01*
X70106000Y-107322351D01*
X70150096Y-107544036D01*
X70318071Y-107795429D01*
X70381530Y-107837831D01*
X73320416Y-110776718D01*
X73239071Y-110831071D01*
X73196672Y-110894526D01*
X67775302Y-116315897D01*
X67722439Y-116294000D01*
X67151561Y-116294000D01*
X66624138Y-116512466D01*
X66220466Y-116916138D01*
X66198570Y-116969000D01*
X63687802Y-116969000D01*
X60859841Y-114141039D01*
X65664096Y-114141039D01*
X65824959Y-114529423D01*
X66200866Y-114944389D01*
X66706959Y-115183914D01*
X66929000Y-115062629D01*
X66929000Y-113919000D01*
X67183000Y-113919000D01*
X67183000Y-115062629D01*
X67405041Y-115183914D01*
X67911134Y-114944389D01*
X68287041Y-114529423D01*
X68447904Y-114141039D01*
X68325915Y-113919000D01*
X67183000Y-113919000D01*
X66929000Y-113919000D01*
X65786085Y-113919000D01*
X65664096Y-114141039D01*
X60859841Y-114141039D01*
X60849103Y-114130302D01*
X60871000Y-114077439D01*
X60871000Y-113506561D01*
X60844656Y-113442961D01*
X65664096Y-113442961D01*
X65786085Y-113665000D01*
X66929000Y-113665000D01*
X66929000Y-112521371D01*
X67183000Y-112521371D01*
X67183000Y-113665000D01*
X68325915Y-113665000D01*
X68447904Y-113442961D01*
X68287041Y-113054577D01*
X67911134Y-112639611D01*
X67405041Y-112400086D01*
X67183000Y-112521371D01*
X66929000Y-112521371D01*
X66706959Y-112400086D01*
X66200866Y-112639611D01*
X65824959Y-113054577D01*
X65664096Y-113442961D01*
X60844656Y-113442961D01*
X60652534Y-112979138D01*
X60248862Y-112575466D01*
X59721439Y-112357000D01*
X59150561Y-112357000D01*
X58623138Y-112575466D01*
X58219466Y-112979138D01*
X58001000Y-113506561D01*
X58001000Y-114077439D01*
X58179728Y-114508927D01*
X55289209Y-111618408D01*
X55362092Y-111252000D01*
X55246839Y-110672582D01*
X54918625Y-110181375D01*
X54620239Y-109982000D01*
X54918625Y-109782625D01*
X55246839Y-109291418D01*
X55362092Y-108712000D01*
X55246839Y-108132582D01*
X54918625Y-107641375D01*
X54599522Y-107428157D01*
X54729358Y-107367183D01*
X55119645Y-106938924D01*
X55289476Y-106528890D01*
X55168155Y-106299000D01*
X53975000Y-106299000D01*
X53975000Y-106319000D01*
X53721000Y-106319000D01*
X53721000Y-106299000D01*
X53701000Y-106299000D01*
X53701000Y-106045000D01*
X53721000Y-106045000D01*
X53721000Y-106025000D01*
X53975000Y-106025000D01*
X53975000Y-106045000D01*
X55168155Y-106045000D01*
X55197705Y-105989006D01*
X57643171Y-108434473D01*
X57685571Y-108497929D01*
X57936963Y-108665904D01*
X57978922Y-108674250D01*
X58291477Y-109142023D01*
X58816589Y-109492891D01*
X59436000Y-109616100D01*
X60055410Y-109492891D01*
X60580523Y-109142023D01*
X60715159Y-108940526D01*
X61109076Y-109325973D01*
X61603020Y-109540563D01*
X61849000Y-109420594D01*
X61849000Y-108077000D01*
X61829000Y-108077000D01*
X61829000Y-107823000D01*
X61849000Y-107823000D01*
X61849000Y-106479406D01*
X61603020Y-106359437D01*
X61109076Y-106574027D01*
X60715159Y-106959474D01*
X60580523Y-106757977D01*
X60055411Y-106407109D01*
X59436000Y-106283900D01*
X58816590Y-106407109D01*
X58291477Y-106757977D01*
X58221303Y-106863001D01*
X55870830Y-104512529D01*
X55828428Y-104449070D01*
X55577036Y-104281095D01*
X55355351Y-104236999D01*
X55355346Y-104236999D01*
X55280499Y-104222111D01*
X55233440Y-104231472D01*
X55246839Y-104211418D01*
X55362092Y-103632000D01*
X55246839Y-103052582D01*
X54918625Y-102561375D01*
X54900381Y-102549184D01*
X54945765Y-102540157D01*
X55155809Y-102399809D01*
X55296157Y-102189765D01*
X55345440Y-101942000D01*
X55345440Y-100242000D01*
X55296157Y-99994235D01*
X55155809Y-99784191D01*
X54945765Y-99643843D01*
X54698000Y-99594560D01*
X52998000Y-99594560D01*
X52750235Y-99643843D01*
X52540191Y-99784191D01*
X52399843Y-99994235D01*
X52350560Y-100242000D01*
X52350560Y-100443517D01*
X52296877Y-100479387D01*
X52200071Y-100544071D01*
X52157671Y-100607528D01*
X51738519Y-101026680D01*
X51735000Y-101029031D01*
X51735000Y-80430000D01*
X52350560Y-80430000D01*
X52350560Y-82130000D01*
X52399843Y-82377765D01*
X52540191Y-82587809D01*
X52750235Y-82728157D01*
X52998000Y-82777440D01*
X53088000Y-82777440D01*
X53088001Y-86143148D01*
X53073112Y-86218000D01*
X53132097Y-86514537D01*
X53248571Y-86688852D01*
X53300072Y-86765929D01*
X53363528Y-86808329D01*
X53504537Y-86949339D01*
X53500530Y-86962549D01*
X53481408Y-87058682D01*
X53468968Y-87184991D01*
X53468968Y-87221894D01*
X53466560Y-87234000D01*
X53466560Y-87734000D01*
X53496397Y-87884000D01*
X53466560Y-88034000D01*
X53466560Y-88534000D01*
X53468968Y-88546106D01*
X53468968Y-88583009D01*
X53481408Y-88709318D01*
X53500530Y-88805451D01*
X53537372Y-88926904D01*
X53574881Y-89017460D01*
X53634713Y-89129397D01*
X53689169Y-89210896D01*
X53769686Y-89309006D01*
X53838994Y-89378314D01*
X53937104Y-89458831D01*
X54018603Y-89513287D01*
X54104000Y-89558933D01*
X54104001Y-91133560D01*
X53173000Y-91133560D01*
X52925235Y-91182843D01*
X52715191Y-91323191D01*
X52574843Y-91533235D01*
X52525560Y-91781000D01*
X52525560Y-93131000D01*
X52574843Y-93378765D01*
X52715191Y-93588809D01*
X52809714Y-93651968D01*
X52614007Y-93944864D01*
X52512336Y-94456000D01*
X52614007Y-94967136D01*
X52903543Y-95400457D01*
X52986669Y-95456000D01*
X52903543Y-95511543D01*
X52614007Y-95944864D01*
X52512336Y-96456000D01*
X52614007Y-96967136D01*
X52903543Y-97400457D01*
X53336864Y-97689993D01*
X53718978Y-97766000D01*
X53977022Y-97766000D01*
X54359136Y-97689993D01*
X54792457Y-97400457D01*
X54915707Y-97216000D01*
X57259199Y-97216000D01*
X57575215Y-97532016D01*
X57470191Y-97602191D01*
X57329843Y-97812235D01*
X57280560Y-98060000D01*
X57280560Y-100060000D01*
X57329843Y-100307765D01*
X57470191Y-100517809D01*
X57680235Y-100658157D01*
X57928000Y-100707440D01*
X59928000Y-100707440D01*
X60175765Y-100658157D01*
X60385809Y-100517809D01*
X60526157Y-100307765D01*
X60575440Y-100060000D01*
X60575440Y-99820000D01*
X60945001Y-99820000D01*
X60945000Y-100512153D01*
X60930112Y-100587000D01*
X60945000Y-100661847D01*
X60945000Y-100661851D01*
X60989096Y-100883536D01*
X61157071Y-101134929D01*
X61220530Y-101177331D01*
X63756001Y-103712804D01*
X63756000Y-106302560D01*
X63563500Y-106302560D01*
X63315735Y-106351843D01*
X63105691Y-106492191D01*
X62968745Y-106697143D01*
X62842924Y-106574027D01*
X62348980Y-106359437D01*
X62103000Y-106479406D01*
X62103000Y-107823000D01*
X62123000Y-107823000D01*
X62123000Y-108077000D01*
X62103000Y-108077000D01*
X62103000Y-109420594D01*
X62348980Y-109540563D01*
X62842924Y-109325973D01*
X62968745Y-109202857D01*
X63105691Y-109407809D01*
X63315735Y-109548157D01*
X63563500Y-109597440D01*
X65468500Y-109597440D01*
X65716265Y-109548157D01*
X65926309Y-109407809D01*
X66066657Y-109197765D01*
X66115940Y-108950000D01*
X66115940Y-106950000D01*
X66066657Y-106702235D01*
X65926309Y-106492191D01*
X65716265Y-106351843D01*
X65468500Y-106302560D01*
X65276000Y-106302560D01*
X65276000Y-103472846D01*
X65290888Y-103397999D01*
X65276000Y-103323152D01*
X65276000Y-103323148D01*
X65231904Y-103101463D01*
X65164483Y-103000560D01*
X65109149Y-102917745D01*
X70037861Y-102917745D01*
X70111995Y-103163864D01*
X70649223Y-103356965D01*
X71219454Y-103329778D01*
X71620005Y-103163864D01*
X71694139Y-102917745D01*
X70866000Y-102089605D01*
X70037861Y-102917745D01*
X65109149Y-102917745D01*
X65106329Y-102913526D01*
X65106327Y-102913524D01*
X65063929Y-102850071D01*
X65000476Y-102807673D01*
X63886026Y-101693223D01*
X69419035Y-101693223D01*
X69446222Y-102263454D01*
X69612136Y-102664005D01*
X69858255Y-102738139D01*
X70686395Y-101910000D01*
X71045605Y-101910000D01*
X71873745Y-102738139D01*
X72119864Y-102664005D01*
X72312965Y-102126777D01*
X72285778Y-101556546D01*
X72119864Y-101155995D01*
X71873745Y-101081861D01*
X71045605Y-101910000D01*
X70686395Y-101910000D01*
X69858255Y-101081861D01*
X69612136Y-101155995D01*
X69419035Y-101693223D01*
X63886026Y-101693223D01*
X63095057Y-100902255D01*
X70037861Y-100902255D01*
X70866000Y-101730395D01*
X71694139Y-100902255D01*
X71663499Y-100800532D01*
X79799073Y-100800532D01*
X79897736Y-101067387D01*
X80507461Y-101293908D01*
X81157460Y-101269856D01*
X81646264Y-101067387D01*
X81744927Y-100800532D01*
X80772000Y-99827605D01*
X79799073Y-100800532D01*
X71663499Y-100800532D01*
X71620005Y-100656136D01*
X71082777Y-100463035D01*
X70512546Y-100490222D01*
X70111995Y-100656136D01*
X70037861Y-100902255D01*
X63095057Y-100902255D01*
X62465000Y-100272199D01*
X62465000Y-100212532D01*
X62955073Y-100212532D01*
X63053736Y-100479387D01*
X63663461Y-100705908D01*
X64313460Y-100681856D01*
X64802264Y-100479387D01*
X64900927Y-100212532D01*
X63928000Y-99239605D01*
X62955073Y-100212532D01*
X62465000Y-100212532D01*
X62465000Y-99828973D01*
X62508613Y-99934264D01*
X62775468Y-100032927D01*
X63748395Y-99060000D01*
X64107605Y-99060000D01*
X65080532Y-100032927D01*
X65347387Y-99934264D01*
X65552017Y-99383461D01*
X79126092Y-99383461D01*
X79150144Y-100033460D01*
X79352613Y-100522264D01*
X79619468Y-100620927D01*
X80592395Y-99648000D01*
X80951605Y-99648000D01*
X81924532Y-100620927D01*
X82191387Y-100522264D01*
X82417908Y-99912539D01*
X82393856Y-99262540D01*
X82191387Y-98773736D01*
X81924532Y-98675073D01*
X80951605Y-99648000D01*
X80592395Y-99648000D01*
X79619468Y-98675073D01*
X79352613Y-98773736D01*
X79126092Y-99383461D01*
X65552017Y-99383461D01*
X65573908Y-99324539D01*
X65549856Y-98674540D01*
X65475683Y-98495468D01*
X79799073Y-98495468D01*
X80772000Y-99468395D01*
X81744927Y-98495468D01*
X81646264Y-98228613D01*
X81036539Y-98002092D01*
X80386540Y-98026144D01*
X79897736Y-98228613D01*
X79799073Y-98495468D01*
X65475683Y-98495468D01*
X65347387Y-98185736D01*
X65080532Y-98087073D01*
X64107605Y-99060000D01*
X63748395Y-99060000D01*
X63734253Y-99045858D01*
X63913858Y-98866253D01*
X63928000Y-98880395D01*
X64900927Y-97907468D01*
X64802264Y-97640613D01*
X64362549Y-97477253D01*
X66304052Y-95535750D01*
X87669000Y-95535750D01*
X87669000Y-96226309D01*
X87765673Y-96459698D01*
X87944301Y-96638327D01*
X88177690Y-96735000D01*
X88868250Y-96735000D01*
X89027000Y-96576250D01*
X89027000Y-95377000D01*
X87827750Y-95377000D01*
X87669000Y-95535750D01*
X66304052Y-95535750D01*
X67519362Y-94320440D01*
X67764638Y-94320440D01*
X67926672Y-94482474D01*
X67969072Y-94545930D01*
X68220464Y-94713905D01*
X68442149Y-94758001D01*
X68442153Y-94758001D01*
X68517000Y-94772889D01*
X68591847Y-94758001D01*
X70892152Y-94758001D01*
X70966999Y-94772889D01*
X71041846Y-94758001D01*
X71041851Y-94758001D01*
X71263536Y-94713905D01*
X71514928Y-94545930D01*
X71544969Y-94500970D01*
X71589929Y-94470929D01*
X71705578Y-94297848D01*
X71839765Y-94271157D01*
X71892000Y-94236254D01*
X71944235Y-94271157D01*
X72192000Y-94320440D01*
X73292000Y-94320440D01*
X73539765Y-94271157D01*
X73749809Y-94130809D01*
X73890157Y-93920765D01*
X73939440Y-93673000D01*
X73939440Y-92246241D01*
X75334897Y-93641698D01*
X75313000Y-93694561D01*
X75313000Y-94265439D01*
X75531466Y-94792862D01*
X75935138Y-95196534D01*
X76462561Y-95415000D01*
X77033439Y-95415000D01*
X77560862Y-95196534D01*
X77829899Y-94927497D01*
X77849843Y-95027765D01*
X77990191Y-95237809D01*
X78200235Y-95378157D01*
X78448000Y-95427440D01*
X80048000Y-95427440D01*
X80295765Y-95378157D01*
X80505809Y-95237809D01*
X80646157Y-95027765D01*
X80695440Y-94780000D01*
X80695440Y-94273691D01*
X87669000Y-94273691D01*
X87669000Y-94964250D01*
X87827750Y-95123000D01*
X89027000Y-95123000D01*
X89027000Y-93923750D01*
X88868250Y-93765000D01*
X88177690Y-93765000D01*
X87944301Y-93861673D01*
X87765673Y-94040302D01*
X87669000Y-94273691D01*
X80695440Y-94273691D01*
X80695440Y-93180000D01*
X80646157Y-92932235D01*
X80505809Y-92722191D01*
X80295765Y-92581843D01*
X80048000Y-92532560D01*
X80008000Y-92532560D01*
X80008000Y-90992801D01*
X81497762Y-89503039D01*
X83190096Y-89503039D01*
X83350959Y-89891423D01*
X83726866Y-90306389D01*
X84232959Y-90545914D01*
X84455000Y-90424629D01*
X84455000Y-89281000D01*
X84709000Y-89281000D01*
X84709000Y-90424629D01*
X84931041Y-90545914D01*
X85437134Y-90306389D01*
X85813041Y-89891423D01*
X85973904Y-89503039D01*
X85851915Y-89281000D01*
X84709000Y-89281000D01*
X84455000Y-89281000D01*
X83312085Y-89281000D01*
X83190096Y-89503039D01*
X81497762Y-89503039D01*
X82195840Y-88804961D01*
X83190096Y-88804961D01*
X83312085Y-89027000D01*
X84455000Y-89027000D01*
X84455000Y-87883371D01*
X84709000Y-87883371D01*
X84709000Y-89027000D01*
X85851915Y-89027000D01*
X85973904Y-88804961D01*
X85813041Y-88416577D01*
X85437134Y-88001611D01*
X84931041Y-87762086D01*
X84709000Y-87883371D01*
X84455000Y-87883371D01*
X84232959Y-87762086D01*
X83726866Y-88001611D01*
X83350959Y-88416577D01*
X83190096Y-88804961D01*
X82195840Y-88804961D01*
X84243698Y-86757104D01*
X84296561Y-86779000D01*
X84867439Y-86779000D01*
X84920302Y-86757103D01*
X85261671Y-87098473D01*
X85304071Y-87161929D01*
X85555463Y-87329904D01*
X85777148Y-87374000D01*
X85777152Y-87374000D01*
X85851999Y-87388888D01*
X85926846Y-87374000D01*
X87987067Y-87374000D01*
X88032713Y-87459397D01*
X88087169Y-87540896D01*
X88167686Y-87639006D01*
X88236994Y-87708314D01*
X88335104Y-87788831D01*
X88416603Y-87843287D01*
X88528540Y-87903119D01*
X88619096Y-87940628D01*
X88740549Y-87977470D01*
X88836682Y-87996592D01*
X88962991Y-88009032D01*
X88999894Y-88009032D01*
X89012000Y-88011440D01*
X89512000Y-88011440D01*
X89552000Y-88003484D01*
X89552001Y-93765000D01*
X89439750Y-93765000D01*
X89281000Y-93923750D01*
X89281000Y-95123000D01*
X89301000Y-95123000D01*
X89301000Y-95377000D01*
X89281000Y-95377000D01*
X89281000Y-96576250D01*
X89439750Y-96735000D01*
X90130310Y-96735000D01*
X90363699Y-96638327D01*
X90542327Y-96459698D01*
X90608904Y-96298967D01*
X90623375Y-96320625D01*
X90934000Y-96528178D01*
X90934001Y-98603956D01*
X90659423Y-98787423D01*
X90475957Y-99062000D01*
X89440902Y-99062000D01*
X89172577Y-98660423D01*
X88697909Y-98343260D01*
X88279333Y-98260000D01*
X87996667Y-98260000D01*
X87578091Y-98343260D01*
X87103423Y-98660423D01*
X86786260Y-99135091D01*
X86674887Y-99695000D01*
X86739312Y-100018886D01*
X82870199Y-103888000D01*
X82419440Y-103888000D01*
X82419440Y-103648000D01*
X82370157Y-103400235D01*
X82229809Y-103190191D01*
X82019765Y-103049843D01*
X81772000Y-103000560D01*
X79772000Y-103000560D01*
X79524235Y-103049843D01*
X79314191Y-103190191D01*
X79173843Y-103400235D01*
X79124560Y-103648000D01*
X79124560Y-105648000D01*
X79173843Y-105895765D01*
X79314191Y-106105809D01*
X79524235Y-106246157D01*
X79772000Y-106295440D01*
X81772000Y-106295440D01*
X82019765Y-106246157D01*
X82229809Y-106105809D01*
X82370157Y-105895765D01*
X82419440Y-105648000D01*
X82419440Y-105408000D01*
X83110153Y-105408000D01*
X83185000Y-105422888D01*
X83259847Y-105408000D01*
X83259852Y-105408000D01*
X83481537Y-105363904D01*
X83732929Y-105195929D01*
X83775331Y-105132470D01*
X87814114Y-101093688D01*
X87996667Y-101130000D01*
X88279333Y-101130000D01*
X88697909Y-101046740D01*
X89172577Y-100729577D01*
X89271185Y-100582000D01*
X90475957Y-100582000D01*
X90659423Y-100856577D01*
X91134091Y-101173740D01*
X91552667Y-101257000D01*
X91835333Y-101257000D01*
X92253909Y-101173740D01*
X92728577Y-100856577D01*
X93045740Y-100381909D01*
X93157113Y-99822000D01*
X93045740Y-99262091D01*
X92728577Y-98787423D01*
X92454000Y-98603957D01*
X92454000Y-96528178D01*
X92764625Y-96320625D01*
X93092839Y-95829418D01*
X93208092Y-95250000D01*
X93092839Y-94670582D01*
X92764625Y-94179375D01*
X92273418Y-93851161D01*
X91840256Y-93765000D01*
X91547744Y-93765000D01*
X91327592Y-93808791D01*
X91072000Y-93553199D01*
X91072000Y-87720629D01*
X91087006Y-87708314D01*
X91156314Y-87639006D01*
X91236831Y-87540896D01*
X91291287Y-87459397D01*
X91351119Y-87347460D01*
X91388628Y-87256904D01*
X91425470Y-87135451D01*
X91444592Y-87039318D01*
X91457032Y-86913009D01*
X91457032Y-86876106D01*
X91459440Y-86864000D01*
X91459440Y-86364000D01*
X91457032Y-86351894D01*
X91457032Y-86314991D01*
X91444592Y-86188682D01*
X91425470Y-86092549D01*
X91388628Y-85971096D01*
X91351119Y-85880540D01*
X91291287Y-85768603D01*
X91236831Y-85687104D01*
X91156314Y-85588994D01*
X91087006Y-85519686D01*
X90988896Y-85439169D01*
X90907397Y-85384713D01*
X90795460Y-85324881D01*
X90704904Y-85287372D01*
X90583451Y-85250530D01*
X90487318Y-85231408D01*
X90361009Y-85218968D01*
X90324106Y-85218968D01*
X90312000Y-85216560D01*
X89812000Y-85216560D01*
X89772000Y-85224516D01*
X89772000Y-84022365D01*
X89781347Y-83928424D01*
X90064648Y-82786153D01*
X90146473Y-82704329D01*
X90209929Y-82661929D01*
X90252924Y-82597582D01*
X90292305Y-82538645D01*
X90908498Y-82628373D01*
X91090195Y-82628562D01*
X91323869Y-82546199D01*
X91391218Y-82485737D01*
X91509765Y-82462157D01*
X91719809Y-82321809D01*
X91860157Y-82111765D01*
X91909440Y-81864000D01*
X91909440Y-78664000D01*
X91860157Y-78416235D01*
X91719809Y-78206191D01*
X91509765Y-78065843D01*
X91262000Y-78016560D01*
X88062000Y-78016560D01*
X87814235Y-78065843D01*
X87604191Y-78206191D01*
X87463843Y-78416235D01*
X87414560Y-78664000D01*
X87414560Y-79615517D01*
X87398789Y-79626055D01*
X87264071Y-79716071D01*
X87221671Y-79779527D01*
X84097530Y-82903669D01*
X84034071Y-82946071D01*
X83866096Y-83197464D01*
X83822000Y-83419149D01*
X83822000Y-83419153D01*
X83807112Y-83494000D01*
X83822000Y-83568847D01*
X83822000Y-84105570D01*
X83769138Y-84127466D01*
X83365466Y-84531138D01*
X83147000Y-85058561D01*
X83147000Y-85629439D01*
X83168896Y-85682302D01*
X78763528Y-90087671D01*
X78700072Y-90130071D01*
X78657672Y-90193527D01*
X78657671Y-90193528D01*
X78532097Y-90381463D01*
X78473112Y-90678000D01*
X78488001Y-90752852D01*
X78488000Y-92532560D01*
X78448000Y-92532560D01*
X78200235Y-92581843D01*
X77990191Y-92722191D01*
X77849843Y-92932235D01*
X77829899Y-93032503D01*
X77560862Y-92763466D01*
X77033439Y-92545000D01*
X76462561Y-92545000D01*
X76409698Y-92566897D01*
X74731331Y-90888530D01*
X74688929Y-90825071D01*
X74437537Y-90657096D01*
X74215852Y-90613000D01*
X74215847Y-90613000D01*
X74141000Y-90598112D01*
X74066153Y-90613000D01*
X73939440Y-90613000D01*
X73939440Y-89583000D01*
X74315199Y-89583000D01*
X74370669Y-89638470D01*
X74413071Y-89701929D01*
X74570718Y-89807266D01*
X74664462Y-89869904D01*
X74712605Y-89879480D01*
X74886148Y-89914000D01*
X74886152Y-89914000D01*
X74961000Y-89928888D01*
X75035848Y-89914000D01*
X75723570Y-89914000D01*
X75745466Y-89966862D01*
X76149138Y-90370534D01*
X76676561Y-90589000D01*
X77247439Y-90589000D01*
X77774862Y-90370534D01*
X78178534Y-89966862D01*
X78397000Y-89439439D01*
X78397000Y-88868561D01*
X78178534Y-88341138D01*
X77774862Y-87937466D01*
X77722000Y-87915570D01*
X77722000Y-86562043D01*
X77996577Y-86378577D01*
X78313740Y-85903909D01*
X78425113Y-85344000D01*
X78313740Y-84784091D01*
X77996577Y-84309423D01*
X77521909Y-83992260D01*
X77103333Y-83909000D01*
X76820667Y-83909000D01*
X76402091Y-83992260D01*
X75927423Y-84309423D01*
X75610260Y-84784091D01*
X75498887Y-85344000D01*
X75610260Y-85903909D01*
X75927423Y-86378577D01*
X76202000Y-86562044D01*
X76202001Y-87915570D01*
X76149138Y-87937466D01*
X75745466Y-88341138D01*
X75723570Y-88394000D01*
X75275801Y-88394000D01*
X75220331Y-88338530D01*
X75177929Y-88275071D01*
X74926537Y-88107096D01*
X74704852Y-88063000D01*
X74704847Y-88063000D01*
X74630000Y-88048112D01*
X74555153Y-88063000D01*
X73616848Y-88063000D01*
X73542000Y-88048112D01*
X73467152Y-88063000D01*
X73467148Y-88063000D01*
X73293605Y-88097520D01*
X73245462Y-88107096D01*
X73139454Y-88177929D01*
X72994071Y-88275071D01*
X72951671Y-88338527D01*
X72864638Y-88425560D01*
X72192000Y-88425560D01*
X71944235Y-88474843D01*
X71892000Y-88509746D01*
X71839765Y-88474843D01*
X71592000Y-88425560D01*
X70492000Y-88425560D01*
X70244235Y-88474843D01*
X70192000Y-88509746D01*
X70139765Y-88474843D01*
X70102000Y-88467331D01*
X70102000Y-87570440D01*
X74742000Y-87570440D01*
X74989765Y-87521157D01*
X75199809Y-87380809D01*
X75340157Y-87170765D01*
X75389440Y-86923000D01*
X75389440Y-83813163D01*
X75640945Y-83763135D01*
X76045253Y-83492985D01*
X77039238Y-82499000D01*
X77182128Y-82499000D01*
X77834054Y-82369324D01*
X78573345Y-81875345D01*
X79067324Y-81136054D01*
X79240786Y-80264000D01*
X79067324Y-79391946D01*
X78573345Y-78652655D01*
X77834054Y-78158676D01*
X77182128Y-78029000D01*
X76741872Y-78029000D01*
X76089946Y-78158676D01*
X75389440Y-78626740D01*
X75389440Y-77523000D01*
X75340157Y-77275235D01*
X75199809Y-77065191D01*
X74989765Y-76924843D01*
X74742000Y-76875560D01*
X63942000Y-76875560D01*
X63694235Y-76924843D01*
X63484191Y-77065191D01*
X63343843Y-77275235D01*
X63295004Y-77520767D01*
X63284157Y-77466235D01*
X63143809Y-77256191D01*
X62933765Y-77115843D01*
X62686000Y-77066560D01*
X60336000Y-77066560D01*
X60088235Y-77115843D01*
X59878191Y-77256191D01*
X59737843Y-77466235D01*
X59688560Y-77714000D01*
X59688560Y-82814000D01*
X59707867Y-82911066D01*
X59183440Y-82386639D01*
X59183440Y-77714000D01*
X59134157Y-77466235D01*
X58993809Y-77256191D01*
X58783765Y-77115843D01*
X58536000Y-77066560D01*
X56186000Y-77066560D01*
X55938235Y-77115843D01*
X55728191Y-77256191D01*
X55587843Y-77466235D01*
X55538560Y-77714000D01*
X55538560Y-82814000D01*
X55587843Y-83061765D01*
X55728191Y-83271809D01*
X55938235Y-83412157D01*
X56186000Y-83461440D01*
X58108639Y-83461440D01*
X60238484Y-85591286D01*
X60210191Y-85610191D01*
X60069843Y-85820235D01*
X60023307Y-86054187D01*
X59975745Y-86039861D01*
X59147605Y-86868000D01*
X59975745Y-87696139D01*
X60023307Y-87681813D01*
X60069843Y-87915765D01*
X60210191Y-88125809D01*
X60420235Y-88266157D01*
X60668000Y-88315440D01*
X62268000Y-88315440D01*
X62515765Y-88266157D01*
X62706062Y-88139004D01*
X62732071Y-88177929D01*
X62795527Y-88220329D01*
X62983462Y-88345904D01*
X63031605Y-88355480D01*
X63205148Y-88390000D01*
X63205152Y-88390000D01*
X63280000Y-88404888D01*
X63354848Y-88390000D01*
X66882000Y-88390000D01*
X66882000Y-88467331D01*
X66844235Y-88474843D01*
X66791816Y-88509869D01*
X66618310Y-88438000D01*
X66227750Y-88438000D01*
X66069000Y-88596750D01*
X66069000Y-91246000D01*
X66089000Y-91246000D01*
X66089000Y-91500000D01*
X66069000Y-91500000D01*
X66069000Y-91520000D01*
X65815000Y-91520000D01*
X65815000Y-91500000D01*
X64915750Y-91500000D01*
X64757000Y-91658750D01*
X64757000Y-93799309D01*
X64853673Y-94032698D01*
X65032301Y-94211327D01*
X65265690Y-94308000D01*
X65382198Y-94308000D01*
X61390199Y-98300000D01*
X60575440Y-98300000D01*
X60575440Y-98060000D01*
X60526157Y-97812235D01*
X60385809Y-97602191D01*
X60175765Y-97461843D01*
X59928000Y-97412560D01*
X59576483Y-97412560D01*
X59475929Y-97262071D01*
X59412473Y-97219671D01*
X58164331Y-95971530D01*
X58121929Y-95908071D01*
X57870537Y-95740096D01*
X57648852Y-95696000D01*
X57648847Y-95696000D01*
X57574000Y-95681112D01*
X57499153Y-95696000D01*
X54915707Y-95696000D01*
X54792457Y-95511543D01*
X54709331Y-95456000D01*
X54792457Y-95400457D01*
X55081993Y-94967136D01*
X55183664Y-94456000D01*
X55140384Y-94238417D01*
X55348473Y-94030329D01*
X55411929Y-93987929D01*
X55579904Y-93736537D01*
X55624000Y-93514852D01*
X55624000Y-93514847D01*
X55638888Y-93440000D01*
X55624000Y-93365153D01*
X55624000Y-89558933D01*
X55709397Y-89513287D01*
X55790896Y-89458831D01*
X55889006Y-89378314D01*
X55958314Y-89309006D01*
X56038831Y-89210896D01*
X56093287Y-89129397D01*
X56153119Y-89017460D01*
X56182432Y-88946691D01*
X64757000Y-88946691D01*
X64757000Y-91087250D01*
X64915750Y-91246000D01*
X65815000Y-91246000D01*
X65815000Y-88596750D01*
X65656250Y-88438000D01*
X65265690Y-88438000D01*
X65032301Y-88534673D01*
X64853673Y-88713302D01*
X64757000Y-88946691D01*
X56182432Y-88946691D01*
X56190628Y-88926904D01*
X56227470Y-88805451D01*
X56246592Y-88709318D01*
X56259032Y-88583009D01*
X56259032Y-88546106D01*
X56261440Y-88534000D01*
X56261440Y-88034000D01*
X56231603Y-87884000D01*
X56233245Y-87875745D01*
X58139861Y-87875745D01*
X58213995Y-88121864D01*
X58751223Y-88314965D01*
X59321454Y-88287778D01*
X59722005Y-88121864D01*
X59796139Y-87875745D01*
X58968000Y-87047605D01*
X58139861Y-87875745D01*
X56233245Y-87875745D01*
X56261440Y-87734000D01*
X56261440Y-87234000D01*
X56259032Y-87221894D01*
X56259032Y-87184991D01*
X56246592Y-87058682D01*
X56227470Y-86962549D01*
X56190628Y-86841096D01*
X56153119Y-86750540D01*
X56100033Y-86651223D01*
X57521035Y-86651223D01*
X57548222Y-87221454D01*
X57714136Y-87622005D01*
X57960255Y-87696139D01*
X58788395Y-86868000D01*
X57960255Y-86039861D01*
X57714136Y-86113995D01*
X57521035Y-86651223D01*
X56100033Y-86651223D01*
X56093287Y-86638603D01*
X56038831Y-86557104D01*
X55958314Y-86458994D01*
X55889006Y-86389686D01*
X55790896Y-86309169D01*
X55709397Y-86254713D01*
X55597460Y-86194881D01*
X55506904Y-86157372D01*
X55385451Y-86120530D01*
X55289318Y-86101408D01*
X55163009Y-86088968D01*
X55126106Y-86088968D01*
X55114000Y-86086560D01*
X54791361Y-86086560D01*
X54608000Y-85903199D01*
X54608000Y-85860255D01*
X58139861Y-85860255D01*
X58968000Y-86688395D01*
X59796139Y-85860255D01*
X59722005Y-85614136D01*
X59184777Y-85421035D01*
X58614546Y-85448222D01*
X58213995Y-85614136D01*
X58139861Y-85860255D01*
X54608000Y-85860255D01*
X54608000Y-82777440D01*
X54698000Y-82777440D01*
X54945765Y-82728157D01*
X55155809Y-82587809D01*
X55296157Y-82377765D01*
X55345440Y-82130000D01*
X55345440Y-80430000D01*
X55296157Y-80182235D01*
X55155809Y-79972191D01*
X54945765Y-79831843D01*
X54842292Y-79811261D01*
X55119645Y-79506924D01*
X55289476Y-79096890D01*
X55168155Y-78867000D01*
X53975000Y-78867000D01*
X53975000Y-78887000D01*
X53721000Y-78887000D01*
X53721000Y-78867000D01*
X52527845Y-78867000D01*
X52406524Y-79096890D01*
X52576355Y-79506924D01*
X52853708Y-79811261D01*
X52750235Y-79831843D01*
X52540191Y-79972191D01*
X52399843Y-80182235D01*
X52350560Y-80430000D01*
X51735000Y-80430000D01*
X51735000Y-78383110D01*
X52406524Y-78383110D01*
X52527845Y-78613000D01*
X53721000Y-78613000D01*
X53721000Y-77419181D01*
X53975000Y-77419181D01*
X53975000Y-78613000D01*
X55168155Y-78613000D01*
X55289476Y-78383110D01*
X55119645Y-77973076D01*
X54729358Y-77544817D01*
X54204892Y-77298514D01*
X53975000Y-77419181D01*
X53721000Y-77419181D01*
X53491108Y-77298514D01*
X52966642Y-77544817D01*
X52576355Y-77973076D01*
X52406524Y-78383110D01*
X51735000Y-78383110D01*
X51735000Y-76735000D01*
X94265000Y-76735000D01*
X94265001Y-125265000D01*
X94265001Y-125265000D01*
G37*
X94265001Y-125265000D02*
X68503733Y-125265000D01*
X68795041Y-124943423D01*
X68955904Y-124555039D01*
X68833915Y-124333000D01*
X67691000Y-124333000D01*
X67691000Y-124353000D01*
X67437000Y-124353000D01*
X67437000Y-124333000D01*
X66294085Y-124333000D01*
X66172096Y-124555039D01*
X66332959Y-124943423D01*
X66624267Y-125265000D01*
X60914396Y-125265000D01*
X61160534Y-125018862D01*
X61379000Y-124491439D01*
X61379000Y-123920561D01*
X61160534Y-123393138D01*
X60756862Y-122989466D01*
X60579502Y-122916001D01*
X66999623Y-122916001D01*
X66708866Y-123053611D01*
X66332959Y-123468577D01*
X66172096Y-123856961D01*
X66294085Y-124079000D01*
X67437000Y-124079000D01*
X67437000Y-124059000D01*
X67691000Y-124059000D01*
X67691000Y-124079000D01*
X68833915Y-124079000D01*
X68955904Y-123856961D01*
X68795041Y-123468577D01*
X68419134Y-123053611D01*
X68128377Y-122916001D01*
X71260198Y-122916001D01*
X71973670Y-123629474D01*
X72016070Y-123692930D01*
X72267462Y-123860905D01*
X72489147Y-123905001D01*
X72489151Y-123905001D01*
X72563998Y-123919889D01*
X72638845Y-123905001D01*
X80615152Y-123905001D01*
X80689999Y-123919889D01*
X80764846Y-123905001D01*
X80764851Y-123905001D01*
X80986536Y-123860905D01*
X81237928Y-123692930D01*
X81280330Y-123629471D01*
X81576698Y-123333103D01*
X81629561Y-123355000D01*
X82200439Y-123355000D01*
X82727862Y-123136534D01*
X83131534Y-122732862D01*
X83350000Y-122205439D01*
X83350000Y-121634561D01*
X83131534Y-121107138D01*
X82727862Y-120703466D01*
X82414949Y-120573853D01*
X83669476Y-119319327D01*
X83732929Y-119276929D01*
X83775327Y-119213476D01*
X83775329Y-119213474D01*
X83877941Y-119059904D01*
X83900904Y-119025537D01*
X83909095Y-118984356D01*
X84002392Y-119046695D01*
X84455000Y-119136725D01*
X84907609Y-119046695D01*
X85291313Y-118790313D01*
X85547695Y-118406608D01*
X85615000Y-118068245D01*
X85615000Y-117389754D01*
X85547695Y-117051391D01*
X85291313Y-116667687D01*
X85215000Y-116616697D01*
X85215000Y-114530801D01*
X87582098Y-112163704D01*
X87592191Y-112178809D01*
X87802235Y-112319157D01*
X88050000Y-112368440D01*
X89750000Y-112368440D01*
X89997765Y-112319157D01*
X90207809Y-112178809D01*
X90348157Y-111968765D01*
X90357184Y-111923381D01*
X90369375Y-111941625D01*
X90680001Y-112149179D01*
X90680000Y-119700198D01*
X89858886Y-120521312D01*
X89676333Y-120485000D01*
X89393667Y-120485000D01*
X88975091Y-120568260D01*
X88500423Y-120885423D01*
X88183260Y-121360091D01*
X88071887Y-121920000D01*
X88183260Y-122479909D01*
X88500423Y-122954577D01*
X88975091Y-123271740D01*
X89393667Y-123355000D01*
X89676333Y-123355000D01*
X90094909Y-123271740D01*
X90569577Y-122954577D01*
X90886740Y-122479909D01*
X90998113Y-121920000D01*
X90933688Y-121596114D01*
X91924473Y-120605329D01*
X91987929Y-120562929D01*
X92040000Y-120485000D01*
X92155904Y-120311538D01*
X92174482Y-120218138D01*
X92200000Y-120089852D01*
X92200000Y-120089848D01*
X92214888Y-120015000D01*
X92200000Y-119940152D01*
X92200000Y-112149178D01*
X92510625Y-111941625D01*
X92838839Y-111450418D01*
X92954092Y-110871000D01*
X92838839Y-110291582D01*
X92510625Y-109800375D01*
X92454000Y-109762539D01*
X92454000Y-108680430D01*
X92506862Y-108658534D01*
X92910534Y-108254862D01*
X93129000Y-107727439D01*
X93129000Y-107156561D01*
X92910534Y-106629138D01*
X92506862Y-106225466D01*
X91979439Y-106007000D01*
X91408561Y-106007000D01*
X90881138Y-106225466D01*
X90477466Y-106629138D01*
X90259000Y-107156561D01*
X90259000Y-107727439D01*
X90477466Y-108254862D01*
X90881138Y-108658534D01*
X90934000Y-108680430D01*
X90934001Y-109457557D01*
X90860582Y-109472161D01*
X90369375Y-109800375D01*
X90357184Y-109818619D01*
X90348157Y-109773235D01*
X90207809Y-109563191D01*
X89997765Y-109422843D01*
X89750000Y-109373560D01*
X88050000Y-109373560D01*
X87802235Y-109422843D01*
X87592191Y-109563191D01*
X87451843Y-109773235D01*
X87402560Y-110021000D01*
X87402560Y-110222517D01*
X87315526Y-110280671D01*
X87315524Y-110280673D01*
X87252071Y-110323071D01*
X87209673Y-110386524D01*
X83970528Y-113625671D01*
X83907072Y-113668071D01*
X83864672Y-113731527D01*
X83864671Y-113731528D01*
X83739097Y-113919463D01*
X83680112Y-114216000D01*
X83695001Y-114290852D01*
X83695001Y-115250728D01*
X83669476Y-115233673D01*
X81407002Y-112971201D01*
X81407002Y-112849595D01*
X81652980Y-112969563D01*
X82146924Y-112754973D01*
X82589318Y-112322091D01*
X82832380Y-111752864D01*
X82705572Y-111506000D01*
X81407000Y-111506000D01*
X81407000Y-111526000D01*
X81153000Y-111526000D01*
X81153000Y-111506000D01*
X81133000Y-111506000D01*
X81133000Y-111252000D01*
X81153000Y-111252000D01*
X81153000Y-111232000D01*
X81407000Y-111232000D01*
X81407000Y-111252000D01*
X82705572Y-111252000D01*
X82832380Y-111005136D01*
X82589318Y-110435909D01*
X82146924Y-110003027D01*
X81652980Y-109788437D01*
X81407002Y-109908405D01*
X81407002Y-109744000D01*
X81402302Y-109744000D01*
X82271304Y-108874999D01*
X87263154Y-108874999D01*
X87338001Y-108889887D01*
X87412848Y-108874999D01*
X87412853Y-108874999D01*
X87634538Y-108830903D01*
X87792716Y-108725211D01*
X87852561Y-108750000D01*
X88423439Y-108750000D01*
X88950862Y-108531534D01*
X89354534Y-108127862D01*
X89573000Y-107600439D01*
X89573000Y-107029561D01*
X89354534Y-106502138D01*
X88950862Y-106098466D01*
X88423439Y-105880000D01*
X87852561Y-105880000D01*
X87325138Y-106098466D01*
X86921466Y-106502138D01*
X86703000Y-107029561D01*
X86703000Y-107354999D01*
X82031347Y-107354999D01*
X81956500Y-107340111D01*
X81881653Y-107354999D01*
X81881649Y-107354999D01*
X81659964Y-107399095D01*
X81597403Y-107440897D01*
X81472027Y-107524670D01*
X81472025Y-107524672D01*
X81408572Y-107567070D01*
X81366174Y-107630523D01*
X79193576Y-109803122D01*
X78740000Y-109712900D01*
X78120589Y-109836109D01*
X77728509Y-110098088D01*
X77610309Y-109921191D01*
X77400265Y-109780843D01*
X77152500Y-109731560D01*
X75247500Y-109731560D01*
X74999735Y-109780843D01*
X74789691Y-109921191D01*
X74719516Y-110026214D01*
X71626000Y-106932699D01*
X71626000Y-106857440D01*
X71666000Y-106857440D01*
X71913765Y-106808157D01*
X72123809Y-106667809D01*
X72264157Y-106457765D01*
X72313440Y-106210000D01*
X72313440Y-104610000D01*
X72264157Y-104362235D01*
X72123809Y-104152191D01*
X71913765Y-104011843D01*
X71666000Y-103962560D01*
X70066000Y-103962560D01*
X69818235Y-104011843D01*
X69608191Y-104152191D01*
X69467843Y-104362235D01*
X69418560Y-104610000D01*
X69418560Y-106210000D01*
X69467843Y-106457765D01*
X69608191Y-106667809D01*
X69818235Y-106808157D01*
X70066000Y-106857440D01*
X70106000Y-106857440D01*
X70106000Y-107172653D01*
X70091112Y-107247500D01*
X70106000Y-107322347D01*
X70106000Y-107322351D01*
X70150096Y-107544036D01*
X70318071Y-107795429D01*
X70381530Y-107837831D01*
X73320416Y-110776718D01*
X73239071Y-110831071D01*
X73196672Y-110894526D01*
X67775302Y-116315897D01*
X67722439Y-116294000D01*
X67151561Y-116294000D01*
X66624138Y-116512466D01*
X66220466Y-116916138D01*
X66198570Y-116969000D01*
X63687802Y-116969000D01*
X60859841Y-114141039D01*
X65664096Y-114141039D01*
X65824959Y-114529423D01*
X66200866Y-114944389D01*
X66706959Y-115183914D01*
X66929000Y-115062629D01*
X66929000Y-113919000D01*
X67183000Y-113919000D01*
X67183000Y-115062629D01*
X67405041Y-115183914D01*
X67911134Y-114944389D01*
X68287041Y-114529423D01*
X68447904Y-114141039D01*
X68325915Y-113919000D01*
X67183000Y-113919000D01*
X66929000Y-113919000D01*
X65786085Y-113919000D01*
X65664096Y-114141039D01*
X60859841Y-114141039D01*
X60849103Y-114130302D01*
X60871000Y-114077439D01*
X60871000Y-113506561D01*
X60844656Y-113442961D01*
X65664096Y-113442961D01*
X65786085Y-113665000D01*
X66929000Y-113665000D01*
X66929000Y-112521371D01*
X67183000Y-112521371D01*
X67183000Y-113665000D01*
X68325915Y-113665000D01*
X68447904Y-113442961D01*
X68287041Y-113054577D01*
X67911134Y-112639611D01*
X67405041Y-112400086D01*
X67183000Y-112521371D01*
X66929000Y-112521371D01*
X66706959Y-112400086D01*
X66200866Y-112639611D01*
X65824959Y-113054577D01*
X65664096Y-113442961D01*
X60844656Y-113442961D01*
X60652534Y-112979138D01*
X60248862Y-112575466D01*
X59721439Y-112357000D01*
X59150561Y-112357000D01*
X58623138Y-112575466D01*
X58219466Y-112979138D01*
X58001000Y-113506561D01*
X58001000Y-114077439D01*
X58179728Y-114508927D01*
X55289209Y-111618408D01*
X55362092Y-111252000D01*
X55246839Y-110672582D01*
X54918625Y-110181375D01*
X54620239Y-109982000D01*
X54918625Y-109782625D01*
X55246839Y-109291418D01*
X55362092Y-108712000D01*
X55246839Y-108132582D01*
X54918625Y-107641375D01*
X54599522Y-107428157D01*
X54729358Y-107367183D01*
X55119645Y-106938924D01*
X55289476Y-106528890D01*
X55168155Y-106299000D01*
X53975000Y-106299000D01*
X53975000Y-106319000D01*
X53721000Y-106319000D01*
X53721000Y-106299000D01*
X53701000Y-106299000D01*
X53701000Y-106045000D01*
X53721000Y-106045000D01*
X53721000Y-106025000D01*
X53975000Y-106025000D01*
X53975000Y-106045000D01*
X55168155Y-106045000D01*
X55197705Y-105989006D01*
X57643171Y-108434473D01*
X57685571Y-108497929D01*
X57936963Y-108665904D01*
X57978922Y-108674250D01*
X58291477Y-109142023D01*
X58816589Y-109492891D01*
X59436000Y-109616100D01*
X60055410Y-109492891D01*
X60580523Y-109142023D01*
X60715159Y-108940526D01*
X61109076Y-109325973D01*
X61603020Y-109540563D01*
X61849000Y-109420594D01*
X61849000Y-108077000D01*
X61829000Y-108077000D01*
X61829000Y-107823000D01*
X61849000Y-107823000D01*
X61849000Y-106479406D01*
X61603020Y-106359437D01*
X61109076Y-106574027D01*
X60715159Y-106959474D01*
X60580523Y-106757977D01*
X60055411Y-106407109D01*
X59436000Y-106283900D01*
X58816590Y-106407109D01*
X58291477Y-106757977D01*
X58221303Y-106863001D01*
X55870830Y-104512529D01*
X55828428Y-104449070D01*
X55577036Y-104281095D01*
X55355351Y-104236999D01*
X55355346Y-104236999D01*
X55280499Y-104222111D01*
X55233440Y-104231472D01*
X55246839Y-104211418D01*
X55362092Y-103632000D01*
X55246839Y-103052582D01*
X54918625Y-102561375D01*
X54900381Y-102549184D01*
X54945765Y-102540157D01*
X55155809Y-102399809D01*
X55296157Y-102189765D01*
X55345440Y-101942000D01*
X55345440Y-100242000D01*
X55296157Y-99994235D01*
X55155809Y-99784191D01*
X54945765Y-99643843D01*
X54698000Y-99594560D01*
X52998000Y-99594560D01*
X52750235Y-99643843D01*
X52540191Y-99784191D01*
X52399843Y-99994235D01*
X52350560Y-100242000D01*
X52350560Y-100443517D01*
X52296877Y-100479387D01*
X52200071Y-100544071D01*
X52157671Y-100607528D01*
X51738519Y-101026680D01*
X51735000Y-101029031D01*
X51735000Y-80430000D01*
X52350560Y-80430000D01*
X52350560Y-82130000D01*
X52399843Y-82377765D01*
X52540191Y-82587809D01*
X52750235Y-82728157D01*
X52998000Y-82777440D01*
X53088000Y-82777440D01*
X53088001Y-86143148D01*
X53073112Y-86218000D01*
X53132097Y-86514537D01*
X53248571Y-86688852D01*
X53300072Y-86765929D01*
X53363528Y-86808329D01*
X53504537Y-86949339D01*
X53500530Y-86962549D01*
X53481408Y-87058682D01*
X53468968Y-87184991D01*
X53468968Y-87221894D01*
X53466560Y-87234000D01*
X53466560Y-87734000D01*
X53496397Y-87884000D01*
X53466560Y-88034000D01*
X53466560Y-88534000D01*
X53468968Y-88546106D01*
X53468968Y-88583009D01*
X53481408Y-88709318D01*
X53500530Y-88805451D01*
X53537372Y-88926904D01*
X53574881Y-89017460D01*
X53634713Y-89129397D01*
X53689169Y-89210896D01*
X53769686Y-89309006D01*
X53838994Y-89378314D01*
X53937104Y-89458831D01*
X54018603Y-89513287D01*
X54104000Y-89558933D01*
X54104001Y-91133560D01*
X53173000Y-91133560D01*
X52925235Y-91182843D01*
X52715191Y-91323191D01*
X52574843Y-91533235D01*
X52525560Y-91781000D01*
X52525560Y-93131000D01*
X52574843Y-93378765D01*
X52715191Y-93588809D01*
X52809714Y-93651968D01*
X52614007Y-93944864D01*
X52512336Y-94456000D01*
X52614007Y-94967136D01*
X52903543Y-95400457D01*
X52986669Y-95456000D01*
X52903543Y-95511543D01*
X52614007Y-95944864D01*
X52512336Y-96456000D01*
X52614007Y-96967136D01*
X52903543Y-97400457D01*
X53336864Y-97689993D01*
X53718978Y-97766000D01*
X53977022Y-97766000D01*
X54359136Y-97689993D01*
X54792457Y-97400457D01*
X54915707Y-97216000D01*
X57259199Y-97216000D01*
X57575215Y-97532016D01*
X57470191Y-97602191D01*
X57329843Y-97812235D01*
X57280560Y-98060000D01*
X57280560Y-100060000D01*
X57329843Y-100307765D01*
X57470191Y-100517809D01*
X57680235Y-100658157D01*
X57928000Y-100707440D01*
X59928000Y-100707440D01*
X60175765Y-100658157D01*
X60385809Y-100517809D01*
X60526157Y-100307765D01*
X60575440Y-100060000D01*
X60575440Y-99820000D01*
X60945001Y-99820000D01*
X60945000Y-100512153D01*
X60930112Y-100587000D01*
X60945000Y-100661847D01*
X60945000Y-100661851D01*
X60989096Y-100883536D01*
X61157071Y-101134929D01*
X61220530Y-101177331D01*
X63756001Y-103712804D01*
X63756000Y-106302560D01*
X63563500Y-106302560D01*
X63315735Y-106351843D01*
X63105691Y-106492191D01*
X62968745Y-106697143D01*
X62842924Y-106574027D01*
X62348980Y-106359437D01*
X62103000Y-106479406D01*
X62103000Y-107823000D01*
X62123000Y-107823000D01*
X62123000Y-108077000D01*
X62103000Y-108077000D01*
X62103000Y-109420594D01*
X62348980Y-109540563D01*
X62842924Y-109325973D01*
X62968745Y-109202857D01*
X63105691Y-109407809D01*
X63315735Y-109548157D01*
X63563500Y-109597440D01*
X65468500Y-109597440D01*
X65716265Y-109548157D01*
X65926309Y-109407809D01*
X66066657Y-109197765D01*
X66115940Y-108950000D01*
X66115940Y-106950000D01*
X66066657Y-106702235D01*
X65926309Y-106492191D01*
X65716265Y-106351843D01*
X65468500Y-106302560D01*
X65276000Y-106302560D01*
X65276000Y-103472846D01*
X65290888Y-103397999D01*
X65276000Y-103323152D01*
X65276000Y-103323148D01*
X65231904Y-103101463D01*
X65164483Y-103000560D01*
X65109149Y-102917745D01*
X70037861Y-102917745D01*
X70111995Y-103163864D01*
X70649223Y-103356965D01*
X71219454Y-103329778D01*
X71620005Y-103163864D01*
X71694139Y-102917745D01*
X70866000Y-102089605D01*
X70037861Y-102917745D01*
X65109149Y-102917745D01*
X65106329Y-102913526D01*
X65106327Y-102913524D01*
X65063929Y-102850071D01*
X65000476Y-102807673D01*
X63886026Y-101693223D01*
X69419035Y-101693223D01*
X69446222Y-102263454D01*
X69612136Y-102664005D01*
X69858255Y-102738139D01*
X70686395Y-101910000D01*
X71045605Y-101910000D01*
X71873745Y-102738139D01*
X72119864Y-102664005D01*
X72312965Y-102126777D01*
X72285778Y-101556546D01*
X72119864Y-101155995D01*
X71873745Y-101081861D01*
X71045605Y-101910000D01*
X70686395Y-101910000D01*
X69858255Y-101081861D01*
X69612136Y-101155995D01*
X69419035Y-101693223D01*
X63886026Y-101693223D01*
X63095057Y-100902255D01*
X70037861Y-100902255D01*
X70866000Y-101730395D01*
X71694139Y-100902255D01*
X71663499Y-100800532D01*
X79799073Y-100800532D01*
X79897736Y-101067387D01*
X80507461Y-101293908D01*
X81157460Y-101269856D01*
X81646264Y-101067387D01*
X81744927Y-100800532D01*
X80772000Y-99827605D01*
X79799073Y-100800532D01*
X71663499Y-100800532D01*
X71620005Y-100656136D01*
X71082777Y-100463035D01*
X70512546Y-100490222D01*
X70111995Y-100656136D01*
X70037861Y-100902255D01*
X63095057Y-100902255D01*
X62465000Y-100272199D01*
X62465000Y-100212532D01*
X62955073Y-100212532D01*
X63053736Y-100479387D01*
X63663461Y-100705908D01*
X64313460Y-100681856D01*
X64802264Y-100479387D01*
X64900927Y-100212532D01*
X63928000Y-99239605D01*
X62955073Y-100212532D01*
X62465000Y-100212532D01*
X62465000Y-99828973D01*
X62508613Y-99934264D01*
X62775468Y-100032927D01*
X63748395Y-99060000D01*
X64107605Y-99060000D01*
X65080532Y-100032927D01*
X65347387Y-99934264D01*
X65552017Y-99383461D01*
X79126092Y-99383461D01*
X79150144Y-100033460D01*
X79352613Y-100522264D01*
X79619468Y-100620927D01*
X80592395Y-99648000D01*
X80951605Y-99648000D01*
X81924532Y-100620927D01*
X82191387Y-100522264D01*
X82417908Y-99912539D01*
X82393856Y-99262540D01*
X82191387Y-98773736D01*
X81924532Y-98675073D01*
X80951605Y-99648000D01*
X80592395Y-99648000D01*
X79619468Y-98675073D01*
X79352613Y-98773736D01*
X79126092Y-99383461D01*
X65552017Y-99383461D01*
X65573908Y-99324539D01*
X65549856Y-98674540D01*
X65475683Y-98495468D01*
X79799073Y-98495468D01*
X80772000Y-99468395D01*
X81744927Y-98495468D01*
X81646264Y-98228613D01*
X81036539Y-98002092D01*
X80386540Y-98026144D01*
X79897736Y-98228613D01*
X79799073Y-98495468D01*
X65475683Y-98495468D01*
X65347387Y-98185736D01*
X65080532Y-98087073D01*
X64107605Y-99060000D01*
X63748395Y-99060000D01*
X63734253Y-99045858D01*
X63913858Y-98866253D01*
X63928000Y-98880395D01*
X64900927Y-97907468D01*
X64802264Y-97640613D01*
X64362549Y-97477253D01*
X66304052Y-95535750D01*
X87669000Y-95535750D01*
X87669000Y-96226309D01*
X87765673Y-96459698D01*
X87944301Y-96638327D01*
X88177690Y-96735000D01*
X88868250Y-96735000D01*
X89027000Y-96576250D01*
X89027000Y-95377000D01*
X87827750Y-95377000D01*
X87669000Y-95535750D01*
X66304052Y-95535750D01*
X67519362Y-94320440D01*
X67764638Y-94320440D01*
X67926672Y-94482474D01*
X67969072Y-94545930D01*
X68220464Y-94713905D01*
X68442149Y-94758001D01*
X68442153Y-94758001D01*
X68517000Y-94772889D01*
X68591847Y-94758001D01*
X70892152Y-94758001D01*
X70966999Y-94772889D01*
X71041846Y-94758001D01*
X71041851Y-94758001D01*
X71263536Y-94713905D01*
X71514928Y-94545930D01*
X71544969Y-94500970D01*
X71589929Y-94470929D01*
X71705578Y-94297848D01*
X71839765Y-94271157D01*
X71892000Y-94236254D01*
X71944235Y-94271157D01*
X72192000Y-94320440D01*
X73292000Y-94320440D01*
X73539765Y-94271157D01*
X73749809Y-94130809D01*
X73890157Y-93920765D01*
X73939440Y-93673000D01*
X73939440Y-92246241D01*
X75334897Y-93641698D01*
X75313000Y-93694561D01*
X75313000Y-94265439D01*
X75531466Y-94792862D01*
X75935138Y-95196534D01*
X76462561Y-95415000D01*
X77033439Y-95415000D01*
X77560862Y-95196534D01*
X77829899Y-94927497D01*
X77849843Y-95027765D01*
X77990191Y-95237809D01*
X78200235Y-95378157D01*
X78448000Y-95427440D01*
X80048000Y-95427440D01*
X80295765Y-95378157D01*
X80505809Y-95237809D01*
X80646157Y-95027765D01*
X80695440Y-94780000D01*
X80695440Y-94273691D01*
X87669000Y-94273691D01*
X87669000Y-94964250D01*
X87827750Y-95123000D01*
X89027000Y-95123000D01*
X89027000Y-93923750D01*
X88868250Y-93765000D01*
X88177690Y-93765000D01*
X87944301Y-93861673D01*
X87765673Y-94040302D01*
X87669000Y-94273691D01*
X80695440Y-94273691D01*
X80695440Y-93180000D01*
X80646157Y-92932235D01*
X80505809Y-92722191D01*
X80295765Y-92581843D01*
X80048000Y-92532560D01*
X80008000Y-92532560D01*
X80008000Y-90992801D01*
X81497762Y-89503039D01*
X83190096Y-89503039D01*
X83350959Y-89891423D01*
X83726866Y-90306389D01*
X84232959Y-90545914D01*
X84455000Y-90424629D01*
X84455000Y-89281000D01*
X84709000Y-89281000D01*
X84709000Y-90424629D01*
X84931041Y-90545914D01*
X85437134Y-90306389D01*
X85813041Y-89891423D01*
X85973904Y-89503039D01*
X85851915Y-89281000D01*
X84709000Y-89281000D01*
X84455000Y-89281000D01*
X83312085Y-89281000D01*
X83190096Y-89503039D01*
X81497762Y-89503039D01*
X82195840Y-88804961D01*
X83190096Y-88804961D01*
X83312085Y-89027000D01*
X84455000Y-89027000D01*
X84455000Y-87883371D01*
X84709000Y-87883371D01*
X84709000Y-89027000D01*
X85851915Y-89027000D01*
X85973904Y-88804961D01*
X85813041Y-88416577D01*
X85437134Y-88001611D01*
X84931041Y-87762086D01*
X84709000Y-87883371D01*
X84455000Y-87883371D01*
X84232959Y-87762086D01*
X83726866Y-88001611D01*
X83350959Y-88416577D01*
X83190096Y-88804961D01*
X82195840Y-88804961D01*
X84243698Y-86757104D01*
X84296561Y-86779000D01*
X84867439Y-86779000D01*
X84920302Y-86757103D01*
X85261671Y-87098473D01*
X85304071Y-87161929D01*
X85555463Y-87329904D01*
X85777148Y-87374000D01*
X85777152Y-87374000D01*
X85851999Y-87388888D01*
X85926846Y-87374000D01*
X87987067Y-87374000D01*
X88032713Y-87459397D01*
X88087169Y-87540896D01*
X88167686Y-87639006D01*
X88236994Y-87708314D01*
X88335104Y-87788831D01*
X88416603Y-87843287D01*
X88528540Y-87903119D01*
X88619096Y-87940628D01*
X88740549Y-87977470D01*
X88836682Y-87996592D01*
X88962991Y-88009032D01*
X88999894Y-88009032D01*
X89012000Y-88011440D01*
X89512000Y-88011440D01*
X89552000Y-88003484D01*
X89552001Y-93765000D01*
X89439750Y-93765000D01*
X89281000Y-93923750D01*
X89281000Y-95123000D01*
X89301000Y-95123000D01*
X89301000Y-95377000D01*
X89281000Y-95377000D01*
X89281000Y-96576250D01*
X89439750Y-96735000D01*
X90130310Y-96735000D01*
X90363699Y-96638327D01*
X90542327Y-96459698D01*
X90608904Y-96298967D01*
X90623375Y-96320625D01*
X90934000Y-96528178D01*
X90934001Y-98603956D01*
X90659423Y-98787423D01*
X90475957Y-99062000D01*
X89440902Y-99062000D01*
X89172577Y-98660423D01*
X88697909Y-98343260D01*
X88279333Y-98260000D01*
X87996667Y-98260000D01*
X87578091Y-98343260D01*
X87103423Y-98660423D01*
X86786260Y-99135091D01*
X86674887Y-99695000D01*
X86739312Y-100018886D01*
X82870199Y-103888000D01*
X82419440Y-103888000D01*
X82419440Y-103648000D01*
X82370157Y-103400235D01*
X82229809Y-103190191D01*
X82019765Y-103049843D01*
X81772000Y-103000560D01*
X79772000Y-103000560D01*
X79524235Y-103049843D01*
X79314191Y-103190191D01*
X79173843Y-103400235D01*
X79124560Y-103648000D01*
X79124560Y-105648000D01*
X79173843Y-105895765D01*
X79314191Y-106105809D01*
X79524235Y-106246157D01*
X79772000Y-106295440D01*
X81772000Y-106295440D01*
X82019765Y-106246157D01*
X82229809Y-106105809D01*
X82370157Y-105895765D01*
X82419440Y-105648000D01*
X82419440Y-105408000D01*
X83110153Y-105408000D01*
X83185000Y-105422888D01*
X83259847Y-105408000D01*
X83259852Y-105408000D01*
X83481537Y-105363904D01*
X83732929Y-105195929D01*
X83775331Y-105132470D01*
X87814114Y-101093688D01*
X87996667Y-101130000D01*
X88279333Y-101130000D01*
X88697909Y-101046740D01*
X89172577Y-100729577D01*
X89271185Y-100582000D01*
X90475957Y-100582000D01*
X90659423Y-100856577D01*
X91134091Y-101173740D01*
X91552667Y-101257000D01*
X91835333Y-101257000D01*
X92253909Y-101173740D01*
X92728577Y-100856577D01*
X93045740Y-100381909D01*
X93157113Y-99822000D01*
X93045740Y-99262091D01*
X92728577Y-98787423D01*
X92454000Y-98603957D01*
X92454000Y-96528178D01*
X92764625Y-96320625D01*
X93092839Y-95829418D01*
X93208092Y-95250000D01*
X93092839Y-94670582D01*
X92764625Y-94179375D01*
X92273418Y-93851161D01*
X91840256Y-93765000D01*
X91547744Y-93765000D01*
X91327592Y-93808791D01*
X91072000Y-93553199D01*
X91072000Y-87720629D01*
X91087006Y-87708314D01*
X91156314Y-87639006D01*
X91236831Y-87540896D01*
X91291287Y-87459397D01*
X91351119Y-87347460D01*
X91388628Y-87256904D01*
X91425470Y-87135451D01*
X91444592Y-87039318D01*
X91457032Y-86913009D01*
X91457032Y-86876106D01*
X91459440Y-86864000D01*
X91459440Y-86364000D01*
X91457032Y-86351894D01*
X91457032Y-86314991D01*
X91444592Y-86188682D01*
X91425470Y-86092549D01*
X91388628Y-85971096D01*
X91351119Y-85880540D01*
X91291287Y-85768603D01*
X91236831Y-85687104D01*
X91156314Y-85588994D01*
X91087006Y-85519686D01*
X90988896Y-85439169D01*
X90907397Y-85384713D01*
X90795460Y-85324881D01*
X90704904Y-85287372D01*
X90583451Y-85250530D01*
X90487318Y-85231408D01*
X90361009Y-85218968D01*
X90324106Y-85218968D01*
X90312000Y-85216560D01*
X89812000Y-85216560D01*
X89772000Y-85224516D01*
X89772000Y-84022365D01*
X89781347Y-83928424D01*
X90064648Y-82786153D01*
X90146473Y-82704329D01*
X90209929Y-82661929D01*
X90252924Y-82597582D01*
X90292305Y-82538645D01*
X90908498Y-82628373D01*
X91090195Y-82628562D01*
X91323869Y-82546199D01*
X91391218Y-82485737D01*
X91509765Y-82462157D01*
X91719809Y-82321809D01*
X91860157Y-82111765D01*
X91909440Y-81864000D01*
X91909440Y-78664000D01*
X91860157Y-78416235D01*
X91719809Y-78206191D01*
X91509765Y-78065843D01*
X91262000Y-78016560D01*
X88062000Y-78016560D01*
X87814235Y-78065843D01*
X87604191Y-78206191D01*
X87463843Y-78416235D01*
X87414560Y-78664000D01*
X87414560Y-79615517D01*
X87398789Y-79626055D01*
X87264071Y-79716071D01*
X87221671Y-79779527D01*
X84097530Y-82903669D01*
X84034071Y-82946071D01*
X83866096Y-83197464D01*
X83822000Y-83419149D01*
X83822000Y-83419153D01*
X83807112Y-83494000D01*
X83822000Y-83568847D01*
X83822000Y-84105570D01*
X83769138Y-84127466D01*
X83365466Y-84531138D01*
X83147000Y-85058561D01*
X83147000Y-85629439D01*
X83168896Y-85682302D01*
X78763528Y-90087671D01*
X78700072Y-90130071D01*
X78657672Y-90193527D01*
X78657671Y-90193528D01*
X78532097Y-90381463D01*
X78473112Y-90678000D01*
X78488001Y-90752852D01*
X78488000Y-92532560D01*
X78448000Y-92532560D01*
X78200235Y-92581843D01*
X77990191Y-92722191D01*
X77849843Y-92932235D01*
X77829899Y-93032503D01*
X77560862Y-92763466D01*
X77033439Y-92545000D01*
X76462561Y-92545000D01*
X76409698Y-92566897D01*
X74731331Y-90888530D01*
X74688929Y-90825071D01*
X74437537Y-90657096D01*
X74215852Y-90613000D01*
X74215847Y-90613000D01*
X74141000Y-90598112D01*
X74066153Y-90613000D01*
X73939440Y-90613000D01*
X73939440Y-89583000D01*
X74315199Y-89583000D01*
X74370669Y-89638470D01*
X74413071Y-89701929D01*
X74570718Y-89807266D01*
X74664462Y-89869904D01*
X74712605Y-89879480D01*
X74886148Y-89914000D01*
X74886152Y-89914000D01*
X74961000Y-89928888D01*
X75035848Y-89914000D01*
X75723570Y-89914000D01*
X75745466Y-89966862D01*
X76149138Y-90370534D01*
X76676561Y-90589000D01*
X77247439Y-90589000D01*
X77774862Y-90370534D01*
X78178534Y-89966862D01*
X78397000Y-89439439D01*
X78397000Y-88868561D01*
X78178534Y-88341138D01*
X77774862Y-87937466D01*
X77722000Y-87915570D01*
X77722000Y-86562043D01*
X77996577Y-86378577D01*
X78313740Y-85903909D01*
X78425113Y-85344000D01*
X78313740Y-84784091D01*
X77996577Y-84309423D01*
X77521909Y-83992260D01*
X77103333Y-83909000D01*
X76820667Y-83909000D01*
X76402091Y-83992260D01*
X75927423Y-84309423D01*
X75610260Y-84784091D01*
X75498887Y-85344000D01*
X75610260Y-85903909D01*
X75927423Y-86378577D01*
X76202000Y-86562044D01*
X76202001Y-87915570D01*
X76149138Y-87937466D01*
X75745466Y-88341138D01*
X75723570Y-88394000D01*
X75275801Y-88394000D01*
X75220331Y-88338530D01*
X75177929Y-88275071D01*
X74926537Y-88107096D01*
X74704852Y-88063000D01*
X74704847Y-88063000D01*
X74630000Y-88048112D01*
X74555153Y-88063000D01*
X73616848Y-88063000D01*
X73542000Y-88048112D01*
X73467152Y-88063000D01*
X73467148Y-88063000D01*
X73293605Y-88097520D01*
X73245462Y-88107096D01*
X73139454Y-88177929D01*
X72994071Y-88275071D01*
X72951671Y-88338527D01*
X72864638Y-88425560D01*
X72192000Y-88425560D01*
X71944235Y-88474843D01*
X71892000Y-88509746D01*
X71839765Y-88474843D01*
X71592000Y-88425560D01*
X70492000Y-88425560D01*
X70244235Y-88474843D01*
X70192000Y-88509746D01*
X70139765Y-88474843D01*
X70102000Y-88467331D01*
X70102000Y-87570440D01*
X74742000Y-87570440D01*
X74989765Y-87521157D01*
X75199809Y-87380809D01*
X75340157Y-87170765D01*
X75389440Y-86923000D01*
X75389440Y-83813163D01*
X75640945Y-83763135D01*
X76045253Y-83492985D01*
X77039238Y-82499000D01*
X77182128Y-82499000D01*
X77834054Y-82369324D01*
X78573345Y-81875345D01*
X79067324Y-81136054D01*
X79240786Y-80264000D01*
X79067324Y-79391946D01*
X78573345Y-78652655D01*
X77834054Y-78158676D01*
X77182128Y-78029000D01*
X76741872Y-78029000D01*
X76089946Y-78158676D01*
X75389440Y-78626740D01*
X75389440Y-77523000D01*
X75340157Y-77275235D01*
X75199809Y-77065191D01*
X74989765Y-76924843D01*
X74742000Y-76875560D01*
X63942000Y-76875560D01*
X63694235Y-76924843D01*
X63484191Y-77065191D01*
X63343843Y-77275235D01*
X63295004Y-77520767D01*
X63284157Y-77466235D01*
X63143809Y-77256191D01*
X62933765Y-77115843D01*
X62686000Y-77066560D01*
X60336000Y-77066560D01*
X60088235Y-77115843D01*
X59878191Y-77256191D01*
X59737843Y-77466235D01*
X59688560Y-77714000D01*
X59688560Y-82814000D01*
X59707867Y-82911066D01*
X59183440Y-82386639D01*
X59183440Y-77714000D01*
X59134157Y-77466235D01*
X58993809Y-77256191D01*
X58783765Y-77115843D01*
X58536000Y-77066560D01*
X56186000Y-77066560D01*
X55938235Y-77115843D01*
X55728191Y-77256191D01*
X55587843Y-77466235D01*
X55538560Y-77714000D01*
X55538560Y-82814000D01*
X55587843Y-83061765D01*
X55728191Y-83271809D01*
X55938235Y-83412157D01*
X56186000Y-83461440D01*
X58108639Y-83461440D01*
X60238484Y-85591286D01*
X60210191Y-85610191D01*
X60069843Y-85820235D01*
X60023307Y-86054187D01*
X59975745Y-86039861D01*
X59147605Y-86868000D01*
X59975745Y-87696139D01*
X60023307Y-87681813D01*
X60069843Y-87915765D01*
X60210191Y-88125809D01*
X60420235Y-88266157D01*
X60668000Y-88315440D01*
X62268000Y-88315440D01*
X62515765Y-88266157D01*
X62706062Y-88139004D01*
X62732071Y-88177929D01*
X62795527Y-88220329D01*
X62983462Y-88345904D01*
X63031605Y-88355480D01*
X63205148Y-88390000D01*
X63205152Y-88390000D01*
X63280000Y-88404888D01*
X63354848Y-88390000D01*
X66882000Y-88390000D01*
X66882000Y-88467331D01*
X66844235Y-88474843D01*
X66791816Y-88509869D01*
X66618310Y-88438000D01*
X66227750Y-88438000D01*
X66069000Y-88596750D01*
X66069000Y-91246000D01*
X66089000Y-91246000D01*
X66089000Y-91500000D01*
X66069000Y-91500000D01*
X66069000Y-91520000D01*
X65815000Y-91520000D01*
X65815000Y-91500000D01*
X64915750Y-91500000D01*
X64757000Y-91658750D01*
X64757000Y-93799309D01*
X64853673Y-94032698D01*
X65032301Y-94211327D01*
X65265690Y-94308000D01*
X65382198Y-94308000D01*
X61390199Y-98300000D01*
X60575440Y-98300000D01*
X60575440Y-98060000D01*
X60526157Y-97812235D01*
X60385809Y-97602191D01*
X60175765Y-97461843D01*
X59928000Y-97412560D01*
X59576483Y-97412560D01*
X59475929Y-97262071D01*
X59412473Y-97219671D01*
X58164331Y-95971530D01*
X58121929Y-95908071D01*
X57870537Y-95740096D01*
X57648852Y-95696000D01*
X57648847Y-95696000D01*
X57574000Y-95681112D01*
X57499153Y-95696000D01*
X54915707Y-95696000D01*
X54792457Y-95511543D01*
X54709331Y-95456000D01*
X54792457Y-95400457D01*
X55081993Y-94967136D01*
X55183664Y-94456000D01*
X55140384Y-94238417D01*
X55348473Y-94030329D01*
X55411929Y-93987929D01*
X55579904Y-93736537D01*
X55624000Y-93514852D01*
X55624000Y-93514847D01*
X55638888Y-93440000D01*
X55624000Y-93365153D01*
X55624000Y-89558933D01*
X55709397Y-89513287D01*
X55790896Y-89458831D01*
X55889006Y-89378314D01*
X55958314Y-89309006D01*
X56038831Y-89210896D01*
X56093287Y-89129397D01*
X56153119Y-89017460D01*
X56182432Y-88946691D01*
X64757000Y-88946691D01*
X64757000Y-91087250D01*
X64915750Y-91246000D01*
X65815000Y-91246000D01*
X65815000Y-88596750D01*
X65656250Y-88438000D01*
X65265690Y-88438000D01*
X65032301Y-88534673D01*
X64853673Y-88713302D01*
X64757000Y-88946691D01*
X56182432Y-88946691D01*
X56190628Y-88926904D01*
X56227470Y-88805451D01*
X56246592Y-88709318D01*
X56259032Y-88583009D01*
X56259032Y-88546106D01*
X56261440Y-88534000D01*
X56261440Y-88034000D01*
X56231603Y-87884000D01*
X56233245Y-87875745D01*
X58139861Y-87875745D01*
X58213995Y-88121864D01*
X58751223Y-88314965D01*
X59321454Y-88287778D01*
X59722005Y-88121864D01*
X59796139Y-87875745D01*
X58968000Y-87047605D01*
X58139861Y-87875745D01*
X56233245Y-87875745D01*
X56261440Y-87734000D01*
X56261440Y-87234000D01*
X56259032Y-87221894D01*
X56259032Y-87184991D01*
X56246592Y-87058682D01*
X56227470Y-86962549D01*
X56190628Y-86841096D01*
X56153119Y-86750540D01*
X56100033Y-86651223D01*
X57521035Y-86651223D01*
X57548222Y-87221454D01*
X57714136Y-87622005D01*
X57960255Y-87696139D01*
X58788395Y-86868000D01*
X57960255Y-86039861D01*
X57714136Y-86113995D01*
X57521035Y-86651223D01*
X56100033Y-86651223D01*
X56093287Y-86638603D01*
X56038831Y-86557104D01*
X55958314Y-86458994D01*
X55889006Y-86389686D01*
X55790896Y-86309169D01*
X55709397Y-86254713D01*
X55597460Y-86194881D01*
X55506904Y-86157372D01*
X55385451Y-86120530D01*
X55289318Y-86101408D01*
X55163009Y-86088968D01*
X55126106Y-86088968D01*
X55114000Y-86086560D01*
X54791361Y-86086560D01*
X54608000Y-85903199D01*
X54608000Y-85860255D01*
X58139861Y-85860255D01*
X58968000Y-86688395D01*
X59796139Y-85860255D01*
X59722005Y-85614136D01*
X59184777Y-85421035D01*
X58614546Y-85448222D01*
X58213995Y-85614136D01*
X58139861Y-85860255D01*
X54608000Y-85860255D01*
X54608000Y-82777440D01*
X54698000Y-82777440D01*
X54945765Y-82728157D01*
X55155809Y-82587809D01*
X55296157Y-82377765D01*
X55345440Y-82130000D01*
X55345440Y-80430000D01*
X55296157Y-80182235D01*
X55155809Y-79972191D01*
X54945765Y-79831843D01*
X54842292Y-79811261D01*
X55119645Y-79506924D01*
X55289476Y-79096890D01*
X55168155Y-78867000D01*
X53975000Y-78867000D01*
X53975000Y-78887000D01*
X53721000Y-78887000D01*
X53721000Y-78867000D01*
X52527845Y-78867000D01*
X52406524Y-79096890D01*
X52576355Y-79506924D01*
X52853708Y-79811261D01*
X52750235Y-79831843D01*
X52540191Y-79972191D01*
X52399843Y-80182235D01*
X52350560Y-80430000D01*
X51735000Y-80430000D01*
X51735000Y-78383110D01*
X52406524Y-78383110D01*
X52527845Y-78613000D01*
X53721000Y-78613000D01*
X53721000Y-77419181D01*
X53975000Y-77419181D01*
X53975000Y-78613000D01*
X55168155Y-78613000D01*
X55289476Y-78383110D01*
X55119645Y-77973076D01*
X54729358Y-77544817D01*
X54204892Y-77298514D01*
X53975000Y-77419181D01*
X53721000Y-77419181D01*
X53491108Y-77298514D01*
X52966642Y-77544817D01*
X52576355Y-77973076D01*
X52406524Y-78383110D01*
X51735000Y-78383110D01*
X51735000Y-76735000D01*
X94265000Y-76735000D01*
X94265001Y-125265000D01*
G36*
X74600060Y-112379000D02*
X74649343Y-112626765D01*
X74789691Y-112836809D01*
X74999735Y-112977157D01*
X75247500Y-113026440D01*
X77152500Y-113026440D01*
X77400265Y-112977157D01*
X77610309Y-112836809D01*
X77728509Y-112659912D01*
X78120590Y-112921891D01*
X78740000Y-113045100D01*
X79193576Y-112954878D01*
X79352170Y-113113472D01*
X79394571Y-113176929D01*
X79458027Y-113219329D01*
X79601181Y-113314982D01*
X82425001Y-116138804D01*
X82425001Y-116331560D01*
X81390000Y-116331560D01*
X81142235Y-116380843D01*
X80932191Y-116521191D01*
X80791843Y-116731235D01*
X80744549Y-116969000D01*
X79523035Y-116969000D01*
X79448534Y-116789138D01*
X79044862Y-116385466D01*
X78537179Y-116175177D01*
X78571000Y-116093526D01*
X78571000Y-115554474D01*
X78364714Y-115056454D01*
X77983546Y-114675286D01*
X77485526Y-114469000D01*
X76946474Y-114469000D01*
X76448454Y-114675286D01*
X76067286Y-115056454D01*
X75946000Y-115349265D01*
X75824714Y-115056454D01*
X75443546Y-114675286D01*
X74945526Y-114469000D01*
X74406474Y-114469000D01*
X73908454Y-114675286D01*
X73527286Y-115056454D01*
X73412675Y-115333151D01*
X73323611Y-115118131D01*
X73085774Y-115053831D01*
X72315605Y-115824000D01*
X73085774Y-116594169D01*
X73323611Y-116529869D01*
X73405649Y-116297886D01*
X73527286Y-116591546D01*
X73908454Y-116972714D01*
X74406474Y-117179000D01*
X74945526Y-117179000D01*
X74953073Y-117175874D01*
X75863670Y-118086472D01*
X75906071Y-118149929D01*
X75969527Y-118192329D01*
X76157462Y-118317904D01*
X76205605Y-118327480D01*
X76379148Y-118362000D01*
X76379152Y-118362000D01*
X76454000Y-118376888D01*
X76528848Y-118362000D01*
X76993570Y-118362000D01*
X77015466Y-118414862D01*
X77419138Y-118818534D01*
X77946561Y-119037000D01*
X78517439Y-119037000D01*
X79044862Y-118818534D01*
X79374396Y-118489000D01*
X80744549Y-118489000D01*
X80791843Y-118726765D01*
X80932191Y-118936809D01*
X81142235Y-119077157D01*
X81390000Y-119126440D01*
X81712758Y-119126440D01*
X79679199Y-121160000D01*
X77239440Y-121160000D01*
X77239440Y-121020000D01*
X77190157Y-120772235D01*
X77049809Y-120562191D01*
X76839765Y-120421843D01*
X76592000Y-120372560D01*
X74792000Y-120372560D01*
X74544235Y-120421843D01*
X74334191Y-120562191D01*
X74201942Y-120760114D01*
X74167110Y-120725282D01*
X74052553Y-120839839D01*
X73966148Y-120583357D01*
X73392664Y-120373542D01*
X72782540Y-120399161D01*
X72337852Y-120583357D01*
X72251446Y-120839841D01*
X73152000Y-121740395D01*
X73166143Y-121726253D01*
X73345748Y-121905858D01*
X73331605Y-121920000D01*
X73345748Y-121934143D01*
X73166143Y-122113748D01*
X73152000Y-122099605D01*
X73137858Y-122113748D01*
X72958253Y-121934143D01*
X72972395Y-121920000D01*
X72071841Y-121019446D01*
X71815357Y-121105852D01*
X71705177Y-121407006D01*
X71649851Y-121396001D01*
X71649846Y-121396001D01*
X71574999Y-121381113D01*
X71500152Y-121396001D01*
X68822293Y-121396001D01*
X68828904Y-121380039D01*
X68706915Y-121158000D01*
X67564000Y-121158000D01*
X67564000Y-121178000D01*
X67310000Y-121178000D01*
X67310000Y-121158000D01*
X66167085Y-121158000D01*
X66045096Y-121380039D01*
X66051707Y-121396001D01*
X61219044Y-121396001D01*
X61252000Y-121316439D01*
X61252000Y-120745561D01*
X61225656Y-120681961D01*
X66045096Y-120681961D01*
X66167085Y-120904000D01*
X67310000Y-120904000D01*
X67310000Y-119760371D01*
X67564000Y-119760371D01*
X67564000Y-120904000D01*
X68706915Y-120904000D01*
X68828904Y-120681961D01*
X68668041Y-120293577D01*
X68292134Y-119878611D01*
X67786041Y-119639086D01*
X67564000Y-119760371D01*
X67310000Y-119760371D01*
X67087959Y-119639086D01*
X66581866Y-119878611D01*
X66205959Y-120293577D01*
X66045096Y-120681961D01*
X61225656Y-120681961D01*
X61033534Y-120218138D01*
X60629862Y-119814466D01*
X60102439Y-119596000D01*
X59531561Y-119596000D01*
X59004138Y-119814466D01*
X58600466Y-120218138D01*
X58578570Y-120271000D01*
X57972802Y-120271000D01*
X55656982Y-117955181D01*
X55561329Y-117812027D01*
X55518929Y-117748571D01*
X55455473Y-117706171D01*
X55368440Y-117619138D01*
X55368440Y-116141500D01*
X55319157Y-115893735D01*
X55178809Y-115683691D01*
X54968765Y-115543343D01*
X54721000Y-115494060D01*
X54369483Y-115494060D01*
X54268929Y-115343571D01*
X54205473Y-115301171D01*
X53432999Y-114528698D01*
X53432999Y-112683543D01*
X53701744Y-112737000D01*
X53994256Y-112737000D01*
X54214408Y-112693209D01*
X58555394Y-117034196D01*
X58465260Y-117169091D01*
X58353887Y-117729000D01*
X58465260Y-118288909D01*
X58782423Y-118763577D01*
X59257091Y-119080740D01*
X59675667Y-119164000D01*
X59958333Y-119164000D01*
X60376909Y-119080740D01*
X60851577Y-118763577D01*
X61168740Y-118288909D01*
X61280113Y-117729000D01*
X61168740Y-117169091D01*
X60851577Y-116694423D01*
X60376909Y-116377260D01*
X59966408Y-116295606D01*
X58719074Y-115048272D01*
X59150561Y-115227000D01*
X59721439Y-115227000D01*
X59774302Y-115205103D01*
X62782671Y-118213473D01*
X62825071Y-118276929D01*
X62888527Y-118319329D01*
X63076462Y-118444904D01*
X63124605Y-118454480D01*
X63298148Y-118489000D01*
X63298152Y-118489000D01*
X63373000Y-118503888D01*
X63447848Y-118489000D01*
X66198570Y-118489000D01*
X66220466Y-118541862D01*
X66624138Y-118945534D01*
X67151561Y-119164000D01*
X67722439Y-119164000D01*
X68249862Y-118945534D01*
X68653534Y-118541862D01*
X68872000Y-118014439D01*
X68872000Y-117951039D01*
X69220096Y-117951039D01*
X69380959Y-118339423D01*
X69756866Y-118754389D01*
X70262959Y-118993914D01*
X70485000Y-118872629D01*
X70485000Y-117729000D01*
X70739000Y-117729000D01*
X70739000Y-118872629D01*
X70961041Y-118993914D01*
X71467134Y-118754389D01*
X71843041Y-118339423D01*
X72003904Y-117951039D01*
X71881915Y-117729000D01*
X70739000Y-117729000D01*
X70485000Y-117729000D01*
X69342085Y-117729000D01*
X69220096Y-117951039D01*
X68872000Y-117951039D01*
X68872000Y-117443561D01*
X68850103Y-117390698D01*
X69426527Y-116814274D01*
X69380959Y-116864577D01*
X69220096Y-117252961D01*
X69342085Y-117475000D01*
X70485000Y-117475000D01*
X70485000Y-116331371D01*
X70262959Y-116210086D01*
X69822032Y-116418769D01*
X70853037Y-115387765D01*
X70768667Y-115626342D01*
X70797108Y-116164644D01*
X70842705Y-116274725D01*
X70739000Y-116331371D01*
X70739000Y-117475000D01*
X71881915Y-117475000D01*
X72003904Y-117252961D01*
X71977521Y-117189263D01*
X72476644Y-117162892D01*
X72841869Y-117011611D01*
X72906169Y-116773774D01*
X72136000Y-116003605D01*
X72121858Y-116017748D01*
X71942253Y-115838143D01*
X71956395Y-115824000D01*
X71942253Y-115809858D01*
X72121858Y-115630253D01*
X72136000Y-115644395D01*
X72906169Y-114874226D01*
X72841869Y-114636389D01*
X72333658Y-114456667D01*
X71795356Y-114485108D01*
X71727648Y-114513154D01*
X74101802Y-112139000D01*
X74600060Y-112139000D01*
X74600060Y-112379000D01*
X74600060Y-112379000D01*
G37*
X74600060Y-112379000D02*
X74649343Y-112626765D01*
X74789691Y-112836809D01*
X74999735Y-112977157D01*
X75247500Y-113026440D01*
X77152500Y-113026440D01*
X77400265Y-112977157D01*
X77610309Y-112836809D01*
X77728509Y-112659912D01*
X78120590Y-112921891D01*
X78740000Y-113045100D01*
X79193576Y-112954878D01*
X79352170Y-113113472D01*
X79394571Y-113176929D01*
X79458027Y-113219329D01*
X79601181Y-113314982D01*
X82425001Y-116138804D01*
X82425001Y-116331560D01*
X81390000Y-116331560D01*
X81142235Y-116380843D01*
X80932191Y-116521191D01*
X80791843Y-116731235D01*
X80744549Y-116969000D01*
X79523035Y-116969000D01*
X79448534Y-116789138D01*
X79044862Y-116385466D01*
X78537179Y-116175177D01*
X78571000Y-116093526D01*
X78571000Y-115554474D01*
X78364714Y-115056454D01*
X77983546Y-114675286D01*
X77485526Y-114469000D01*
X76946474Y-114469000D01*
X76448454Y-114675286D01*
X76067286Y-115056454D01*
X75946000Y-115349265D01*
X75824714Y-115056454D01*
X75443546Y-114675286D01*
X74945526Y-114469000D01*
X74406474Y-114469000D01*
X73908454Y-114675286D01*
X73527286Y-115056454D01*
X73412675Y-115333151D01*
X73323611Y-115118131D01*
X73085774Y-115053831D01*
X72315605Y-115824000D01*
X73085774Y-116594169D01*
X73323611Y-116529869D01*
X73405649Y-116297886D01*
X73527286Y-116591546D01*
X73908454Y-116972714D01*
X74406474Y-117179000D01*
X74945526Y-117179000D01*
X74953073Y-117175874D01*
X75863670Y-118086472D01*
X75906071Y-118149929D01*
X75969527Y-118192329D01*
X76157462Y-118317904D01*
X76205605Y-118327480D01*
X76379148Y-118362000D01*
X76379152Y-118362000D01*
X76454000Y-118376888D01*
X76528848Y-118362000D01*
X76993570Y-118362000D01*
X77015466Y-118414862D01*
X77419138Y-118818534D01*
X77946561Y-119037000D01*
X78517439Y-119037000D01*
X79044862Y-118818534D01*
X79374396Y-118489000D01*
X80744549Y-118489000D01*
X80791843Y-118726765D01*
X80932191Y-118936809D01*
X81142235Y-119077157D01*
X81390000Y-119126440D01*
X81712758Y-119126440D01*
X79679199Y-121160000D01*
X77239440Y-121160000D01*
X77239440Y-121020000D01*
X77190157Y-120772235D01*
X77049809Y-120562191D01*
X76839765Y-120421843D01*
X76592000Y-120372560D01*
X74792000Y-120372560D01*
X74544235Y-120421843D01*
X74334191Y-120562191D01*
X74201942Y-120760114D01*
X74167110Y-120725282D01*
X74052553Y-120839839D01*
X73966148Y-120583357D01*
X73392664Y-120373542D01*
X72782540Y-120399161D01*
X72337852Y-120583357D01*
X72251446Y-120839841D01*
X73152000Y-121740395D01*
X73166143Y-121726253D01*
X73345748Y-121905858D01*
X73331605Y-121920000D01*
X73345748Y-121934143D01*
X73166143Y-122113748D01*
X73152000Y-122099605D01*
X73137858Y-122113748D01*
X72958253Y-121934143D01*
X72972395Y-121920000D01*
X72071841Y-121019446D01*
X71815357Y-121105852D01*
X71705177Y-121407006D01*
X71649851Y-121396001D01*
X71649846Y-121396001D01*
X71574999Y-121381113D01*
X71500152Y-121396001D01*
X68822293Y-121396001D01*
X68828904Y-121380039D01*
X68706915Y-121158000D01*
X67564000Y-121158000D01*
X67564000Y-121178000D01*
X67310000Y-121178000D01*
X67310000Y-121158000D01*
X66167085Y-121158000D01*
X66045096Y-121380039D01*
X66051707Y-121396001D01*
X61219044Y-121396001D01*
X61252000Y-121316439D01*
X61252000Y-120745561D01*
X61225656Y-120681961D01*
X66045096Y-120681961D01*
X66167085Y-120904000D01*
X67310000Y-120904000D01*
X67310000Y-119760371D01*
X67564000Y-119760371D01*
X67564000Y-120904000D01*
X68706915Y-120904000D01*
X68828904Y-120681961D01*
X68668041Y-120293577D01*
X68292134Y-119878611D01*
X67786041Y-119639086D01*
X67564000Y-119760371D01*
X67310000Y-119760371D01*
X67087959Y-119639086D01*
X66581866Y-119878611D01*
X66205959Y-120293577D01*
X66045096Y-120681961D01*
X61225656Y-120681961D01*
X61033534Y-120218138D01*
X60629862Y-119814466D01*
X60102439Y-119596000D01*
X59531561Y-119596000D01*
X59004138Y-119814466D01*
X58600466Y-120218138D01*
X58578570Y-120271000D01*
X57972802Y-120271000D01*
X55656982Y-117955181D01*
X55561329Y-117812027D01*
X55518929Y-117748571D01*
X55455473Y-117706171D01*
X55368440Y-117619138D01*
X55368440Y-116141500D01*
X55319157Y-115893735D01*
X55178809Y-115683691D01*
X54968765Y-115543343D01*
X54721000Y-115494060D01*
X54369483Y-115494060D01*
X54268929Y-115343571D01*
X54205473Y-115301171D01*
X53432999Y-114528698D01*
X53432999Y-112683543D01*
X53701744Y-112737000D01*
X53994256Y-112737000D01*
X54214408Y-112693209D01*
X58555394Y-117034196D01*
X58465260Y-117169091D01*
X58353887Y-117729000D01*
X58465260Y-118288909D01*
X58782423Y-118763577D01*
X59257091Y-119080740D01*
X59675667Y-119164000D01*
X59958333Y-119164000D01*
X60376909Y-119080740D01*
X60851577Y-118763577D01*
X61168740Y-118288909D01*
X61280113Y-117729000D01*
X61168740Y-117169091D01*
X60851577Y-116694423D01*
X60376909Y-116377260D01*
X59966408Y-116295606D01*
X58719074Y-115048272D01*
X59150561Y-115227000D01*
X59721439Y-115227000D01*
X59774302Y-115205103D01*
X62782671Y-118213473D01*
X62825071Y-118276929D01*
X62888527Y-118319329D01*
X63076462Y-118444904D01*
X63124605Y-118454480D01*
X63298148Y-118489000D01*
X63298152Y-118489000D01*
X63373000Y-118503888D01*
X63447848Y-118489000D01*
X66198570Y-118489000D01*
X66220466Y-118541862D01*
X66624138Y-118945534D01*
X67151561Y-119164000D01*
X67722439Y-119164000D01*
X68249862Y-118945534D01*
X68653534Y-118541862D01*
X68872000Y-118014439D01*
X68872000Y-117951039D01*
X69220096Y-117951039D01*
X69380959Y-118339423D01*
X69756866Y-118754389D01*
X70262959Y-118993914D01*
X70485000Y-118872629D01*
X70485000Y-117729000D01*
X70739000Y-117729000D01*
X70739000Y-118872629D01*
X70961041Y-118993914D01*
X71467134Y-118754389D01*
X71843041Y-118339423D01*
X72003904Y-117951039D01*
X71881915Y-117729000D01*
X70739000Y-117729000D01*
X70485000Y-117729000D01*
X69342085Y-117729000D01*
X69220096Y-117951039D01*
X68872000Y-117951039D01*
X68872000Y-117443561D01*
X68850103Y-117390698D01*
X69426527Y-116814274D01*
X69380959Y-116864577D01*
X69220096Y-117252961D01*
X69342085Y-117475000D01*
X70485000Y-117475000D01*
X70485000Y-116331371D01*
X70262959Y-116210086D01*
X69822032Y-116418769D01*
X70853037Y-115387765D01*
X70768667Y-115626342D01*
X70797108Y-116164644D01*
X70842705Y-116274725D01*
X70739000Y-116331371D01*
X70739000Y-117475000D01*
X71881915Y-117475000D01*
X72003904Y-117252961D01*
X71977521Y-117189263D01*
X72476644Y-117162892D01*
X72841869Y-117011611D01*
X72906169Y-116773774D01*
X72136000Y-116003605D01*
X72121858Y-116017748D01*
X71942253Y-115838143D01*
X71956395Y-115824000D01*
X71942253Y-115809858D01*
X72121858Y-115630253D01*
X72136000Y-115644395D01*
X72906169Y-114874226D01*
X72841869Y-114636389D01*
X72333658Y-114456667D01*
X71795356Y-114485108D01*
X71727648Y-114513154D01*
X74101802Y-112139000D01*
X74600060Y-112139000D01*
X74600060Y-112379000D01*
G04 #@! TO.N,Net-(C3-Pad1)*
G36*
X90850152Y-81849840D02*
X89672300Y-81678325D01*
X89622814Y-81680889D01*
X89578075Y-81702194D01*
X89544895Y-81738999D01*
X89530735Y-81773428D01*
X89030735Y-83789428D01*
X89027624Y-83807426D01*
X88886427Y-85226509D01*
X88836682Y-85231408D01*
X88740549Y-85250530D01*
X88619096Y-85287372D01*
X88528540Y-85324881D01*
X88416603Y-85384713D01*
X88335104Y-85439169D01*
X88236994Y-85519686D01*
X88167686Y-85588994D01*
X88087169Y-85687104D01*
X88032713Y-85768603D01*
X87972881Y-85880540D01*
X87935372Y-85971096D01*
X87898530Y-86092549D01*
X87879408Y-86188682D01*
X87866968Y-86314991D01*
X87866968Y-86351894D01*
X87864560Y-86364000D01*
X87864560Y-86487000D01*
X85916076Y-86487000D01*
X85116214Y-85926366D01*
X84718297Y-83609309D01*
X87945752Y-80381854D01*
X90571013Y-79904534D01*
X90850152Y-81849840D01*
X90850152Y-81849840D01*
G37*
X90850152Y-81849840D02*
X89672300Y-81678325D01*
X89622814Y-81680889D01*
X89578075Y-81702194D01*
X89544895Y-81738999D01*
X89530735Y-81773428D01*
X89030735Y-83789428D01*
X89027624Y-83807426D01*
X88886427Y-85226509D01*
X88836682Y-85231408D01*
X88740549Y-85250530D01*
X88619096Y-85287372D01*
X88528540Y-85324881D01*
X88416603Y-85384713D01*
X88335104Y-85439169D01*
X88236994Y-85519686D01*
X88167686Y-85588994D01*
X88087169Y-85687104D01*
X88032713Y-85768603D01*
X87972881Y-85880540D01*
X87935372Y-85971096D01*
X87898530Y-86092549D01*
X87879408Y-86188682D01*
X87866968Y-86314991D01*
X87866968Y-86351894D01*
X87864560Y-86364000D01*
X87864560Y-86487000D01*
X85916076Y-86487000D01*
X85116214Y-85926366D01*
X84718297Y-83609309D01*
X87945752Y-80381854D01*
X90571013Y-79904534D01*
X90850152Y-81849840D01*
G04 #@! TD*
M02*
