G04 #@! TF.GenerationSoftware,KiCad,Pcbnew,(5.0.2)-1*
G04 #@! TF.CreationDate,2019-04-30T14:20:18-04:00*
G04 #@! TF.ProjectId,_saved__saved_tDCS,5f736176-6564-45f5-9f73-617665645f74,rev?*
G04 #@! TF.SameCoordinates,Original*
G04 #@! TF.FileFunction,Paste,Bot*
G04 #@! TF.FilePolarity,Positive*
%FSLAX46Y46*%
G04 Gerber Fmt 4.6, Leading zero omitted, Abs format (unit mm)*
G04 Created by KiCad (PCBNEW (5.0.2)-1) date 4/30/2019 2:20:18 PM*
%MOMM*%
%LPD*%
G01*
G04 APERTURE LIST*
%ADD10C,0.100000*%
%ADD11C,0.975000*%
G04 APERTURE END LIST*
D10*
G04 #@! TO.C,C8*
G36*
X250480142Y-88051174D02*
X250503803Y-88054684D01*
X250527007Y-88060496D01*
X250549529Y-88068554D01*
X250571153Y-88078782D01*
X250591670Y-88091079D01*
X250610883Y-88105329D01*
X250628607Y-88121393D01*
X250644671Y-88139117D01*
X250658921Y-88158330D01*
X250671218Y-88178847D01*
X250681446Y-88200471D01*
X250689504Y-88222993D01*
X250695316Y-88246197D01*
X250698826Y-88269858D01*
X250700000Y-88293750D01*
X250700000Y-89206250D01*
X250698826Y-89230142D01*
X250695316Y-89253803D01*
X250689504Y-89277007D01*
X250681446Y-89299529D01*
X250671218Y-89321153D01*
X250658921Y-89341670D01*
X250644671Y-89360883D01*
X250628607Y-89378607D01*
X250610883Y-89394671D01*
X250591670Y-89408921D01*
X250571153Y-89421218D01*
X250549529Y-89431446D01*
X250527007Y-89439504D01*
X250503803Y-89445316D01*
X250480142Y-89448826D01*
X250456250Y-89450000D01*
X249968750Y-89450000D01*
X249944858Y-89448826D01*
X249921197Y-89445316D01*
X249897993Y-89439504D01*
X249875471Y-89431446D01*
X249853847Y-89421218D01*
X249833330Y-89408921D01*
X249814117Y-89394671D01*
X249796393Y-89378607D01*
X249780329Y-89360883D01*
X249766079Y-89341670D01*
X249753782Y-89321153D01*
X249743554Y-89299529D01*
X249735496Y-89277007D01*
X249729684Y-89253803D01*
X249726174Y-89230142D01*
X249725000Y-89206250D01*
X249725000Y-88293750D01*
X249726174Y-88269858D01*
X249729684Y-88246197D01*
X249735496Y-88222993D01*
X249743554Y-88200471D01*
X249753782Y-88178847D01*
X249766079Y-88158330D01*
X249780329Y-88139117D01*
X249796393Y-88121393D01*
X249814117Y-88105329D01*
X249833330Y-88091079D01*
X249853847Y-88078782D01*
X249875471Y-88068554D01*
X249897993Y-88060496D01*
X249921197Y-88054684D01*
X249944858Y-88051174D01*
X249968750Y-88050000D01*
X250456250Y-88050000D01*
X250480142Y-88051174D01*
X250480142Y-88051174D01*
G37*
D11*
X250212500Y-88750000D03*
D10*
G36*
X252355142Y-88051174D02*
X252378803Y-88054684D01*
X252402007Y-88060496D01*
X252424529Y-88068554D01*
X252446153Y-88078782D01*
X252466670Y-88091079D01*
X252485883Y-88105329D01*
X252503607Y-88121393D01*
X252519671Y-88139117D01*
X252533921Y-88158330D01*
X252546218Y-88178847D01*
X252556446Y-88200471D01*
X252564504Y-88222993D01*
X252570316Y-88246197D01*
X252573826Y-88269858D01*
X252575000Y-88293750D01*
X252575000Y-89206250D01*
X252573826Y-89230142D01*
X252570316Y-89253803D01*
X252564504Y-89277007D01*
X252556446Y-89299529D01*
X252546218Y-89321153D01*
X252533921Y-89341670D01*
X252519671Y-89360883D01*
X252503607Y-89378607D01*
X252485883Y-89394671D01*
X252466670Y-89408921D01*
X252446153Y-89421218D01*
X252424529Y-89431446D01*
X252402007Y-89439504D01*
X252378803Y-89445316D01*
X252355142Y-89448826D01*
X252331250Y-89450000D01*
X251843750Y-89450000D01*
X251819858Y-89448826D01*
X251796197Y-89445316D01*
X251772993Y-89439504D01*
X251750471Y-89431446D01*
X251728847Y-89421218D01*
X251708330Y-89408921D01*
X251689117Y-89394671D01*
X251671393Y-89378607D01*
X251655329Y-89360883D01*
X251641079Y-89341670D01*
X251628782Y-89321153D01*
X251618554Y-89299529D01*
X251610496Y-89277007D01*
X251604684Y-89253803D01*
X251601174Y-89230142D01*
X251600000Y-89206250D01*
X251600000Y-88293750D01*
X251601174Y-88269858D01*
X251604684Y-88246197D01*
X251610496Y-88222993D01*
X251618554Y-88200471D01*
X251628782Y-88178847D01*
X251641079Y-88158330D01*
X251655329Y-88139117D01*
X251671393Y-88121393D01*
X251689117Y-88105329D01*
X251708330Y-88091079D01*
X251728847Y-88078782D01*
X251750471Y-88068554D01*
X251772993Y-88060496D01*
X251796197Y-88054684D01*
X251819858Y-88051174D01*
X251843750Y-88050000D01*
X252331250Y-88050000D01*
X252355142Y-88051174D01*
X252355142Y-88051174D01*
G37*
D11*
X252087500Y-88750000D03*
G04 #@! TD*
M02*
