G04 #@! TF.GenerationSoftware,KiCad,Pcbnew,(5.0.2)-1*
G04 #@! TF.CreationDate,2019-04-30T14:20:18-04:00*
G04 #@! TF.ProjectId,_saved__saved_tDCS,5f736176-6564-45f5-9f73-617665645f74,rev?*
G04 #@! TF.SameCoordinates,Original*
G04 #@! TF.FileFunction,Soldermask,Bot*
G04 #@! TF.FilePolarity,Negative*
%FSLAX46Y46*%
G04 Gerber Fmt 4.6, Leading zero omitted, Abs format (unit mm)*
G04 Created by KiCad (PCBNEW (5.0.2)-1) date 4/30/2019 2:20:18 PM*
%MOMM*%
%LPD*%
G01*
G04 APERTURE LIST*
%ADD10C,0.150000*%
%ADD11C,0.100000*%
G04 APERTURE END LIST*
D10*
G36*
X213614000Y-99568000D02*
X216662000Y-99568000D01*
X216662000Y-100584000D01*
X219710000Y-100584000D01*
X219710000Y-101854000D01*
X213614000Y-101854000D01*
X213614000Y-99568000D01*
G37*
X213614000Y-99568000D02*
X216662000Y-99568000D01*
X216662000Y-100584000D01*
X219710000Y-100584000D01*
X219710000Y-101854000D01*
X213614000Y-101854000D01*
X213614000Y-99568000D01*
D11*
G36*
X245029196Y-119374958D02*
X245265780Y-119472954D01*
X245478705Y-119615226D01*
X245659774Y-119796295D01*
X245802046Y-120009220D01*
X245900042Y-120245804D01*
X245950000Y-120496960D01*
X245950000Y-120753040D01*
X245900042Y-121004196D01*
X245802046Y-121240780D01*
X245659774Y-121453705D01*
X245478705Y-121634774D01*
X245265780Y-121777046D01*
X245029196Y-121875042D01*
X244778040Y-121925000D01*
X244521960Y-121925000D01*
X244270804Y-121875042D01*
X244034220Y-121777046D01*
X243821295Y-121634774D01*
X243640226Y-121453705D01*
X243497954Y-121240780D01*
X243399958Y-121004196D01*
X243350000Y-120753040D01*
X243350000Y-120496960D01*
X243399958Y-120245804D01*
X243497954Y-120009220D01*
X243640226Y-119796295D01*
X243821295Y-119615226D01*
X244034220Y-119472954D01*
X244270804Y-119374958D01*
X244521960Y-119325000D01*
X244778040Y-119325000D01*
X245029196Y-119374958D01*
X245029196Y-119374958D01*
G37*
G36*
X217029196Y-119374958D02*
X217265780Y-119472954D01*
X217478705Y-119615226D01*
X217659774Y-119796295D01*
X217802046Y-120009220D01*
X217900042Y-120245804D01*
X217950000Y-120496960D01*
X217950000Y-120753040D01*
X217900042Y-121004196D01*
X217802046Y-121240780D01*
X217659774Y-121453705D01*
X217478705Y-121634774D01*
X217265780Y-121777046D01*
X217029196Y-121875042D01*
X216778040Y-121925000D01*
X216521960Y-121925000D01*
X216270804Y-121875042D01*
X216034220Y-121777046D01*
X215821295Y-121634774D01*
X215640226Y-121453705D01*
X215497954Y-121240780D01*
X215399958Y-121004196D01*
X215350000Y-120753040D01*
X215350000Y-120496960D01*
X215399958Y-120245804D01*
X215497954Y-120009220D01*
X215640226Y-119796295D01*
X215821295Y-119615226D01*
X216034220Y-119472954D01*
X216270804Y-119374958D01*
X216521960Y-119325000D01*
X216778040Y-119325000D01*
X217029196Y-119374958D01*
X217029196Y-119374958D01*
G37*
G36*
X233303778Y-118261879D02*
X233549466Y-118363646D01*
X233770578Y-118511389D01*
X233958611Y-118699422D01*
X234106354Y-118920534D01*
X234208121Y-119166222D01*
X234260000Y-119427035D01*
X234260000Y-119692965D01*
X234208121Y-119953778D01*
X234106354Y-120199466D01*
X233958611Y-120420578D01*
X233770578Y-120608611D01*
X233549466Y-120756354D01*
X233303778Y-120858121D01*
X233042965Y-120910000D01*
X232777035Y-120910000D01*
X232516222Y-120858121D01*
X232270534Y-120756354D01*
X232049422Y-120608611D01*
X231861389Y-120420578D01*
X231713646Y-120199466D01*
X231611879Y-119953778D01*
X231560000Y-119692965D01*
X231560000Y-119427035D01*
X231611879Y-119166222D01*
X231713646Y-118920534D01*
X231861389Y-118699422D01*
X232049422Y-118511389D01*
X232270534Y-118363646D01*
X232516222Y-118261879D01*
X232777035Y-118210000D01*
X233042965Y-118210000D01*
X233303778Y-118261879D01*
X233303778Y-118261879D01*
G37*
G36*
X255890935Y-114413429D02*
X255987534Y-114432644D01*
X256260517Y-114545717D01*
X256381150Y-114626322D01*
X256506197Y-114709876D01*
X256715124Y-114918803D01*
X256715126Y-114918806D01*
X256879283Y-115164483D01*
X256973395Y-115391689D01*
X256992356Y-115437467D01*
X257050000Y-115727261D01*
X257050000Y-116022739D01*
X256992356Y-116312533D01*
X256879284Y-116585515D01*
X256715124Y-116831197D01*
X256506197Y-117040124D01*
X256506194Y-117040126D01*
X256260517Y-117204283D01*
X255987534Y-117317356D01*
X255890935Y-117336571D01*
X255697739Y-117375000D01*
X255402261Y-117375000D01*
X255209065Y-117336571D01*
X255112466Y-117317356D01*
X254839483Y-117204283D01*
X254593806Y-117040126D01*
X254593803Y-117040124D01*
X254384876Y-116831197D01*
X254220716Y-116585515D01*
X254107644Y-116312533D01*
X254050000Y-116022739D01*
X254050000Y-115727261D01*
X254107644Y-115437467D01*
X254126606Y-115391689D01*
X254220717Y-115164483D01*
X254384874Y-114918806D01*
X254384876Y-114918803D01*
X254593803Y-114709876D01*
X254718850Y-114626322D01*
X254839483Y-114545717D01*
X255112466Y-114432644D01*
X255209065Y-114413429D01*
X255402261Y-114375000D01*
X255697739Y-114375000D01*
X255890935Y-114413429D01*
X255890935Y-114413429D01*
G37*
G36*
X223500770Y-114115372D02*
X223616689Y-114138429D01*
X223798678Y-114213811D01*
X223962463Y-114323249D01*
X224101751Y-114462537D01*
X224211189Y-114626322D01*
X224286571Y-114808311D01*
X224325000Y-115001509D01*
X224325000Y-115198491D01*
X224286571Y-115391689D01*
X224211189Y-115573678D01*
X224101751Y-115737463D01*
X223962463Y-115876751D01*
X223798678Y-115986189D01*
X223616689Y-116061571D01*
X223500770Y-116084628D01*
X223423493Y-116100000D01*
X223226507Y-116100000D01*
X223149230Y-116084628D01*
X223033311Y-116061571D01*
X222851322Y-115986189D01*
X222687537Y-115876751D01*
X222548249Y-115737463D01*
X222438811Y-115573678D01*
X222363429Y-115391689D01*
X222325000Y-115198491D01*
X222325000Y-115001509D01*
X222363429Y-114808311D01*
X222438811Y-114626322D01*
X222548249Y-114462537D01*
X222687537Y-114323249D01*
X222851322Y-114213811D01*
X223033311Y-114138429D01*
X223149230Y-114115372D01*
X223226507Y-114100000D01*
X223423493Y-114100000D01*
X223500770Y-114115372D01*
X223500770Y-114115372D01*
G37*
G36*
X235330000Y-114520000D02*
X233730000Y-114520000D01*
X233730000Y-112920000D01*
X235330000Y-112920000D01*
X235330000Y-114520000D01*
X235330000Y-114520000D01*
G37*
G36*
X258537649Y-111937717D02*
X258576827Y-111941576D01*
X258652228Y-111964449D01*
X258727629Y-111987321D01*
X258866608Y-112061608D01*
X258988422Y-112161578D01*
X259088392Y-112283392D01*
X259162679Y-112422371D01*
X259208424Y-112573174D01*
X259223870Y-112730000D01*
X259208424Y-112886826D01*
X259162679Y-113037629D01*
X259088392Y-113176608D01*
X258988422Y-113298422D01*
X258866608Y-113398392D01*
X258727629Y-113472679D01*
X258652228Y-113495551D01*
X258576827Y-113518424D01*
X258537649Y-113522283D01*
X258459295Y-113530000D01*
X258380705Y-113530000D01*
X258302351Y-113522283D01*
X258263173Y-113518424D01*
X258187772Y-113495551D01*
X258112371Y-113472679D01*
X257973392Y-113398392D01*
X257851578Y-113298422D01*
X257751608Y-113176608D01*
X257677321Y-113037629D01*
X257631576Y-112886826D01*
X257616130Y-112730000D01*
X257631576Y-112573174D01*
X257677321Y-112422371D01*
X257751608Y-112283392D01*
X257851578Y-112161578D01*
X257973392Y-112061608D01*
X258112371Y-111987321D01*
X258187772Y-111964449D01*
X258263173Y-111941576D01*
X258302351Y-111937717D01*
X258380705Y-111930000D01*
X258459295Y-111930000D01*
X258537649Y-111937717D01*
X258537649Y-111937717D01*
G37*
G36*
X243297649Y-111937717D02*
X243336827Y-111941576D01*
X243412228Y-111964449D01*
X243487629Y-111987321D01*
X243626608Y-112061608D01*
X243748422Y-112161578D01*
X243848392Y-112283392D01*
X243922679Y-112422371D01*
X243968424Y-112573174D01*
X243983870Y-112730000D01*
X243968424Y-112886826D01*
X243922679Y-113037629D01*
X243848392Y-113176608D01*
X243748422Y-113298422D01*
X243626608Y-113398392D01*
X243487629Y-113472679D01*
X243412228Y-113495551D01*
X243336827Y-113518424D01*
X243297649Y-113522283D01*
X243219295Y-113530000D01*
X243140705Y-113530000D01*
X243062351Y-113522283D01*
X243023173Y-113518424D01*
X242947772Y-113495551D01*
X242872371Y-113472679D01*
X242733392Y-113398392D01*
X242611578Y-113298422D01*
X242511608Y-113176608D01*
X242437321Y-113037629D01*
X242391576Y-112886826D01*
X242376130Y-112730000D01*
X242391576Y-112573174D01*
X242437321Y-112422371D01*
X242511608Y-112283392D01*
X242611578Y-112161578D01*
X242733392Y-112061608D01*
X242872371Y-111987321D01*
X242947772Y-111964449D01*
X243023173Y-111941576D01*
X243062351Y-111937717D01*
X243140705Y-111930000D01*
X243219295Y-111930000D01*
X243297649Y-111937717D01*
X243297649Y-111937717D01*
G37*
G36*
X224325000Y-111100000D02*
X222325000Y-111100000D01*
X222325000Y-109100000D01*
X224325000Y-109100000D01*
X224325000Y-111100000D01*
X224325000Y-111100000D01*
G37*
G36*
X243297649Y-109397717D02*
X243336827Y-109401576D01*
X243412227Y-109424448D01*
X243487629Y-109447321D01*
X243626608Y-109521608D01*
X243748422Y-109621578D01*
X243848392Y-109743392D01*
X243922679Y-109882371D01*
X243968424Y-110033174D01*
X243983870Y-110190000D01*
X243968424Y-110346826D01*
X243922679Y-110497629D01*
X243848392Y-110636608D01*
X243748422Y-110758422D01*
X243626608Y-110858392D01*
X243487629Y-110932679D01*
X243412227Y-110955552D01*
X243336827Y-110978424D01*
X243297649Y-110982283D01*
X243219295Y-110990000D01*
X243140705Y-110990000D01*
X243062351Y-110982283D01*
X243023173Y-110978424D01*
X242947772Y-110955551D01*
X242872371Y-110932679D01*
X242733392Y-110858392D01*
X242611578Y-110758422D01*
X242511608Y-110636608D01*
X242437321Y-110497629D01*
X242391576Y-110346826D01*
X242376130Y-110190000D01*
X242391576Y-110033174D01*
X242437321Y-109882371D01*
X242511608Y-109743392D01*
X242611578Y-109621578D01*
X242733392Y-109521608D01*
X242872371Y-109447321D01*
X242947773Y-109424448D01*
X243023173Y-109401576D01*
X243062351Y-109397717D01*
X243140705Y-109390000D01*
X243219295Y-109390000D01*
X243297649Y-109397717D01*
X243297649Y-109397717D01*
G37*
G36*
X258537649Y-109397717D02*
X258576827Y-109401576D01*
X258652227Y-109424448D01*
X258727629Y-109447321D01*
X258866608Y-109521608D01*
X258988422Y-109621578D01*
X259088392Y-109743392D01*
X259162679Y-109882371D01*
X259208424Y-110033174D01*
X259223870Y-110190000D01*
X259208424Y-110346826D01*
X259162679Y-110497629D01*
X259088392Y-110636608D01*
X258988422Y-110758422D01*
X258866608Y-110858392D01*
X258727629Y-110932679D01*
X258652227Y-110955552D01*
X258576827Y-110978424D01*
X258537649Y-110982283D01*
X258459295Y-110990000D01*
X258380705Y-110990000D01*
X258302351Y-110982283D01*
X258263173Y-110978424D01*
X258187772Y-110955551D01*
X258112371Y-110932679D01*
X257973392Y-110858392D01*
X257851578Y-110758422D01*
X257751608Y-110636608D01*
X257677321Y-110497629D01*
X257631576Y-110346826D01*
X257616130Y-110190000D01*
X257631576Y-110033174D01*
X257677321Y-109882371D01*
X257751608Y-109743392D01*
X257851578Y-109621578D01*
X257973392Y-109521608D01*
X258112371Y-109447321D01*
X258187773Y-109424448D01*
X258263173Y-109401576D01*
X258302351Y-109397717D01*
X258380705Y-109390000D01*
X258459295Y-109390000D01*
X258537649Y-109397717D01*
X258537649Y-109397717D01*
G37*
G36*
X206571318Y-109464411D02*
X206643767Y-109478822D01*
X206700303Y-109502240D01*
X206780257Y-109535358D01*
X206903100Y-109617439D01*
X207007561Y-109721900D01*
X207089642Y-109844743D01*
X207105228Y-109882371D01*
X207146178Y-109981233D01*
X207156510Y-110033174D01*
X207175000Y-110126130D01*
X207175000Y-110273870D01*
X207146178Y-110418766D01*
X207089642Y-110555257D01*
X207007561Y-110678100D01*
X206903100Y-110782561D01*
X206780257Y-110864642D01*
X206700303Y-110897760D01*
X206643767Y-110921178D01*
X206571318Y-110935589D01*
X206498870Y-110950000D01*
X206351130Y-110950000D01*
X206278682Y-110935589D01*
X206206233Y-110921178D01*
X206149697Y-110897760D01*
X206069743Y-110864642D01*
X205946900Y-110782561D01*
X205842439Y-110678100D01*
X205760358Y-110555257D01*
X205703822Y-110418766D01*
X205675000Y-110273870D01*
X205675000Y-110126130D01*
X205693490Y-110033174D01*
X205703822Y-109981233D01*
X205744772Y-109882371D01*
X205760358Y-109844743D01*
X205842439Y-109721900D01*
X205946900Y-109617439D01*
X206069743Y-109535358D01*
X206149697Y-109502240D01*
X206206233Y-109478822D01*
X206278682Y-109464411D01*
X206351130Y-109450000D01*
X206498870Y-109450000D01*
X206571318Y-109464411D01*
X206571318Y-109464411D01*
G37*
G36*
X213571318Y-109464411D02*
X213643767Y-109478822D01*
X213700303Y-109502240D01*
X213780257Y-109535358D01*
X213903100Y-109617439D01*
X214007561Y-109721900D01*
X214089642Y-109844743D01*
X214105228Y-109882371D01*
X214146178Y-109981233D01*
X214156510Y-110033174D01*
X214175000Y-110126130D01*
X214175000Y-110273870D01*
X214146178Y-110418766D01*
X214089642Y-110555257D01*
X214007561Y-110678100D01*
X213903100Y-110782561D01*
X213780257Y-110864642D01*
X213700303Y-110897760D01*
X213643767Y-110921178D01*
X213571318Y-110935589D01*
X213498870Y-110950000D01*
X213351130Y-110950000D01*
X213278682Y-110935589D01*
X213206233Y-110921178D01*
X213149697Y-110897760D01*
X213069743Y-110864642D01*
X212946900Y-110782561D01*
X212842439Y-110678100D01*
X212760358Y-110555257D01*
X212703822Y-110418766D01*
X212675000Y-110273870D01*
X212675000Y-110126130D01*
X212693490Y-110033174D01*
X212703822Y-109981233D01*
X212744772Y-109882371D01*
X212760358Y-109844743D01*
X212842439Y-109721900D01*
X212946900Y-109617439D01*
X213069743Y-109535358D01*
X213149697Y-109502240D01*
X213206233Y-109478822D01*
X213278682Y-109464411D01*
X213351130Y-109450000D01*
X213498870Y-109450000D01*
X213571318Y-109464411D01*
X213571318Y-109464411D01*
G37*
G36*
X225700000Y-108775000D02*
X216650000Y-108775000D01*
X216625000Y-105950000D01*
X225700000Y-105950000D01*
X225700000Y-108775000D01*
X225700000Y-108775000D01*
G37*
G36*
X258537649Y-106857717D02*
X258576827Y-106861576D01*
X258652228Y-106884449D01*
X258727629Y-106907321D01*
X258866608Y-106981608D01*
X258988422Y-107081578D01*
X259088392Y-107203392D01*
X259162679Y-107342371D01*
X259208424Y-107493174D01*
X259223870Y-107650000D01*
X259208424Y-107806826D01*
X259162679Y-107957629D01*
X259088392Y-108096608D01*
X258988422Y-108218422D01*
X258866608Y-108318392D01*
X258727629Y-108392679D01*
X258652228Y-108415551D01*
X258576827Y-108438424D01*
X258537649Y-108442283D01*
X258459295Y-108450000D01*
X258380705Y-108450000D01*
X258302351Y-108442283D01*
X258263173Y-108438424D01*
X258187772Y-108415551D01*
X258112371Y-108392679D01*
X257973392Y-108318392D01*
X257851578Y-108218422D01*
X257751608Y-108096608D01*
X257677321Y-107957629D01*
X257631576Y-107806826D01*
X257616130Y-107650000D01*
X257631576Y-107493174D01*
X257677321Y-107342371D01*
X257751608Y-107203392D01*
X257851578Y-107081578D01*
X257973392Y-106981608D01*
X258112371Y-106907321D01*
X258187772Y-106884449D01*
X258263173Y-106861576D01*
X258302351Y-106857717D01*
X258380705Y-106850000D01*
X258459295Y-106850000D01*
X258537649Y-106857717D01*
X258537649Y-106857717D01*
G37*
G36*
X243297649Y-106857717D02*
X243336827Y-106861576D01*
X243412228Y-106884449D01*
X243487629Y-106907321D01*
X243626608Y-106981608D01*
X243748422Y-107081578D01*
X243848392Y-107203392D01*
X243922679Y-107342371D01*
X243968424Y-107493174D01*
X243983870Y-107650000D01*
X243968424Y-107806826D01*
X243922679Y-107957629D01*
X243848392Y-108096608D01*
X243748422Y-108218422D01*
X243626608Y-108318392D01*
X243487629Y-108392679D01*
X243412228Y-108415551D01*
X243336827Y-108438424D01*
X243297649Y-108442283D01*
X243219295Y-108450000D01*
X243140705Y-108450000D01*
X243062351Y-108442283D01*
X243023173Y-108438424D01*
X242947772Y-108415551D01*
X242872371Y-108392679D01*
X242733392Y-108318392D01*
X242611578Y-108218422D01*
X242511608Y-108096608D01*
X242437321Y-107957629D01*
X242391576Y-107806826D01*
X242376130Y-107650000D01*
X242391576Y-107493174D01*
X242437321Y-107342371D01*
X242511608Y-107203392D01*
X242611578Y-107081578D01*
X242733392Y-106981608D01*
X242872371Y-106907321D01*
X242947772Y-106884449D01*
X243023173Y-106861576D01*
X243062351Y-106857717D01*
X243140705Y-106850000D01*
X243219295Y-106850000D01*
X243297649Y-106857717D01*
X243297649Y-106857717D01*
G37*
G36*
X234763352Y-106450743D02*
X234908941Y-106511048D01*
X235039973Y-106598601D01*
X235151399Y-106710027D01*
X235238952Y-106841059D01*
X235299257Y-106986648D01*
X235330000Y-107141205D01*
X235330000Y-107298795D01*
X235299257Y-107453352D01*
X235238952Y-107598941D01*
X235151399Y-107729973D01*
X235039973Y-107841399D01*
X234908941Y-107928952D01*
X234763352Y-107989257D01*
X234608795Y-108020000D01*
X234451205Y-108020000D01*
X234296648Y-107989257D01*
X234151059Y-107928952D01*
X234020027Y-107841399D01*
X233908601Y-107729973D01*
X233821048Y-107598941D01*
X233760743Y-107453352D01*
X233730000Y-107298795D01*
X233730000Y-107141205D01*
X233760743Y-106986648D01*
X233821048Y-106841059D01*
X233908601Y-106710027D01*
X234020027Y-106598601D01*
X234151059Y-106511048D01*
X234296648Y-106450743D01*
X234451205Y-106420000D01*
X234608795Y-106420000D01*
X234763352Y-106450743D01*
X234763352Y-106450743D01*
G37*
G36*
X258537649Y-104317717D02*
X258576827Y-104321576D01*
X258652228Y-104344449D01*
X258727629Y-104367321D01*
X258866608Y-104441608D01*
X258988422Y-104541578D01*
X259088392Y-104663392D01*
X259162679Y-104802371D01*
X259162679Y-104802372D01*
X259208424Y-104953173D01*
X259223870Y-105110000D01*
X259217095Y-105178793D01*
X259208424Y-105266826D01*
X259162679Y-105417629D01*
X259088392Y-105556608D01*
X258988422Y-105678422D01*
X258866608Y-105778392D01*
X258727629Y-105852679D01*
X258672978Y-105869257D01*
X258576827Y-105898424D01*
X258560825Y-105900000D01*
X258459295Y-105910000D01*
X258380705Y-105910000D01*
X258279175Y-105900000D01*
X258263173Y-105898424D01*
X258167022Y-105869257D01*
X258112371Y-105852679D01*
X257973392Y-105778392D01*
X257851578Y-105678422D01*
X257751608Y-105556608D01*
X257677321Y-105417629D01*
X257631576Y-105266826D01*
X257622906Y-105178793D01*
X257616130Y-105110000D01*
X257631576Y-104953173D01*
X257677321Y-104802372D01*
X257677321Y-104802371D01*
X257751608Y-104663392D01*
X257851578Y-104541578D01*
X257973392Y-104441608D01*
X258112371Y-104367321D01*
X258187772Y-104344449D01*
X258263173Y-104321576D01*
X258302351Y-104317717D01*
X258380705Y-104310000D01*
X258459295Y-104310000D01*
X258537649Y-104317717D01*
X258537649Y-104317717D01*
G37*
G36*
X243297649Y-104317717D02*
X243336827Y-104321576D01*
X243412228Y-104344449D01*
X243487629Y-104367321D01*
X243626608Y-104441608D01*
X243748422Y-104541578D01*
X243848392Y-104663392D01*
X243922679Y-104802371D01*
X243922679Y-104802372D01*
X243968424Y-104953173D01*
X243983870Y-105110000D01*
X243977095Y-105178793D01*
X243968424Y-105266826D01*
X243922679Y-105417629D01*
X243848392Y-105556608D01*
X243748422Y-105678422D01*
X243626608Y-105778392D01*
X243487629Y-105852679D01*
X243432978Y-105869257D01*
X243336827Y-105898424D01*
X243320825Y-105900000D01*
X243219295Y-105910000D01*
X243140705Y-105910000D01*
X243039175Y-105900000D01*
X243023173Y-105898424D01*
X242927022Y-105869257D01*
X242872371Y-105852679D01*
X242733392Y-105778392D01*
X242611578Y-105678422D01*
X242511608Y-105556608D01*
X242437321Y-105417629D01*
X242391576Y-105266826D01*
X242382906Y-105178793D01*
X242376130Y-105110000D01*
X242391576Y-104953173D01*
X242437321Y-104802372D01*
X242437321Y-104802371D01*
X242511608Y-104663392D01*
X242611578Y-104541578D01*
X242733392Y-104441608D01*
X242872371Y-104367321D01*
X242947772Y-104344449D01*
X243023173Y-104321576D01*
X243062351Y-104317717D01*
X243140705Y-104310000D01*
X243219295Y-104310000D01*
X243297649Y-104317717D01*
X243297649Y-104317717D01*
G37*
G36*
X227133352Y-104330743D02*
X227278941Y-104391048D01*
X227409973Y-104478601D01*
X227521399Y-104590027D01*
X227608952Y-104721059D01*
X227669257Y-104866648D01*
X227700000Y-105021205D01*
X227700000Y-105178795D01*
X227669257Y-105333352D01*
X227608952Y-105478941D01*
X227521399Y-105609973D01*
X227409973Y-105721399D01*
X227278941Y-105808952D01*
X227133352Y-105869257D01*
X226978795Y-105900000D01*
X226821205Y-105900000D01*
X226666648Y-105869257D01*
X226521059Y-105808952D01*
X226390027Y-105721399D01*
X226278601Y-105609973D01*
X226191048Y-105478941D01*
X226130743Y-105333352D01*
X226100000Y-105178795D01*
X226100000Y-105021205D01*
X226130743Y-104866648D01*
X226191048Y-104721059D01*
X226278601Y-104590027D01*
X226390027Y-104478601D01*
X226521059Y-104391048D01*
X226666648Y-104330743D01*
X226821205Y-104300000D01*
X226978795Y-104300000D01*
X227133352Y-104330743D01*
X227133352Y-104330743D01*
G37*
G36*
X224325000Y-105250000D02*
X213625000Y-105250000D01*
X213650000Y-102600000D01*
X224350000Y-102600000D01*
X224325000Y-105250000D01*
X224325000Y-105250000D01*
G37*
G36*
X257050000Y-104675000D02*
X254050000Y-104675000D01*
X254050000Y-101675000D01*
X257050000Y-101675000D01*
X257050000Y-104675000D01*
X257050000Y-104675000D01*
G37*
G36*
X206216630Y-102262299D02*
X206376855Y-102310903D01*
X206524520Y-102389831D01*
X206653949Y-102496051D01*
X206760169Y-102625480D01*
X206839097Y-102773145D01*
X206887701Y-102933370D01*
X206904112Y-103100000D01*
X206887701Y-103266630D01*
X206839097Y-103426855D01*
X206760169Y-103574520D01*
X206653949Y-103703949D01*
X206524520Y-103810169D01*
X206376855Y-103889097D01*
X206216630Y-103937701D01*
X206091752Y-103950000D01*
X206008248Y-103950000D01*
X205883370Y-103937701D01*
X205723145Y-103889097D01*
X205575480Y-103810169D01*
X205446051Y-103703949D01*
X205339831Y-103574520D01*
X205260903Y-103426855D01*
X205212299Y-103266630D01*
X205195888Y-103100000D01*
X205212299Y-102933370D01*
X205260903Y-102773145D01*
X205339831Y-102625480D01*
X205446051Y-102496051D01*
X205575480Y-102389831D01*
X205723145Y-102310903D01*
X205883370Y-102262299D01*
X206008248Y-102250000D01*
X206091752Y-102250000D01*
X206216630Y-102262299D01*
X206216630Y-102262299D01*
G37*
G36*
X210354612Y-100958037D02*
X210582096Y-101052264D01*
X210786831Y-101189064D01*
X210960936Y-101363169D01*
X211097736Y-101567904D01*
X211191963Y-101795388D01*
X211240000Y-102036885D01*
X211240000Y-102283115D01*
X211191963Y-102524612D01*
X211097736Y-102752096D01*
X210960936Y-102956831D01*
X210786831Y-103130936D01*
X210582096Y-103267736D01*
X210354612Y-103361963D01*
X210113115Y-103410000D01*
X209866885Y-103410000D01*
X209625388Y-103361963D01*
X209397904Y-103267736D01*
X209193169Y-103130936D01*
X209019064Y-102956831D01*
X208882264Y-102752096D01*
X208788037Y-102524612D01*
X208740000Y-102283115D01*
X208740000Y-102036885D01*
X208788037Y-101795388D01*
X208882264Y-101567904D01*
X209019064Y-101363169D01*
X209193169Y-101189064D01*
X209397904Y-101052264D01*
X209625388Y-100958037D01*
X209866885Y-100910000D01*
X210113115Y-100910000D01*
X210354612Y-100958037D01*
X210354612Y-100958037D01*
G37*
G36*
X243297649Y-101777717D02*
X243336827Y-101781576D01*
X243382359Y-101795388D01*
X243487629Y-101827321D01*
X243626608Y-101901608D01*
X243748422Y-102001578D01*
X243848392Y-102123392D01*
X243922679Y-102262371D01*
X243937401Y-102310903D01*
X243968424Y-102413173D01*
X243983870Y-102570000D01*
X243968424Y-102726827D01*
X243945552Y-102802227D01*
X243922679Y-102877629D01*
X243848392Y-103016608D01*
X243748422Y-103138422D01*
X243626608Y-103238392D01*
X243487629Y-103312679D01*
X243412228Y-103335551D01*
X243336827Y-103358424D01*
X243300895Y-103361963D01*
X243219295Y-103370000D01*
X243140705Y-103370000D01*
X243059105Y-103361963D01*
X243023173Y-103358424D01*
X242947772Y-103335551D01*
X242872371Y-103312679D01*
X242733392Y-103238392D01*
X242611578Y-103138422D01*
X242511608Y-103016608D01*
X242437321Y-102877629D01*
X242414448Y-102802227D01*
X242391576Y-102726827D01*
X242376130Y-102570000D01*
X242391576Y-102413173D01*
X242422599Y-102310903D01*
X242437321Y-102262371D01*
X242511608Y-102123392D01*
X242611578Y-102001578D01*
X242733392Y-101901608D01*
X242872371Y-101827321D01*
X242977641Y-101795388D01*
X243023173Y-101781576D01*
X243062351Y-101777717D01*
X243140705Y-101770000D01*
X243219295Y-101770000D01*
X243297649Y-101777717D01*
X243297649Y-101777717D01*
G37*
G36*
X258537649Y-101777717D02*
X258576827Y-101781576D01*
X258622359Y-101795388D01*
X258727629Y-101827321D01*
X258866608Y-101901608D01*
X258988422Y-102001578D01*
X259088392Y-102123392D01*
X259162679Y-102262371D01*
X259177401Y-102310903D01*
X259208424Y-102413173D01*
X259223870Y-102570000D01*
X259208424Y-102726827D01*
X259185552Y-102802227D01*
X259162679Y-102877629D01*
X259088392Y-103016608D01*
X258988422Y-103138422D01*
X258866608Y-103238392D01*
X258727629Y-103312679D01*
X258652228Y-103335551D01*
X258576827Y-103358424D01*
X258540895Y-103361963D01*
X258459295Y-103370000D01*
X258380705Y-103370000D01*
X258299105Y-103361963D01*
X258263173Y-103358424D01*
X258187772Y-103335551D01*
X258112371Y-103312679D01*
X257973392Y-103238392D01*
X257851578Y-103138422D01*
X257751608Y-103016608D01*
X257677321Y-102877629D01*
X257654448Y-102802227D01*
X257631576Y-102726827D01*
X257616130Y-102570000D01*
X257631576Y-102413173D01*
X257662599Y-102310903D01*
X257677321Y-102262371D01*
X257751608Y-102123392D01*
X257851578Y-102001578D01*
X257973392Y-101901608D01*
X258112371Y-101827321D01*
X258217641Y-101795388D01*
X258263173Y-101781576D01*
X258302351Y-101777717D01*
X258380705Y-101770000D01*
X258459295Y-101770000D01*
X258537649Y-101777717D01*
X258537649Y-101777717D01*
G37*
G36*
X227700000Y-102400000D02*
X226100000Y-102400000D01*
X226100000Y-100800000D01*
X227700000Y-100800000D01*
X227700000Y-102400000D01*
X227700000Y-102400000D01*
G37*
G36*
X235285015Y-100182668D02*
X235416049Y-100236944D01*
X235533975Y-100315740D01*
X235634260Y-100416025D01*
X235713056Y-100533951D01*
X235767332Y-100664985D01*
X235795000Y-100804085D01*
X235795000Y-100945915D01*
X235767332Y-101085015D01*
X235713056Y-101216049D01*
X235634260Y-101333975D01*
X235533975Y-101434260D01*
X235416049Y-101513056D01*
X235285015Y-101567332D01*
X235145915Y-101595000D01*
X235004085Y-101595000D01*
X234864985Y-101567332D01*
X234733951Y-101513056D01*
X234616025Y-101434260D01*
X234515740Y-101333975D01*
X234436944Y-101216049D01*
X234382668Y-101085015D01*
X234355000Y-100945915D01*
X234355000Y-100804085D01*
X234382668Y-100664985D01*
X234436944Y-100533951D01*
X234515740Y-100416025D01*
X234616025Y-100315740D01*
X234733951Y-100236944D01*
X234864985Y-100182668D01*
X235004085Y-100155000D01*
X235145915Y-100155000D01*
X235285015Y-100182668D01*
X235285015Y-100182668D01*
G37*
G36*
X206900000Y-101410000D02*
X205200000Y-101410000D01*
X205200000Y-99710000D01*
X206900000Y-99710000D01*
X206900000Y-101410000D01*
X206900000Y-101410000D01*
G37*
G36*
X258537649Y-99237717D02*
X258576827Y-99241576D01*
X258652227Y-99264448D01*
X258727629Y-99287321D01*
X258866608Y-99361608D01*
X258988422Y-99461578D01*
X259088392Y-99583392D01*
X259162679Y-99722371D01*
X259162679Y-99722372D01*
X259208424Y-99873173D01*
X259223870Y-100030000D01*
X259208834Y-100182669D01*
X259208424Y-100186826D01*
X259162679Y-100337629D01*
X259088392Y-100476608D01*
X258988422Y-100598422D01*
X258866608Y-100698392D01*
X258727629Y-100772679D01*
X258652228Y-100795551D01*
X258576827Y-100818424D01*
X258537649Y-100822283D01*
X258459295Y-100830000D01*
X258380705Y-100830000D01*
X258302351Y-100822283D01*
X258263173Y-100818424D01*
X258187772Y-100795551D01*
X258112371Y-100772679D01*
X257973392Y-100698392D01*
X257851578Y-100598422D01*
X257751608Y-100476608D01*
X257677321Y-100337629D01*
X257631576Y-100186826D01*
X257631167Y-100182669D01*
X257616130Y-100030000D01*
X257631576Y-99873173D01*
X257677321Y-99722372D01*
X257677321Y-99722371D01*
X257751608Y-99583392D01*
X257851578Y-99461578D01*
X257973392Y-99361608D01*
X258112371Y-99287321D01*
X258187773Y-99264448D01*
X258263173Y-99241576D01*
X258302351Y-99237717D01*
X258380705Y-99230000D01*
X258459295Y-99230000D01*
X258537649Y-99237717D01*
X258537649Y-99237717D01*
G37*
G36*
X243297649Y-99237717D02*
X243336827Y-99241576D01*
X243412227Y-99264448D01*
X243487629Y-99287321D01*
X243626608Y-99361608D01*
X243748422Y-99461578D01*
X243848392Y-99583392D01*
X243922679Y-99722371D01*
X243922679Y-99722372D01*
X243968424Y-99873173D01*
X243983870Y-100030000D01*
X243968834Y-100182669D01*
X243968424Y-100186826D01*
X243922679Y-100337629D01*
X243848392Y-100476608D01*
X243748422Y-100598422D01*
X243626608Y-100698392D01*
X243487629Y-100772679D01*
X243412228Y-100795551D01*
X243336827Y-100818424D01*
X243297649Y-100822283D01*
X243219295Y-100830000D01*
X243140705Y-100830000D01*
X243062351Y-100822283D01*
X243023173Y-100818424D01*
X242947772Y-100795551D01*
X242872371Y-100772679D01*
X242733392Y-100698392D01*
X242611578Y-100598422D01*
X242511608Y-100476608D01*
X242437321Y-100337629D01*
X242391576Y-100186826D01*
X242391167Y-100182669D01*
X242376130Y-100030000D01*
X242391576Y-99873173D01*
X242437321Y-99722372D01*
X242437321Y-99722371D01*
X242511608Y-99583392D01*
X242611578Y-99461578D01*
X242733392Y-99361608D01*
X242872371Y-99287321D01*
X242947773Y-99264448D01*
X243023173Y-99241576D01*
X243062351Y-99237717D01*
X243140705Y-99230000D01*
X243219295Y-99230000D01*
X243297649Y-99237717D01*
X243297649Y-99237717D01*
G37*
G36*
X218464224Y-98231282D02*
X218643769Y-98285747D01*
X218809241Y-98374193D01*
X218954278Y-98493222D01*
X219073307Y-98638259D01*
X219161753Y-98803731D01*
X219216218Y-98983276D01*
X219234608Y-99170000D01*
X219216218Y-99356724D01*
X219161753Y-99536269D01*
X219073307Y-99701741D01*
X218954278Y-99846778D01*
X218809241Y-99965807D01*
X218643769Y-100054253D01*
X218464224Y-100108718D01*
X218324289Y-100122500D01*
X218135711Y-100122500D01*
X217995776Y-100108718D01*
X217816231Y-100054253D01*
X217650759Y-99965807D01*
X217505722Y-99846778D01*
X217386693Y-99701741D01*
X217298247Y-99536269D01*
X217243782Y-99356724D01*
X217225392Y-99170000D01*
X217243782Y-98983276D01*
X217298247Y-98803731D01*
X217386693Y-98638259D01*
X217505722Y-98493222D01*
X217650759Y-98374193D01*
X217816231Y-98285747D01*
X217995776Y-98231282D01*
X218135711Y-98217500D01*
X218324289Y-98217500D01*
X218464224Y-98231282D01*
X218464224Y-98231282D01*
G37*
G36*
X231029196Y-97174958D02*
X231265780Y-97272954D01*
X231478705Y-97415226D01*
X231659774Y-97596295D01*
X231802046Y-97809220D01*
X231900042Y-98045804D01*
X231950000Y-98296960D01*
X231950000Y-98553040D01*
X231900042Y-98804196D01*
X231802046Y-99040780D01*
X231659774Y-99253705D01*
X231478705Y-99434774D01*
X231265780Y-99577046D01*
X231029196Y-99675042D01*
X230778040Y-99725000D01*
X230521960Y-99725000D01*
X230270804Y-99675042D01*
X230034220Y-99577046D01*
X229821295Y-99434774D01*
X229640226Y-99253705D01*
X229497954Y-99040780D01*
X229399958Y-98804196D01*
X229350000Y-98553040D01*
X229350000Y-98296960D01*
X229399958Y-98045804D01*
X229497954Y-97809220D01*
X229640226Y-97596295D01*
X229821295Y-97415226D01*
X230034220Y-97272954D01*
X230270804Y-97174958D01*
X230521960Y-97125000D01*
X230778040Y-97125000D01*
X231029196Y-97174958D01*
X231029196Y-97174958D01*
G37*
G36*
X253626318Y-97964411D02*
X253698767Y-97978822D01*
X253755303Y-98002240D01*
X253835257Y-98035358D01*
X253958100Y-98117439D01*
X254062561Y-98221900D01*
X254144642Y-98344743D01*
X254156840Y-98374193D01*
X254201178Y-98481233D01*
X254207410Y-98512563D01*
X254223737Y-98594642D01*
X254230000Y-98626131D01*
X254230000Y-98773869D01*
X254206053Y-98894261D01*
X254201178Y-98918766D01*
X254144642Y-99055257D01*
X254062561Y-99178100D01*
X253958100Y-99282561D01*
X253835257Y-99364642D01*
X253755303Y-99397760D01*
X253698767Y-99421178D01*
X253630415Y-99434774D01*
X253553870Y-99450000D01*
X253406130Y-99450000D01*
X253329585Y-99434774D01*
X253261233Y-99421178D01*
X253204697Y-99397760D01*
X253124743Y-99364642D01*
X253001900Y-99282561D01*
X252897439Y-99178100D01*
X252815358Y-99055257D01*
X252758822Y-98918766D01*
X252753948Y-98894261D01*
X252730000Y-98773869D01*
X252730000Y-98626131D01*
X252736264Y-98594642D01*
X252752590Y-98512563D01*
X252758822Y-98481233D01*
X252803160Y-98374193D01*
X252815358Y-98344743D01*
X252897439Y-98221900D01*
X253001900Y-98117439D01*
X253124743Y-98035358D01*
X253204697Y-98002240D01*
X253261233Y-97978822D01*
X253333682Y-97964411D01*
X253406130Y-97950000D01*
X253553870Y-97950000D01*
X253626318Y-97964411D01*
X253626318Y-97964411D01*
G37*
G36*
X248746318Y-97964411D02*
X248818767Y-97978822D01*
X248875303Y-98002240D01*
X248955257Y-98035358D01*
X249078100Y-98117439D01*
X249182561Y-98221900D01*
X249264642Y-98344743D01*
X249276840Y-98374193D01*
X249321178Y-98481233D01*
X249327410Y-98512563D01*
X249343737Y-98594642D01*
X249350000Y-98626131D01*
X249350000Y-98773869D01*
X249326053Y-98894261D01*
X249321178Y-98918766D01*
X249264642Y-99055257D01*
X249182561Y-99178100D01*
X249078100Y-99282561D01*
X248955257Y-99364642D01*
X248875303Y-99397760D01*
X248818767Y-99421178D01*
X248750415Y-99434774D01*
X248673870Y-99450000D01*
X248526130Y-99450000D01*
X248449585Y-99434774D01*
X248381233Y-99421178D01*
X248324697Y-99397760D01*
X248244743Y-99364642D01*
X248121900Y-99282561D01*
X248017439Y-99178100D01*
X247935358Y-99055257D01*
X247878822Y-98918766D01*
X247873948Y-98894261D01*
X247850000Y-98773869D01*
X247850000Y-98626131D01*
X247856264Y-98594642D01*
X247872590Y-98512563D01*
X247878822Y-98481233D01*
X247923160Y-98374193D01*
X247935358Y-98344743D01*
X248017439Y-98221900D01*
X248121900Y-98117439D01*
X248244743Y-98035358D01*
X248324697Y-98002240D01*
X248381233Y-97978822D01*
X248453682Y-97964411D01*
X248526130Y-97950000D01*
X248673870Y-97950000D01*
X248746318Y-97964411D01*
X248746318Y-97964411D01*
G37*
G36*
X235285015Y-97642668D02*
X235416049Y-97696944D01*
X235533975Y-97775740D01*
X235634260Y-97876025D01*
X235713056Y-97993951D01*
X235767332Y-98124985D01*
X235795000Y-98264085D01*
X235795000Y-98405915D01*
X235767332Y-98545015D01*
X235713056Y-98676049D01*
X235634260Y-98793975D01*
X235533975Y-98894260D01*
X235416049Y-98973056D01*
X235285015Y-99027332D01*
X235145915Y-99055000D01*
X235004085Y-99055000D01*
X234864985Y-99027332D01*
X234733951Y-98973056D01*
X234616025Y-98894260D01*
X234515740Y-98793975D01*
X234436944Y-98676049D01*
X234382668Y-98545015D01*
X234355000Y-98405915D01*
X234355000Y-98264085D01*
X234382668Y-98124985D01*
X234436944Y-97993951D01*
X234515740Y-97876025D01*
X234616025Y-97775740D01*
X234733951Y-97696944D01*
X234864985Y-97642668D01*
X235004085Y-97615000D01*
X235145915Y-97615000D01*
X235285015Y-97642668D01*
X235285015Y-97642668D01*
G37*
G36*
X210746318Y-97194411D02*
X210818767Y-97208822D01*
X210875303Y-97232240D01*
X210955257Y-97265358D01*
X211078100Y-97347439D01*
X211182561Y-97451900D01*
X211264642Y-97574743D01*
X211321178Y-97711234D01*
X211350000Y-97856130D01*
X211350000Y-98003870D01*
X211343736Y-98035359D01*
X211321178Y-98148767D01*
X211297760Y-98205303D01*
X211264642Y-98285257D01*
X211182561Y-98408100D01*
X211078100Y-98512561D01*
X210955257Y-98594642D01*
X210879238Y-98626130D01*
X210818767Y-98651178D01*
X210746318Y-98665589D01*
X210673870Y-98680000D01*
X210526130Y-98680000D01*
X210453682Y-98665589D01*
X210381233Y-98651178D01*
X210320762Y-98626130D01*
X210244743Y-98594642D01*
X210121900Y-98512561D01*
X210017439Y-98408100D01*
X209935358Y-98285257D01*
X209902240Y-98205303D01*
X209878822Y-98148767D01*
X209856264Y-98035359D01*
X209850000Y-98003870D01*
X209850000Y-97856130D01*
X209878822Y-97711234D01*
X209935358Y-97574743D01*
X210017439Y-97451900D01*
X210121900Y-97347439D01*
X210244743Y-97265358D01*
X210324697Y-97232240D01*
X210381233Y-97208822D01*
X210453682Y-97194411D01*
X210526130Y-97180000D01*
X210673870Y-97180000D01*
X210746318Y-97194411D01*
X210746318Y-97194411D01*
G37*
G36*
X258537649Y-96697717D02*
X258576827Y-96701576D01*
X258652228Y-96724449D01*
X258727629Y-96747321D01*
X258866608Y-96821608D01*
X258988422Y-96921578D01*
X259088392Y-97043392D01*
X259162679Y-97182371D01*
X259162679Y-97182372D01*
X259208424Y-97333173D01*
X259223870Y-97490000D01*
X259208834Y-97642669D01*
X259208424Y-97646826D01*
X259162679Y-97797629D01*
X259088392Y-97936608D01*
X258988422Y-98058422D01*
X258866608Y-98158392D01*
X258727629Y-98232679D01*
X258652228Y-98255551D01*
X258576827Y-98278424D01*
X258537649Y-98282283D01*
X258459295Y-98290000D01*
X258380705Y-98290000D01*
X258302351Y-98282283D01*
X258263173Y-98278424D01*
X258187772Y-98255551D01*
X258112371Y-98232679D01*
X257973392Y-98158392D01*
X257851578Y-98058422D01*
X257751608Y-97936608D01*
X257677321Y-97797629D01*
X257631576Y-97646826D01*
X257631167Y-97642669D01*
X257616130Y-97490000D01*
X257631576Y-97333173D01*
X257677321Y-97182372D01*
X257677321Y-97182371D01*
X257751608Y-97043392D01*
X257851578Y-96921578D01*
X257973392Y-96821608D01*
X258112371Y-96747321D01*
X258187772Y-96724449D01*
X258263173Y-96701576D01*
X258302351Y-96697717D01*
X258380705Y-96690000D01*
X258459295Y-96690000D01*
X258537649Y-96697717D01*
X258537649Y-96697717D01*
G37*
G36*
X243297649Y-96697717D02*
X243336827Y-96701576D01*
X243412228Y-96724449D01*
X243487629Y-96747321D01*
X243626608Y-96821608D01*
X243748422Y-96921578D01*
X243848392Y-97043392D01*
X243922679Y-97182371D01*
X243922679Y-97182372D01*
X243968424Y-97333173D01*
X243983870Y-97490000D01*
X243968834Y-97642669D01*
X243968424Y-97646826D01*
X243922679Y-97797629D01*
X243848392Y-97936608D01*
X243748422Y-98058422D01*
X243626608Y-98158392D01*
X243487629Y-98232679D01*
X243412228Y-98255551D01*
X243336827Y-98278424D01*
X243297649Y-98282283D01*
X243219295Y-98290000D01*
X243140705Y-98290000D01*
X243062351Y-98282283D01*
X243023173Y-98278424D01*
X242947772Y-98255551D01*
X242872371Y-98232679D01*
X242733392Y-98158392D01*
X242611578Y-98058422D01*
X242511608Y-97936608D01*
X242437321Y-97797629D01*
X242391576Y-97646826D01*
X242391167Y-97642669D01*
X242376130Y-97490000D01*
X242391576Y-97333173D01*
X242437321Y-97182372D01*
X242437321Y-97182371D01*
X242511608Y-97043392D01*
X242611578Y-96921578D01*
X242733392Y-96821608D01*
X242872371Y-96747321D01*
X242947772Y-96724449D01*
X243023173Y-96701576D01*
X243062351Y-96697717D01*
X243140705Y-96690000D01*
X243219295Y-96690000D01*
X243297649Y-96697717D01*
X243297649Y-96697717D01*
G37*
G36*
X218464224Y-95691282D02*
X218643769Y-95745747D01*
X218809241Y-95834193D01*
X218954278Y-95953222D01*
X219073307Y-96098259D01*
X219161753Y-96263731D01*
X219216218Y-96443276D01*
X219234608Y-96630000D01*
X219216218Y-96816724D01*
X219161753Y-96996269D01*
X219073307Y-97161741D01*
X218954278Y-97306778D01*
X218809241Y-97425807D01*
X218643769Y-97514253D01*
X218464224Y-97568718D01*
X218324289Y-97582500D01*
X218135711Y-97582500D01*
X217995776Y-97568718D01*
X217816231Y-97514253D01*
X217650759Y-97425807D01*
X217505722Y-97306778D01*
X217386693Y-97161741D01*
X217298247Y-96996269D01*
X217243782Y-96816724D01*
X217225392Y-96630000D01*
X217243782Y-96443276D01*
X217298247Y-96263731D01*
X217386693Y-96098259D01*
X217505722Y-95953222D01*
X217650759Y-95834193D01*
X217816231Y-95745747D01*
X217995776Y-95691282D01*
X218135711Y-95677500D01*
X218324289Y-95677500D01*
X218464224Y-95691282D01*
X218464224Y-95691282D01*
G37*
G36*
X235285015Y-95102668D02*
X235416049Y-95156944D01*
X235533975Y-95235740D01*
X235634260Y-95336025D01*
X235713056Y-95453951D01*
X235767332Y-95584985D01*
X235795000Y-95724085D01*
X235795000Y-95865915D01*
X235767332Y-96005015D01*
X235713056Y-96136049D01*
X235634260Y-96253975D01*
X235533975Y-96354260D01*
X235416049Y-96433056D01*
X235285015Y-96487332D01*
X235145915Y-96515000D01*
X235004085Y-96515000D01*
X234864985Y-96487332D01*
X234733951Y-96433056D01*
X234616025Y-96354260D01*
X234515740Y-96253975D01*
X234436944Y-96136049D01*
X234382668Y-96005015D01*
X234355000Y-95865915D01*
X234355000Y-95724085D01*
X234382668Y-95584985D01*
X234436944Y-95453951D01*
X234515740Y-95336025D01*
X234616025Y-95235740D01*
X234733951Y-95156944D01*
X234864985Y-95102668D01*
X235004085Y-95075000D01*
X235145915Y-95075000D01*
X235285015Y-95102668D01*
X235285015Y-95102668D01*
G37*
G36*
X210746318Y-94654411D02*
X210818767Y-94668822D01*
X210875303Y-94692240D01*
X210955257Y-94725358D01*
X211078100Y-94807439D01*
X211182561Y-94911900D01*
X211264642Y-95034743D01*
X211294500Y-95106827D01*
X211321178Y-95171233D01*
X211350000Y-95316131D01*
X211350000Y-95463869D01*
X211321178Y-95608767D01*
X211297760Y-95665303D01*
X211264642Y-95745257D01*
X211182561Y-95868100D01*
X211078100Y-95972561D01*
X210955257Y-96054642D01*
X210875303Y-96087760D01*
X210818767Y-96111178D01*
X210746318Y-96125589D01*
X210673870Y-96140000D01*
X210526130Y-96140000D01*
X210453682Y-96125589D01*
X210381233Y-96111178D01*
X210324697Y-96087760D01*
X210244743Y-96054642D01*
X210121900Y-95972561D01*
X210017439Y-95868100D01*
X209935358Y-95745257D01*
X209902240Y-95665303D01*
X209878822Y-95608767D01*
X209850000Y-95463869D01*
X209850000Y-95316131D01*
X209878822Y-95171233D01*
X209905500Y-95106827D01*
X209935358Y-95034743D01*
X210017439Y-94911900D01*
X210121900Y-94807439D01*
X210244743Y-94725358D01*
X210324697Y-94692240D01*
X210381233Y-94668822D01*
X210453682Y-94654411D01*
X210526130Y-94640000D01*
X210673870Y-94640000D01*
X210746318Y-94654411D01*
X210746318Y-94654411D01*
G37*
G36*
X258537649Y-94157717D02*
X258576827Y-94161576D01*
X258652227Y-94184448D01*
X258727629Y-94207321D01*
X258866608Y-94281608D01*
X258988422Y-94381578D01*
X259088392Y-94503392D01*
X259162679Y-94642371D01*
X259162679Y-94642372D01*
X259208424Y-94793173D01*
X259223870Y-94950000D01*
X259208834Y-95102669D01*
X259208424Y-95106826D01*
X259162679Y-95257629D01*
X259088392Y-95396608D01*
X258988422Y-95518422D01*
X258866608Y-95618392D01*
X258727629Y-95692679D01*
X258652228Y-95715551D01*
X258576827Y-95738424D01*
X258537649Y-95742283D01*
X258459295Y-95750000D01*
X258380705Y-95750000D01*
X258302351Y-95742283D01*
X258263173Y-95738424D01*
X258187772Y-95715551D01*
X258112371Y-95692679D01*
X257973392Y-95618392D01*
X257851578Y-95518422D01*
X257751608Y-95396608D01*
X257677321Y-95257629D01*
X257631576Y-95106826D01*
X257631167Y-95102669D01*
X257616130Y-94950000D01*
X257631576Y-94793173D01*
X257677321Y-94642372D01*
X257677321Y-94642371D01*
X257751608Y-94503392D01*
X257851578Y-94381578D01*
X257973392Y-94281608D01*
X258112371Y-94207321D01*
X258187772Y-94184449D01*
X258263173Y-94161576D01*
X258302351Y-94157717D01*
X258380705Y-94150000D01*
X258459295Y-94150000D01*
X258537649Y-94157717D01*
X258537649Y-94157717D01*
G37*
G36*
X243297649Y-94157717D02*
X243336827Y-94161576D01*
X243412227Y-94184448D01*
X243487629Y-94207321D01*
X243626608Y-94281608D01*
X243748422Y-94381578D01*
X243848392Y-94503392D01*
X243922679Y-94642371D01*
X243922679Y-94642372D01*
X243968424Y-94793173D01*
X243983870Y-94950000D01*
X243968834Y-95102669D01*
X243968424Y-95106826D01*
X243922679Y-95257629D01*
X243848392Y-95396608D01*
X243748422Y-95518422D01*
X243626608Y-95618392D01*
X243487629Y-95692679D01*
X243412228Y-95715551D01*
X243336827Y-95738424D01*
X243297649Y-95742283D01*
X243219295Y-95750000D01*
X243140705Y-95750000D01*
X243062351Y-95742283D01*
X243023173Y-95738424D01*
X242947772Y-95715551D01*
X242872371Y-95692679D01*
X242733392Y-95618392D01*
X242611578Y-95518422D01*
X242511608Y-95396608D01*
X242437321Y-95257629D01*
X242391576Y-95106826D01*
X242391167Y-95102669D01*
X242376130Y-94950000D01*
X242391576Y-94793173D01*
X242437321Y-94642372D01*
X242437321Y-94642371D01*
X242511608Y-94503392D01*
X242611578Y-94381578D01*
X242733392Y-94281608D01*
X242872371Y-94207321D01*
X242947772Y-94184449D01*
X243023173Y-94161576D01*
X243062351Y-94157717D01*
X243140705Y-94150000D01*
X243219295Y-94150000D01*
X243297649Y-94157717D01*
X243297649Y-94157717D01*
G37*
G36*
X228490000Y-95520000D02*
X226890000Y-95520000D01*
X226890000Y-93920000D01*
X228490000Y-93920000D01*
X228490000Y-95520000D01*
X228490000Y-95520000D01*
G37*
G36*
X224423352Y-93950743D02*
X224568941Y-94011048D01*
X224699973Y-94098601D01*
X224811399Y-94210027D01*
X224898952Y-94341059D01*
X224959257Y-94486648D01*
X224990000Y-94641205D01*
X224990000Y-94798795D01*
X224959257Y-94953352D01*
X224898952Y-95098941D01*
X224811399Y-95229973D01*
X224699973Y-95341399D01*
X224568941Y-95428952D01*
X224423352Y-95489257D01*
X224268795Y-95520000D01*
X224111205Y-95520000D01*
X223956648Y-95489257D01*
X223811059Y-95428952D01*
X223680027Y-95341399D01*
X223568601Y-95229973D01*
X223481048Y-95098941D01*
X223420743Y-94953352D01*
X223390000Y-94798795D01*
X223390000Y-94641205D01*
X223420743Y-94486648D01*
X223481048Y-94341059D01*
X223568601Y-94210027D01*
X223680027Y-94098601D01*
X223811059Y-94011048D01*
X223956648Y-93950743D01*
X224111205Y-93920000D01*
X224268795Y-93920000D01*
X224423352Y-93950743D01*
X224423352Y-93950743D01*
G37*
G36*
X219230000Y-95042500D02*
X217230000Y-95042500D01*
X217230000Y-93137500D01*
X219230000Y-93137500D01*
X219230000Y-95042500D01*
X219230000Y-95042500D01*
G37*
G36*
X248224000Y-93725000D02*
X246624000Y-93725000D01*
X246624000Y-92125000D01*
X248224000Y-92125000D01*
X248224000Y-93725000D01*
X248224000Y-93725000D01*
G37*
G36*
X252621649Y-92132717D02*
X252660827Y-92136576D01*
X252736228Y-92159449D01*
X252811629Y-92182321D01*
X252950608Y-92256608D01*
X253072422Y-92356578D01*
X253172392Y-92478392D01*
X253246679Y-92617371D01*
X253292424Y-92768174D01*
X253307870Y-92925000D01*
X253292424Y-93081826D01*
X253246679Y-93232629D01*
X253172392Y-93371608D01*
X253072422Y-93493422D01*
X252950608Y-93593392D01*
X252811629Y-93667679D01*
X252736228Y-93690551D01*
X252660827Y-93713424D01*
X252621649Y-93717283D01*
X252543295Y-93725000D01*
X252464705Y-93725000D01*
X252386351Y-93717283D01*
X252347173Y-93713424D01*
X252271772Y-93690551D01*
X252196371Y-93667679D01*
X252057392Y-93593392D01*
X251935578Y-93493422D01*
X251835608Y-93371608D01*
X251761321Y-93232629D01*
X251715576Y-93081826D01*
X251700130Y-92925000D01*
X251715576Y-92768174D01*
X251761321Y-92617371D01*
X251835608Y-92478392D01*
X251935578Y-92356578D01*
X252057392Y-92256608D01*
X252196371Y-92182321D01*
X252271773Y-92159448D01*
X252347173Y-92136576D01*
X252386351Y-92132717D01*
X252464705Y-92125000D01*
X252543295Y-92125000D01*
X252621649Y-92132717D01*
X252621649Y-92132717D01*
G37*
G36*
X255161649Y-92132717D02*
X255200827Y-92136576D01*
X255276228Y-92159449D01*
X255351629Y-92182321D01*
X255490608Y-92256608D01*
X255612422Y-92356578D01*
X255712392Y-92478392D01*
X255786679Y-92617371D01*
X255832424Y-92768174D01*
X255847870Y-92925000D01*
X255832424Y-93081826D01*
X255786679Y-93232629D01*
X255712392Y-93371608D01*
X255612422Y-93493422D01*
X255490608Y-93593392D01*
X255351629Y-93667679D01*
X255276228Y-93690551D01*
X255200827Y-93713424D01*
X255161649Y-93717283D01*
X255083295Y-93725000D01*
X255004705Y-93725000D01*
X254926351Y-93717283D01*
X254887173Y-93713424D01*
X254811772Y-93690551D01*
X254736371Y-93667679D01*
X254597392Y-93593392D01*
X254475578Y-93493422D01*
X254375608Y-93371608D01*
X254301321Y-93232629D01*
X254255576Y-93081826D01*
X254240130Y-92925000D01*
X254255576Y-92768174D01*
X254301321Y-92617371D01*
X254375608Y-92478392D01*
X254475578Y-92356578D01*
X254597392Y-92256608D01*
X254736371Y-92182321D01*
X254811773Y-92159448D01*
X254887173Y-92136576D01*
X254926351Y-92132717D01*
X255004705Y-92125000D01*
X255083295Y-92125000D01*
X255161649Y-92132717D01*
X255161649Y-92132717D01*
G37*
G36*
X250081649Y-92132717D02*
X250120827Y-92136576D01*
X250196228Y-92159449D01*
X250271629Y-92182321D01*
X250410608Y-92256608D01*
X250532422Y-92356578D01*
X250632392Y-92478392D01*
X250706679Y-92617371D01*
X250752424Y-92768174D01*
X250767870Y-92925000D01*
X250752424Y-93081826D01*
X250706679Y-93232629D01*
X250632392Y-93371608D01*
X250532422Y-93493422D01*
X250410608Y-93593392D01*
X250271629Y-93667679D01*
X250196228Y-93690551D01*
X250120827Y-93713424D01*
X250081649Y-93717283D01*
X250003295Y-93725000D01*
X249924705Y-93725000D01*
X249846351Y-93717283D01*
X249807173Y-93713424D01*
X249731772Y-93690551D01*
X249656371Y-93667679D01*
X249517392Y-93593392D01*
X249395578Y-93493422D01*
X249295608Y-93371608D01*
X249221321Y-93232629D01*
X249175576Y-93081826D01*
X249160130Y-92925000D01*
X249175576Y-92768174D01*
X249221321Y-92617371D01*
X249295608Y-92478392D01*
X249395578Y-92356578D01*
X249517392Y-92256608D01*
X249656371Y-92182321D01*
X249731773Y-92159448D01*
X249807173Y-92136576D01*
X249846351Y-92132717D01*
X249924705Y-92125000D01*
X250003295Y-92125000D01*
X250081649Y-92132717D01*
X250081649Y-92132717D01*
G37*
G36*
X211350000Y-93600000D02*
X209850000Y-93600000D01*
X209850000Y-92100000D01*
X211350000Y-92100000D01*
X211350000Y-93600000D01*
X211350000Y-93600000D01*
G37*
G36*
X258537649Y-91617717D02*
X258576827Y-91621576D01*
X258652227Y-91644448D01*
X258727629Y-91667321D01*
X258866608Y-91741608D01*
X258988422Y-91841578D01*
X259088392Y-91963392D01*
X259162679Y-92102371D01*
X259208424Y-92253174D01*
X259223870Y-92410000D01*
X259208424Y-92566826D01*
X259162679Y-92717629D01*
X259088392Y-92856608D01*
X258988422Y-92978422D01*
X258866608Y-93078392D01*
X258727629Y-93152679D01*
X258652228Y-93175551D01*
X258576827Y-93198424D01*
X258537649Y-93202283D01*
X258459295Y-93210000D01*
X258380705Y-93210000D01*
X258302351Y-93202283D01*
X258263173Y-93198424D01*
X258187772Y-93175551D01*
X258112371Y-93152679D01*
X257973392Y-93078392D01*
X257851578Y-92978422D01*
X257751608Y-92856608D01*
X257677321Y-92717629D01*
X257631576Y-92566826D01*
X257616130Y-92410000D01*
X257631576Y-92253174D01*
X257677321Y-92102371D01*
X257751608Y-91963392D01*
X257851578Y-91841578D01*
X257973392Y-91741608D01*
X258112371Y-91667321D01*
X258187773Y-91644448D01*
X258263173Y-91621576D01*
X258302351Y-91617717D01*
X258380705Y-91610000D01*
X258459295Y-91610000D01*
X258537649Y-91617717D01*
X258537649Y-91617717D01*
G37*
G36*
X243297649Y-91617717D02*
X243336827Y-91621576D01*
X243412227Y-91644448D01*
X243487629Y-91667321D01*
X243626608Y-91741608D01*
X243748422Y-91841578D01*
X243848392Y-91963392D01*
X243922679Y-92102371D01*
X243968424Y-92253174D01*
X243983870Y-92410000D01*
X243968424Y-92566826D01*
X243922679Y-92717629D01*
X243848392Y-92856608D01*
X243748422Y-92978422D01*
X243626608Y-93078392D01*
X243487629Y-93152679D01*
X243412228Y-93175551D01*
X243336827Y-93198424D01*
X243297649Y-93202283D01*
X243219295Y-93210000D01*
X243140705Y-93210000D01*
X243062351Y-93202283D01*
X243023173Y-93198424D01*
X242947772Y-93175551D01*
X242872371Y-93152679D01*
X242733392Y-93078392D01*
X242611578Y-92978422D01*
X242511608Y-92856608D01*
X242437321Y-92717629D01*
X242391576Y-92566826D01*
X242376130Y-92410000D01*
X242391576Y-92253174D01*
X242437321Y-92102371D01*
X242511608Y-91963392D01*
X242611578Y-91841578D01*
X242733392Y-91741608D01*
X242872371Y-91667321D01*
X242947773Y-91644448D01*
X243023173Y-91621576D01*
X243062351Y-91617717D01*
X243140705Y-91610000D01*
X243219295Y-91610000D01*
X243297649Y-91617717D01*
X243297649Y-91617717D01*
G37*
G36*
X234500000Y-92200000D02*
X231300000Y-92200000D01*
X231300000Y-89000000D01*
X234500000Y-89000000D01*
X234500000Y-92200000D01*
X234500000Y-92200000D01*
G37*
G36*
X205860015Y-90587668D02*
X205991049Y-90641944D01*
X206108975Y-90720740D01*
X206209260Y-90821025D01*
X206288056Y-90938951D01*
X206342332Y-91069985D01*
X206370000Y-91209085D01*
X206370000Y-91350915D01*
X206342332Y-91490015D01*
X206288056Y-91621049D01*
X206209260Y-91738975D01*
X206108975Y-91839260D01*
X205991049Y-91918056D01*
X205860015Y-91972332D01*
X205720915Y-92000000D01*
X205579085Y-92000000D01*
X205439985Y-91972332D01*
X205308951Y-91918056D01*
X205191025Y-91839260D01*
X205090740Y-91738975D01*
X205011944Y-91621049D01*
X204957668Y-91490015D01*
X204930000Y-91350915D01*
X204930000Y-91209085D01*
X204957668Y-91069985D01*
X205011944Y-90938951D01*
X205090740Y-90821025D01*
X205191025Y-90720740D01*
X205308951Y-90641944D01*
X205439985Y-90587668D01*
X205579085Y-90560000D01*
X205720915Y-90560000D01*
X205860015Y-90587668D01*
X205860015Y-90587668D01*
G37*
G36*
X258537649Y-89077717D02*
X258576827Y-89081576D01*
X258652228Y-89104449D01*
X258727629Y-89127321D01*
X258866608Y-89201608D01*
X258988422Y-89301578D01*
X259088392Y-89423392D01*
X259162679Y-89562371D01*
X259162679Y-89562372D01*
X259192806Y-89661686D01*
X259208424Y-89713174D01*
X259223870Y-89870000D01*
X259208424Y-90026826D01*
X259162679Y-90177629D01*
X259088392Y-90316608D01*
X258988422Y-90438422D01*
X258866608Y-90538392D01*
X258727629Y-90612679D01*
X258652227Y-90635552D01*
X258576827Y-90658424D01*
X258537649Y-90662283D01*
X258459295Y-90670000D01*
X258380705Y-90670000D01*
X258302351Y-90662283D01*
X258263173Y-90658424D01*
X258187772Y-90635551D01*
X258112371Y-90612679D01*
X257973392Y-90538392D01*
X257851578Y-90438422D01*
X257751608Y-90316608D01*
X257677321Y-90177629D01*
X257631576Y-90026826D01*
X257616130Y-89870000D01*
X257631576Y-89713174D01*
X257647195Y-89661686D01*
X257677321Y-89562372D01*
X257677321Y-89562371D01*
X257751608Y-89423392D01*
X257851578Y-89301578D01*
X257973392Y-89201608D01*
X258112371Y-89127321D01*
X258187773Y-89104448D01*
X258263173Y-89081576D01*
X258302351Y-89077717D01*
X258380705Y-89070000D01*
X258459295Y-89070000D01*
X258537649Y-89077717D01*
X258537649Y-89077717D01*
G37*
G36*
X243297649Y-89077717D02*
X243336827Y-89081576D01*
X243412228Y-89104449D01*
X243487629Y-89127321D01*
X243626608Y-89201608D01*
X243748422Y-89301578D01*
X243848392Y-89423392D01*
X243922679Y-89562371D01*
X243922679Y-89562372D01*
X243952806Y-89661686D01*
X243968424Y-89713174D01*
X243983870Y-89870000D01*
X243968424Y-90026826D01*
X243922679Y-90177629D01*
X243848392Y-90316608D01*
X243748422Y-90438422D01*
X243626608Y-90538392D01*
X243487629Y-90612679D01*
X243412227Y-90635552D01*
X243336827Y-90658424D01*
X243297649Y-90662283D01*
X243219295Y-90670000D01*
X243140705Y-90670000D01*
X243062351Y-90662283D01*
X243023173Y-90658424D01*
X242947772Y-90635551D01*
X242872371Y-90612679D01*
X242733392Y-90538392D01*
X242611578Y-90438422D01*
X242511608Y-90316608D01*
X242437321Y-90177629D01*
X242391576Y-90026826D01*
X242376130Y-89870000D01*
X242391576Y-89713174D01*
X242407195Y-89661686D01*
X242437321Y-89562372D01*
X242437321Y-89562371D01*
X242511608Y-89423392D01*
X242611578Y-89301578D01*
X242733392Y-89201608D01*
X242872371Y-89127321D01*
X242947772Y-89104449D01*
X243023173Y-89081576D01*
X243062351Y-89077717D01*
X243140705Y-89070000D01*
X243219295Y-89070000D01*
X243297649Y-89077717D01*
X243297649Y-89077717D01*
G37*
G36*
X213775770Y-88385372D02*
X213891689Y-88408429D01*
X214073678Y-88483811D01*
X214237463Y-88593249D01*
X214376751Y-88732537D01*
X214486189Y-88896322D01*
X214561571Y-89078311D01*
X214600000Y-89271509D01*
X214600000Y-89468491D01*
X214561571Y-89661689D01*
X214486189Y-89843678D01*
X214376751Y-90007463D01*
X214237463Y-90146751D01*
X214073678Y-90256189D01*
X213891689Y-90331571D01*
X213775770Y-90354628D01*
X213698493Y-90370000D01*
X213501507Y-90370000D01*
X213424230Y-90354628D01*
X213308311Y-90331571D01*
X213126322Y-90256189D01*
X212962537Y-90146751D01*
X212823249Y-90007463D01*
X212713811Y-89843678D01*
X212638429Y-89661689D01*
X212600000Y-89468491D01*
X212600000Y-89271509D01*
X212638429Y-89078311D01*
X212713811Y-88896322D01*
X212823249Y-88732537D01*
X212962537Y-88593249D01*
X213126322Y-88483811D01*
X213308311Y-88408429D01*
X213424230Y-88385372D01*
X213501507Y-88370000D01*
X213698493Y-88370000D01*
X213775770Y-88385372D01*
X213775770Y-88385372D01*
G37*
G36*
X239316630Y-88182299D02*
X239476855Y-88230903D01*
X239624520Y-88309831D01*
X239753949Y-88416051D01*
X239860169Y-88545480D01*
X239939097Y-88693145D01*
X239987701Y-88853370D01*
X240004112Y-89020000D01*
X239987701Y-89186630D01*
X239939097Y-89346855D01*
X239860169Y-89494520D01*
X239753949Y-89623949D01*
X239624520Y-89730169D01*
X239476855Y-89809097D01*
X239316630Y-89857701D01*
X239191752Y-89870000D01*
X239108248Y-89870000D01*
X238983370Y-89857701D01*
X238823145Y-89809097D01*
X238675480Y-89730169D01*
X238546051Y-89623949D01*
X238439831Y-89494520D01*
X238360903Y-89346855D01*
X238312299Y-89186630D01*
X238295888Y-89020000D01*
X238312299Y-88853370D01*
X238360903Y-88693145D01*
X238439831Y-88545480D01*
X238546051Y-88416051D01*
X238675480Y-88309831D01*
X238823145Y-88230903D01*
X238983370Y-88182299D01*
X239108248Y-88170000D01*
X239191752Y-88170000D01*
X239316630Y-88182299D01*
X239316630Y-88182299D01*
G37*
G36*
X237460000Y-89870000D02*
X235760000Y-89870000D01*
X235760000Y-88170000D01*
X237460000Y-88170000D01*
X237460000Y-89870000D01*
X237460000Y-89870000D01*
G37*
G36*
X205860015Y-88047668D02*
X205991049Y-88101944D01*
X206108975Y-88180740D01*
X206209260Y-88281025D01*
X206288056Y-88398951D01*
X206342332Y-88529985D01*
X206370000Y-88669085D01*
X206370000Y-88810915D01*
X206342332Y-88950015D01*
X206288056Y-89081049D01*
X206209260Y-89198975D01*
X206108975Y-89299260D01*
X205991049Y-89378056D01*
X205860015Y-89432332D01*
X205720915Y-89460000D01*
X205579085Y-89460000D01*
X205439985Y-89432332D01*
X205308951Y-89378056D01*
X205191025Y-89299260D01*
X205090740Y-89198975D01*
X205011944Y-89081049D01*
X204957668Y-88950015D01*
X204930000Y-88810915D01*
X204930000Y-88669085D01*
X204957668Y-88529985D01*
X205011944Y-88398951D01*
X205090740Y-88281025D01*
X205191025Y-88180740D01*
X205308951Y-88101944D01*
X205439985Y-88047668D01*
X205579085Y-88020000D01*
X205720915Y-88020000D01*
X205860015Y-88047668D01*
X205860015Y-88047668D01*
G37*
G36*
X250553992Y-88054076D02*
X250587883Y-88064357D01*
X250619111Y-88081048D01*
X250646485Y-88103515D01*
X250668952Y-88130889D01*
X250685643Y-88162117D01*
X250695924Y-88196008D01*
X250700000Y-88237391D01*
X250700000Y-89262609D01*
X250695924Y-89303992D01*
X250685643Y-89337883D01*
X250668952Y-89369111D01*
X250646485Y-89396485D01*
X250619111Y-89418952D01*
X250587883Y-89435643D01*
X250553992Y-89445924D01*
X250512609Y-89450000D01*
X249912391Y-89450000D01*
X249871008Y-89445924D01*
X249837117Y-89435643D01*
X249805889Y-89418952D01*
X249778515Y-89396485D01*
X249756048Y-89369111D01*
X249739357Y-89337883D01*
X249729076Y-89303992D01*
X249725000Y-89262609D01*
X249725000Y-88237391D01*
X249729076Y-88196008D01*
X249739357Y-88162117D01*
X249756048Y-88130889D01*
X249778515Y-88103515D01*
X249805889Y-88081048D01*
X249837117Y-88064357D01*
X249871008Y-88054076D01*
X249912391Y-88050000D01*
X250512609Y-88050000D01*
X250553992Y-88054076D01*
X250553992Y-88054076D01*
G37*
G36*
X252428992Y-88054076D02*
X252462883Y-88064357D01*
X252494111Y-88081048D01*
X252521485Y-88103515D01*
X252543952Y-88130889D01*
X252560643Y-88162117D01*
X252570924Y-88196008D01*
X252575000Y-88237391D01*
X252575000Y-89262609D01*
X252570924Y-89303992D01*
X252560643Y-89337883D01*
X252543952Y-89369111D01*
X252521485Y-89396485D01*
X252494111Y-89418952D01*
X252462883Y-89435643D01*
X252428992Y-89445924D01*
X252387609Y-89450000D01*
X251787391Y-89450000D01*
X251746008Y-89445924D01*
X251712117Y-89435643D01*
X251680889Y-89418952D01*
X251653515Y-89396485D01*
X251631048Y-89369111D01*
X251614357Y-89337883D01*
X251604076Y-89303992D01*
X251600000Y-89262609D01*
X251600000Y-88237391D01*
X251604076Y-88196008D01*
X251614357Y-88162117D01*
X251631048Y-88130889D01*
X251653515Y-88103515D01*
X251680889Y-88081048D01*
X251712117Y-88064357D01*
X251746008Y-88054076D01*
X251787391Y-88050000D01*
X252387609Y-88050000D01*
X252428992Y-88054076D01*
X252428992Y-88054076D01*
G37*
G36*
X243297649Y-86537717D02*
X243336827Y-86541576D01*
X243412228Y-86564449D01*
X243487629Y-86587321D01*
X243626608Y-86661608D01*
X243748422Y-86761578D01*
X243848392Y-86883392D01*
X243922679Y-87022371D01*
X243968424Y-87173174D01*
X243983870Y-87330000D01*
X243968424Y-87486826D01*
X243922679Y-87637629D01*
X243848392Y-87776608D01*
X243748422Y-87898422D01*
X243626608Y-87998392D01*
X243487629Y-88072679D01*
X243412227Y-88095552D01*
X243336827Y-88118424D01*
X243306682Y-88121393D01*
X243219295Y-88130000D01*
X243140705Y-88130000D01*
X243053318Y-88121393D01*
X243023173Y-88118424D01*
X242947773Y-88095552D01*
X242872371Y-88072679D01*
X242733392Y-87998392D01*
X242611578Y-87898422D01*
X242511608Y-87776608D01*
X242437321Y-87637629D01*
X242391576Y-87486826D01*
X242376130Y-87330000D01*
X242391576Y-87173174D01*
X242437321Y-87022371D01*
X242511608Y-86883392D01*
X242611578Y-86761578D01*
X242733392Y-86661608D01*
X242872371Y-86587321D01*
X242947772Y-86564449D01*
X243023173Y-86541576D01*
X243062351Y-86537717D01*
X243140705Y-86530000D01*
X243219295Y-86530000D01*
X243297649Y-86537717D01*
X243297649Y-86537717D01*
G37*
G36*
X258537649Y-86537717D02*
X258576827Y-86541576D01*
X258652228Y-86564449D01*
X258727629Y-86587321D01*
X258866608Y-86661608D01*
X258988422Y-86761578D01*
X259088392Y-86883392D01*
X259162679Y-87022371D01*
X259208424Y-87173174D01*
X259223870Y-87330000D01*
X259208424Y-87486826D01*
X259162679Y-87637629D01*
X259088392Y-87776608D01*
X258988422Y-87898422D01*
X258866608Y-87998392D01*
X258727629Y-88072679D01*
X258652227Y-88095552D01*
X258576827Y-88118424D01*
X258546682Y-88121393D01*
X258459295Y-88130000D01*
X258380705Y-88130000D01*
X258293318Y-88121393D01*
X258263173Y-88118424D01*
X258187773Y-88095552D01*
X258112371Y-88072679D01*
X257973392Y-87998392D01*
X257851578Y-87898422D01*
X257751608Y-87776608D01*
X257677321Y-87637629D01*
X257631576Y-87486826D01*
X257616130Y-87330000D01*
X257631576Y-87173174D01*
X257677321Y-87022371D01*
X257751608Y-86883392D01*
X257851578Y-86761578D01*
X257973392Y-86661608D01*
X258112371Y-86587321D01*
X258187773Y-86564448D01*
X258263173Y-86541576D01*
X258302351Y-86537717D01*
X258380705Y-86530000D01*
X258459295Y-86530000D01*
X258537649Y-86537717D01*
X258537649Y-86537717D01*
G37*
G36*
X205860015Y-85507668D02*
X205991049Y-85561944D01*
X206108975Y-85640740D01*
X206209260Y-85741025D01*
X206288056Y-85858951D01*
X206342332Y-85989985D01*
X206370000Y-86129085D01*
X206370000Y-86270915D01*
X206342332Y-86410015D01*
X206288056Y-86541049D01*
X206209260Y-86658975D01*
X206108975Y-86759260D01*
X205991049Y-86838056D01*
X205860015Y-86892332D01*
X205720915Y-86920000D01*
X205579085Y-86920000D01*
X205439985Y-86892332D01*
X205308951Y-86838056D01*
X205191025Y-86759260D01*
X205090740Y-86658975D01*
X205011944Y-86541049D01*
X204957668Y-86410015D01*
X204930000Y-86270915D01*
X204930000Y-86129085D01*
X204957668Y-85989985D01*
X205011944Y-85858951D01*
X205090740Y-85741025D01*
X205191025Y-85640740D01*
X205308951Y-85561944D01*
X205439985Y-85507668D01*
X205579085Y-85480000D01*
X205720915Y-85480000D01*
X205860015Y-85507668D01*
X205860015Y-85507668D01*
G37*
G36*
X247541649Y-84512717D02*
X247580827Y-84516576D01*
X247656227Y-84539448D01*
X247731629Y-84562321D01*
X247870608Y-84636608D01*
X247992422Y-84736578D01*
X248092392Y-84858392D01*
X248166679Y-84997371D01*
X248212424Y-85148174D01*
X248227870Y-85305000D01*
X248212424Y-85461826D01*
X248166679Y-85612629D01*
X248092392Y-85751608D01*
X247992422Y-85873422D01*
X247870608Y-85973392D01*
X247731629Y-86047679D01*
X247656228Y-86070551D01*
X247580827Y-86093424D01*
X247541649Y-86097283D01*
X247463295Y-86105000D01*
X247384705Y-86105000D01*
X247306351Y-86097283D01*
X247267173Y-86093424D01*
X247191772Y-86070551D01*
X247116371Y-86047679D01*
X246977392Y-85973392D01*
X246855578Y-85873422D01*
X246755608Y-85751608D01*
X246681321Y-85612629D01*
X246635576Y-85461826D01*
X246620130Y-85305000D01*
X246635576Y-85148174D01*
X246681321Y-84997371D01*
X246755608Y-84858392D01*
X246855578Y-84736578D01*
X246977392Y-84636608D01*
X247116371Y-84562321D01*
X247191773Y-84539448D01*
X247267173Y-84516576D01*
X247306351Y-84512717D01*
X247384705Y-84505000D01*
X247463295Y-84505000D01*
X247541649Y-84512717D01*
X247541649Y-84512717D01*
G37*
G36*
X250081649Y-84512717D02*
X250120827Y-84516576D01*
X250196227Y-84539448D01*
X250271629Y-84562321D01*
X250410608Y-84636608D01*
X250532422Y-84736578D01*
X250632392Y-84858392D01*
X250706679Y-84997371D01*
X250752424Y-85148174D01*
X250767870Y-85305000D01*
X250752424Y-85461826D01*
X250706679Y-85612629D01*
X250632392Y-85751608D01*
X250532422Y-85873422D01*
X250410608Y-85973392D01*
X250271629Y-86047679D01*
X250196228Y-86070551D01*
X250120827Y-86093424D01*
X250081649Y-86097283D01*
X250003295Y-86105000D01*
X249924705Y-86105000D01*
X249846351Y-86097283D01*
X249807173Y-86093424D01*
X249731772Y-86070551D01*
X249656371Y-86047679D01*
X249517392Y-85973392D01*
X249395578Y-85873422D01*
X249295608Y-85751608D01*
X249221321Y-85612629D01*
X249175576Y-85461826D01*
X249160130Y-85305000D01*
X249175576Y-85148174D01*
X249221321Y-84997371D01*
X249295608Y-84858392D01*
X249395578Y-84736578D01*
X249517392Y-84636608D01*
X249656371Y-84562321D01*
X249731773Y-84539448D01*
X249807173Y-84516576D01*
X249846351Y-84512717D01*
X249924705Y-84505000D01*
X250003295Y-84505000D01*
X250081649Y-84512717D01*
X250081649Y-84512717D01*
G37*
G36*
X252621649Y-84512717D02*
X252660827Y-84516576D01*
X252736227Y-84539448D01*
X252811629Y-84562321D01*
X252950608Y-84636608D01*
X253072422Y-84736578D01*
X253172392Y-84858392D01*
X253246679Y-84997371D01*
X253292424Y-85148174D01*
X253307870Y-85305000D01*
X253292424Y-85461826D01*
X253246679Y-85612629D01*
X253172392Y-85751608D01*
X253072422Y-85873422D01*
X252950608Y-85973392D01*
X252811629Y-86047679D01*
X252736228Y-86070551D01*
X252660827Y-86093424D01*
X252621649Y-86097283D01*
X252543295Y-86105000D01*
X252464705Y-86105000D01*
X252386351Y-86097283D01*
X252347173Y-86093424D01*
X252271772Y-86070551D01*
X252196371Y-86047679D01*
X252057392Y-85973392D01*
X251935578Y-85873422D01*
X251835608Y-85751608D01*
X251761321Y-85612629D01*
X251715576Y-85461826D01*
X251700130Y-85305000D01*
X251715576Y-85148174D01*
X251761321Y-84997371D01*
X251835608Y-84858392D01*
X251935578Y-84736578D01*
X252057392Y-84636608D01*
X252196371Y-84562321D01*
X252271773Y-84539448D01*
X252347173Y-84516576D01*
X252386351Y-84512717D01*
X252464705Y-84505000D01*
X252543295Y-84505000D01*
X252621649Y-84512717D01*
X252621649Y-84512717D01*
G37*
G36*
X255161649Y-84512717D02*
X255200827Y-84516576D01*
X255276227Y-84539448D01*
X255351629Y-84562321D01*
X255490608Y-84636608D01*
X255612422Y-84736578D01*
X255712392Y-84858392D01*
X255786679Y-84997371D01*
X255832424Y-85148174D01*
X255847870Y-85305000D01*
X255832424Y-85461826D01*
X255786679Y-85612629D01*
X255712392Y-85751608D01*
X255612422Y-85873422D01*
X255490608Y-85973392D01*
X255351629Y-86047679D01*
X255276227Y-86070552D01*
X255200827Y-86093424D01*
X255161649Y-86097283D01*
X255083295Y-86105000D01*
X255004705Y-86105000D01*
X254926351Y-86097283D01*
X254887173Y-86093424D01*
X254811772Y-86070551D01*
X254736371Y-86047679D01*
X254597392Y-85973392D01*
X254475578Y-85873422D01*
X254375608Y-85751608D01*
X254301321Y-85612629D01*
X254255576Y-85461826D01*
X254240130Y-85305000D01*
X254255576Y-85148174D01*
X254301321Y-84997371D01*
X254375608Y-84858392D01*
X254475578Y-84736578D01*
X254597392Y-84636608D01*
X254736371Y-84562321D01*
X254811773Y-84539448D01*
X254887173Y-84516576D01*
X254926351Y-84512717D01*
X255004705Y-84505000D01*
X255083295Y-84505000D01*
X255161649Y-84512717D01*
X255161649Y-84512717D01*
G37*
G36*
X243297649Y-83997717D02*
X243336827Y-84001576D01*
X243412227Y-84024448D01*
X243487629Y-84047321D01*
X243626608Y-84121608D01*
X243748422Y-84221578D01*
X243848392Y-84343392D01*
X243922679Y-84482371D01*
X243968424Y-84633174D01*
X243983870Y-84790000D01*
X243968424Y-84946826D01*
X243922679Y-85097629D01*
X243848392Y-85236608D01*
X243748422Y-85358422D01*
X243626608Y-85458392D01*
X243487629Y-85532679D01*
X243412227Y-85555552D01*
X243336827Y-85578424D01*
X243297649Y-85582283D01*
X243219295Y-85590000D01*
X243140705Y-85590000D01*
X243062351Y-85582283D01*
X243023173Y-85578424D01*
X242947773Y-85555552D01*
X242872371Y-85532679D01*
X242733392Y-85458392D01*
X242611578Y-85358422D01*
X242511608Y-85236608D01*
X242437321Y-85097629D01*
X242391576Y-84946826D01*
X242376130Y-84790000D01*
X242391576Y-84633174D01*
X242437321Y-84482371D01*
X242511608Y-84343392D01*
X242611578Y-84221578D01*
X242733392Y-84121608D01*
X242872371Y-84047321D01*
X242947773Y-84024448D01*
X243023173Y-84001576D01*
X243062351Y-83997717D01*
X243140705Y-83990000D01*
X243219295Y-83990000D01*
X243297649Y-83997717D01*
X243297649Y-83997717D01*
G37*
G36*
X258537649Y-83997717D02*
X258576827Y-84001576D01*
X258652227Y-84024448D01*
X258727629Y-84047321D01*
X258866608Y-84121608D01*
X258988422Y-84221578D01*
X259088392Y-84343392D01*
X259162679Y-84482371D01*
X259208424Y-84633174D01*
X259223870Y-84790000D01*
X259208424Y-84946826D01*
X259162679Y-85097629D01*
X259088392Y-85236608D01*
X258988422Y-85358422D01*
X258866608Y-85458392D01*
X258727629Y-85532679D01*
X258652227Y-85555552D01*
X258576827Y-85578424D01*
X258537649Y-85582283D01*
X258459295Y-85590000D01*
X258380705Y-85590000D01*
X258302351Y-85582283D01*
X258263173Y-85578424D01*
X258187773Y-85555552D01*
X258112371Y-85532679D01*
X257973392Y-85458392D01*
X257851578Y-85358422D01*
X257751608Y-85236608D01*
X257677321Y-85097629D01*
X257631576Y-84946826D01*
X257616130Y-84790000D01*
X257631576Y-84633174D01*
X257677321Y-84482371D01*
X257751608Y-84343392D01*
X257851578Y-84221578D01*
X257973392Y-84121608D01*
X258112371Y-84047321D01*
X258187773Y-84024448D01*
X258263173Y-84001576D01*
X258302351Y-83997717D01*
X258380705Y-83990000D01*
X258459295Y-83990000D01*
X258537649Y-83997717D01*
X258537649Y-83997717D01*
G37*
G36*
X214600000Y-85370000D02*
X212600000Y-85370000D01*
X212600000Y-83370000D01*
X214600000Y-83370000D01*
X214600000Y-85370000D01*
X214600000Y-85370000D01*
G37*
G36*
X253960723Y-81270782D02*
X254140268Y-81325247D01*
X254305741Y-81413693D01*
X254450778Y-81532722D01*
X254569807Y-81677759D01*
X254658253Y-81843231D01*
X254712718Y-82022776D01*
X254726500Y-82162711D01*
X254726500Y-82351288D01*
X254712718Y-82491223D01*
X254658253Y-82670768D01*
X254569807Y-82836241D01*
X254450778Y-82981278D01*
X254305741Y-83100307D01*
X254140269Y-83188753D01*
X253960724Y-83243218D01*
X253774000Y-83261608D01*
X253587277Y-83243218D01*
X253407732Y-83188753D01*
X253242264Y-83100309D01*
X253242263Y-83100308D01*
X253242259Y-83100306D01*
X253097222Y-82981278D01*
X253097221Y-82981276D01*
X253097219Y-82981275D01*
X252978193Y-82836241D01*
X252889747Y-82670769D01*
X252835282Y-82491224D01*
X252821500Y-82351289D01*
X252821500Y-82162712D01*
X252835282Y-82022777D01*
X252889747Y-81843232D01*
X252978193Y-81677759D01*
X253097222Y-81532722D01*
X253242259Y-81413693D01*
X253407731Y-81325247D01*
X253587276Y-81270782D01*
X253774000Y-81252392D01*
X253960723Y-81270782D01*
X253960723Y-81270782D01*
G37*
G36*
X251420723Y-81270782D02*
X251600268Y-81325247D01*
X251765741Y-81413693D01*
X251910778Y-81532722D01*
X252029807Y-81677759D01*
X252118253Y-81843231D01*
X252172718Y-82022776D01*
X252186500Y-82162711D01*
X252186500Y-82351288D01*
X252172718Y-82491223D01*
X252118253Y-82670768D01*
X252029807Y-82836241D01*
X251910778Y-82981278D01*
X251765741Y-83100307D01*
X251600269Y-83188753D01*
X251420724Y-83243218D01*
X251234000Y-83261608D01*
X251047277Y-83243218D01*
X250867732Y-83188753D01*
X250702264Y-83100309D01*
X250702263Y-83100308D01*
X250702259Y-83100306D01*
X250557222Y-82981278D01*
X250557221Y-82981276D01*
X250557219Y-82981275D01*
X250438193Y-82836241D01*
X250349747Y-82670769D01*
X250295282Y-82491224D01*
X250281500Y-82351289D01*
X250281500Y-82162712D01*
X250295282Y-82022777D01*
X250349747Y-81843232D01*
X250438193Y-81677759D01*
X250557222Y-81532722D01*
X250702259Y-81413693D01*
X250867731Y-81325247D01*
X251047276Y-81270782D01*
X251234000Y-81252392D01*
X251420723Y-81270782D01*
X251420723Y-81270782D01*
G37*
G36*
X249646500Y-83257000D02*
X247741500Y-83257000D01*
X247741500Y-81257000D01*
X249646500Y-81257000D01*
X249646500Y-83257000D01*
X249646500Y-83257000D01*
G37*
G36*
X243297649Y-81457717D02*
X243336827Y-81461576D01*
X243412227Y-81484448D01*
X243487629Y-81507321D01*
X243626608Y-81581608D01*
X243748422Y-81681578D01*
X243848392Y-81803392D01*
X243922679Y-81942371D01*
X243922679Y-81942372D01*
X243968424Y-82093173D01*
X243983870Y-82250000D01*
X243970974Y-82380941D01*
X243968424Y-82406826D01*
X243922679Y-82557629D01*
X243848392Y-82696608D01*
X243748422Y-82818422D01*
X243626608Y-82918392D01*
X243487629Y-82992679D01*
X243412227Y-83015552D01*
X243336827Y-83038424D01*
X243297649Y-83042283D01*
X243219295Y-83050000D01*
X243140705Y-83050000D01*
X243062351Y-83042283D01*
X243023173Y-83038424D01*
X242947773Y-83015552D01*
X242872371Y-82992679D01*
X242733392Y-82918392D01*
X242611578Y-82818422D01*
X242511608Y-82696608D01*
X242437321Y-82557629D01*
X242391576Y-82406826D01*
X242389027Y-82380941D01*
X242376130Y-82250000D01*
X242391576Y-82093173D01*
X242437321Y-81942372D01*
X242437321Y-81942371D01*
X242511608Y-81803392D01*
X242611578Y-81681578D01*
X242733392Y-81581608D01*
X242872371Y-81507321D01*
X242947773Y-81484448D01*
X243023173Y-81461576D01*
X243062351Y-81457717D01*
X243140705Y-81450000D01*
X243219295Y-81450000D01*
X243297649Y-81457717D01*
X243297649Y-81457717D01*
G37*
G36*
X258537649Y-81457717D02*
X258576827Y-81461576D01*
X258652227Y-81484448D01*
X258727629Y-81507321D01*
X258866608Y-81581608D01*
X258988422Y-81681578D01*
X259088392Y-81803392D01*
X259162679Y-81942371D01*
X259162679Y-81942372D01*
X259208424Y-82093173D01*
X259223870Y-82250000D01*
X259210974Y-82380941D01*
X259208424Y-82406826D01*
X259162679Y-82557629D01*
X259088392Y-82696608D01*
X258988422Y-82818422D01*
X258866608Y-82918392D01*
X258727629Y-82992679D01*
X258652227Y-83015552D01*
X258576827Y-83038424D01*
X258537649Y-83042283D01*
X258459295Y-83050000D01*
X258380705Y-83050000D01*
X258302351Y-83042283D01*
X258263173Y-83038424D01*
X258187773Y-83015552D01*
X258112371Y-82992679D01*
X257973392Y-82918392D01*
X257851578Y-82818422D01*
X257751608Y-82696608D01*
X257677321Y-82557629D01*
X257631576Y-82406826D01*
X257629027Y-82380941D01*
X257616130Y-82250000D01*
X257631576Y-82093173D01*
X257677321Y-81942372D01*
X257677321Y-81942371D01*
X257751608Y-81803392D01*
X257851578Y-81681578D01*
X257973392Y-81581608D01*
X258112371Y-81507321D01*
X258187773Y-81484448D01*
X258263173Y-81461576D01*
X258302351Y-81457717D01*
X258380705Y-81450000D01*
X258459295Y-81450000D01*
X258537649Y-81457717D01*
X258537649Y-81457717D01*
G37*
G36*
X208513352Y-81232743D02*
X208658941Y-81293048D01*
X208789973Y-81380601D01*
X208901399Y-81492027D01*
X208988952Y-81623059D01*
X209049257Y-81768648D01*
X209080000Y-81923205D01*
X209080000Y-82080795D01*
X209049257Y-82235352D01*
X208988952Y-82380941D01*
X208901399Y-82511973D01*
X208789973Y-82623399D01*
X208658941Y-82710952D01*
X208513352Y-82771257D01*
X208358795Y-82802000D01*
X208201205Y-82802000D01*
X208046648Y-82771257D01*
X207901059Y-82710952D01*
X207770027Y-82623399D01*
X207658601Y-82511973D01*
X207571048Y-82380941D01*
X207510743Y-82235352D01*
X207480000Y-82080795D01*
X207480000Y-81923205D01*
X207510743Y-81768648D01*
X207571048Y-81623059D01*
X207658601Y-81492027D01*
X207770027Y-81380601D01*
X207901059Y-81293048D01*
X208046648Y-81232743D01*
X208201205Y-81202000D01*
X208358795Y-81202000D01*
X208513352Y-81232743D01*
X208513352Y-81232743D01*
G37*
G36*
X243297649Y-78917717D02*
X243336827Y-78921576D01*
X243412227Y-78944448D01*
X243487629Y-78967321D01*
X243626608Y-79041608D01*
X243748422Y-79141578D01*
X243848392Y-79263392D01*
X243922679Y-79402371D01*
X243968424Y-79553174D01*
X243983870Y-79710000D01*
X243968424Y-79866826D01*
X243922679Y-80017629D01*
X243848392Y-80156608D01*
X243748422Y-80278422D01*
X243626608Y-80378392D01*
X243487629Y-80452679D01*
X243412227Y-80475552D01*
X243336827Y-80498424D01*
X243297649Y-80502283D01*
X243219295Y-80510000D01*
X243140705Y-80510000D01*
X243062351Y-80502283D01*
X243023173Y-80498424D01*
X242947772Y-80475551D01*
X242872371Y-80452679D01*
X242733392Y-80378392D01*
X242611578Y-80278422D01*
X242511608Y-80156608D01*
X242437321Y-80017629D01*
X242391576Y-79866826D01*
X242376130Y-79710000D01*
X242391576Y-79553174D01*
X242437321Y-79402371D01*
X242511608Y-79263392D01*
X242611578Y-79141578D01*
X242733392Y-79041608D01*
X242872371Y-78967321D01*
X242947772Y-78944449D01*
X243023173Y-78921576D01*
X243062351Y-78917717D01*
X243140705Y-78910000D01*
X243219295Y-78910000D01*
X243297649Y-78917717D01*
X243297649Y-78917717D01*
G37*
G36*
X258537649Y-78917717D02*
X258576827Y-78921576D01*
X258652227Y-78944448D01*
X258727629Y-78967321D01*
X258866608Y-79041608D01*
X258988422Y-79141578D01*
X259088392Y-79263392D01*
X259162679Y-79402371D01*
X259208424Y-79553174D01*
X259223870Y-79710000D01*
X259208424Y-79866826D01*
X259162679Y-80017629D01*
X259088392Y-80156608D01*
X258988422Y-80278422D01*
X258866608Y-80378392D01*
X258727629Y-80452679D01*
X258652227Y-80475552D01*
X258576827Y-80498424D01*
X258537649Y-80502283D01*
X258459295Y-80510000D01*
X258380705Y-80510000D01*
X258302351Y-80502283D01*
X258263173Y-80498424D01*
X258187772Y-80475551D01*
X258112371Y-80452679D01*
X257973392Y-80378392D01*
X257851578Y-80278422D01*
X257751608Y-80156608D01*
X257677321Y-80017629D01*
X257631576Y-79866826D01*
X257616130Y-79710000D01*
X257631576Y-79553174D01*
X257677321Y-79402371D01*
X257751608Y-79263392D01*
X257851578Y-79141578D01*
X257973392Y-79041608D01*
X258112371Y-78967321D01*
X258187772Y-78944449D01*
X258263173Y-78921576D01*
X258302351Y-78917717D01*
X258380705Y-78910000D01*
X258459295Y-78910000D01*
X258537649Y-78917717D01*
X258537649Y-78917717D01*
G37*
G36*
X209080000Y-80302000D02*
X207480000Y-80302000D01*
X207480000Y-78702000D01*
X209080000Y-78702000D01*
X209080000Y-80302000D01*
X209080000Y-80302000D01*
G37*
G36*
X258537649Y-76377717D02*
X258576827Y-76381576D01*
X258644710Y-76402168D01*
X258727629Y-76427321D01*
X258866608Y-76501608D01*
X258988422Y-76601578D01*
X259088392Y-76723392D01*
X259162679Y-76862371D01*
X259208424Y-77013174D01*
X259223870Y-77170000D01*
X259208424Y-77326826D01*
X259162679Y-77477629D01*
X259088392Y-77616608D01*
X258988422Y-77738422D01*
X258866608Y-77838392D01*
X258727629Y-77912679D01*
X258652228Y-77935551D01*
X258576827Y-77958424D01*
X258537649Y-77962283D01*
X258459295Y-77970000D01*
X258380705Y-77970000D01*
X258302351Y-77962283D01*
X258263173Y-77958424D01*
X258187773Y-77935552D01*
X258112371Y-77912679D01*
X257973392Y-77838392D01*
X257851578Y-77738422D01*
X257751608Y-77616608D01*
X257677321Y-77477629D01*
X257631576Y-77326826D01*
X257616130Y-77170000D01*
X257631576Y-77013174D01*
X257677321Y-76862371D01*
X257751608Y-76723392D01*
X257851578Y-76601578D01*
X257973392Y-76501608D01*
X258112371Y-76427321D01*
X258195290Y-76402168D01*
X258263173Y-76381576D01*
X258302351Y-76377717D01*
X258380705Y-76370000D01*
X258459295Y-76370000D01*
X258537649Y-76377717D01*
X258537649Y-76377717D01*
G37*
G36*
X243980000Y-77970000D02*
X242380000Y-77970000D01*
X242380000Y-76370000D01*
X243980000Y-76370000D01*
X243980000Y-77970000D01*
X243980000Y-77970000D01*
G37*
G36*
X233056950Y-73767717D02*
X233213655Y-73783151D01*
X233414722Y-73844144D01*
X233515257Y-73874641D01*
X233663828Y-73954054D01*
X233793213Y-74023212D01*
X233793215Y-74023213D01*
X233793214Y-74023213D01*
X234036845Y-74223155D01*
X234236787Y-74466786D01*
X234385359Y-74744743D01*
X234385359Y-74744744D01*
X234476849Y-75046345D01*
X234507741Y-75360000D01*
X234476849Y-75673655D01*
X234420737Y-75858630D01*
X234385359Y-75975257D01*
X234362055Y-76018855D01*
X234236788Y-76253213D01*
X234036845Y-76496845D01*
X233793213Y-76696788D01*
X233663828Y-76765946D01*
X233515257Y-76845359D01*
X233459172Y-76862372D01*
X233213655Y-76936849D01*
X233056950Y-76952283D01*
X232978598Y-76960000D01*
X232821402Y-76960000D01*
X232743050Y-76952283D01*
X232586345Y-76936849D01*
X232340828Y-76862372D01*
X232284743Y-76845359D01*
X232136172Y-76765946D01*
X232006787Y-76696788D01*
X231763155Y-76496845D01*
X231563212Y-76253213D01*
X231437945Y-76018855D01*
X231414641Y-75975257D01*
X231379263Y-75858630D01*
X231323151Y-75673655D01*
X231292259Y-75360000D01*
X231323151Y-75046345D01*
X231414641Y-74744744D01*
X231414641Y-74744743D01*
X231563213Y-74466786D01*
X231763155Y-74223155D01*
X232006786Y-74023213D01*
X232006785Y-74023213D01*
X232006787Y-74023212D01*
X232136172Y-73954054D01*
X232284743Y-73874641D01*
X232385278Y-73844144D01*
X232586345Y-73783151D01*
X232743050Y-73767717D01*
X232821402Y-73760000D01*
X232978598Y-73760000D01*
X233056950Y-73767717D01*
X233056950Y-73767717D01*
G37*
G36*
X205066000Y-76542000D02*
X203366000Y-76542000D01*
X203366000Y-74842000D01*
X205066000Y-74842000D01*
X205066000Y-76542000D01*
X205066000Y-76542000D01*
G37*
G36*
X206922630Y-74854299D02*
X207082855Y-74902903D01*
X207230520Y-74981831D01*
X207359949Y-75088051D01*
X207466169Y-75217480D01*
X207545097Y-75365145D01*
X207593701Y-75525370D01*
X207610112Y-75692000D01*
X207593701Y-75858630D01*
X207545097Y-76018855D01*
X207466169Y-76166520D01*
X207359949Y-76295949D01*
X207230520Y-76402169D01*
X207082855Y-76481097D01*
X206922630Y-76529701D01*
X206797752Y-76542000D01*
X206714248Y-76542000D01*
X206589370Y-76529701D01*
X206429145Y-76481097D01*
X206281480Y-76402169D01*
X206152051Y-76295949D01*
X206045831Y-76166520D01*
X205966903Y-76018855D01*
X205918299Y-75858630D01*
X205901888Y-75692000D01*
X205918299Y-75525370D01*
X205966903Y-75365145D01*
X206045831Y-75217480D01*
X206152051Y-75088051D01*
X206281480Y-74981831D01*
X206429145Y-74902903D01*
X206589370Y-74854299D01*
X206714248Y-74842000D01*
X206797752Y-74842000D01*
X206922630Y-74854299D01*
X206922630Y-74854299D01*
G37*
G36*
X209462630Y-74854299D02*
X209622855Y-74902903D01*
X209770520Y-74981831D01*
X209899949Y-75088051D01*
X210006169Y-75217480D01*
X210085097Y-75365145D01*
X210133701Y-75525370D01*
X210150112Y-75692000D01*
X210133701Y-75858630D01*
X210085097Y-76018855D01*
X210006169Y-76166520D01*
X209899949Y-76295949D01*
X209770520Y-76402169D01*
X209622855Y-76481097D01*
X209462630Y-76529701D01*
X209337752Y-76542000D01*
X209254248Y-76542000D01*
X209129370Y-76529701D01*
X208969145Y-76481097D01*
X208821480Y-76402169D01*
X208692051Y-76295949D01*
X208585831Y-76166520D01*
X208506903Y-76018855D01*
X208458299Y-75858630D01*
X208441888Y-75692000D01*
X208458299Y-75525370D01*
X208506903Y-75365145D01*
X208585831Y-75217480D01*
X208692051Y-75088051D01*
X208821480Y-74981831D01*
X208969145Y-74902903D01*
X209129370Y-74854299D01*
X209254248Y-74842000D01*
X209337752Y-74842000D01*
X209462630Y-74854299D01*
X209462630Y-74854299D01*
G37*
G36*
X219559196Y-67761958D02*
X219795780Y-67859954D01*
X220008705Y-68002226D01*
X220189774Y-68183295D01*
X220332046Y-68396220D01*
X220430042Y-68632804D01*
X220480000Y-68883960D01*
X220480000Y-69140040D01*
X220430042Y-69391196D01*
X220332046Y-69627780D01*
X220189774Y-69840705D01*
X220008705Y-70021774D01*
X219795780Y-70164046D01*
X219559196Y-70262042D01*
X219308040Y-70312000D01*
X219051960Y-70312000D01*
X218800804Y-70262042D01*
X218564220Y-70164046D01*
X218351295Y-70021774D01*
X218170226Y-69840705D01*
X218027954Y-69627780D01*
X217929958Y-69391196D01*
X217880000Y-69140040D01*
X217880000Y-68883960D01*
X217929958Y-68632804D01*
X218027954Y-68396220D01*
X218170226Y-68183295D01*
X218351295Y-68002226D01*
X218564220Y-67859954D01*
X218800804Y-67761958D01*
X219051960Y-67712000D01*
X219308040Y-67712000D01*
X219559196Y-67761958D01*
X219559196Y-67761958D01*
G37*
G36*
X247559196Y-67761958D02*
X247795780Y-67859954D01*
X248008705Y-68002226D01*
X248189774Y-68183295D01*
X248332046Y-68396220D01*
X248430042Y-68632804D01*
X248480000Y-68883960D01*
X248480000Y-69140040D01*
X248430042Y-69391196D01*
X248332046Y-69627780D01*
X248189774Y-69840705D01*
X248008705Y-70021774D01*
X247795780Y-70164046D01*
X247559196Y-70262042D01*
X247308040Y-70312000D01*
X247051960Y-70312000D01*
X246800804Y-70262042D01*
X246564220Y-70164046D01*
X246351295Y-70021774D01*
X246170226Y-69840705D01*
X246027954Y-69627780D01*
X245929958Y-69391196D01*
X245880000Y-69140040D01*
X245880000Y-68883960D01*
X245929958Y-68632804D01*
X246027954Y-68396220D01*
X246170226Y-68183295D01*
X246351295Y-68002226D01*
X246564220Y-67859954D01*
X246800804Y-67761958D01*
X247051960Y-67712000D01*
X247308040Y-67712000D01*
X247559196Y-67761958D01*
X247559196Y-67761958D01*
G37*
G36*
X208620935Y-62800429D02*
X208717534Y-62819644D01*
X208990517Y-62932717D01*
X209232920Y-63094687D01*
X209236197Y-63096876D01*
X209445124Y-63305803D01*
X209609284Y-63551485D01*
X209722356Y-63824467D01*
X209780000Y-64114261D01*
X209780000Y-64409739D01*
X209722356Y-64699533D01*
X209609284Y-64972515D01*
X209445124Y-65218197D01*
X209236197Y-65427124D01*
X209236194Y-65427126D01*
X208990517Y-65591283D01*
X208717534Y-65704356D01*
X208620935Y-65723571D01*
X208427739Y-65762000D01*
X208132261Y-65762000D01*
X207939065Y-65723571D01*
X207842466Y-65704356D01*
X207569483Y-65591283D01*
X207323806Y-65427126D01*
X207323803Y-65427124D01*
X207114876Y-65218197D01*
X206950716Y-64972515D01*
X206837644Y-64699533D01*
X206780000Y-64409739D01*
X206780000Y-64114261D01*
X206837644Y-63824467D01*
X206950716Y-63551485D01*
X207114876Y-63305803D01*
X207323803Y-63096876D01*
X207327080Y-63094687D01*
X207569483Y-62932717D01*
X207842466Y-62819644D01*
X207939065Y-62800429D01*
X208132261Y-62762000D01*
X208427739Y-62762000D01*
X208620935Y-62800429D01*
X208620935Y-62800429D01*
G37*
G36*
X210533778Y-55941879D02*
X210779466Y-56043646D01*
X211000578Y-56191389D01*
X211188611Y-56379422D01*
X211336354Y-56600534D01*
X211438121Y-56846222D01*
X211490000Y-57107035D01*
X211490000Y-57372965D01*
X211438121Y-57633778D01*
X211336354Y-57879466D01*
X211188611Y-58100578D01*
X211000578Y-58288611D01*
X210779466Y-58436354D01*
X210533778Y-58538121D01*
X210272965Y-58590000D01*
X210007035Y-58590000D01*
X209746222Y-58538121D01*
X209500534Y-58436354D01*
X209279422Y-58288611D01*
X209091389Y-58100578D01*
X208943646Y-57879466D01*
X208841879Y-57633778D01*
X208790000Y-57372965D01*
X208790000Y-57107035D01*
X208841879Y-56846222D01*
X208943646Y-56600534D01*
X209091389Y-56379422D01*
X209279422Y-56191389D01*
X209500534Y-56043646D01*
X209746222Y-55941879D01*
X210007035Y-55890000D01*
X210272965Y-55890000D01*
X210533778Y-55941879D01*
X210533778Y-55941879D01*
G37*
G36*
X256363778Y-55871879D02*
X256609466Y-55973646D01*
X256830578Y-56121389D01*
X257018611Y-56309422D01*
X257166354Y-56530534D01*
X257268121Y-56776222D01*
X257320000Y-57037035D01*
X257320000Y-57302965D01*
X257268121Y-57563778D01*
X257166354Y-57809466D01*
X257018611Y-58030578D01*
X256830578Y-58218611D01*
X256609466Y-58366354D01*
X256363778Y-58468121D01*
X256102965Y-58520000D01*
X255837035Y-58520000D01*
X255576222Y-58468121D01*
X255330534Y-58366354D01*
X255109422Y-58218611D01*
X254921389Y-58030578D01*
X254773646Y-57809466D01*
X254671879Y-57563778D01*
X254620000Y-57302965D01*
X254620000Y-57037035D01*
X254671879Y-56776222D01*
X254773646Y-56530534D01*
X254921389Y-56309422D01*
X255109422Y-56121389D01*
X255330534Y-55973646D01*
X255576222Y-55871879D01*
X255837035Y-55820000D01*
X256102965Y-55820000D01*
X256363778Y-55871879D01*
X256363778Y-55871879D01*
G37*
G36*
X209780000Y-53062000D02*
X206780000Y-53062000D01*
X206780000Y-50062000D01*
X209780000Y-50062000D01*
X209780000Y-53062000D01*
X209780000Y-53062000D01*
G37*
G36*
X233559196Y-45561958D02*
X233795780Y-45659954D01*
X234008705Y-45802226D01*
X234189774Y-45983295D01*
X234332046Y-46196220D01*
X234430042Y-46432804D01*
X234480000Y-46683960D01*
X234480000Y-46940040D01*
X234430042Y-47191196D01*
X234332046Y-47427780D01*
X234189774Y-47640705D01*
X234008705Y-47821774D01*
X233795780Y-47964046D01*
X233559196Y-48062042D01*
X233308040Y-48112000D01*
X233051960Y-48112000D01*
X232800804Y-48062042D01*
X232564220Y-47964046D01*
X232351295Y-47821774D01*
X232170226Y-47640705D01*
X232027954Y-47427780D01*
X231929958Y-47191196D01*
X231880000Y-46940040D01*
X231880000Y-46683960D01*
X231929958Y-46432804D01*
X232027954Y-46196220D01*
X232170226Y-45983295D01*
X232351295Y-45802226D01*
X232564220Y-45659954D01*
X232800804Y-45561958D01*
X233051960Y-45512000D01*
X233308040Y-45512000D01*
X233559196Y-45561958D01*
X233559196Y-45561958D01*
G37*
G36*
X233423778Y-38221879D02*
X233669466Y-38323646D01*
X233890578Y-38471389D01*
X234078611Y-38659422D01*
X234226354Y-38880534D01*
X234328121Y-39126222D01*
X234380000Y-39387035D01*
X234380000Y-39652965D01*
X234328121Y-39913778D01*
X234226354Y-40159466D01*
X234078611Y-40380578D01*
X233890578Y-40568611D01*
X233669466Y-40716354D01*
X233423778Y-40818121D01*
X233162965Y-40870000D01*
X232897035Y-40870000D01*
X232636222Y-40818121D01*
X232390534Y-40716354D01*
X232169422Y-40568611D01*
X231981389Y-40380578D01*
X231833646Y-40159466D01*
X231731879Y-39913778D01*
X231680000Y-39652965D01*
X231680000Y-39387035D01*
X231731879Y-39126222D01*
X231833646Y-38880534D01*
X231981389Y-38659422D01*
X232169422Y-38471389D01*
X232390534Y-38323646D01*
X232636222Y-38221879D01*
X232897035Y-38170000D01*
X233162965Y-38170000D01*
X233423778Y-38221879D01*
X233423778Y-38221879D01*
G37*
M02*
