G04 #@! TF.GenerationSoftware,KiCad,Pcbnew,(5.0.2)-1*
G04 #@! TF.CreationDate,2019-04-21T19:49:24-04:00*
G04 #@! TF.ProjectId,_saved__saved_tDCS,5f736176-6564-45f5-9f73-617665645f74,rev?*
G04 #@! TF.SameCoordinates,Original*
G04 #@! TF.FileFunction,Copper,L2,Bot*
G04 #@! TF.FilePolarity,Positive*
%FSLAX46Y46*%
G04 Gerber Fmt 4.6, Leading zero omitted, Abs format (unit mm)*
G04 Created by KiCad (PCBNEW (5.0.2)-1) date 4/21/2019 7:49:24 PM*
%MOMM*%
%LPD*%
G01*
G04 APERTURE LIST*
G04 #@! TA.AperFunction,ComponentPad*
%ADD10C,1.440000*%
G04 #@! TD*
G04 #@! TA.AperFunction,ComponentPad*
%ADD11R,1.600000X1.600000*%
G04 #@! TD*
G04 #@! TA.AperFunction,ComponentPad*
%ADD12C,1.600000*%
G04 #@! TD*
G04 #@! TA.AperFunction,ComponentPad*
%ADD13C,3.000000*%
G04 #@! TD*
G04 #@! TA.AperFunction,ComponentPad*
%ADD14R,3.000000X3.000000*%
G04 #@! TD*
G04 #@! TA.AperFunction,ComponentPad*
%ADD15O,1.600000X1.600000*%
G04 #@! TD*
G04 #@! TA.AperFunction,ComponentPad*
%ADD16C,2.000000*%
G04 #@! TD*
G04 #@! TA.AperFunction,ComponentPad*
%ADD17R,2.000000X2.000000*%
G04 #@! TD*
G04 #@! TA.AperFunction,ComponentPad*
%ADD18R,3.200000X3.200000*%
G04 #@! TD*
G04 #@! TA.AperFunction,ComponentPad*
%ADD19O,3.200000X3.200000*%
G04 #@! TD*
G04 #@! TA.AperFunction,ComponentPad*
%ADD20O,1.700000X1.700000*%
G04 #@! TD*
G04 #@! TA.AperFunction,ComponentPad*
%ADD21R,1.700000X1.700000*%
G04 #@! TD*
G04 #@! TA.AperFunction,ComponentPad*
%ADD22C,1.500000*%
G04 #@! TD*
G04 #@! TA.AperFunction,ComponentPad*
%ADD23R,1.500000X1.500000*%
G04 #@! TD*
G04 #@! TA.AperFunction,ComponentPad*
%ADD24R,2.000000X1.905000*%
G04 #@! TD*
G04 #@! TA.AperFunction,ComponentPad*
%ADD25O,2.000000X1.905000*%
G04 #@! TD*
G04 #@! TA.AperFunction,ComponentPad*
%ADD26O,1.905000X2.000000*%
G04 #@! TD*
G04 #@! TA.AperFunction,ComponentPad*
%ADD27R,1.905000X2.000000*%
G04 #@! TD*
G04 #@! TA.AperFunction,Conductor*
%ADD28C,0.100000*%
G04 #@! TD*
G04 #@! TA.AperFunction,SMDPad,CuDef*
%ADD29C,0.975000*%
G04 #@! TD*
G04 #@! TA.AperFunction,ViaPad*
%ADD30C,0.800000*%
G04 #@! TD*
G04 #@! TA.AperFunction,Conductor*
%ADD31C,0.250000*%
G04 #@! TD*
G04 #@! TA.AperFunction,Conductor*
%ADD32C,0.254000*%
G04 #@! TD*
G04 APERTURE END LIST*
D10*
G04 #@! TO.P,RV1,1*
G04 #@! TO.N,GND*
X205650000Y-86200000D03*
G04 #@! TO.P,RV1,2*
G04 #@! TO.N,/A3*
X205650000Y-88740000D03*
G04 #@! TO.P,RV1,3*
G04 #@! TO.N,Net-(RV1-Pad3)*
X205650000Y-91280000D03*
G04 #@! TD*
D11*
G04 #@! TO.P,BZ1,1*
G04 #@! TO.N,/buzzer*
X234530000Y-113720000D03*
D12*
G04 #@! TO.P,BZ1,2*
G04 #@! TO.N,GND*
X234530000Y-107220000D03*
G04 #@! TD*
D13*
G04 #@! TO.P,BT2,2*
G04 #@! TO.N,GND*
X208280000Y-64262000D03*
D14*
G04 #@! TO.P,BT2,1*
G04 #@! TO.N,Net-(BT1-Pad1)*
X208280000Y-51562000D03*
G04 #@! TD*
D11*
G04 #@! TO.P,A1,1*
G04 #@! TO.N,Net-(A1-Pad1)*
X243180000Y-77170000D03*
D15*
G04 #@! TO.P,A1,17*
G04 #@! TO.N,Net-(A1-Pad17)*
X258420000Y-110190000D03*
G04 #@! TO.P,A1,2*
G04 #@! TO.N,Net-(A1-Pad2)*
X243180000Y-79710000D03*
G04 #@! TO.P,A1,18*
G04 #@! TO.N,Net-(A1-Pad18)*
X258420000Y-107650000D03*
G04 #@! TO.P,A1,3*
G04 #@! TO.N,Net-(A1-Pad3)*
X243180000Y-82250000D03*
G04 #@! TO.P,A1,19*
G04 #@! TO.N,Net-(A1-Pad19)*
X258420000Y-105110000D03*
G04 #@! TO.P,A1,4*
G04 #@! TO.N,GND*
X243180000Y-84790000D03*
G04 #@! TO.P,A1,20*
G04 #@! TO.N,Net-(A1-Pad20)*
X258420000Y-102570000D03*
G04 #@! TO.P,A1,5*
G04 #@! TO.N,Net-(A1-Pad5)*
X243180000Y-87330000D03*
G04 #@! TO.P,A1,21*
G04 #@! TO.N,Net-(A1-Pad21)*
X258420000Y-100030000D03*
G04 #@! TO.P,A1,6*
G04 #@! TO.N,Net-(A1-Pad6)*
X243180000Y-89870000D03*
G04 #@! TO.P,A1,22*
G04 #@! TO.N,/A3*
X258420000Y-97490000D03*
G04 #@! TO.P,A1,7*
G04 #@! TO.N,Net-(A1-Pad7)*
X243180000Y-92410000D03*
G04 #@! TO.P,A1,23*
G04 #@! TO.N,Net-(A1-Pad23)*
X258420000Y-94950000D03*
G04 #@! TO.P,A1,8*
G04 #@! TO.N,Net-(A1-Pad8)*
X243180000Y-94950000D03*
G04 #@! TO.P,A1,24*
G04 #@! TO.N,Net-(A1-Pad24)*
X258420000Y-92410000D03*
G04 #@! TO.P,A1,9*
G04 #@! TO.N,Net-(A1-Pad9)*
X243180000Y-97490000D03*
G04 #@! TO.P,A1,25*
G04 #@! TO.N,/A6*
X258420000Y-89870000D03*
G04 #@! TO.P,A1,10*
G04 #@! TO.N,Net-(A1-Pad10)*
X243180000Y-100030000D03*
G04 #@! TO.P,A1,26*
G04 #@! TO.N,/A7*
X258420000Y-87330000D03*
G04 #@! TO.P,A1,11*
G04 #@! TO.N,Net-(A1-Pad11)*
X243180000Y-102570000D03*
G04 #@! TO.P,A1,27*
G04 #@! TO.N,+5V*
X258420000Y-84790000D03*
G04 #@! TO.P,A1,12*
G04 #@! TO.N,gate_control*
X243180000Y-105110000D03*
G04 #@! TO.P,A1,28*
G04 #@! TO.N,Net-(A1-Pad28)*
X258420000Y-82250000D03*
G04 #@! TO.P,A1,13*
G04 #@! TO.N,Net-(A1-Pad13)*
X243180000Y-107650000D03*
G04 #@! TO.P,A1,29*
G04 #@! TO.N,GND*
X258420000Y-79710000D03*
G04 #@! TO.P,A1,14*
G04 #@! TO.N,Net-(A1-Pad14)*
X243180000Y-110190000D03*
G04 #@! TO.P,A1,30*
G04 #@! TO.N,Net-(A1-Pad30)*
X258420000Y-77170000D03*
G04 #@! TO.P,A1,15*
G04 #@! TO.N,Net-(A1-Pad15)*
X243180000Y-112730000D03*
G04 #@! TO.P,A1,16*
G04 #@! TO.N,/buzzer*
X258420000Y-112730000D03*
G04 #@! TD*
D11*
G04 #@! TO.P,C1,1*
G04 #@! TO.N,+9V*
X208280000Y-79502000D03*
D12*
G04 #@! TO.P,C1,2*
G04 #@! TO.N,GND*
X208280000Y-82002000D03*
G04 #@! TD*
D16*
G04 #@! TO.P,C2,2*
G04 #@! TO.N,GND*
X213600000Y-89370000D03*
D17*
G04 #@! TO.P,C2,1*
G04 #@! TO.N,+9V*
X213600000Y-84370000D03*
G04 #@! TD*
D11*
G04 #@! TO.P,C3,1*
G04 #@! TO.N,Net-(C3-Pad1)*
X227690000Y-94720000D03*
D12*
G04 #@! TO.P,C3,2*
G04 #@! TO.N,Net-(C3-Pad2)*
X224190000Y-94720000D03*
G04 #@! TD*
D17*
G04 #@! TO.P,C4,1*
G04 #@! TO.N,boostout+*
X223325000Y-110100000D03*
D16*
G04 #@! TO.P,C4,2*
G04 #@! TO.N,GND*
X223325000Y-115100000D03*
G04 #@! TD*
D12*
G04 #@! TO.P,C5,2*
G04 #@! TO.N,GND*
X226900000Y-105100000D03*
D11*
G04 #@! TO.P,C5,1*
G04 #@! TO.N,Net-(C5-Pad1)*
X226900000Y-101600000D03*
G04 #@! TD*
D18*
G04 #@! TO.P,D2,1*
G04 #@! TO.N,Net-(C3-Pad1)*
X232900000Y-90600000D03*
D19*
G04 #@! TO.P,D2,2*
G04 #@! TO.N,Net-(D2-Pad2)*
X232900000Y-75360000D03*
G04 #@! TD*
D20*
G04 #@! TO.P,J2,2*
G04 #@! TO.N,boostout+*
X239150000Y-89020000D03*
D21*
G04 #@! TO.P,J2,1*
G04 #@! TO.N,GND*
X236610000Y-89020000D03*
G04 #@! TD*
G04 #@! TO.P,J3,1*
G04 #@! TO.N,Net-(J1-PadT)*
X206050000Y-100560000D03*
D20*
G04 #@! TO.P,J3,2*
G04 #@! TO.N,boostout+*
X206050000Y-103100000D03*
G04 #@! TD*
D22*
G04 #@! TO.P,Q1,2*
G04 #@! TO.N,Net-(D1-Pad1)*
X210600000Y-95390000D03*
G04 #@! TO.P,Q1,3*
G04 #@! TO.N,Net-(J1-PadT)*
X210600000Y-97930000D03*
D23*
G04 #@! TO.P,Q1,1*
G04 #@! TO.N,/A3*
X210600000Y-92850000D03*
G04 #@! TD*
D24*
G04 #@! TO.P,Q2,1*
G04 #@! TO.N,Net-(C5-Pad1)*
X218230000Y-94090000D03*
D25*
G04 #@! TO.P,Q2,2*
G04 #@! TO.N,Net-(D1-Pad1)*
X218230000Y-96630000D03*
G04 #@! TO.P,Q2,3*
G04 #@! TO.N,GND*
X218230000Y-99170000D03*
G04 #@! TD*
D10*
G04 #@! TO.P,RV2,3*
G04 #@! TO.N,GND*
X235075000Y-95795000D03*
G04 #@! TO.P,RV2,2*
G04 #@! TO.N,Net-(C3-Pad2)*
X235075000Y-98335000D03*
G04 #@! TO.P,RV2,1*
G04 #@! TO.N,Net-(C3-Pad1)*
X235075000Y-100875000D03*
G04 #@! TD*
D21*
G04 #@! TO.P,SW1,1*
G04 #@! TO.N,GND*
X204216000Y-75692000D03*
D20*
G04 #@! TO.P,SW1,2*
G04 #@! TO.N,Net-(BT1-Pad1)*
X206756000Y-75692000D03*
G04 #@! TO.P,SW1,3*
G04 #@! TO.N,+9V*
X209296000Y-75692000D03*
G04 #@! TD*
D26*
G04 #@! TO.P,U2,3*
G04 #@! TO.N,+5V*
X253774000Y-82257000D03*
G04 #@! TO.P,U2,2*
G04 #@! TO.N,GND*
X251234000Y-82257000D03*
D27*
G04 #@! TO.P,U2,1*
G04 #@! TO.N,Net-(JP1-Pad1)*
X248694000Y-82257000D03*
G04 #@! TD*
D11*
G04 #@! TO.P,U3,1*
G04 #@! TO.N,Net-(U3-Pad1)*
X247424000Y-92925000D03*
D15*
G04 #@! TO.P,U3,5*
G04 #@! TO.N,/buzzer*
X255044000Y-85305000D03*
G04 #@! TO.P,U3,2*
G04 #@! TO.N,/XTAL1*
X249964000Y-92925000D03*
G04 #@! TO.P,U3,6*
G04 #@! TO.N,/A6*
X252504000Y-85305000D03*
G04 #@! TO.P,U3,3*
G04 #@! TO.N,/XTAL2*
X252504000Y-92925000D03*
G04 #@! TO.P,U3,7*
G04 #@! TO.N,gate_control*
X249964000Y-85305000D03*
G04 #@! TO.P,U3,4*
G04 #@! TO.N,GND*
X255044000Y-92925000D03*
G04 #@! TO.P,U3,8*
G04 #@! TO.N,+5V*
X247424000Y-85305000D03*
G04 #@! TD*
D22*
G04 #@! TO.P,Y1,1*
G04 #@! TO.N,/XTAL1*
X248600000Y-98700000D03*
G04 #@! TO.P,Y1,2*
G04 #@! TO.N,/XTAL2*
X253480000Y-98700000D03*
G04 #@! TD*
D28*
G04 #@! TO.N,+5V*
G04 #@! TO.C,C8*
G36*
X250480142Y-88051174D02*
X250503803Y-88054684D01*
X250527007Y-88060496D01*
X250549529Y-88068554D01*
X250571153Y-88078782D01*
X250591670Y-88091079D01*
X250610883Y-88105329D01*
X250628607Y-88121393D01*
X250644671Y-88139117D01*
X250658921Y-88158330D01*
X250671218Y-88178847D01*
X250681446Y-88200471D01*
X250689504Y-88222993D01*
X250695316Y-88246197D01*
X250698826Y-88269858D01*
X250700000Y-88293750D01*
X250700000Y-89206250D01*
X250698826Y-89230142D01*
X250695316Y-89253803D01*
X250689504Y-89277007D01*
X250681446Y-89299529D01*
X250671218Y-89321153D01*
X250658921Y-89341670D01*
X250644671Y-89360883D01*
X250628607Y-89378607D01*
X250610883Y-89394671D01*
X250591670Y-89408921D01*
X250571153Y-89421218D01*
X250549529Y-89431446D01*
X250527007Y-89439504D01*
X250503803Y-89445316D01*
X250480142Y-89448826D01*
X250456250Y-89450000D01*
X249968750Y-89450000D01*
X249944858Y-89448826D01*
X249921197Y-89445316D01*
X249897993Y-89439504D01*
X249875471Y-89431446D01*
X249853847Y-89421218D01*
X249833330Y-89408921D01*
X249814117Y-89394671D01*
X249796393Y-89378607D01*
X249780329Y-89360883D01*
X249766079Y-89341670D01*
X249753782Y-89321153D01*
X249743554Y-89299529D01*
X249735496Y-89277007D01*
X249729684Y-89253803D01*
X249726174Y-89230142D01*
X249725000Y-89206250D01*
X249725000Y-88293750D01*
X249726174Y-88269858D01*
X249729684Y-88246197D01*
X249735496Y-88222993D01*
X249743554Y-88200471D01*
X249753782Y-88178847D01*
X249766079Y-88158330D01*
X249780329Y-88139117D01*
X249796393Y-88121393D01*
X249814117Y-88105329D01*
X249833330Y-88091079D01*
X249853847Y-88078782D01*
X249875471Y-88068554D01*
X249897993Y-88060496D01*
X249921197Y-88054684D01*
X249944858Y-88051174D01*
X249968750Y-88050000D01*
X250456250Y-88050000D01*
X250480142Y-88051174D01*
X250480142Y-88051174D01*
G37*
D29*
G04 #@! TD*
G04 #@! TO.P,C8,1*
G04 #@! TO.N,+5V*
X250212500Y-88750000D03*
D28*
G04 #@! TO.N,GND*
G04 #@! TO.C,C8*
G36*
X252355142Y-88051174D02*
X252378803Y-88054684D01*
X252402007Y-88060496D01*
X252424529Y-88068554D01*
X252446153Y-88078782D01*
X252466670Y-88091079D01*
X252485883Y-88105329D01*
X252503607Y-88121393D01*
X252519671Y-88139117D01*
X252533921Y-88158330D01*
X252546218Y-88178847D01*
X252556446Y-88200471D01*
X252564504Y-88222993D01*
X252570316Y-88246197D01*
X252573826Y-88269858D01*
X252575000Y-88293750D01*
X252575000Y-89206250D01*
X252573826Y-89230142D01*
X252570316Y-89253803D01*
X252564504Y-89277007D01*
X252556446Y-89299529D01*
X252546218Y-89321153D01*
X252533921Y-89341670D01*
X252519671Y-89360883D01*
X252503607Y-89378607D01*
X252485883Y-89394671D01*
X252466670Y-89408921D01*
X252446153Y-89421218D01*
X252424529Y-89431446D01*
X252402007Y-89439504D01*
X252378803Y-89445316D01*
X252355142Y-89448826D01*
X252331250Y-89450000D01*
X251843750Y-89450000D01*
X251819858Y-89448826D01*
X251796197Y-89445316D01*
X251772993Y-89439504D01*
X251750471Y-89431446D01*
X251728847Y-89421218D01*
X251708330Y-89408921D01*
X251689117Y-89394671D01*
X251671393Y-89378607D01*
X251655329Y-89360883D01*
X251641079Y-89341670D01*
X251628782Y-89321153D01*
X251618554Y-89299529D01*
X251610496Y-89277007D01*
X251604684Y-89253803D01*
X251601174Y-89230142D01*
X251600000Y-89206250D01*
X251600000Y-88293750D01*
X251601174Y-88269858D01*
X251604684Y-88246197D01*
X251610496Y-88222993D01*
X251618554Y-88200471D01*
X251628782Y-88178847D01*
X251641079Y-88158330D01*
X251655329Y-88139117D01*
X251671393Y-88121393D01*
X251689117Y-88105329D01*
X251708330Y-88091079D01*
X251728847Y-88078782D01*
X251750471Y-88068554D01*
X251772993Y-88060496D01*
X251796197Y-88054684D01*
X251819858Y-88051174D01*
X251843750Y-88050000D01*
X252331250Y-88050000D01*
X252355142Y-88051174D01*
X252355142Y-88051174D01*
G37*
D29*
G04 #@! TD*
G04 #@! TO.P,C8,2*
G04 #@! TO.N,GND*
X252087500Y-88750000D03*
D13*
G04 #@! TO.P,BT1,2*
G04 #@! TO.N,GND*
X255550000Y-115875000D03*
D14*
G04 #@! TO.P,BT1,1*
G04 #@! TO.N,Net-(BT1-Pad1)*
X255550000Y-103175000D03*
G04 #@! TD*
D30*
G04 #@! TO.N,GND*
X227076000Y-98425000D03*
X240538000Y-91440000D03*
X219202000Y-85598000D03*
X256460000Y-107280000D03*
X253970000Y-107270000D03*
X251250000Y-94150000D03*
X219202000Y-86868000D03*
X219202000Y-88138000D03*
X219202000Y-89408000D03*
X219202000Y-90678000D03*
X220472000Y-90932000D03*
X221742000Y-90932000D03*
X238125000Y-76200000D03*
X215900000Y-81915000D03*
X257175000Y-78740000D03*
X216450000Y-95700000D03*
X229825000Y-110325000D03*
X214175000Y-100075000D03*
X215200000Y-100075000D03*
X216175000Y-100075000D03*
X216580000Y-101130000D03*
X217600000Y-101100000D03*
X228900000Y-92200000D03*
X218800000Y-101260000D03*
X259900000Y-74075000D03*
X256810000Y-80870000D03*
X256350000Y-83180000D03*
X256820000Y-85630000D03*
X211400000Y-110300000D03*
X206025000Y-107250000D03*
X220440000Y-113710000D03*
X237490000Y-98806000D03*
G04 #@! TO.N,/A3*
X237612655Y-102392612D03*
X239300000Y-103440000D03*
G04 #@! TO.N,+5V*
X255208289Y-80811798D03*
G04 #@! TO.N,boostout+*
X217400000Y-108350000D03*
X218500000Y-108350000D03*
X221914000Y-106450000D03*
X222803000Y-106450000D03*
X223692000Y-106450000D03*
X224581000Y-106450000D03*
X221025000Y-107339000D03*
X221914000Y-107339000D03*
X222803000Y-107339000D03*
X223692000Y-107339000D03*
X224581000Y-107339000D03*
X221025000Y-108228000D03*
X221914000Y-108228000D03*
X223692000Y-108228000D03*
X224581000Y-108228000D03*
X220150000Y-106450000D03*
X220150000Y-107350000D03*
X222810000Y-108220000D03*
X221000000Y-106450000D03*
X219650000Y-108225000D03*
G04 #@! TO.N,Net-(D1-Pad1)*
X216375000Y-104825000D03*
X216350000Y-103875000D03*
X220075000Y-103075000D03*
X220964000Y-103075000D03*
X221853000Y-103075000D03*
X222742000Y-103075000D03*
X223631000Y-103075000D03*
X220075000Y-103964000D03*
X220964000Y-103964000D03*
X221853000Y-103964000D03*
X222742000Y-103964000D03*
X223631000Y-103964000D03*
X220075000Y-104853000D03*
X220964000Y-104853000D03*
X221853000Y-104853000D03*
X222742000Y-104853000D03*
X223631000Y-104853000D03*
X217325000Y-104875000D03*
X216325000Y-102975000D03*
X217325000Y-102975000D03*
X217325000Y-103850000D03*
X214200000Y-104649989D03*
X215250000Y-104649989D03*
G04 #@! TO.N,Net-(D2-Pad2)*
X219550000Y-74700000D03*
X221050000Y-74700000D03*
X222550000Y-74700000D03*
X224050000Y-74700000D03*
X225550000Y-74700000D03*
X219550000Y-76200000D03*
X221050000Y-76200000D03*
X222550000Y-76200000D03*
X224050000Y-76200000D03*
X225550000Y-76200000D03*
X219550000Y-77700000D03*
X221050000Y-77700000D03*
X222550000Y-77700000D03*
X224050000Y-77700000D03*
X225550000Y-77700000D03*
X219550000Y-79200000D03*
X221050000Y-79200000D03*
X222550000Y-79200000D03*
X224050000Y-79200000D03*
X225550000Y-79200000D03*
X219550000Y-80700000D03*
X221050000Y-80700000D03*
X222550000Y-80700000D03*
X224050000Y-80700000D03*
X225550000Y-80700000D03*
X219550000Y-82200000D03*
X221050000Y-82200000D03*
X222550000Y-82200000D03*
X224050000Y-82200000D03*
X225550000Y-82200000D03*
X221050000Y-74700000D03*
X222550000Y-74700000D03*
X224050000Y-74700000D03*
X225550000Y-74700000D03*
X227050000Y-74700000D03*
X228550000Y-74700000D03*
X219550000Y-76200000D03*
X221050000Y-76200000D03*
X222550000Y-76200000D03*
X224050000Y-76200000D03*
X225550000Y-76200000D03*
X227050000Y-76200000D03*
X228550000Y-76200000D03*
X219550000Y-77700000D03*
X221050000Y-77700000D03*
X222550000Y-77700000D03*
X224050000Y-77700000D03*
X225550000Y-77700000D03*
X227050000Y-77700000D03*
X228550000Y-77700000D03*
X219550000Y-79200000D03*
X221050000Y-79200000D03*
X222550000Y-79200000D03*
X224050000Y-79200000D03*
X225550000Y-79200000D03*
X227050000Y-79200000D03*
X228550000Y-79200000D03*
X219550000Y-80700000D03*
X221050000Y-80700000D03*
X222550000Y-80700000D03*
X224050000Y-80700000D03*
X225550000Y-80700000D03*
X227050000Y-80700000D03*
X228550000Y-80700000D03*
X219550000Y-82200000D03*
X221050000Y-82200000D03*
X222550000Y-82200000D03*
X224050000Y-82200000D03*
X225550000Y-82200000D03*
X227050000Y-82200000D03*
X228550000Y-82200000D03*
G04 #@! TO.N,Net-(BT1-Pad1)*
X259830000Y-98350000D03*
X261207367Y-97002633D03*
G04 #@! TD*
D31*
G04 #@! TO.N,GND*
X255044000Y-91706500D02*
X252087500Y-88750000D01*
X255044000Y-92925000D02*
X255044000Y-91706500D01*
X204216000Y-68326000D02*
X204216000Y-75692000D01*
X208280000Y-64262000D02*
X204216000Y-68326000D01*
G04 #@! TO.N,/A3*
X238178340Y-102392612D02*
X237612655Y-102392612D01*
X239300000Y-103440000D02*
X238252612Y-102392612D01*
X238252612Y-102392612D02*
X238178340Y-102392612D01*
G04 #@! TO.N,+5V*
X255208289Y-80822711D02*
X253774000Y-82257000D01*
X255208289Y-80811798D02*
X255208289Y-80822711D01*
X247424000Y-85961500D02*
X247424000Y-85305000D01*
X250212500Y-88750000D02*
X247424000Y-85961500D01*
G04 #@! TO.N,Net-(BT1-Pad1)*
X261207367Y-97002633D02*
X259860000Y-98350000D01*
X259860000Y-98350000D02*
X259830000Y-98350000D01*
G04 #@! TD*
D32*
G04 #@! TO.N,GND*
G36*
X261765000Y-96113336D02*
X261413241Y-95967633D01*
X261001493Y-95967633D01*
X260621087Y-96125202D01*
X260329936Y-96416353D01*
X260172367Y-96796759D01*
X260172367Y-96962831D01*
X259843640Y-97291558D01*
X259771740Y-96930091D01*
X259454577Y-96455423D01*
X259102242Y-96220000D01*
X259454577Y-95984577D01*
X259771740Y-95509909D01*
X259883113Y-94950000D01*
X259771740Y-94390091D01*
X259454577Y-93915423D01*
X259102242Y-93680000D01*
X259454577Y-93444577D01*
X259771740Y-92969909D01*
X259883113Y-92410000D01*
X259771740Y-91850091D01*
X259454577Y-91375423D01*
X259102242Y-91140000D01*
X259454577Y-90904577D01*
X259771740Y-90429909D01*
X259883113Y-89870000D01*
X259771740Y-89310091D01*
X259454577Y-88835423D01*
X259102242Y-88600000D01*
X259454577Y-88364577D01*
X259771740Y-87889909D01*
X259883113Y-87330000D01*
X259771740Y-86770091D01*
X259454577Y-86295423D01*
X259102242Y-86060000D01*
X259454577Y-85824577D01*
X259771740Y-85349909D01*
X259883113Y-84790000D01*
X259771740Y-84230091D01*
X259454577Y-83755423D01*
X259102242Y-83520000D01*
X259454577Y-83284577D01*
X259771740Y-82809909D01*
X259883113Y-82250000D01*
X259771740Y-81690091D01*
X259454577Y-81215423D01*
X259070892Y-80959053D01*
X259275134Y-80862389D01*
X259651041Y-80447423D01*
X259811904Y-80059039D01*
X259689915Y-79837000D01*
X258547000Y-79837000D01*
X258547000Y-79857000D01*
X258293000Y-79857000D01*
X258293000Y-79837000D01*
X257150085Y-79837000D01*
X257028096Y-80059039D01*
X257188959Y-80447423D01*
X257564866Y-80862389D01*
X257769108Y-80959053D01*
X257385423Y-81215423D01*
X257068260Y-81690091D01*
X256956887Y-82250000D01*
X257068260Y-82809909D01*
X257385423Y-83284577D01*
X257737758Y-83520000D01*
X257385423Y-83755423D01*
X257068260Y-84230091D01*
X256956887Y-84790000D01*
X257068260Y-85349909D01*
X257385423Y-85824577D01*
X257737758Y-86060000D01*
X257385423Y-86295423D01*
X257068260Y-86770091D01*
X256956887Y-87330000D01*
X257068260Y-87889909D01*
X257385423Y-88364577D01*
X257737758Y-88600000D01*
X257385423Y-88835423D01*
X257068260Y-89310091D01*
X256956887Y-89870000D01*
X257068260Y-90429909D01*
X257385423Y-90904577D01*
X257737758Y-91140000D01*
X257385423Y-91375423D01*
X257068260Y-91850091D01*
X256956887Y-92410000D01*
X257068260Y-92969909D01*
X257385423Y-93444577D01*
X257737758Y-93680000D01*
X257385423Y-93915423D01*
X257068260Y-94390091D01*
X256956887Y-94950000D01*
X257068260Y-95509909D01*
X257385423Y-95984577D01*
X257737758Y-96220000D01*
X257385423Y-96455423D01*
X257068260Y-96930091D01*
X256956887Y-97490000D01*
X257068260Y-98049909D01*
X257385423Y-98524577D01*
X257737758Y-98760000D01*
X257385423Y-98995423D01*
X257068260Y-99470091D01*
X256956887Y-100030000D01*
X257068260Y-100589909D01*
X257385423Y-101064577D01*
X257737758Y-101300000D01*
X257617038Y-101380663D01*
X257507809Y-101217191D01*
X257297765Y-101076843D01*
X257050000Y-101027560D01*
X254050000Y-101027560D01*
X253802235Y-101076843D01*
X253592191Y-101217191D01*
X253451843Y-101427235D01*
X253402560Y-101675000D01*
X253402560Y-104675000D01*
X253451843Y-104922765D01*
X253592191Y-105132809D01*
X253802235Y-105273157D01*
X254050000Y-105322440D01*
X256999144Y-105322440D01*
X257068260Y-105669909D01*
X257385423Y-106144577D01*
X257737758Y-106380000D01*
X257385423Y-106615423D01*
X257068260Y-107090091D01*
X256956887Y-107650000D01*
X257068260Y-108209909D01*
X257385423Y-108684577D01*
X257737758Y-108920000D01*
X257385423Y-109155423D01*
X257068260Y-109630091D01*
X256956887Y-110190000D01*
X257068260Y-110749909D01*
X257385423Y-111224577D01*
X257737758Y-111460000D01*
X257385423Y-111695423D01*
X257068260Y-112170091D01*
X256956887Y-112730000D01*
X257068260Y-113289909D01*
X257385423Y-113764577D01*
X257860091Y-114081740D01*
X258278667Y-114165000D01*
X258561333Y-114165000D01*
X258979909Y-114081740D01*
X259454577Y-113764577D01*
X259771740Y-113289909D01*
X259883113Y-112730000D01*
X259771740Y-112170091D01*
X259454577Y-111695423D01*
X259102242Y-111460000D01*
X259454577Y-111224577D01*
X259771740Y-110749909D01*
X259883113Y-110190000D01*
X259771740Y-109630091D01*
X259454577Y-109155423D01*
X259102242Y-108920000D01*
X259454577Y-108684577D01*
X259771740Y-108209909D01*
X259883113Y-107650000D01*
X259771740Y-107090091D01*
X259454577Y-106615423D01*
X259102242Y-106380000D01*
X259454577Y-106144577D01*
X259771740Y-105669909D01*
X259883113Y-105110000D01*
X259771740Y-104550091D01*
X259454577Y-104075423D01*
X259102242Y-103840000D01*
X259454577Y-103604577D01*
X259771740Y-103129909D01*
X259883113Y-102570000D01*
X259771740Y-102010091D01*
X259454577Y-101535423D01*
X259102242Y-101300000D01*
X259454577Y-101064577D01*
X259771740Y-100589909D01*
X259883113Y-100030000D01*
X259771740Y-99470091D01*
X259714884Y-99385000D01*
X260035874Y-99385000D01*
X260416280Y-99227431D01*
X260707431Y-98936280D01*
X260865000Y-98555874D01*
X260865000Y-98419801D01*
X261247169Y-98037633D01*
X261413241Y-98037633D01*
X261765000Y-97891930D01*
X261765000Y-115175467D01*
X261515667Y-115198542D01*
X261479857Y-115204141D01*
X261443927Y-115209034D01*
X260192715Y-115460292D01*
X260192712Y-115460292D01*
X260180376Y-115463587D01*
X260109603Y-115482490D01*
X260109589Y-115482496D01*
X258899749Y-115888585D01*
X258899744Y-115888586D01*
X258875595Y-115898419D01*
X258820074Y-115921025D01*
X258820068Y-115921029D01*
X257670666Y-116475549D01*
X257670653Y-116475554D01*
X257595675Y-116517724D01*
X257589714Y-116521588D01*
X257692723Y-116258813D01*
X257676497Y-115409613D01*
X257382739Y-114700418D01*
X257063970Y-114540635D01*
X255729605Y-115875000D01*
X255743748Y-115889143D01*
X255564143Y-116068748D01*
X255550000Y-116054605D01*
X254215635Y-117388970D01*
X254375418Y-117707739D01*
X255166187Y-118017723D01*
X255570553Y-118009997D01*
X255480315Y-118086131D01*
X255418180Y-118145622D01*
X255418173Y-118145630D01*
X254553619Y-119084333D01*
X254553611Y-119084341D01*
X254523691Y-119121230D01*
X254499423Y-119151150D01*
X254499418Y-119151158D01*
X253759325Y-120190825D01*
X253713936Y-120263899D01*
X253713930Y-120263912D01*
X253109982Y-121388129D01*
X253109979Y-121388135D01*
X253074108Y-121466321D01*
X252615818Y-122657389D01*
X252590028Y-122739455D01*
X252590025Y-122739470D01*
X252284637Y-123978553D01*
X252284632Y-123978568D01*
X252269332Y-124063219D01*
X252192230Y-124725000D01*
X213810660Y-124725000D01*
X213682785Y-123920716D01*
X213681629Y-123915453D01*
X213681012Y-123910104D01*
X213665616Y-123842522D01*
X213308166Y-122573743D01*
X213306405Y-122568652D01*
X213305167Y-122563410D01*
X213281991Y-122498086D01*
X212778953Y-121279675D01*
X212776609Y-121274823D01*
X212774769Y-121269763D01*
X212744156Y-121207642D01*
X212744131Y-121207590D01*
X212744127Y-121207584D01*
X212204883Y-120240105D01*
X214715000Y-120240105D01*
X214715000Y-121009895D01*
X215009586Y-121721090D01*
X215553910Y-122265414D01*
X216265105Y-122560000D01*
X217034895Y-122560000D01*
X217746090Y-122265414D01*
X218290414Y-121721090D01*
X218585000Y-121009895D01*
X218585000Y-120240105D01*
X218290414Y-119528910D01*
X217926663Y-119165159D01*
X230925000Y-119165159D01*
X230925000Y-119954841D01*
X231227199Y-120684412D01*
X231785588Y-121242801D01*
X232515159Y-121545000D01*
X233304841Y-121545000D01*
X234034412Y-121242801D01*
X234592801Y-120684412D01*
X234776839Y-120240105D01*
X242715000Y-120240105D01*
X242715000Y-121009895D01*
X243009586Y-121721090D01*
X243553910Y-122265414D01*
X244265105Y-122560000D01*
X245034895Y-122560000D01*
X245746090Y-122265414D01*
X246290414Y-121721090D01*
X246585000Y-121009895D01*
X246585000Y-120240105D01*
X246290414Y-119528910D01*
X245746090Y-118984586D01*
X245034895Y-118690000D01*
X244265105Y-118690000D01*
X243553910Y-118984586D01*
X243009586Y-119528910D01*
X242715000Y-120240105D01*
X234776839Y-120240105D01*
X234895000Y-119954841D01*
X234895000Y-119165159D01*
X234592801Y-118435588D01*
X234034412Y-117877199D01*
X233304841Y-117575000D01*
X232515159Y-117575000D01*
X231785588Y-117877199D01*
X231227199Y-118435588D01*
X230925000Y-119165159D01*
X217926663Y-119165159D01*
X217746090Y-118984586D01*
X217034895Y-118690000D01*
X216265105Y-118690000D01*
X215553910Y-118984586D01*
X215009586Y-119528910D01*
X214715000Y-120240105D01*
X212204883Y-120240105D01*
X212102373Y-120056188D01*
X212099478Y-120051641D01*
X212097061Y-120046832D01*
X212059378Y-119988658D01*
X211287670Y-118919995D01*
X211284266Y-118915819D01*
X211281302Y-118911321D01*
X211237089Y-118857941D01*
X210345971Y-117886612D01*
X210342097Y-117882856D01*
X210338634Y-117878741D01*
X210288559Y-117830945D01*
X210288496Y-117830884D01*
X210288487Y-117830877D01*
X209290137Y-116970156D01*
X209285857Y-116966881D01*
X209281932Y-116963194D01*
X209226614Y-116921560D01*
X209226553Y-116921514D01*
X209226545Y-116921509D01*
X208134589Y-116183144D01*
X208129954Y-116180390D01*
X208125629Y-116177188D01*
X208065764Y-116142253D01*
X206895112Y-115536325D01*
X206890198Y-115534135D01*
X206885519Y-115531454D01*
X206821987Y-115503742D01*
X206788702Y-115491187D01*
X253407277Y-115491187D01*
X253423503Y-116340387D01*
X253717261Y-117049582D01*
X254036030Y-117209365D01*
X255370395Y-115875000D01*
X254036030Y-114540635D01*
X253717261Y-114700418D01*
X253407277Y-115491187D01*
X206788702Y-115491187D01*
X205588635Y-115038533D01*
X205583491Y-115036929D01*
X205578538Y-115034815D01*
X205512243Y-115014716D01*
X205512208Y-115014705D01*
X205512204Y-115014704D01*
X204233002Y-114696569D01*
X204227700Y-114695575D01*
X204222540Y-114694055D01*
X204154339Y-114681825D01*
X204154317Y-114681821D01*
X204154315Y-114681821D01*
X203445000Y-114591383D01*
X203445000Y-112920000D01*
X233082560Y-112920000D01*
X233082560Y-114520000D01*
X233131843Y-114767765D01*
X233272191Y-114977809D01*
X233482235Y-115118157D01*
X233730000Y-115167440D01*
X235330000Y-115167440D01*
X235577765Y-115118157D01*
X235787809Y-114977809D01*
X235928157Y-114767765D01*
X235977440Y-114520000D01*
X235977440Y-114361030D01*
X254215635Y-114361030D01*
X255550000Y-115695395D01*
X256884365Y-114361030D01*
X256724582Y-114042261D01*
X255933813Y-113732277D01*
X255084613Y-113748503D01*
X254375418Y-114042261D01*
X254215635Y-114361030D01*
X235977440Y-114361030D01*
X235977440Y-112920000D01*
X235928157Y-112672235D01*
X235787809Y-112462191D01*
X235577765Y-112321843D01*
X235330000Y-112272560D01*
X233730000Y-112272560D01*
X233482235Y-112321843D01*
X233272191Y-112462191D01*
X233131843Y-112672235D01*
X233082560Y-112920000D01*
X203445000Y-112920000D01*
X203445000Y-109924506D01*
X205040000Y-109924506D01*
X205040000Y-110475494D01*
X205250853Y-110984540D01*
X205640460Y-111374147D01*
X206149506Y-111585000D01*
X206700494Y-111585000D01*
X207209540Y-111374147D01*
X207599147Y-110984540D01*
X207810000Y-110475494D01*
X207810000Y-109924506D01*
X212040000Y-109924506D01*
X212040000Y-110475494D01*
X212250853Y-110984540D01*
X212640460Y-111374147D01*
X213149506Y-111585000D01*
X213700494Y-111585000D01*
X214209540Y-111374147D01*
X214599147Y-110984540D01*
X214810000Y-110475494D01*
X214810000Y-109924506D01*
X214599147Y-109415460D01*
X214209540Y-109025853D01*
X213700494Y-108815000D01*
X213149506Y-108815000D01*
X212640460Y-109025853D01*
X212250853Y-109415460D01*
X212040000Y-109924506D01*
X207810000Y-109924506D01*
X207599147Y-109415460D01*
X207209540Y-109025853D01*
X206700494Y-108815000D01*
X206149506Y-108815000D01*
X205640460Y-109025853D01*
X205250853Y-109415460D01*
X205040000Y-109924506D01*
X203445000Y-109924506D01*
X203445000Y-105244010D01*
X212990028Y-105244010D01*
X213038336Y-105493004D01*
X213175987Y-105699013D01*
X213381996Y-105836664D01*
X213625000Y-105885000D01*
X216003423Y-105885000D01*
X215990025Y-105955619D01*
X216015025Y-108780619D01*
X216063336Y-109018004D01*
X216200987Y-109224013D01*
X216406996Y-109361664D01*
X216650000Y-109410000D01*
X221677560Y-109410000D01*
X221677560Y-111100000D01*
X221726843Y-111347765D01*
X221867191Y-111557809D01*
X222077235Y-111698157D01*
X222325000Y-111747440D01*
X224325000Y-111747440D01*
X224572765Y-111698157D01*
X224782809Y-111557809D01*
X224923157Y-111347765D01*
X224972440Y-111100000D01*
X224972440Y-109410000D01*
X225700000Y-109410000D01*
X225943004Y-109361664D01*
X226149013Y-109224013D01*
X226286664Y-109018004D01*
X226335000Y-108775000D01*
X226335000Y-108227745D01*
X233701861Y-108227745D01*
X233775995Y-108473864D01*
X234313223Y-108666965D01*
X234883454Y-108639778D01*
X235284005Y-108473864D01*
X235358139Y-108227745D01*
X234530000Y-107399605D01*
X233701861Y-108227745D01*
X226335000Y-108227745D01*
X226335000Y-107003223D01*
X233083035Y-107003223D01*
X233110222Y-107573454D01*
X233276136Y-107974005D01*
X233522255Y-108048139D01*
X234350395Y-107220000D01*
X234709605Y-107220000D01*
X235537745Y-108048139D01*
X235783864Y-107974005D01*
X235976965Y-107436777D01*
X235949778Y-106866546D01*
X235783864Y-106465995D01*
X235537745Y-106391861D01*
X234709605Y-107220000D01*
X234350395Y-107220000D01*
X233522255Y-106391861D01*
X233276136Y-106465995D01*
X233083035Y-107003223D01*
X226335000Y-107003223D01*
X226335000Y-106421800D01*
X226683223Y-106546965D01*
X227253454Y-106519778D01*
X227654005Y-106353864D01*
X227696659Y-106212255D01*
X233701861Y-106212255D01*
X234530000Y-107040395D01*
X235358139Y-106212255D01*
X235284005Y-105966136D01*
X234746777Y-105773035D01*
X234176546Y-105800222D01*
X233775995Y-105966136D01*
X233701861Y-106212255D01*
X227696659Y-106212255D01*
X227728139Y-106107745D01*
X226900000Y-105279605D01*
X226885858Y-105293748D01*
X226706252Y-105114142D01*
X226720395Y-105100000D01*
X227079605Y-105100000D01*
X227907745Y-105928139D01*
X228153864Y-105854005D01*
X228346965Y-105316777D01*
X228319778Y-104746546D01*
X228153864Y-104345995D01*
X227907745Y-104271861D01*
X227079605Y-105100000D01*
X226720395Y-105100000D01*
X225892255Y-104271861D01*
X225646136Y-104345995D01*
X225453035Y-104883223D01*
X225473621Y-105315000D01*
X224947654Y-105315000D01*
X224959972Y-105255990D01*
X224970950Y-104092255D01*
X226071861Y-104092255D01*
X226900000Y-104920395D01*
X227728139Y-104092255D01*
X227654005Y-103846136D01*
X227116777Y-103653035D01*
X226546546Y-103680222D01*
X226145995Y-103846136D01*
X226071861Y-104092255D01*
X224970950Y-104092255D01*
X224984972Y-102605990D01*
X224936664Y-102356996D01*
X224799013Y-102150987D01*
X224593004Y-102013336D01*
X224350000Y-101965000D01*
X217591229Y-101965000D01*
X217530874Y-101940000D01*
X217119126Y-101940000D01*
X217058771Y-101965000D01*
X216591229Y-101965000D01*
X216530874Y-101940000D01*
X216119126Y-101940000D01*
X216058771Y-101965000D01*
X213650000Y-101965000D01*
X213412541Y-102011070D01*
X213205243Y-102146771D01*
X213065655Y-102351473D01*
X213015028Y-102594010D01*
X212990028Y-105244010D01*
X203445000Y-105244010D01*
X203445000Y-103100000D01*
X204535908Y-103100000D01*
X204651161Y-103679418D01*
X204979375Y-104170625D01*
X205470582Y-104498839D01*
X205903744Y-104585000D01*
X206196256Y-104585000D01*
X206629418Y-104498839D01*
X207120625Y-104170625D01*
X207448839Y-103679418D01*
X207564092Y-103100000D01*
X207448839Y-102520582D01*
X207120625Y-102029375D01*
X207102381Y-102017184D01*
X207147765Y-102008157D01*
X207357809Y-101867809D01*
X207413107Y-101785050D01*
X208105000Y-101785050D01*
X208105000Y-102534950D01*
X208391974Y-103227767D01*
X208922233Y-103758026D01*
X209615050Y-104045000D01*
X210364950Y-104045000D01*
X211057767Y-103758026D01*
X211588026Y-103227767D01*
X211875000Y-102534950D01*
X211875000Y-101785050D01*
X211588026Y-101092233D01*
X211295793Y-100800000D01*
X225452560Y-100800000D01*
X225452560Y-102400000D01*
X225501843Y-102647765D01*
X225642191Y-102857809D01*
X225852235Y-102998157D01*
X226100000Y-103047440D01*
X227700000Y-103047440D01*
X227947765Y-102998157D01*
X228157809Y-102857809D01*
X228298157Y-102647765D01*
X228347440Y-102400000D01*
X228347440Y-100800000D01*
X228298157Y-100552235D01*
X228157809Y-100342191D01*
X227947765Y-100201843D01*
X227700000Y-100152560D01*
X226100000Y-100152560D01*
X225852235Y-100201843D01*
X225642191Y-100342191D01*
X225501843Y-100552235D01*
X225452560Y-100800000D01*
X211295793Y-100800000D01*
X211057767Y-100561974D01*
X210364950Y-100275000D01*
X209615050Y-100275000D01*
X208922233Y-100561974D01*
X208391974Y-101092233D01*
X208105000Y-101785050D01*
X207413107Y-101785050D01*
X207498157Y-101657765D01*
X207547440Y-101410000D01*
X207547440Y-99710000D01*
X207498157Y-99462235D01*
X207357809Y-99252191D01*
X207147765Y-99111843D01*
X206900000Y-99062560D01*
X205200000Y-99062560D01*
X204952235Y-99111843D01*
X204742191Y-99252191D01*
X204601843Y-99462235D01*
X204552560Y-99710000D01*
X204552560Y-101410000D01*
X204601843Y-101657765D01*
X204742191Y-101867809D01*
X204952235Y-102008157D01*
X204997619Y-102017184D01*
X204979375Y-102029375D01*
X204651161Y-102520582D01*
X204535908Y-103100000D01*
X203445000Y-103100000D01*
X203445000Y-88470474D01*
X204295000Y-88470474D01*
X204295000Y-89009526D01*
X204501286Y-89507546D01*
X204882454Y-89888714D01*
X205175265Y-90010000D01*
X204882454Y-90131286D01*
X204501286Y-90512454D01*
X204295000Y-91010474D01*
X204295000Y-91549526D01*
X204501286Y-92047546D01*
X204882454Y-92428714D01*
X205380474Y-92635000D01*
X205919526Y-92635000D01*
X206417546Y-92428714D01*
X206746260Y-92100000D01*
X209202560Y-92100000D01*
X209202560Y-93600000D01*
X209251843Y-93847765D01*
X209392191Y-94057809D01*
X209602235Y-94198157D01*
X209794844Y-94236469D01*
X209425853Y-94605460D01*
X209215000Y-95114506D01*
X209215000Y-95665494D01*
X209425853Y-96174540D01*
X209815460Y-96564147D01*
X210046870Y-96660000D01*
X209815460Y-96755853D01*
X209425853Y-97145460D01*
X209215000Y-97654506D01*
X209215000Y-98205494D01*
X209425853Y-98714540D01*
X209815460Y-99104147D01*
X210324506Y-99315000D01*
X210875494Y-99315000D01*
X211384540Y-99104147D01*
X211774147Y-98714540D01*
X211985000Y-98205494D01*
X211985000Y-97654506D01*
X211774147Y-97145460D01*
X211384540Y-96755853D01*
X211153130Y-96660000D01*
X211225556Y-96630000D01*
X216563900Y-96630000D01*
X216687109Y-97249411D01*
X217037977Y-97774523D01*
X217563089Y-98125391D01*
X218026150Y-98217500D01*
X218433850Y-98217500D01*
X218896911Y-98125391D01*
X219024550Y-98040105D01*
X228715000Y-98040105D01*
X228715000Y-98809895D01*
X229009586Y-99521090D01*
X229553910Y-100065414D01*
X230265105Y-100360000D01*
X231034895Y-100360000D01*
X231746090Y-100065414D01*
X232290414Y-99521090D01*
X232585000Y-98809895D01*
X232585000Y-98065474D01*
X233720000Y-98065474D01*
X233720000Y-98604526D01*
X233926286Y-99102546D01*
X234307454Y-99483714D01*
X234600265Y-99605000D01*
X234307454Y-99726286D01*
X233926286Y-100107454D01*
X233720000Y-100605474D01*
X233720000Y-101144526D01*
X233926286Y-101642546D01*
X234307454Y-102023714D01*
X234805474Y-102230000D01*
X235344526Y-102230000D01*
X235448970Y-102186738D01*
X236577655Y-102186738D01*
X236577655Y-102598486D01*
X236735224Y-102978892D01*
X237026375Y-103270043D01*
X237406781Y-103427612D01*
X237818529Y-103427612D01*
X238097328Y-103312130D01*
X238265000Y-103479802D01*
X238265000Y-103645874D01*
X238422569Y-104026280D01*
X238713720Y-104317431D01*
X239094126Y-104475000D01*
X239505874Y-104475000D01*
X239886280Y-104317431D01*
X240177431Y-104026280D01*
X240335000Y-103645874D01*
X240335000Y-103234126D01*
X240177431Y-102853720D01*
X239886280Y-102562569D01*
X239505874Y-102405000D01*
X239339802Y-102405000D01*
X238842943Y-101908141D01*
X238800541Y-101844683D01*
X238549149Y-101676708D01*
X238327464Y-101632612D01*
X238327459Y-101632612D01*
X238313612Y-101629858D01*
X238198935Y-101515181D01*
X237818529Y-101357612D01*
X237406781Y-101357612D01*
X237026375Y-101515181D01*
X236735224Y-101806332D01*
X236577655Y-102186738D01*
X235448970Y-102186738D01*
X235842546Y-102023714D01*
X236223714Y-101642546D01*
X236430000Y-101144526D01*
X236430000Y-100605474D01*
X236223714Y-100107454D01*
X235842546Y-99726286D01*
X235549735Y-99605000D01*
X235842546Y-99483714D01*
X236223714Y-99102546D01*
X236430000Y-98604526D01*
X236430000Y-98065474D01*
X236223714Y-97567454D01*
X235842546Y-97186286D01*
X235565849Y-97071675D01*
X235780869Y-96982611D01*
X235845169Y-96744774D01*
X235075000Y-95974605D01*
X234304831Y-96744774D01*
X234369131Y-96982611D01*
X234601114Y-97064649D01*
X234307454Y-97186286D01*
X233926286Y-97567454D01*
X233720000Y-98065474D01*
X232585000Y-98065474D01*
X232585000Y-98040105D01*
X232290414Y-97328910D01*
X231746090Y-96784586D01*
X231034895Y-96490000D01*
X230265105Y-96490000D01*
X229553910Y-96784586D01*
X229009586Y-97328910D01*
X228715000Y-98040105D01*
X219024550Y-98040105D01*
X219422023Y-97774523D01*
X219772891Y-97249411D01*
X219896100Y-96630000D01*
X219772891Y-96010589D01*
X219510912Y-95618509D01*
X219687809Y-95500309D01*
X219828157Y-95290265D01*
X219877440Y-95042500D01*
X219877440Y-94434561D01*
X222755000Y-94434561D01*
X222755000Y-95005439D01*
X222973466Y-95532862D01*
X223377138Y-95936534D01*
X223904561Y-96155000D01*
X224475439Y-96155000D01*
X225002862Y-95936534D01*
X225406534Y-95532862D01*
X225625000Y-95005439D01*
X225625000Y-94434561D01*
X225411862Y-93920000D01*
X226242560Y-93920000D01*
X226242560Y-95520000D01*
X226291843Y-95767765D01*
X226432191Y-95977809D01*
X226642235Y-96118157D01*
X226890000Y-96167440D01*
X228490000Y-96167440D01*
X228737765Y-96118157D01*
X228947809Y-95977809D01*
X229088157Y-95767765D01*
X229122055Y-95597342D01*
X233707667Y-95597342D01*
X233736108Y-96135644D01*
X233887389Y-96500869D01*
X234125226Y-96565169D01*
X234895395Y-95795000D01*
X235254605Y-95795000D01*
X236024774Y-96565169D01*
X236262611Y-96500869D01*
X236442333Y-95992658D01*
X236413892Y-95454356D01*
X236262611Y-95089131D01*
X236024774Y-95024831D01*
X235254605Y-95795000D01*
X234895395Y-95795000D01*
X234125226Y-95024831D01*
X233887389Y-95089131D01*
X233707667Y-95597342D01*
X229122055Y-95597342D01*
X229137440Y-95520000D01*
X229137440Y-94845226D01*
X234304831Y-94845226D01*
X235075000Y-95615395D01*
X235845169Y-94845226D01*
X235780869Y-94607389D01*
X235272658Y-94427667D01*
X234734356Y-94456108D01*
X234369131Y-94607389D01*
X234304831Y-94845226D01*
X229137440Y-94845226D01*
X229137440Y-93920000D01*
X229088157Y-93672235D01*
X228947809Y-93462191D01*
X228737765Y-93321843D01*
X228490000Y-93272560D01*
X226890000Y-93272560D01*
X226642235Y-93321843D01*
X226432191Y-93462191D01*
X226291843Y-93672235D01*
X226242560Y-93920000D01*
X225411862Y-93920000D01*
X225406534Y-93907138D01*
X225002862Y-93503466D01*
X224475439Y-93285000D01*
X223904561Y-93285000D01*
X223377138Y-93503466D01*
X222973466Y-93907138D01*
X222755000Y-94434561D01*
X219877440Y-94434561D01*
X219877440Y-93137500D01*
X219828157Y-92889735D01*
X219687809Y-92679691D01*
X219477765Y-92539343D01*
X219230000Y-92490060D01*
X217230000Y-92490060D01*
X216982235Y-92539343D01*
X216772191Y-92679691D01*
X216631843Y-92889735D01*
X216582560Y-93137500D01*
X216582560Y-95042500D01*
X216631843Y-95290265D01*
X216772191Y-95500309D01*
X216949088Y-95618509D01*
X216687109Y-96010589D01*
X216563900Y-96630000D01*
X211225556Y-96630000D01*
X211384540Y-96564147D01*
X211774147Y-96174540D01*
X211985000Y-95665494D01*
X211985000Y-95114506D01*
X211774147Y-94605460D01*
X211405156Y-94236469D01*
X211597765Y-94198157D01*
X211807809Y-94057809D01*
X211948157Y-93847765D01*
X211997440Y-93600000D01*
X211997440Y-92100000D01*
X211948157Y-91852235D01*
X211807809Y-91642191D01*
X211597765Y-91501843D01*
X211350000Y-91452560D01*
X209850000Y-91452560D01*
X209602235Y-91501843D01*
X209392191Y-91642191D01*
X209251843Y-91852235D01*
X209202560Y-92100000D01*
X206746260Y-92100000D01*
X206798714Y-92047546D01*
X207005000Y-91549526D01*
X207005000Y-91010474D01*
X206802889Y-90522532D01*
X212627073Y-90522532D01*
X212725736Y-90789387D01*
X213335461Y-91015908D01*
X213985460Y-90991856D01*
X214474264Y-90789387D01*
X214572927Y-90522532D01*
X213600000Y-89549605D01*
X212627073Y-90522532D01*
X206802889Y-90522532D01*
X206798714Y-90512454D01*
X206417546Y-90131286D01*
X206124735Y-90010000D01*
X206417546Y-89888714D01*
X206798714Y-89507546D01*
X206965262Y-89105461D01*
X211954092Y-89105461D01*
X211978144Y-89755460D01*
X212180613Y-90244264D01*
X212447468Y-90342927D01*
X213420395Y-89370000D01*
X213779605Y-89370000D01*
X214752532Y-90342927D01*
X215019387Y-90244264D01*
X215245908Y-89634539D01*
X215222429Y-89000000D01*
X230652560Y-89000000D01*
X230652560Y-92200000D01*
X230701843Y-92447765D01*
X230842191Y-92657809D01*
X231052235Y-92798157D01*
X231300000Y-92847440D01*
X234500000Y-92847440D01*
X234747765Y-92798157D01*
X234957809Y-92657809D01*
X235098157Y-92447765D01*
X235147440Y-92200000D01*
X235147440Y-90050484D01*
X235221673Y-90229698D01*
X235400301Y-90408327D01*
X235633690Y-90505000D01*
X236324250Y-90505000D01*
X236483000Y-90346250D01*
X236483000Y-89147000D01*
X236463000Y-89147000D01*
X236463000Y-88893000D01*
X236483000Y-88893000D01*
X236483000Y-87693750D01*
X236737000Y-87693750D01*
X236737000Y-88893000D01*
X236757000Y-88893000D01*
X236757000Y-89147000D01*
X236737000Y-89147000D01*
X236737000Y-90346250D01*
X236895750Y-90505000D01*
X237586310Y-90505000D01*
X237819699Y-90408327D01*
X237998327Y-90229698D01*
X238064904Y-90068967D01*
X238079375Y-90090625D01*
X238570582Y-90418839D01*
X239003744Y-90505000D01*
X239296256Y-90505000D01*
X239729418Y-90418839D01*
X240220625Y-90090625D01*
X240548839Y-89599418D01*
X240664092Y-89020000D01*
X240548839Y-88440582D01*
X240220625Y-87949375D01*
X239729418Y-87621161D01*
X239296256Y-87535000D01*
X239003744Y-87535000D01*
X238570582Y-87621161D01*
X238079375Y-87949375D01*
X238064904Y-87971033D01*
X237998327Y-87810302D01*
X237819699Y-87631673D01*
X237586310Y-87535000D01*
X236895750Y-87535000D01*
X236737000Y-87693750D01*
X236483000Y-87693750D01*
X236324250Y-87535000D01*
X235633690Y-87535000D01*
X235400301Y-87631673D01*
X235221673Y-87810302D01*
X235125000Y-88043691D01*
X235125000Y-88734250D01*
X235283748Y-88892998D01*
X235126156Y-88892998D01*
X235098157Y-88752235D01*
X234957809Y-88542191D01*
X234747765Y-88401843D01*
X234500000Y-88352560D01*
X231300000Y-88352560D01*
X231052235Y-88401843D01*
X230842191Y-88542191D01*
X230701843Y-88752235D01*
X230652560Y-89000000D01*
X215222429Y-89000000D01*
X215221856Y-88984540D01*
X215019387Y-88495736D01*
X214752532Y-88397073D01*
X213779605Y-89370000D01*
X213420395Y-89370000D01*
X212447468Y-88397073D01*
X212180613Y-88495736D01*
X211954092Y-89105461D01*
X206965262Y-89105461D01*
X207005000Y-89009526D01*
X207005000Y-88470474D01*
X206900202Y-88217468D01*
X212627073Y-88217468D01*
X213600000Y-89190395D01*
X214572927Y-88217468D01*
X214474264Y-87950613D01*
X213864539Y-87724092D01*
X213214540Y-87748144D01*
X212725736Y-87950613D01*
X212627073Y-88217468D01*
X206900202Y-88217468D01*
X206798714Y-87972454D01*
X206417546Y-87591286D01*
X206140849Y-87476675D01*
X206355869Y-87387611D01*
X206371444Y-87330000D01*
X241716887Y-87330000D01*
X241828260Y-87889909D01*
X242145423Y-88364577D01*
X242497758Y-88600000D01*
X242145423Y-88835423D01*
X241828260Y-89310091D01*
X241716887Y-89870000D01*
X241828260Y-90429909D01*
X242145423Y-90904577D01*
X242497758Y-91140000D01*
X242145423Y-91375423D01*
X241828260Y-91850091D01*
X241716887Y-92410000D01*
X241828260Y-92969909D01*
X242145423Y-93444577D01*
X242497758Y-93680000D01*
X242145423Y-93915423D01*
X241828260Y-94390091D01*
X241716887Y-94950000D01*
X241828260Y-95509909D01*
X242145423Y-95984577D01*
X242497758Y-96220000D01*
X242145423Y-96455423D01*
X241828260Y-96930091D01*
X241716887Y-97490000D01*
X241828260Y-98049909D01*
X242145423Y-98524577D01*
X242497758Y-98760000D01*
X242145423Y-98995423D01*
X241828260Y-99470091D01*
X241716887Y-100030000D01*
X241828260Y-100589909D01*
X242145423Y-101064577D01*
X242497758Y-101300000D01*
X242145423Y-101535423D01*
X241828260Y-102010091D01*
X241716887Y-102570000D01*
X241828260Y-103129909D01*
X242145423Y-103604577D01*
X242497758Y-103840000D01*
X242145423Y-104075423D01*
X241828260Y-104550091D01*
X241716887Y-105110000D01*
X241828260Y-105669909D01*
X242145423Y-106144577D01*
X242497758Y-106380000D01*
X242145423Y-106615423D01*
X241828260Y-107090091D01*
X241716887Y-107650000D01*
X241828260Y-108209909D01*
X242145423Y-108684577D01*
X242497758Y-108920000D01*
X242145423Y-109155423D01*
X241828260Y-109630091D01*
X241716887Y-110190000D01*
X241828260Y-110749909D01*
X242145423Y-111224577D01*
X242497758Y-111460000D01*
X242145423Y-111695423D01*
X241828260Y-112170091D01*
X241716887Y-112730000D01*
X241828260Y-113289909D01*
X242145423Y-113764577D01*
X242620091Y-114081740D01*
X243038667Y-114165000D01*
X243321333Y-114165000D01*
X243739909Y-114081740D01*
X244214577Y-113764577D01*
X244531740Y-113289909D01*
X244643113Y-112730000D01*
X244531740Y-112170091D01*
X244214577Y-111695423D01*
X243862242Y-111460000D01*
X244214577Y-111224577D01*
X244531740Y-110749909D01*
X244643113Y-110190000D01*
X244531740Y-109630091D01*
X244214577Y-109155423D01*
X243862242Y-108920000D01*
X244214577Y-108684577D01*
X244531740Y-108209909D01*
X244643113Y-107650000D01*
X244531740Y-107090091D01*
X244214577Y-106615423D01*
X243862242Y-106380000D01*
X244214577Y-106144577D01*
X244531740Y-105669909D01*
X244643113Y-105110000D01*
X244531740Y-104550091D01*
X244214577Y-104075423D01*
X243862242Y-103840000D01*
X244214577Y-103604577D01*
X244531740Y-103129909D01*
X244643113Y-102570000D01*
X244531740Y-102010091D01*
X244214577Y-101535423D01*
X243862242Y-101300000D01*
X244214577Y-101064577D01*
X244531740Y-100589909D01*
X244643113Y-100030000D01*
X244531740Y-99470091D01*
X244214577Y-98995423D01*
X243862242Y-98760000D01*
X244214577Y-98524577D01*
X244281442Y-98424506D01*
X247215000Y-98424506D01*
X247215000Y-98975494D01*
X247425853Y-99484540D01*
X247815460Y-99874147D01*
X248324506Y-100085000D01*
X248875494Y-100085000D01*
X249384540Y-99874147D01*
X249774147Y-99484540D01*
X249985000Y-98975494D01*
X249985000Y-98424506D01*
X252095000Y-98424506D01*
X252095000Y-98975494D01*
X252305853Y-99484540D01*
X252695460Y-99874147D01*
X253204506Y-100085000D01*
X253755494Y-100085000D01*
X254264540Y-99874147D01*
X254654147Y-99484540D01*
X254865000Y-98975494D01*
X254865000Y-98424506D01*
X254654147Y-97915460D01*
X254264540Y-97525853D01*
X253755494Y-97315000D01*
X253204506Y-97315000D01*
X252695460Y-97525853D01*
X252305853Y-97915460D01*
X252095000Y-98424506D01*
X249985000Y-98424506D01*
X249774147Y-97915460D01*
X249384540Y-97525853D01*
X248875494Y-97315000D01*
X248324506Y-97315000D01*
X247815460Y-97525853D01*
X247425853Y-97915460D01*
X247215000Y-98424506D01*
X244281442Y-98424506D01*
X244531740Y-98049909D01*
X244643113Y-97490000D01*
X244531740Y-96930091D01*
X244214577Y-96455423D01*
X243862242Y-96220000D01*
X244214577Y-95984577D01*
X244531740Y-95509909D01*
X244643113Y-94950000D01*
X244531740Y-94390091D01*
X244214577Y-93915423D01*
X243862242Y-93680000D01*
X244214577Y-93444577D01*
X244531740Y-92969909D01*
X244643113Y-92410000D01*
X244586423Y-92125000D01*
X245976560Y-92125000D01*
X245976560Y-93725000D01*
X246025843Y-93972765D01*
X246166191Y-94182809D01*
X246376235Y-94323157D01*
X246624000Y-94372440D01*
X248224000Y-94372440D01*
X248471765Y-94323157D01*
X248681809Y-94182809D01*
X248822157Y-93972765D01*
X248848785Y-93838894D01*
X248929423Y-93959577D01*
X249404091Y-94276740D01*
X249822667Y-94360000D01*
X250105333Y-94360000D01*
X250523909Y-94276740D01*
X250998577Y-93959577D01*
X251234000Y-93607242D01*
X251469423Y-93959577D01*
X251944091Y-94276740D01*
X252362667Y-94360000D01*
X252645333Y-94360000D01*
X253063909Y-94276740D01*
X253538577Y-93959577D01*
X253794947Y-93575892D01*
X253891611Y-93780134D01*
X254306577Y-94156041D01*
X254694961Y-94316904D01*
X254917000Y-94194915D01*
X254917000Y-93052000D01*
X255171000Y-93052000D01*
X255171000Y-94194915D01*
X255393039Y-94316904D01*
X255781423Y-94156041D01*
X256196389Y-93780134D01*
X256435914Y-93274041D01*
X256314629Y-93052000D01*
X255171000Y-93052000D01*
X254917000Y-93052000D01*
X254897000Y-93052000D01*
X254897000Y-92798000D01*
X254917000Y-92798000D01*
X254917000Y-91655085D01*
X255171000Y-91655085D01*
X255171000Y-92798000D01*
X256314629Y-92798000D01*
X256435914Y-92575959D01*
X256196389Y-92069866D01*
X255781423Y-91693959D01*
X255393039Y-91533096D01*
X255171000Y-91655085D01*
X254917000Y-91655085D01*
X254694961Y-91533096D01*
X254306577Y-91693959D01*
X253891611Y-92069866D01*
X253794947Y-92274108D01*
X253538577Y-91890423D01*
X253063909Y-91573260D01*
X252645333Y-91490000D01*
X252362667Y-91490000D01*
X251944091Y-91573260D01*
X251469423Y-91890423D01*
X251234000Y-92242758D01*
X250998577Y-91890423D01*
X250523909Y-91573260D01*
X250105333Y-91490000D01*
X249822667Y-91490000D01*
X249404091Y-91573260D01*
X248929423Y-91890423D01*
X248848785Y-92011106D01*
X248822157Y-91877235D01*
X248681809Y-91667191D01*
X248471765Y-91526843D01*
X248224000Y-91477560D01*
X246624000Y-91477560D01*
X246376235Y-91526843D01*
X246166191Y-91667191D01*
X246025843Y-91877235D01*
X245976560Y-92125000D01*
X244586423Y-92125000D01*
X244531740Y-91850091D01*
X244214577Y-91375423D01*
X243862242Y-91140000D01*
X244214577Y-90904577D01*
X244531740Y-90429909D01*
X244643113Y-89870000D01*
X244531740Y-89310091D01*
X244214577Y-88835423D01*
X243862242Y-88600000D01*
X244214577Y-88364577D01*
X244531740Y-87889909D01*
X244643113Y-87330000D01*
X244531740Y-86770091D01*
X244214577Y-86295423D01*
X243830892Y-86039053D01*
X244035134Y-85942389D01*
X244411041Y-85527423D01*
X244503165Y-85305000D01*
X245960887Y-85305000D01*
X246072260Y-85864909D01*
X246389423Y-86339577D01*
X246864091Y-86656740D01*
X247089220Y-86701521D01*
X249077560Y-88689862D01*
X249077560Y-89206250D01*
X249145398Y-89547294D01*
X249338584Y-89836416D01*
X249627706Y-90029602D01*
X249968750Y-90097440D01*
X250456250Y-90097440D01*
X250797294Y-90029602D01*
X251086416Y-89836416D01*
X251087207Y-89835233D01*
X251240302Y-89988327D01*
X251473691Y-90085000D01*
X251801750Y-90085000D01*
X251960500Y-89926250D01*
X251960500Y-88877000D01*
X252214500Y-88877000D01*
X252214500Y-89926250D01*
X252373250Y-90085000D01*
X252701309Y-90085000D01*
X252934698Y-89988327D01*
X253113327Y-89809699D01*
X253210000Y-89576310D01*
X253210000Y-89035750D01*
X253051250Y-88877000D01*
X252214500Y-88877000D01*
X251960500Y-88877000D01*
X251940500Y-88877000D01*
X251940500Y-88623000D01*
X251960500Y-88623000D01*
X251960500Y-87573750D01*
X252214500Y-87573750D01*
X252214500Y-88623000D01*
X253051250Y-88623000D01*
X253210000Y-88464250D01*
X253210000Y-87923690D01*
X253113327Y-87690301D01*
X252934698Y-87511673D01*
X252701309Y-87415000D01*
X252373250Y-87415000D01*
X252214500Y-87573750D01*
X251960500Y-87573750D01*
X251801750Y-87415000D01*
X251473691Y-87415000D01*
X251240302Y-87511673D01*
X251087207Y-87664767D01*
X251086416Y-87663584D01*
X250797294Y-87470398D01*
X250456250Y-87402560D01*
X249968750Y-87402560D01*
X249944655Y-87407353D01*
X248626125Y-86088824D01*
X248694000Y-85987242D01*
X248929423Y-86339577D01*
X249404091Y-86656740D01*
X249822667Y-86740000D01*
X250105333Y-86740000D01*
X250523909Y-86656740D01*
X250998577Y-86339577D01*
X251234000Y-85987242D01*
X251469423Y-86339577D01*
X251944091Y-86656740D01*
X252362667Y-86740000D01*
X252645333Y-86740000D01*
X253063909Y-86656740D01*
X253538577Y-86339577D01*
X253774000Y-85987242D01*
X254009423Y-86339577D01*
X254484091Y-86656740D01*
X254902667Y-86740000D01*
X255185333Y-86740000D01*
X255603909Y-86656740D01*
X256078577Y-86339577D01*
X256395740Y-85864909D01*
X256507113Y-85305000D01*
X256395740Y-84745091D01*
X256078577Y-84270423D01*
X255603909Y-83953260D01*
X255185333Y-83870000D01*
X254902667Y-83870000D01*
X254484091Y-83953260D01*
X254009423Y-84270423D01*
X253774000Y-84622758D01*
X253538577Y-84270423D01*
X253063909Y-83953260D01*
X252645333Y-83870000D01*
X252362667Y-83870000D01*
X251944091Y-83953260D01*
X251469423Y-84270423D01*
X251234000Y-84622758D01*
X250998577Y-84270423D01*
X250523909Y-83953260D01*
X250105333Y-83870000D01*
X249822667Y-83870000D01*
X249404091Y-83953260D01*
X248929423Y-84270423D01*
X248694000Y-84622758D01*
X248458577Y-84270423D01*
X247983909Y-83953260D01*
X247565333Y-83870000D01*
X247282667Y-83870000D01*
X246864091Y-83953260D01*
X246389423Y-84270423D01*
X246072260Y-84745091D01*
X245960887Y-85305000D01*
X244503165Y-85305000D01*
X244571904Y-85139039D01*
X244449915Y-84917000D01*
X243307000Y-84917000D01*
X243307000Y-84937000D01*
X243053000Y-84937000D01*
X243053000Y-84917000D01*
X241910085Y-84917000D01*
X241788096Y-85139039D01*
X241948959Y-85527423D01*
X242324866Y-85942389D01*
X242529108Y-86039053D01*
X242145423Y-86295423D01*
X241828260Y-86770091D01*
X241716887Y-87330000D01*
X206371444Y-87330000D01*
X206420169Y-87149774D01*
X205650000Y-86379605D01*
X204879831Y-87149774D01*
X204944131Y-87387611D01*
X205176114Y-87469649D01*
X204882454Y-87591286D01*
X204501286Y-87972454D01*
X204295000Y-88470474D01*
X203445000Y-88470474D01*
X203445000Y-86002342D01*
X204282667Y-86002342D01*
X204311108Y-86540644D01*
X204462389Y-86905869D01*
X204700226Y-86970169D01*
X205470395Y-86200000D01*
X205829605Y-86200000D01*
X206599774Y-86970169D01*
X206837611Y-86905869D01*
X207017333Y-86397658D01*
X206988892Y-85859356D01*
X206837611Y-85494131D01*
X206599774Y-85429831D01*
X205829605Y-86200000D01*
X205470395Y-86200000D01*
X204700226Y-85429831D01*
X204462389Y-85494131D01*
X204282667Y-86002342D01*
X203445000Y-86002342D01*
X203445000Y-85250226D01*
X204879831Y-85250226D01*
X205650000Y-86020395D01*
X206420169Y-85250226D01*
X206355869Y-85012389D01*
X205847658Y-84832667D01*
X205309356Y-84861108D01*
X204944131Y-85012389D01*
X204879831Y-85250226D01*
X203445000Y-85250226D01*
X203445000Y-83009745D01*
X207451861Y-83009745D01*
X207525995Y-83255864D01*
X208063223Y-83448965D01*
X208633454Y-83421778D01*
X208758456Y-83370000D01*
X211952560Y-83370000D01*
X211952560Y-85370000D01*
X212001843Y-85617765D01*
X212142191Y-85827809D01*
X212352235Y-85968157D01*
X212600000Y-86017440D01*
X214600000Y-86017440D01*
X214847765Y-85968157D01*
X215057809Y-85827809D01*
X215198157Y-85617765D01*
X215247440Y-85370000D01*
X215247440Y-83370000D01*
X215198157Y-83122235D01*
X215057809Y-82912191D01*
X214847765Y-82771843D01*
X214600000Y-82722560D01*
X212600000Y-82722560D01*
X212352235Y-82771843D01*
X212142191Y-82912191D01*
X212001843Y-83122235D01*
X211952560Y-83370000D01*
X208758456Y-83370000D01*
X209034005Y-83255864D01*
X209108139Y-83009745D01*
X208280000Y-82181605D01*
X207451861Y-83009745D01*
X203445000Y-83009745D01*
X203445000Y-81785223D01*
X206833035Y-81785223D01*
X206860222Y-82355454D01*
X207026136Y-82756005D01*
X207272255Y-82830139D01*
X208100395Y-82002000D01*
X208459605Y-82002000D01*
X209287745Y-82830139D01*
X209533864Y-82756005D01*
X209726965Y-82218777D01*
X209699778Y-81648546D01*
X209533864Y-81247995D01*
X209287745Y-81173861D01*
X208459605Y-82002000D01*
X208100395Y-82002000D01*
X207272255Y-81173861D01*
X207026136Y-81247995D01*
X206833035Y-81785223D01*
X203445000Y-81785223D01*
X203445000Y-78702000D01*
X206832560Y-78702000D01*
X206832560Y-80302000D01*
X206881843Y-80549765D01*
X207022191Y-80759809D01*
X207232235Y-80900157D01*
X207466187Y-80946693D01*
X207451861Y-80994255D01*
X208280000Y-81822395D01*
X209108139Y-80994255D01*
X209093813Y-80946693D01*
X209327765Y-80900157D01*
X209537809Y-80759809D01*
X209678157Y-80549765D01*
X209727440Y-80302000D01*
X209727440Y-78702000D01*
X209678157Y-78454235D01*
X209537809Y-78244191D01*
X209327765Y-78103843D01*
X209080000Y-78054560D01*
X207480000Y-78054560D01*
X207232235Y-78103843D01*
X207022191Y-78244191D01*
X206881843Y-78454235D01*
X206832560Y-78702000D01*
X203445000Y-78702000D01*
X203445000Y-77177000D01*
X203930250Y-77177000D01*
X204089000Y-77018250D01*
X204089000Y-75819000D01*
X204069000Y-75819000D01*
X204069000Y-75565000D01*
X204089000Y-75565000D01*
X204089000Y-74365750D01*
X204343000Y-74365750D01*
X204343000Y-75565000D01*
X204363000Y-75565000D01*
X204363000Y-75819000D01*
X204343000Y-75819000D01*
X204343000Y-77018250D01*
X204501750Y-77177000D01*
X205192310Y-77177000D01*
X205425699Y-77080327D01*
X205604327Y-76901698D01*
X205670904Y-76740967D01*
X205685375Y-76762625D01*
X206176582Y-77090839D01*
X206609744Y-77177000D01*
X206902256Y-77177000D01*
X207335418Y-77090839D01*
X207826625Y-76762625D01*
X208026000Y-76464239D01*
X208225375Y-76762625D01*
X208716582Y-77090839D01*
X209149744Y-77177000D01*
X209442256Y-77177000D01*
X209875418Y-77090839D01*
X210366625Y-76762625D01*
X210694839Y-76271418D01*
X210810092Y-75692000D01*
X210694839Y-75112582D01*
X210366625Y-74621375D01*
X209875418Y-74293161D01*
X209442256Y-74207000D01*
X209149744Y-74207000D01*
X208716582Y-74293161D01*
X208225375Y-74621375D01*
X208026000Y-74919761D01*
X207826625Y-74621375D01*
X207335418Y-74293161D01*
X206902256Y-74207000D01*
X206609744Y-74207000D01*
X206176582Y-74293161D01*
X205685375Y-74621375D01*
X205670904Y-74643033D01*
X205604327Y-74482302D01*
X205425699Y-74303673D01*
X205192310Y-74207000D01*
X204501750Y-74207000D01*
X204343000Y-74365750D01*
X204089000Y-74365750D01*
X203930250Y-74207000D01*
X203445000Y-74207000D01*
X203445000Y-73660000D01*
X217805000Y-73660000D01*
X217805000Y-83566000D01*
X217853336Y-83809004D01*
X217990987Y-84015013D01*
X218196996Y-84152664D01*
X218440000Y-84201000D01*
X229870000Y-84201000D01*
X230113004Y-84152664D01*
X230319013Y-84015013D01*
X230456664Y-83809004D01*
X230505000Y-83566000D01*
X230505000Y-79710000D01*
X241716887Y-79710000D01*
X241828260Y-80269909D01*
X242145423Y-80744577D01*
X242497758Y-80980000D01*
X242145423Y-81215423D01*
X241828260Y-81690091D01*
X241716887Y-82250000D01*
X241828260Y-82809909D01*
X242145423Y-83284577D01*
X242529108Y-83540947D01*
X242324866Y-83637611D01*
X241948959Y-84052577D01*
X241788096Y-84440961D01*
X241910085Y-84663000D01*
X243053000Y-84663000D01*
X243053000Y-84643000D01*
X243307000Y-84643000D01*
X243307000Y-84663000D01*
X244449915Y-84663000D01*
X244571904Y-84440961D01*
X244411041Y-84052577D01*
X244035134Y-83637611D01*
X243830892Y-83540947D01*
X244214577Y-83284577D01*
X244531740Y-82809909D01*
X244643113Y-82250000D01*
X244531740Y-81690091D01*
X244242358Y-81257000D01*
X247094060Y-81257000D01*
X247094060Y-83257000D01*
X247143343Y-83504765D01*
X247283691Y-83714809D01*
X247493735Y-83855157D01*
X247741500Y-83904440D01*
X249646500Y-83904440D01*
X249894265Y-83855157D01*
X250104309Y-83714809D01*
X250241255Y-83509857D01*
X250367076Y-83632973D01*
X250861020Y-83847563D01*
X251107000Y-83727594D01*
X251107000Y-82384000D01*
X251087000Y-82384000D01*
X251087000Y-82130000D01*
X251107000Y-82130000D01*
X251107000Y-80786406D01*
X251361000Y-80786406D01*
X251361000Y-82130000D01*
X251381000Y-82130000D01*
X251381000Y-82384000D01*
X251361000Y-82384000D01*
X251361000Y-83727594D01*
X251606980Y-83847563D01*
X252100924Y-83632973D01*
X252494841Y-83247526D01*
X252629477Y-83449023D01*
X253154590Y-83799891D01*
X253774000Y-83923100D01*
X254393411Y-83799891D01*
X254918523Y-83449023D01*
X255269391Y-82923910D01*
X255361500Y-82460849D01*
X255361500Y-82053150D01*
X255320454Y-81846798D01*
X255414163Y-81846798D01*
X255794569Y-81689229D01*
X256085720Y-81398078D01*
X256243289Y-81017672D01*
X256243289Y-80605924D01*
X256085720Y-80225518D01*
X255794569Y-79934367D01*
X255414163Y-79776798D01*
X255002415Y-79776798D01*
X254622009Y-79934367D01*
X254330858Y-80225518D01*
X254173289Y-80605924D01*
X254173289Y-80670324D01*
X253774000Y-80590900D01*
X253154589Y-80714109D01*
X252629477Y-81064977D01*
X252494841Y-81266474D01*
X252100924Y-80881027D01*
X251606980Y-80666437D01*
X251361000Y-80786406D01*
X251107000Y-80786406D01*
X250861020Y-80666437D01*
X250367076Y-80881027D01*
X250241255Y-81004143D01*
X250104309Y-80799191D01*
X249894265Y-80658843D01*
X249646500Y-80609560D01*
X247741500Y-80609560D01*
X247493735Y-80658843D01*
X247283691Y-80799191D01*
X247143343Y-81009235D01*
X247094060Y-81257000D01*
X244242358Y-81257000D01*
X244214577Y-81215423D01*
X243862242Y-80980000D01*
X244214577Y-80744577D01*
X244531740Y-80269909D01*
X244643113Y-79710000D01*
X244531740Y-79150091D01*
X244214577Y-78675423D01*
X244093894Y-78594785D01*
X244227765Y-78568157D01*
X244437809Y-78427809D01*
X244578157Y-78217765D01*
X244627440Y-77970000D01*
X244627440Y-77170000D01*
X256956887Y-77170000D01*
X257068260Y-77729909D01*
X257385423Y-78204577D01*
X257769108Y-78460947D01*
X257564866Y-78557611D01*
X257188959Y-78972577D01*
X257028096Y-79360961D01*
X257150085Y-79583000D01*
X258293000Y-79583000D01*
X258293000Y-79563000D01*
X258547000Y-79563000D01*
X258547000Y-79583000D01*
X259689915Y-79583000D01*
X259811904Y-79360961D01*
X259651041Y-78972577D01*
X259275134Y-78557611D01*
X259070892Y-78460947D01*
X259454577Y-78204577D01*
X259771740Y-77729909D01*
X259883113Y-77170000D01*
X259771740Y-76610091D01*
X259454577Y-76135423D01*
X258979909Y-75818260D01*
X258561333Y-75735000D01*
X258278667Y-75735000D01*
X257860091Y-75818260D01*
X257385423Y-76135423D01*
X257068260Y-76610091D01*
X256956887Y-77170000D01*
X244627440Y-77170000D01*
X244627440Y-76370000D01*
X244578157Y-76122235D01*
X244437809Y-75912191D01*
X244227765Y-75771843D01*
X243980000Y-75722560D01*
X242380000Y-75722560D01*
X242132235Y-75771843D01*
X241922191Y-75912191D01*
X241781843Y-76122235D01*
X241732560Y-76370000D01*
X241732560Y-77970000D01*
X241781843Y-78217765D01*
X241922191Y-78427809D01*
X242132235Y-78568157D01*
X242266106Y-78594785D01*
X242145423Y-78675423D01*
X241828260Y-79150091D01*
X241716887Y-79710000D01*
X230505000Y-79710000D01*
X230505000Y-75360000D01*
X230621214Y-75360000D01*
X230794676Y-76232054D01*
X231288655Y-76971345D01*
X232027946Y-77465324D01*
X232679872Y-77595000D01*
X233120128Y-77595000D01*
X233772054Y-77465324D01*
X234511345Y-76971345D01*
X235005324Y-76232054D01*
X235178786Y-75360000D01*
X235005324Y-74487946D01*
X234511345Y-73748655D01*
X233772054Y-73254676D01*
X233120128Y-73125000D01*
X232679872Y-73125000D01*
X232027946Y-73254676D01*
X231288655Y-73748655D01*
X230794676Y-74487946D01*
X230621214Y-75360000D01*
X230505000Y-75360000D01*
X230505000Y-73660000D01*
X230456664Y-73416996D01*
X230319013Y-73210987D01*
X230113004Y-73073336D01*
X229870000Y-73025000D01*
X218440000Y-73025000D01*
X218196996Y-73073336D01*
X217990987Y-73210987D01*
X217853336Y-73416996D01*
X217805000Y-73660000D01*
X203445000Y-73660000D01*
X203445000Y-72517000D01*
X261765001Y-72517000D01*
X261765000Y-96113336D01*
X261765000Y-96113336D01*
G37*
X261765000Y-96113336D02*
X261413241Y-95967633D01*
X261001493Y-95967633D01*
X260621087Y-96125202D01*
X260329936Y-96416353D01*
X260172367Y-96796759D01*
X260172367Y-96962831D01*
X259843640Y-97291558D01*
X259771740Y-96930091D01*
X259454577Y-96455423D01*
X259102242Y-96220000D01*
X259454577Y-95984577D01*
X259771740Y-95509909D01*
X259883113Y-94950000D01*
X259771740Y-94390091D01*
X259454577Y-93915423D01*
X259102242Y-93680000D01*
X259454577Y-93444577D01*
X259771740Y-92969909D01*
X259883113Y-92410000D01*
X259771740Y-91850091D01*
X259454577Y-91375423D01*
X259102242Y-91140000D01*
X259454577Y-90904577D01*
X259771740Y-90429909D01*
X259883113Y-89870000D01*
X259771740Y-89310091D01*
X259454577Y-88835423D01*
X259102242Y-88600000D01*
X259454577Y-88364577D01*
X259771740Y-87889909D01*
X259883113Y-87330000D01*
X259771740Y-86770091D01*
X259454577Y-86295423D01*
X259102242Y-86060000D01*
X259454577Y-85824577D01*
X259771740Y-85349909D01*
X259883113Y-84790000D01*
X259771740Y-84230091D01*
X259454577Y-83755423D01*
X259102242Y-83520000D01*
X259454577Y-83284577D01*
X259771740Y-82809909D01*
X259883113Y-82250000D01*
X259771740Y-81690091D01*
X259454577Y-81215423D01*
X259070892Y-80959053D01*
X259275134Y-80862389D01*
X259651041Y-80447423D01*
X259811904Y-80059039D01*
X259689915Y-79837000D01*
X258547000Y-79837000D01*
X258547000Y-79857000D01*
X258293000Y-79857000D01*
X258293000Y-79837000D01*
X257150085Y-79837000D01*
X257028096Y-80059039D01*
X257188959Y-80447423D01*
X257564866Y-80862389D01*
X257769108Y-80959053D01*
X257385423Y-81215423D01*
X257068260Y-81690091D01*
X256956887Y-82250000D01*
X257068260Y-82809909D01*
X257385423Y-83284577D01*
X257737758Y-83520000D01*
X257385423Y-83755423D01*
X257068260Y-84230091D01*
X256956887Y-84790000D01*
X257068260Y-85349909D01*
X257385423Y-85824577D01*
X257737758Y-86060000D01*
X257385423Y-86295423D01*
X257068260Y-86770091D01*
X256956887Y-87330000D01*
X257068260Y-87889909D01*
X257385423Y-88364577D01*
X257737758Y-88600000D01*
X257385423Y-88835423D01*
X257068260Y-89310091D01*
X256956887Y-89870000D01*
X257068260Y-90429909D01*
X257385423Y-90904577D01*
X257737758Y-91140000D01*
X257385423Y-91375423D01*
X257068260Y-91850091D01*
X256956887Y-92410000D01*
X257068260Y-92969909D01*
X257385423Y-93444577D01*
X257737758Y-93680000D01*
X257385423Y-93915423D01*
X257068260Y-94390091D01*
X256956887Y-94950000D01*
X257068260Y-95509909D01*
X257385423Y-95984577D01*
X257737758Y-96220000D01*
X257385423Y-96455423D01*
X257068260Y-96930091D01*
X256956887Y-97490000D01*
X257068260Y-98049909D01*
X257385423Y-98524577D01*
X257737758Y-98760000D01*
X257385423Y-98995423D01*
X257068260Y-99470091D01*
X256956887Y-100030000D01*
X257068260Y-100589909D01*
X257385423Y-101064577D01*
X257737758Y-101300000D01*
X257617038Y-101380663D01*
X257507809Y-101217191D01*
X257297765Y-101076843D01*
X257050000Y-101027560D01*
X254050000Y-101027560D01*
X253802235Y-101076843D01*
X253592191Y-101217191D01*
X253451843Y-101427235D01*
X253402560Y-101675000D01*
X253402560Y-104675000D01*
X253451843Y-104922765D01*
X253592191Y-105132809D01*
X253802235Y-105273157D01*
X254050000Y-105322440D01*
X256999144Y-105322440D01*
X257068260Y-105669909D01*
X257385423Y-106144577D01*
X257737758Y-106380000D01*
X257385423Y-106615423D01*
X257068260Y-107090091D01*
X256956887Y-107650000D01*
X257068260Y-108209909D01*
X257385423Y-108684577D01*
X257737758Y-108920000D01*
X257385423Y-109155423D01*
X257068260Y-109630091D01*
X256956887Y-110190000D01*
X257068260Y-110749909D01*
X257385423Y-111224577D01*
X257737758Y-111460000D01*
X257385423Y-111695423D01*
X257068260Y-112170091D01*
X256956887Y-112730000D01*
X257068260Y-113289909D01*
X257385423Y-113764577D01*
X257860091Y-114081740D01*
X258278667Y-114165000D01*
X258561333Y-114165000D01*
X258979909Y-114081740D01*
X259454577Y-113764577D01*
X259771740Y-113289909D01*
X259883113Y-112730000D01*
X259771740Y-112170091D01*
X259454577Y-111695423D01*
X259102242Y-111460000D01*
X259454577Y-111224577D01*
X259771740Y-110749909D01*
X259883113Y-110190000D01*
X259771740Y-109630091D01*
X259454577Y-109155423D01*
X259102242Y-108920000D01*
X259454577Y-108684577D01*
X259771740Y-108209909D01*
X259883113Y-107650000D01*
X259771740Y-107090091D01*
X259454577Y-106615423D01*
X259102242Y-106380000D01*
X259454577Y-106144577D01*
X259771740Y-105669909D01*
X259883113Y-105110000D01*
X259771740Y-104550091D01*
X259454577Y-104075423D01*
X259102242Y-103840000D01*
X259454577Y-103604577D01*
X259771740Y-103129909D01*
X259883113Y-102570000D01*
X259771740Y-102010091D01*
X259454577Y-101535423D01*
X259102242Y-101300000D01*
X259454577Y-101064577D01*
X259771740Y-100589909D01*
X259883113Y-100030000D01*
X259771740Y-99470091D01*
X259714884Y-99385000D01*
X260035874Y-99385000D01*
X260416280Y-99227431D01*
X260707431Y-98936280D01*
X260865000Y-98555874D01*
X260865000Y-98419801D01*
X261247169Y-98037633D01*
X261413241Y-98037633D01*
X261765000Y-97891930D01*
X261765000Y-115175467D01*
X261515667Y-115198542D01*
X261479857Y-115204141D01*
X261443927Y-115209034D01*
X260192715Y-115460292D01*
X260192712Y-115460292D01*
X260180376Y-115463587D01*
X260109603Y-115482490D01*
X260109589Y-115482496D01*
X258899749Y-115888585D01*
X258899744Y-115888586D01*
X258875595Y-115898419D01*
X258820074Y-115921025D01*
X258820068Y-115921029D01*
X257670666Y-116475549D01*
X257670653Y-116475554D01*
X257595675Y-116517724D01*
X257589714Y-116521588D01*
X257692723Y-116258813D01*
X257676497Y-115409613D01*
X257382739Y-114700418D01*
X257063970Y-114540635D01*
X255729605Y-115875000D01*
X255743748Y-115889143D01*
X255564143Y-116068748D01*
X255550000Y-116054605D01*
X254215635Y-117388970D01*
X254375418Y-117707739D01*
X255166187Y-118017723D01*
X255570553Y-118009997D01*
X255480315Y-118086131D01*
X255418180Y-118145622D01*
X255418173Y-118145630D01*
X254553619Y-119084333D01*
X254553611Y-119084341D01*
X254523691Y-119121230D01*
X254499423Y-119151150D01*
X254499418Y-119151158D01*
X253759325Y-120190825D01*
X253713936Y-120263899D01*
X253713930Y-120263912D01*
X253109982Y-121388129D01*
X253109979Y-121388135D01*
X253074108Y-121466321D01*
X252615818Y-122657389D01*
X252590028Y-122739455D01*
X252590025Y-122739470D01*
X252284637Y-123978553D01*
X252284632Y-123978568D01*
X252269332Y-124063219D01*
X252192230Y-124725000D01*
X213810660Y-124725000D01*
X213682785Y-123920716D01*
X213681629Y-123915453D01*
X213681012Y-123910104D01*
X213665616Y-123842522D01*
X213308166Y-122573743D01*
X213306405Y-122568652D01*
X213305167Y-122563410D01*
X213281991Y-122498086D01*
X212778953Y-121279675D01*
X212776609Y-121274823D01*
X212774769Y-121269763D01*
X212744156Y-121207642D01*
X212744131Y-121207590D01*
X212744127Y-121207584D01*
X212204883Y-120240105D01*
X214715000Y-120240105D01*
X214715000Y-121009895D01*
X215009586Y-121721090D01*
X215553910Y-122265414D01*
X216265105Y-122560000D01*
X217034895Y-122560000D01*
X217746090Y-122265414D01*
X218290414Y-121721090D01*
X218585000Y-121009895D01*
X218585000Y-120240105D01*
X218290414Y-119528910D01*
X217926663Y-119165159D01*
X230925000Y-119165159D01*
X230925000Y-119954841D01*
X231227199Y-120684412D01*
X231785588Y-121242801D01*
X232515159Y-121545000D01*
X233304841Y-121545000D01*
X234034412Y-121242801D01*
X234592801Y-120684412D01*
X234776839Y-120240105D01*
X242715000Y-120240105D01*
X242715000Y-121009895D01*
X243009586Y-121721090D01*
X243553910Y-122265414D01*
X244265105Y-122560000D01*
X245034895Y-122560000D01*
X245746090Y-122265414D01*
X246290414Y-121721090D01*
X246585000Y-121009895D01*
X246585000Y-120240105D01*
X246290414Y-119528910D01*
X245746090Y-118984586D01*
X245034895Y-118690000D01*
X244265105Y-118690000D01*
X243553910Y-118984586D01*
X243009586Y-119528910D01*
X242715000Y-120240105D01*
X234776839Y-120240105D01*
X234895000Y-119954841D01*
X234895000Y-119165159D01*
X234592801Y-118435588D01*
X234034412Y-117877199D01*
X233304841Y-117575000D01*
X232515159Y-117575000D01*
X231785588Y-117877199D01*
X231227199Y-118435588D01*
X230925000Y-119165159D01*
X217926663Y-119165159D01*
X217746090Y-118984586D01*
X217034895Y-118690000D01*
X216265105Y-118690000D01*
X215553910Y-118984586D01*
X215009586Y-119528910D01*
X214715000Y-120240105D01*
X212204883Y-120240105D01*
X212102373Y-120056188D01*
X212099478Y-120051641D01*
X212097061Y-120046832D01*
X212059378Y-119988658D01*
X211287670Y-118919995D01*
X211284266Y-118915819D01*
X211281302Y-118911321D01*
X211237089Y-118857941D01*
X210345971Y-117886612D01*
X210342097Y-117882856D01*
X210338634Y-117878741D01*
X210288559Y-117830945D01*
X210288496Y-117830884D01*
X210288487Y-117830877D01*
X209290137Y-116970156D01*
X209285857Y-116966881D01*
X209281932Y-116963194D01*
X209226614Y-116921560D01*
X209226553Y-116921514D01*
X209226545Y-116921509D01*
X208134589Y-116183144D01*
X208129954Y-116180390D01*
X208125629Y-116177188D01*
X208065764Y-116142253D01*
X206895112Y-115536325D01*
X206890198Y-115534135D01*
X206885519Y-115531454D01*
X206821987Y-115503742D01*
X206788702Y-115491187D01*
X253407277Y-115491187D01*
X253423503Y-116340387D01*
X253717261Y-117049582D01*
X254036030Y-117209365D01*
X255370395Y-115875000D01*
X254036030Y-114540635D01*
X253717261Y-114700418D01*
X253407277Y-115491187D01*
X206788702Y-115491187D01*
X205588635Y-115038533D01*
X205583491Y-115036929D01*
X205578538Y-115034815D01*
X205512243Y-115014716D01*
X205512208Y-115014705D01*
X205512204Y-115014704D01*
X204233002Y-114696569D01*
X204227700Y-114695575D01*
X204222540Y-114694055D01*
X204154339Y-114681825D01*
X204154317Y-114681821D01*
X204154315Y-114681821D01*
X203445000Y-114591383D01*
X203445000Y-112920000D01*
X233082560Y-112920000D01*
X233082560Y-114520000D01*
X233131843Y-114767765D01*
X233272191Y-114977809D01*
X233482235Y-115118157D01*
X233730000Y-115167440D01*
X235330000Y-115167440D01*
X235577765Y-115118157D01*
X235787809Y-114977809D01*
X235928157Y-114767765D01*
X235977440Y-114520000D01*
X235977440Y-114361030D01*
X254215635Y-114361030D01*
X255550000Y-115695395D01*
X256884365Y-114361030D01*
X256724582Y-114042261D01*
X255933813Y-113732277D01*
X255084613Y-113748503D01*
X254375418Y-114042261D01*
X254215635Y-114361030D01*
X235977440Y-114361030D01*
X235977440Y-112920000D01*
X235928157Y-112672235D01*
X235787809Y-112462191D01*
X235577765Y-112321843D01*
X235330000Y-112272560D01*
X233730000Y-112272560D01*
X233482235Y-112321843D01*
X233272191Y-112462191D01*
X233131843Y-112672235D01*
X233082560Y-112920000D01*
X203445000Y-112920000D01*
X203445000Y-109924506D01*
X205040000Y-109924506D01*
X205040000Y-110475494D01*
X205250853Y-110984540D01*
X205640460Y-111374147D01*
X206149506Y-111585000D01*
X206700494Y-111585000D01*
X207209540Y-111374147D01*
X207599147Y-110984540D01*
X207810000Y-110475494D01*
X207810000Y-109924506D01*
X212040000Y-109924506D01*
X212040000Y-110475494D01*
X212250853Y-110984540D01*
X212640460Y-111374147D01*
X213149506Y-111585000D01*
X213700494Y-111585000D01*
X214209540Y-111374147D01*
X214599147Y-110984540D01*
X214810000Y-110475494D01*
X214810000Y-109924506D01*
X214599147Y-109415460D01*
X214209540Y-109025853D01*
X213700494Y-108815000D01*
X213149506Y-108815000D01*
X212640460Y-109025853D01*
X212250853Y-109415460D01*
X212040000Y-109924506D01*
X207810000Y-109924506D01*
X207599147Y-109415460D01*
X207209540Y-109025853D01*
X206700494Y-108815000D01*
X206149506Y-108815000D01*
X205640460Y-109025853D01*
X205250853Y-109415460D01*
X205040000Y-109924506D01*
X203445000Y-109924506D01*
X203445000Y-105244010D01*
X212990028Y-105244010D01*
X213038336Y-105493004D01*
X213175987Y-105699013D01*
X213381996Y-105836664D01*
X213625000Y-105885000D01*
X216003423Y-105885000D01*
X215990025Y-105955619D01*
X216015025Y-108780619D01*
X216063336Y-109018004D01*
X216200987Y-109224013D01*
X216406996Y-109361664D01*
X216650000Y-109410000D01*
X221677560Y-109410000D01*
X221677560Y-111100000D01*
X221726843Y-111347765D01*
X221867191Y-111557809D01*
X222077235Y-111698157D01*
X222325000Y-111747440D01*
X224325000Y-111747440D01*
X224572765Y-111698157D01*
X224782809Y-111557809D01*
X224923157Y-111347765D01*
X224972440Y-111100000D01*
X224972440Y-109410000D01*
X225700000Y-109410000D01*
X225943004Y-109361664D01*
X226149013Y-109224013D01*
X226286664Y-109018004D01*
X226335000Y-108775000D01*
X226335000Y-108227745D01*
X233701861Y-108227745D01*
X233775995Y-108473864D01*
X234313223Y-108666965D01*
X234883454Y-108639778D01*
X235284005Y-108473864D01*
X235358139Y-108227745D01*
X234530000Y-107399605D01*
X233701861Y-108227745D01*
X226335000Y-108227745D01*
X226335000Y-107003223D01*
X233083035Y-107003223D01*
X233110222Y-107573454D01*
X233276136Y-107974005D01*
X233522255Y-108048139D01*
X234350395Y-107220000D01*
X234709605Y-107220000D01*
X235537745Y-108048139D01*
X235783864Y-107974005D01*
X235976965Y-107436777D01*
X235949778Y-106866546D01*
X235783864Y-106465995D01*
X235537745Y-106391861D01*
X234709605Y-107220000D01*
X234350395Y-107220000D01*
X233522255Y-106391861D01*
X233276136Y-106465995D01*
X233083035Y-107003223D01*
X226335000Y-107003223D01*
X226335000Y-106421800D01*
X226683223Y-106546965D01*
X227253454Y-106519778D01*
X227654005Y-106353864D01*
X227696659Y-106212255D01*
X233701861Y-106212255D01*
X234530000Y-107040395D01*
X235358139Y-106212255D01*
X235284005Y-105966136D01*
X234746777Y-105773035D01*
X234176546Y-105800222D01*
X233775995Y-105966136D01*
X233701861Y-106212255D01*
X227696659Y-106212255D01*
X227728139Y-106107745D01*
X226900000Y-105279605D01*
X226885858Y-105293748D01*
X226706252Y-105114142D01*
X226720395Y-105100000D01*
X227079605Y-105100000D01*
X227907745Y-105928139D01*
X228153864Y-105854005D01*
X228346965Y-105316777D01*
X228319778Y-104746546D01*
X228153864Y-104345995D01*
X227907745Y-104271861D01*
X227079605Y-105100000D01*
X226720395Y-105100000D01*
X225892255Y-104271861D01*
X225646136Y-104345995D01*
X225453035Y-104883223D01*
X225473621Y-105315000D01*
X224947654Y-105315000D01*
X224959972Y-105255990D01*
X224970950Y-104092255D01*
X226071861Y-104092255D01*
X226900000Y-104920395D01*
X227728139Y-104092255D01*
X227654005Y-103846136D01*
X227116777Y-103653035D01*
X226546546Y-103680222D01*
X226145995Y-103846136D01*
X226071861Y-104092255D01*
X224970950Y-104092255D01*
X224984972Y-102605990D01*
X224936664Y-102356996D01*
X224799013Y-102150987D01*
X224593004Y-102013336D01*
X224350000Y-101965000D01*
X217591229Y-101965000D01*
X217530874Y-101940000D01*
X217119126Y-101940000D01*
X217058771Y-101965000D01*
X216591229Y-101965000D01*
X216530874Y-101940000D01*
X216119126Y-101940000D01*
X216058771Y-101965000D01*
X213650000Y-101965000D01*
X213412541Y-102011070D01*
X213205243Y-102146771D01*
X213065655Y-102351473D01*
X213015028Y-102594010D01*
X212990028Y-105244010D01*
X203445000Y-105244010D01*
X203445000Y-103100000D01*
X204535908Y-103100000D01*
X204651161Y-103679418D01*
X204979375Y-104170625D01*
X205470582Y-104498839D01*
X205903744Y-104585000D01*
X206196256Y-104585000D01*
X206629418Y-104498839D01*
X207120625Y-104170625D01*
X207448839Y-103679418D01*
X207564092Y-103100000D01*
X207448839Y-102520582D01*
X207120625Y-102029375D01*
X207102381Y-102017184D01*
X207147765Y-102008157D01*
X207357809Y-101867809D01*
X207413107Y-101785050D01*
X208105000Y-101785050D01*
X208105000Y-102534950D01*
X208391974Y-103227767D01*
X208922233Y-103758026D01*
X209615050Y-104045000D01*
X210364950Y-104045000D01*
X211057767Y-103758026D01*
X211588026Y-103227767D01*
X211875000Y-102534950D01*
X211875000Y-101785050D01*
X211588026Y-101092233D01*
X211295793Y-100800000D01*
X225452560Y-100800000D01*
X225452560Y-102400000D01*
X225501843Y-102647765D01*
X225642191Y-102857809D01*
X225852235Y-102998157D01*
X226100000Y-103047440D01*
X227700000Y-103047440D01*
X227947765Y-102998157D01*
X228157809Y-102857809D01*
X228298157Y-102647765D01*
X228347440Y-102400000D01*
X228347440Y-100800000D01*
X228298157Y-100552235D01*
X228157809Y-100342191D01*
X227947765Y-100201843D01*
X227700000Y-100152560D01*
X226100000Y-100152560D01*
X225852235Y-100201843D01*
X225642191Y-100342191D01*
X225501843Y-100552235D01*
X225452560Y-100800000D01*
X211295793Y-100800000D01*
X211057767Y-100561974D01*
X210364950Y-100275000D01*
X209615050Y-100275000D01*
X208922233Y-100561974D01*
X208391974Y-101092233D01*
X208105000Y-101785050D01*
X207413107Y-101785050D01*
X207498157Y-101657765D01*
X207547440Y-101410000D01*
X207547440Y-99710000D01*
X207498157Y-99462235D01*
X207357809Y-99252191D01*
X207147765Y-99111843D01*
X206900000Y-99062560D01*
X205200000Y-99062560D01*
X204952235Y-99111843D01*
X204742191Y-99252191D01*
X204601843Y-99462235D01*
X204552560Y-99710000D01*
X204552560Y-101410000D01*
X204601843Y-101657765D01*
X204742191Y-101867809D01*
X204952235Y-102008157D01*
X204997619Y-102017184D01*
X204979375Y-102029375D01*
X204651161Y-102520582D01*
X204535908Y-103100000D01*
X203445000Y-103100000D01*
X203445000Y-88470474D01*
X204295000Y-88470474D01*
X204295000Y-89009526D01*
X204501286Y-89507546D01*
X204882454Y-89888714D01*
X205175265Y-90010000D01*
X204882454Y-90131286D01*
X204501286Y-90512454D01*
X204295000Y-91010474D01*
X204295000Y-91549526D01*
X204501286Y-92047546D01*
X204882454Y-92428714D01*
X205380474Y-92635000D01*
X205919526Y-92635000D01*
X206417546Y-92428714D01*
X206746260Y-92100000D01*
X209202560Y-92100000D01*
X209202560Y-93600000D01*
X209251843Y-93847765D01*
X209392191Y-94057809D01*
X209602235Y-94198157D01*
X209794844Y-94236469D01*
X209425853Y-94605460D01*
X209215000Y-95114506D01*
X209215000Y-95665494D01*
X209425853Y-96174540D01*
X209815460Y-96564147D01*
X210046870Y-96660000D01*
X209815460Y-96755853D01*
X209425853Y-97145460D01*
X209215000Y-97654506D01*
X209215000Y-98205494D01*
X209425853Y-98714540D01*
X209815460Y-99104147D01*
X210324506Y-99315000D01*
X210875494Y-99315000D01*
X211384540Y-99104147D01*
X211774147Y-98714540D01*
X211985000Y-98205494D01*
X211985000Y-97654506D01*
X211774147Y-97145460D01*
X211384540Y-96755853D01*
X211153130Y-96660000D01*
X211225556Y-96630000D01*
X216563900Y-96630000D01*
X216687109Y-97249411D01*
X217037977Y-97774523D01*
X217563089Y-98125391D01*
X218026150Y-98217500D01*
X218433850Y-98217500D01*
X218896911Y-98125391D01*
X219024550Y-98040105D01*
X228715000Y-98040105D01*
X228715000Y-98809895D01*
X229009586Y-99521090D01*
X229553910Y-100065414D01*
X230265105Y-100360000D01*
X231034895Y-100360000D01*
X231746090Y-100065414D01*
X232290414Y-99521090D01*
X232585000Y-98809895D01*
X232585000Y-98065474D01*
X233720000Y-98065474D01*
X233720000Y-98604526D01*
X233926286Y-99102546D01*
X234307454Y-99483714D01*
X234600265Y-99605000D01*
X234307454Y-99726286D01*
X233926286Y-100107454D01*
X233720000Y-100605474D01*
X233720000Y-101144526D01*
X233926286Y-101642546D01*
X234307454Y-102023714D01*
X234805474Y-102230000D01*
X235344526Y-102230000D01*
X235448970Y-102186738D01*
X236577655Y-102186738D01*
X236577655Y-102598486D01*
X236735224Y-102978892D01*
X237026375Y-103270043D01*
X237406781Y-103427612D01*
X237818529Y-103427612D01*
X238097328Y-103312130D01*
X238265000Y-103479802D01*
X238265000Y-103645874D01*
X238422569Y-104026280D01*
X238713720Y-104317431D01*
X239094126Y-104475000D01*
X239505874Y-104475000D01*
X239886280Y-104317431D01*
X240177431Y-104026280D01*
X240335000Y-103645874D01*
X240335000Y-103234126D01*
X240177431Y-102853720D01*
X239886280Y-102562569D01*
X239505874Y-102405000D01*
X239339802Y-102405000D01*
X238842943Y-101908141D01*
X238800541Y-101844683D01*
X238549149Y-101676708D01*
X238327464Y-101632612D01*
X238327459Y-101632612D01*
X238313612Y-101629858D01*
X238198935Y-101515181D01*
X237818529Y-101357612D01*
X237406781Y-101357612D01*
X237026375Y-101515181D01*
X236735224Y-101806332D01*
X236577655Y-102186738D01*
X235448970Y-102186738D01*
X235842546Y-102023714D01*
X236223714Y-101642546D01*
X236430000Y-101144526D01*
X236430000Y-100605474D01*
X236223714Y-100107454D01*
X235842546Y-99726286D01*
X235549735Y-99605000D01*
X235842546Y-99483714D01*
X236223714Y-99102546D01*
X236430000Y-98604526D01*
X236430000Y-98065474D01*
X236223714Y-97567454D01*
X235842546Y-97186286D01*
X235565849Y-97071675D01*
X235780869Y-96982611D01*
X235845169Y-96744774D01*
X235075000Y-95974605D01*
X234304831Y-96744774D01*
X234369131Y-96982611D01*
X234601114Y-97064649D01*
X234307454Y-97186286D01*
X233926286Y-97567454D01*
X233720000Y-98065474D01*
X232585000Y-98065474D01*
X232585000Y-98040105D01*
X232290414Y-97328910D01*
X231746090Y-96784586D01*
X231034895Y-96490000D01*
X230265105Y-96490000D01*
X229553910Y-96784586D01*
X229009586Y-97328910D01*
X228715000Y-98040105D01*
X219024550Y-98040105D01*
X219422023Y-97774523D01*
X219772891Y-97249411D01*
X219896100Y-96630000D01*
X219772891Y-96010589D01*
X219510912Y-95618509D01*
X219687809Y-95500309D01*
X219828157Y-95290265D01*
X219877440Y-95042500D01*
X219877440Y-94434561D01*
X222755000Y-94434561D01*
X222755000Y-95005439D01*
X222973466Y-95532862D01*
X223377138Y-95936534D01*
X223904561Y-96155000D01*
X224475439Y-96155000D01*
X225002862Y-95936534D01*
X225406534Y-95532862D01*
X225625000Y-95005439D01*
X225625000Y-94434561D01*
X225411862Y-93920000D01*
X226242560Y-93920000D01*
X226242560Y-95520000D01*
X226291843Y-95767765D01*
X226432191Y-95977809D01*
X226642235Y-96118157D01*
X226890000Y-96167440D01*
X228490000Y-96167440D01*
X228737765Y-96118157D01*
X228947809Y-95977809D01*
X229088157Y-95767765D01*
X229122055Y-95597342D01*
X233707667Y-95597342D01*
X233736108Y-96135644D01*
X233887389Y-96500869D01*
X234125226Y-96565169D01*
X234895395Y-95795000D01*
X235254605Y-95795000D01*
X236024774Y-96565169D01*
X236262611Y-96500869D01*
X236442333Y-95992658D01*
X236413892Y-95454356D01*
X236262611Y-95089131D01*
X236024774Y-95024831D01*
X235254605Y-95795000D01*
X234895395Y-95795000D01*
X234125226Y-95024831D01*
X233887389Y-95089131D01*
X233707667Y-95597342D01*
X229122055Y-95597342D01*
X229137440Y-95520000D01*
X229137440Y-94845226D01*
X234304831Y-94845226D01*
X235075000Y-95615395D01*
X235845169Y-94845226D01*
X235780869Y-94607389D01*
X235272658Y-94427667D01*
X234734356Y-94456108D01*
X234369131Y-94607389D01*
X234304831Y-94845226D01*
X229137440Y-94845226D01*
X229137440Y-93920000D01*
X229088157Y-93672235D01*
X228947809Y-93462191D01*
X228737765Y-93321843D01*
X228490000Y-93272560D01*
X226890000Y-93272560D01*
X226642235Y-93321843D01*
X226432191Y-93462191D01*
X226291843Y-93672235D01*
X226242560Y-93920000D01*
X225411862Y-93920000D01*
X225406534Y-93907138D01*
X225002862Y-93503466D01*
X224475439Y-93285000D01*
X223904561Y-93285000D01*
X223377138Y-93503466D01*
X222973466Y-93907138D01*
X222755000Y-94434561D01*
X219877440Y-94434561D01*
X219877440Y-93137500D01*
X219828157Y-92889735D01*
X219687809Y-92679691D01*
X219477765Y-92539343D01*
X219230000Y-92490060D01*
X217230000Y-92490060D01*
X216982235Y-92539343D01*
X216772191Y-92679691D01*
X216631843Y-92889735D01*
X216582560Y-93137500D01*
X216582560Y-95042500D01*
X216631843Y-95290265D01*
X216772191Y-95500309D01*
X216949088Y-95618509D01*
X216687109Y-96010589D01*
X216563900Y-96630000D01*
X211225556Y-96630000D01*
X211384540Y-96564147D01*
X211774147Y-96174540D01*
X211985000Y-95665494D01*
X211985000Y-95114506D01*
X211774147Y-94605460D01*
X211405156Y-94236469D01*
X211597765Y-94198157D01*
X211807809Y-94057809D01*
X211948157Y-93847765D01*
X211997440Y-93600000D01*
X211997440Y-92100000D01*
X211948157Y-91852235D01*
X211807809Y-91642191D01*
X211597765Y-91501843D01*
X211350000Y-91452560D01*
X209850000Y-91452560D01*
X209602235Y-91501843D01*
X209392191Y-91642191D01*
X209251843Y-91852235D01*
X209202560Y-92100000D01*
X206746260Y-92100000D01*
X206798714Y-92047546D01*
X207005000Y-91549526D01*
X207005000Y-91010474D01*
X206802889Y-90522532D01*
X212627073Y-90522532D01*
X212725736Y-90789387D01*
X213335461Y-91015908D01*
X213985460Y-90991856D01*
X214474264Y-90789387D01*
X214572927Y-90522532D01*
X213600000Y-89549605D01*
X212627073Y-90522532D01*
X206802889Y-90522532D01*
X206798714Y-90512454D01*
X206417546Y-90131286D01*
X206124735Y-90010000D01*
X206417546Y-89888714D01*
X206798714Y-89507546D01*
X206965262Y-89105461D01*
X211954092Y-89105461D01*
X211978144Y-89755460D01*
X212180613Y-90244264D01*
X212447468Y-90342927D01*
X213420395Y-89370000D01*
X213779605Y-89370000D01*
X214752532Y-90342927D01*
X215019387Y-90244264D01*
X215245908Y-89634539D01*
X215222429Y-89000000D01*
X230652560Y-89000000D01*
X230652560Y-92200000D01*
X230701843Y-92447765D01*
X230842191Y-92657809D01*
X231052235Y-92798157D01*
X231300000Y-92847440D01*
X234500000Y-92847440D01*
X234747765Y-92798157D01*
X234957809Y-92657809D01*
X235098157Y-92447765D01*
X235147440Y-92200000D01*
X235147440Y-90050484D01*
X235221673Y-90229698D01*
X235400301Y-90408327D01*
X235633690Y-90505000D01*
X236324250Y-90505000D01*
X236483000Y-90346250D01*
X236483000Y-89147000D01*
X236463000Y-89147000D01*
X236463000Y-88893000D01*
X236483000Y-88893000D01*
X236483000Y-87693750D01*
X236737000Y-87693750D01*
X236737000Y-88893000D01*
X236757000Y-88893000D01*
X236757000Y-89147000D01*
X236737000Y-89147000D01*
X236737000Y-90346250D01*
X236895750Y-90505000D01*
X237586310Y-90505000D01*
X237819699Y-90408327D01*
X237998327Y-90229698D01*
X238064904Y-90068967D01*
X238079375Y-90090625D01*
X238570582Y-90418839D01*
X239003744Y-90505000D01*
X239296256Y-90505000D01*
X239729418Y-90418839D01*
X240220625Y-90090625D01*
X240548839Y-89599418D01*
X240664092Y-89020000D01*
X240548839Y-88440582D01*
X240220625Y-87949375D01*
X239729418Y-87621161D01*
X239296256Y-87535000D01*
X239003744Y-87535000D01*
X238570582Y-87621161D01*
X238079375Y-87949375D01*
X238064904Y-87971033D01*
X237998327Y-87810302D01*
X237819699Y-87631673D01*
X237586310Y-87535000D01*
X236895750Y-87535000D01*
X236737000Y-87693750D01*
X236483000Y-87693750D01*
X236324250Y-87535000D01*
X235633690Y-87535000D01*
X235400301Y-87631673D01*
X235221673Y-87810302D01*
X235125000Y-88043691D01*
X235125000Y-88734250D01*
X235283748Y-88892998D01*
X235126156Y-88892998D01*
X235098157Y-88752235D01*
X234957809Y-88542191D01*
X234747765Y-88401843D01*
X234500000Y-88352560D01*
X231300000Y-88352560D01*
X231052235Y-88401843D01*
X230842191Y-88542191D01*
X230701843Y-88752235D01*
X230652560Y-89000000D01*
X215222429Y-89000000D01*
X215221856Y-88984540D01*
X215019387Y-88495736D01*
X214752532Y-88397073D01*
X213779605Y-89370000D01*
X213420395Y-89370000D01*
X212447468Y-88397073D01*
X212180613Y-88495736D01*
X211954092Y-89105461D01*
X206965262Y-89105461D01*
X207005000Y-89009526D01*
X207005000Y-88470474D01*
X206900202Y-88217468D01*
X212627073Y-88217468D01*
X213600000Y-89190395D01*
X214572927Y-88217468D01*
X214474264Y-87950613D01*
X213864539Y-87724092D01*
X213214540Y-87748144D01*
X212725736Y-87950613D01*
X212627073Y-88217468D01*
X206900202Y-88217468D01*
X206798714Y-87972454D01*
X206417546Y-87591286D01*
X206140849Y-87476675D01*
X206355869Y-87387611D01*
X206371444Y-87330000D01*
X241716887Y-87330000D01*
X241828260Y-87889909D01*
X242145423Y-88364577D01*
X242497758Y-88600000D01*
X242145423Y-88835423D01*
X241828260Y-89310091D01*
X241716887Y-89870000D01*
X241828260Y-90429909D01*
X242145423Y-90904577D01*
X242497758Y-91140000D01*
X242145423Y-91375423D01*
X241828260Y-91850091D01*
X241716887Y-92410000D01*
X241828260Y-92969909D01*
X242145423Y-93444577D01*
X242497758Y-93680000D01*
X242145423Y-93915423D01*
X241828260Y-94390091D01*
X241716887Y-94950000D01*
X241828260Y-95509909D01*
X242145423Y-95984577D01*
X242497758Y-96220000D01*
X242145423Y-96455423D01*
X241828260Y-96930091D01*
X241716887Y-97490000D01*
X241828260Y-98049909D01*
X242145423Y-98524577D01*
X242497758Y-98760000D01*
X242145423Y-98995423D01*
X241828260Y-99470091D01*
X241716887Y-100030000D01*
X241828260Y-100589909D01*
X242145423Y-101064577D01*
X242497758Y-101300000D01*
X242145423Y-101535423D01*
X241828260Y-102010091D01*
X241716887Y-102570000D01*
X241828260Y-103129909D01*
X242145423Y-103604577D01*
X242497758Y-103840000D01*
X242145423Y-104075423D01*
X241828260Y-104550091D01*
X241716887Y-105110000D01*
X241828260Y-105669909D01*
X242145423Y-106144577D01*
X242497758Y-106380000D01*
X242145423Y-106615423D01*
X241828260Y-107090091D01*
X241716887Y-107650000D01*
X241828260Y-108209909D01*
X242145423Y-108684577D01*
X242497758Y-108920000D01*
X242145423Y-109155423D01*
X241828260Y-109630091D01*
X241716887Y-110190000D01*
X241828260Y-110749909D01*
X242145423Y-111224577D01*
X242497758Y-111460000D01*
X242145423Y-111695423D01*
X241828260Y-112170091D01*
X241716887Y-112730000D01*
X241828260Y-113289909D01*
X242145423Y-113764577D01*
X242620091Y-114081740D01*
X243038667Y-114165000D01*
X243321333Y-114165000D01*
X243739909Y-114081740D01*
X244214577Y-113764577D01*
X244531740Y-113289909D01*
X244643113Y-112730000D01*
X244531740Y-112170091D01*
X244214577Y-111695423D01*
X243862242Y-111460000D01*
X244214577Y-111224577D01*
X244531740Y-110749909D01*
X244643113Y-110190000D01*
X244531740Y-109630091D01*
X244214577Y-109155423D01*
X243862242Y-108920000D01*
X244214577Y-108684577D01*
X244531740Y-108209909D01*
X244643113Y-107650000D01*
X244531740Y-107090091D01*
X244214577Y-106615423D01*
X243862242Y-106380000D01*
X244214577Y-106144577D01*
X244531740Y-105669909D01*
X244643113Y-105110000D01*
X244531740Y-104550091D01*
X244214577Y-104075423D01*
X243862242Y-103840000D01*
X244214577Y-103604577D01*
X244531740Y-103129909D01*
X244643113Y-102570000D01*
X244531740Y-102010091D01*
X244214577Y-101535423D01*
X243862242Y-101300000D01*
X244214577Y-101064577D01*
X244531740Y-100589909D01*
X244643113Y-100030000D01*
X244531740Y-99470091D01*
X244214577Y-98995423D01*
X243862242Y-98760000D01*
X244214577Y-98524577D01*
X244281442Y-98424506D01*
X247215000Y-98424506D01*
X247215000Y-98975494D01*
X247425853Y-99484540D01*
X247815460Y-99874147D01*
X248324506Y-100085000D01*
X248875494Y-100085000D01*
X249384540Y-99874147D01*
X249774147Y-99484540D01*
X249985000Y-98975494D01*
X249985000Y-98424506D01*
X252095000Y-98424506D01*
X252095000Y-98975494D01*
X252305853Y-99484540D01*
X252695460Y-99874147D01*
X253204506Y-100085000D01*
X253755494Y-100085000D01*
X254264540Y-99874147D01*
X254654147Y-99484540D01*
X254865000Y-98975494D01*
X254865000Y-98424506D01*
X254654147Y-97915460D01*
X254264540Y-97525853D01*
X253755494Y-97315000D01*
X253204506Y-97315000D01*
X252695460Y-97525853D01*
X252305853Y-97915460D01*
X252095000Y-98424506D01*
X249985000Y-98424506D01*
X249774147Y-97915460D01*
X249384540Y-97525853D01*
X248875494Y-97315000D01*
X248324506Y-97315000D01*
X247815460Y-97525853D01*
X247425853Y-97915460D01*
X247215000Y-98424506D01*
X244281442Y-98424506D01*
X244531740Y-98049909D01*
X244643113Y-97490000D01*
X244531740Y-96930091D01*
X244214577Y-96455423D01*
X243862242Y-96220000D01*
X244214577Y-95984577D01*
X244531740Y-95509909D01*
X244643113Y-94950000D01*
X244531740Y-94390091D01*
X244214577Y-93915423D01*
X243862242Y-93680000D01*
X244214577Y-93444577D01*
X244531740Y-92969909D01*
X244643113Y-92410000D01*
X244586423Y-92125000D01*
X245976560Y-92125000D01*
X245976560Y-93725000D01*
X246025843Y-93972765D01*
X246166191Y-94182809D01*
X246376235Y-94323157D01*
X246624000Y-94372440D01*
X248224000Y-94372440D01*
X248471765Y-94323157D01*
X248681809Y-94182809D01*
X248822157Y-93972765D01*
X248848785Y-93838894D01*
X248929423Y-93959577D01*
X249404091Y-94276740D01*
X249822667Y-94360000D01*
X250105333Y-94360000D01*
X250523909Y-94276740D01*
X250998577Y-93959577D01*
X251234000Y-93607242D01*
X251469423Y-93959577D01*
X251944091Y-94276740D01*
X252362667Y-94360000D01*
X252645333Y-94360000D01*
X253063909Y-94276740D01*
X253538577Y-93959577D01*
X253794947Y-93575892D01*
X253891611Y-93780134D01*
X254306577Y-94156041D01*
X254694961Y-94316904D01*
X254917000Y-94194915D01*
X254917000Y-93052000D01*
X255171000Y-93052000D01*
X255171000Y-94194915D01*
X255393039Y-94316904D01*
X255781423Y-94156041D01*
X256196389Y-93780134D01*
X256435914Y-93274041D01*
X256314629Y-93052000D01*
X255171000Y-93052000D01*
X254917000Y-93052000D01*
X254897000Y-93052000D01*
X254897000Y-92798000D01*
X254917000Y-92798000D01*
X254917000Y-91655085D01*
X255171000Y-91655085D01*
X255171000Y-92798000D01*
X256314629Y-92798000D01*
X256435914Y-92575959D01*
X256196389Y-92069866D01*
X255781423Y-91693959D01*
X255393039Y-91533096D01*
X255171000Y-91655085D01*
X254917000Y-91655085D01*
X254694961Y-91533096D01*
X254306577Y-91693959D01*
X253891611Y-92069866D01*
X253794947Y-92274108D01*
X253538577Y-91890423D01*
X253063909Y-91573260D01*
X252645333Y-91490000D01*
X252362667Y-91490000D01*
X251944091Y-91573260D01*
X251469423Y-91890423D01*
X251234000Y-92242758D01*
X250998577Y-91890423D01*
X250523909Y-91573260D01*
X250105333Y-91490000D01*
X249822667Y-91490000D01*
X249404091Y-91573260D01*
X248929423Y-91890423D01*
X248848785Y-92011106D01*
X248822157Y-91877235D01*
X248681809Y-91667191D01*
X248471765Y-91526843D01*
X248224000Y-91477560D01*
X246624000Y-91477560D01*
X246376235Y-91526843D01*
X246166191Y-91667191D01*
X246025843Y-91877235D01*
X245976560Y-92125000D01*
X244586423Y-92125000D01*
X244531740Y-91850091D01*
X244214577Y-91375423D01*
X243862242Y-91140000D01*
X244214577Y-90904577D01*
X244531740Y-90429909D01*
X244643113Y-89870000D01*
X244531740Y-89310091D01*
X244214577Y-88835423D01*
X243862242Y-88600000D01*
X244214577Y-88364577D01*
X244531740Y-87889909D01*
X244643113Y-87330000D01*
X244531740Y-86770091D01*
X244214577Y-86295423D01*
X243830892Y-86039053D01*
X244035134Y-85942389D01*
X244411041Y-85527423D01*
X244503165Y-85305000D01*
X245960887Y-85305000D01*
X246072260Y-85864909D01*
X246389423Y-86339577D01*
X246864091Y-86656740D01*
X247089220Y-86701521D01*
X249077560Y-88689862D01*
X249077560Y-89206250D01*
X249145398Y-89547294D01*
X249338584Y-89836416D01*
X249627706Y-90029602D01*
X249968750Y-90097440D01*
X250456250Y-90097440D01*
X250797294Y-90029602D01*
X251086416Y-89836416D01*
X251087207Y-89835233D01*
X251240302Y-89988327D01*
X251473691Y-90085000D01*
X251801750Y-90085000D01*
X251960500Y-89926250D01*
X251960500Y-88877000D01*
X252214500Y-88877000D01*
X252214500Y-89926250D01*
X252373250Y-90085000D01*
X252701309Y-90085000D01*
X252934698Y-89988327D01*
X253113327Y-89809699D01*
X253210000Y-89576310D01*
X253210000Y-89035750D01*
X253051250Y-88877000D01*
X252214500Y-88877000D01*
X251960500Y-88877000D01*
X251940500Y-88877000D01*
X251940500Y-88623000D01*
X251960500Y-88623000D01*
X251960500Y-87573750D01*
X252214500Y-87573750D01*
X252214500Y-88623000D01*
X253051250Y-88623000D01*
X253210000Y-88464250D01*
X253210000Y-87923690D01*
X253113327Y-87690301D01*
X252934698Y-87511673D01*
X252701309Y-87415000D01*
X252373250Y-87415000D01*
X252214500Y-87573750D01*
X251960500Y-87573750D01*
X251801750Y-87415000D01*
X251473691Y-87415000D01*
X251240302Y-87511673D01*
X251087207Y-87664767D01*
X251086416Y-87663584D01*
X250797294Y-87470398D01*
X250456250Y-87402560D01*
X249968750Y-87402560D01*
X249944655Y-87407353D01*
X248626125Y-86088824D01*
X248694000Y-85987242D01*
X248929423Y-86339577D01*
X249404091Y-86656740D01*
X249822667Y-86740000D01*
X250105333Y-86740000D01*
X250523909Y-86656740D01*
X250998577Y-86339577D01*
X251234000Y-85987242D01*
X251469423Y-86339577D01*
X251944091Y-86656740D01*
X252362667Y-86740000D01*
X252645333Y-86740000D01*
X253063909Y-86656740D01*
X253538577Y-86339577D01*
X253774000Y-85987242D01*
X254009423Y-86339577D01*
X254484091Y-86656740D01*
X254902667Y-86740000D01*
X255185333Y-86740000D01*
X255603909Y-86656740D01*
X256078577Y-86339577D01*
X256395740Y-85864909D01*
X256507113Y-85305000D01*
X256395740Y-84745091D01*
X256078577Y-84270423D01*
X255603909Y-83953260D01*
X255185333Y-83870000D01*
X254902667Y-83870000D01*
X254484091Y-83953260D01*
X254009423Y-84270423D01*
X253774000Y-84622758D01*
X253538577Y-84270423D01*
X253063909Y-83953260D01*
X252645333Y-83870000D01*
X252362667Y-83870000D01*
X251944091Y-83953260D01*
X251469423Y-84270423D01*
X251234000Y-84622758D01*
X250998577Y-84270423D01*
X250523909Y-83953260D01*
X250105333Y-83870000D01*
X249822667Y-83870000D01*
X249404091Y-83953260D01*
X248929423Y-84270423D01*
X248694000Y-84622758D01*
X248458577Y-84270423D01*
X247983909Y-83953260D01*
X247565333Y-83870000D01*
X247282667Y-83870000D01*
X246864091Y-83953260D01*
X246389423Y-84270423D01*
X246072260Y-84745091D01*
X245960887Y-85305000D01*
X244503165Y-85305000D01*
X244571904Y-85139039D01*
X244449915Y-84917000D01*
X243307000Y-84917000D01*
X243307000Y-84937000D01*
X243053000Y-84937000D01*
X243053000Y-84917000D01*
X241910085Y-84917000D01*
X241788096Y-85139039D01*
X241948959Y-85527423D01*
X242324866Y-85942389D01*
X242529108Y-86039053D01*
X242145423Y-86295423D01*
X241828260Y-86770091D01*
X241716887Y-87330000D01*
X206371444Y-87330000D01*
X206420169Y-87149774D01*
X205650000Y-86379605D01*
X204879831Y-87149774D01*
X204944131Y-87387611D01*
X205176114Y-87469649D01*
X204882454Y-87591286D01*
X204501286Y-87972454D01*
X204295000Y-88470474D01*
X203445000Y-88470474D01*
X203445000Y-86002342D01*
X204282667Y-86002342D01*
X204311108Y-86540644D01*
X204462389Y-86905869D01*
X204700226Y-86970169D01*
X205470395Y-86200000D01*
X205829605Y-86200000D01*
X206599774Y-86970169D01*
X206837611Y-86905869D01*
X207017333Y-86397658D01*
X206988892Y-85859356D01*
X206837611Y-85494131D01*
X206599774Y-85429831D01*
X205829605Y-86200000D01*
X205470395Y-86200000D01*
X204700226Y-85429831D01*
X204462389Y-85494131D01*
X204282667Y-86002342D01*
X203445000Y-86002342D01*
X203445000Y-85250226D01*
X204879831Y-85250226D01*
X205650000Y-86020395D01*
X206420169Y-85250226D01*
X206355869Y-85012389D01*
X205847658Y-84832667D01*
X205309356Y-84861108D01*
X204944131Y-85012389D01*
X204879831Y-85250226D01*
X203445000Y-85250226D01*
X203445000Y-83009745D01*
X207451861Y-83009745D01*
X207525995Y-83255864D01*
X208063223Y-83448965D01*
X208633454Y-83421778D01*
X208758456Y-83370000D01*
X211952560Y-83370000D01*
X211952560Y-85370000D01*
X212001843Y-85617765D01*
X212142191Y-85827809D01*
X212352235Y-85968157D01*
X212600000Y-86017440D01*
X214600000Y-86017440D01*
X214847765Y-85968157D01*
X215057809Y-85827809D01*
X215198157Y-85617765D01*
X215247440Y-85370000D01*
X215247440Y-83370000D01*
X215198157Y-83122235D01*
X215057809Y-82912191D01*
X214847765Y-82771843D01*
X214600000Y-82722560D01*
X212600000Y-82722560D01*
X212352235Y-82771843D01*
X212142191Y-82912191D01*
X212001843Y-83122235D01*
X211952560Y-83370000D01*
X208758456Y-83370000D01*
X209034005Y-83255864D01*
X209108139Y-83009745D01*
X208280000Y-82181605D01*
X207451861Y-83009745D01*
X203445000Y-83009745D01*
X203445000Y-81785223D01*
X206833035Y-81785223D01*
X206860222Y-82355454D01*
X207026136Y-82756005D01*
X207272255Y-82830139D01*
X208100395Y-82002000D01*
X208459605Y-82002000D01*
X209287745Y-82830139D01*
X209533864Y-82756005D01*
X209726965Y-82218777D01*
X209699778Y-81648546D01*
X209533864Y-81247995D01*
X209287745Y-81173861D01*
X208459605Y-82002000D01*
X208100395Y-82002000D01*
X207272255Y-81173861D01*
X207026136Y-81247995D01*
X206833035Y-81785223D01*
X203445000Y-81785223D01*
X203445000Y-78702000D01*
X206832560Y-78702000D01*
X206832560Y-80302000D01*
X206881843Y-80549765D01*
X207022191Y-80759809D01*
X207232235Y-80900157D01*
X207466187Y-80946693D01*
X207451861Y-80994255D01*
X208280000Y-81822395D01*
X209108139Y-80994255D01*
X209093813Y-80946693D01*
X209327765Y-80900157D01*
X209537809Y-80759809D01*
X209678157Y-80549765D01*
X209727440Y-80302000D01*
X209727440Y-78702000D01*
X209678157Y-78454235D01*
X209537809Y-78244191D01*
X209327765Y-78103843D01*
X209080000Y-78054560D01*
X207480000Y-78054560D01*
X207232235Y-78103843D01*
X207022191Y-78244191D01*
X206881843Y-78454235D01*
X206832560Y-78702000D01*
X203445000Y-78702000D01*
X203445000Y-77177000D01*
X203930250Y-77177000D01*
X204089000Y-77018250D01*
X204089000Y-75819000D01*
X204069000Y-75819000D01*
X204069000Y-75565000D01*
X204089000Y-75565000D01*
X204089000Y-74365750D01*
X204343000Y-74365750D01*
X204343000Y-75565000D01*
X204363000Y-75565000D01*
X204363000Y-75819000D01*
X204343000Y-75819000D01*
X204343000Y-77018250D01*
X204501750Y-77177000D01*
X205192310Y-77177000D01*
X205425699Y-77080327D01*
X205604327Y-76901698D01*
X205670904Y-76740967D01*
X205685375Y-76762625D01*
X206176582Y-77090839D01*
X206609744Y-77177000D01*
X206902256Y-77177000D01*
X207335418Y-77090839D01*
X207826625Y-76762625D01*
X208026000Y-76464239D01*
X208225375Y-76762625D01*
X208716582Y-77090839D01*
X209149744Y-77177000D01*
X209442256Y-77177000D01*
X209875418Y-77090839D01*
X210366625Y-76762625D01*
X210694839Y-76271418D01*
X210810092Y-75692000D01*
X210694839Y-75112582D01*
X210366625Y-74621375D01*
X209875418Y-74293161D01*
X209442256Y-74207000D01*
X209149744Y-74207000D01*
X208716582Y-74293161D01*
X208225375Y-74621375D01*
X208026000Y-74919761D01*
X207826625Y-74621375D01*
X207335418Y-74293161D01*
X206902256Y-74207000D01*
X206609744Y-74207000D01*
X206176582Y-74293161D01*
X205685375Y-74621375D01*
X205670904Y-74643033D01*
X205604327Y-74482302D01*
X205425699Y-74303673D01*
X205192310Y-74207000D01*
X204501750Y-74207000D01*
X204343000Y-74365750D01*
X204089000Y-74365750D01*
X203930250Y-74207000D01*
X203445000Y-74207000D01*
X203445000Y-73660000D01*
X217805000Y-73660000D01*
X217805000Y-83566000D01*
X217853336Y-83809004D01*
X217990987Y-84015013D01*
X218196996Y-84152664D01*
X218440000Y-84201000D01*
X229870000Y-84201000D01*
X230113004Y-84152664D01*
X230319013Y-84015013D01*
X230456664Y-83809004D01*
X230505000Y-83566000D01*
X230505000Y-79710000D01*
X241716887Y-79710000D01*
X241828260Y-80269909D01*
X242145423Y-80744577D01*
X242497758Y-80980000D01*
X242145423Y-81215423D01*
X241828260Y-81690091D01*
X241716887Y-82250000D01*
X241828260Y-82809909D01*
X242145423Y-83284577D01*
X242529108Y-83540947D01*
X242324866Y-83637611D01*
X241948959Y-84052577D01*
X241788096Y-84440961D01*
X241910085Y-84663000D01*
X243053000Y-84663000D01*
X243053000Y-84643000D01*
X243307000Y-84643000D01*
X243307000Y-84663000D01*
X244449915Y-84663000D01*
X244571904Y-84440961D01*
X244411041Y-84052577D01*
X244035134Y-83637611D01*
X243830892Y-83540947D01*
X244214577Y-83284577D01*
X244531740Y-82809909D01*
X244643113Y-82250000D01*
X244531740Y-81690091D01*
X244242358Y-81257000D01*
X247094060Y-81257000D01*
X247094060Y-83257000D01*
X247143343Y-83504765D01*
X247283691Y-83714809D01*
X247493735Y-83855157D01*
X247741500Y-83904440D01*
X249646500Y-83904440D01*
X249894265Y-83855157D01*
X250104309Y-83714809D01*
X250241255Y-83509857D01*
X250367076Y-83632973D01*
X250861020Y-83847563D01*
X251107000Y-83727594D01*
X251107000Y-82384000D01*
X251087000Y-82384000D01*
X251087000Y-82130000D01*
X251107000Y-82130000D01*
X251107000Y-80786406D01*
X251361000Y-80786406D01*
X251361000Y-82130000D01*
X251381000Y-82130000D01*
X251381000Y-82384000D01*
X251361000Y-82384000D01*
X251361000Y-83727594D01*
X251606980Y-83847563D01*
X252100924Y-83632973D01*
X252494841Y-83247526D01*
X252629477Y-83449023D01*
X253154590Y-83799891D01*
X253774000Y-83923100D01*
X254393411Y-83799891D01*
X254918523Y-83449023D01*
X255269391Y-82923910D01*
X255361500Y-82460849D01*
X255361500Y-82053150D01*
X255320454Y-81846798D01*
X255414163Y-81846798D01*
X255794569Y-81689229D01*
X256085720Y-81398078D01*
X256243289Y-81017672D01*
X256243289Y-80605924D01*
X256085720Y-80225518D01*
X255794569Y-79934367D01*
X255414163Y-79776798D01*
X255002415Y-79776798D01*
X254622009Y-79934367D01*
X254330858Y-80225518D01*
X254173289Y-80605924D01*
X254173289Y-80670324D01*
X253774000Y-80590900D01*
X253154589Y-80714109D01*
X252629477Y-81064977D01*
X252494841Y-81266474D01*
X252100924Y-80881027D01*
X251606980Y-80666437D01*
X251361000Y-80786406D01*
X251107000Y-80786406D01*
X250861020Y-80666437D01*
X250367076Y-80881027D01*
X250241255Y-81004143D01*
X250104309Y-80799191D01*
X249894265Y-80658843D01*
X249646500Y-80609560D01*
X247741500Y-80609560D01*
X247493735Y-80658843D01*
X247283691Y-80799191D01*
X247143343Y-81009235D01*
X247094060Y-81257000D01*
X244242358Y-81257000D01*
X244214577Y-81215423D01*
X243862242Y-80980000D01*
X244214577Y-80744577D01*
X244531740Y-80269909D01*
X244643113Y-79710000D01*
X244531740Y-79150091D01*
X244214577Y-78675423D01*
X244093894Y-78594785D01*
X244227765Y-78568157D01*
X244437809Y-78427809D01*
X244578157Y-78217765D01*
X244627440Y-77970000D01*
X244627440Y-77170000D01*
X256956887Y-77170000D01*
X257068260Y-77729909D01*
X257385423Y-78204577D01*
X257769108Y-78460947D01*
X257564866Y-78557611D01*
X257188959Y-78972577D01*
X257028096Y-79360961D01*
X257150085Y-79583000D01*
X258293000Y-79583000D01*
X258293000Y-79563000D01*
X258547000Y-79563000D01*
X258547000Y-79583000D01*
X259689915Y-79583000D01*
X259811904Y-79360961D01*
X259651041Y-78972577D01*
X259275134Y-78557611D01*
X259070892Y-78460947D01*
X259454577Y-78204577D01*
X259771740Y-77729909D01*
X259883113Y-77170000D01*
X259771740Y-76610091D01*
X259454577Y-76135423D01*
X258979909Y-75818260D01*
X258561333Y-75735000D01*
X258278667Y-75735000D01*
X257860091Y-75818260D01*
X257385423Y-76135423D01*
X257068260Y-76610091D01*
X256956887Y-77170000D01*
X244627440Y-77170000D01*
X244627440Y-76370000D01*
X244578157Y-76122235D01*
X244437809Y-75912191D01*
X244227765Y-75771843D01*
X243980000Y-75722560D01*
X242380000Y-75722560D01*
X242132235Y-75771843D01*
X241922191Y-75912191D01*
X241781843Y-76122235D01*
X241732560Y-76370000D01*
X241732560Y-77970000D01*
X241781843Y-78217765D01*
X241922191Y-78427809D01*
X242132235Y-78568157D01*
X242266106Y-78594785D01*
X242145423Y-78675423D01*
X241828260Y-79150091D01*
X241716887Y-79710000D01*
X230505000Y-79710000D01*
X230505000Y-75360000D01*
X230621214Y-75360000D01*
X230794676Y-76232054D01*
X231288655Y-76971345D01*
X232027946Y-77465324D01*
X232679872Y-77595000D01*
X233120128Y-77595000D01*
X233772054Y-77465324D01*
X234511345Y-76971345D01*
X235005324Y-76232054D01*
X235178786Y-75360000D01*
X235005324Y-74487946D01*
X234511345Y-73748655D01*
X233772054Y-73254676D01*
X233120128Y-73125000D01*
X232679872Y-73125000D01*
X232027946Y-73254676D01*
X231288655Y-73748655D01*
X230794676Y-74487946D01*
X230621214Y-75360000D01*
X230505000Y-75360000D01*
X230505000Y-73660000D01*
X230456664Y-73416996D01*
X230319013Y-73210987D01*
X230113004Y-73073336D01*
X229870000Y-73025000D01*
X218440000Y-73025000D01*
X218196996Y-73073336D01*
X217990987Y-73210987D01*
X217853336Y-73416996D01*
X217805000Y-73660000D01*
X203445000Y-73660000D01*
X203445000Y-72517000D01*
X261765001Y-72517000D01*
X261765000Y-96113336D01*
G36*
X251858219Y-34554542D02*
X251863343Y-34582415D01*
X251867411Y-34610445D01*
X251868902Y-34617461D01*
X252151558Y-35913085D01*
X252161796Y-35949371D01*
X252171623Y-35985644D01*
X252173943Y-35992419D01*
X252173946Y-35992430D01*
X252173950Y-35992439D01*
X252610209Y-37244713D01*
X252624708Y-37279448D01*
X252638844Y-37314335D01*
X252641966Y-37320793D01*
X253225513Y-38511595D01*
X253244091Y-38544355D01*
X253262306Y-38577274D01*
X253266181Y-38583310D01*
X253988561Y-39695381D01*
X254010935Y-39725665D01*
X254032977Y-39756163D01*
X254037550Y-39761690D01*
X254888298Y-40778923D01*
X254914150Y-40806302D01*
X254939695Y-40833929D01*
X254944890Y-40838857D01*
X254944899Y-40838867D01*
X254944908Y-40838875D01*
X255911693Y-41746526D01*
X255940663Y-41770614D01*
X255969326Y-41794959D01*
X255975074Y-41799227D01*
X255975085Y-41799236D01*
X255975096Y-41799243D01*
X257043920Y-42584172D01*
X257075543Y-42604585D01*
X257106954Y-42625331D01*
X257113185Y-42628884D01*
X258268578Y-43279730D01*
X258302464Y-43296216D01*
X258336101Y-43313018D01*
X258342699Y-43315791D01*
X258342714Y-43315798D01*
X258342729Y-43315803D01*
X259567930Y-43823124D01*
X259603502Y-43835403D01*
X259638962Y-43848059D01*
X259645861Y-43850024D01*
X260923152Y-44206483D01*
X260959965Y-44214404D01*
X260996665Y-44222703D01*
X261003750Y-44223825D01*
X261765001Y-44340218D01*
X261765001Y-70503000D01*
X248425504Y-70503000D01*
X248820414Y-70108090D01*
X249115000Y-69396895D01*
X249115000Y-68627105D01*
X248820414Y-67915910D01*
X248276090Y-67371586D01*
X247564895Y-67077000D01*
X246795105Y-67077000D01*
X246083910Y-67371586D01*
X245539586Y-67915910D01*
X245245000Y-68627105D01*
X245245000Y-69396895D01*
X245539586Y-70108090D01*
X245934496Y-70503000D01*
X220425504Y-70503000D01*
X220820414Y-70108090D01*
X221115000Y-69396895D01*
X221115000Y-68627105D01*
X220820414Y-67915910D01*
X220276090Y-67371586D01*
X219564895Y-67077000D01*
X218795105Y-67077000D01*
X218083910Y-67371586D01*
X217539586Y-67915910D01*
X217245000Y-68627105D01*
X217245000Y-69396895D01*
X217539586Y-70108090D01*
X217934496Y-70503000D01*
X203445000Y-70503000D01*
X203445000Y-65775970D01*
X206945635Y-65775970D01*
X207105418Y-66094739D01*
X207896187Y-66404723D01*
X208745387Y-66388497D01*
X209454582Y-66094739D01*
X209614365Y-65775970D01*
X208280000Y-64441605D01*
X206945635Y-65775970D01*
X203445000Y-65775970D01*
X203445000Y-63878187D01*
X206137277Y-63878187D01*
X206153503Y-64727387D01*
X206447261Y-65436582D01*
X206766030Y-65596365D01*
X208100395Y-64262000D01*
X208459605Y-64262000D01*
X209793970Y-65596365D01*
X210112739Y-65436582D01*
X210422723Y-64645813D01*
X210406497Y-63796613D01*
X210112739Y-63087418D01*
X209793970Y-62927635D01*
X208459605Y-64262000D01*
X208100395Y-64262000D01*
X206766030Y-62927635D01*
X206447261Y-63087418D01*
X206137277Y-63878187D01*
X203445000Y-63878187D01*
X203445000Y-62748030D01*
X206945635Y-62748030D01*
X208280000Y-64082395D01*
X209614365Y-62748030D01*
X209454582Y-62429261D01*
X208663813Y-62119277D01*
X207814613Y-62135503D01*
X207105418Y-62429261D01*
X206945635Y-62748030D01*
X203445000Y-62748030D01*
X203445000Y-56845159D01*
X208155000Y-56845159D01*
X208155000Y-57634841D01*
X208457199Y-58364412D01*
X209015588Y-58922801D01*
X209745159Y-59225000D01*
X210534841Y-59225000D01*
X211264412Y-58922801D01*
X211822801Y-58364412D01*
X212125000Y-57634841D01*
X212125000Y-56845159D01*
X212096005Y-56775159D01*
X253985000Y-56775159D01*
X253985000Y-57564841D01*
X254287199Y-58294412D01*
X254845588Y-58852801D01*
X255575159Y-59155000D01*
X256364841Y-59155000D01*
X257094412Y-58852801D01*
X257652801Y-58294412D01*
X257955000Y-57564841D01*
X257955000Y-56775159D01*
X257652801Y-56045588D01*
X257094412Y-55487199D01*
X256364841Y-55185000D01*
X255575159Y-55185000D01*
X254845588Y-55487199D01*
X254287199Y-56045588D01*
X253985000Y-56775159D01*
X212096005Y-56775159D01*
X211822801Y-56115588D01*
X211264412Y-55557199D01*
X210534841Y-55255000D01*
X209745159Y-55255000D01*
X209015588Y-55557199D01*
X208457199Y-56115588D01*
X208155000Y-56845159D01*
X203445000Y-56845159D01*
X203445000Y-50062000D01*
X206132560Y-50062000D01*
X206132560Y-53062000D01*
X206181843Y-53309765D01*
X206322191Y-53519809D01*
X206532235Y-53660157D01*
X206780000Y-53709440D01*
X209780000Y-53709440D01*
X210027765Y-53660157D01*
X210237809Y-53519809D01*
X210378157Y-53309765D01*
X210427440Y-53062000D01*
X210427440Y-50062000D01*
X210378157Y-49814235D01*
X210237809Y-49604191D01*
X210027765Y-49463843D01*
X209780000Y-49414560D01*
X206780000Y-49414560D01*
X206532235Y-49463843D01*
X206322191Y-49604191D01*
X206181843Y-49814235D01*
X206132560Y-50062000D01*
X203445000Y-50062000D01*
X203445000Y-46427105D01*
X231245000Y-46427105D01*
X231245000Y-47196895D01*
X231539586Y-47908090D01*
X232083910Y-48452414D01*
X232795105Y-48747000D01*
X233564895Y-48747000D01*
X234276090Y-48452414D01*
X234820414Y-47908090D01*
X235115000Y-47196895D01*
X235115000Y-46427105D01*
X234820414Y-45715910D01*
X234276090Y-45171586D01*
X233564895Y-44877000D01*
X232795105Y-44877000D01*
X232083910Y-45171586D01*
X231539586Y-45715910D01*
X231245000Y-46427105D01*
X203445000Y-46427105D01*
X203445000Y-44667696D01*
X204198004Y-44560094D01*
X204203285Y-44559021D01*
X204208644Y-44558488D01*
X204276459Y-44544157D01*
X205554027Y-44205836D01*
X205559145Y-44204155D01*
X205564406Y-44203000D01*
X205630086Y-44180855D01*
X206859459Y-43695790D01*
X206864350Y-43693521D01*
X206869436Y-43691762D01*
X206932084Y-43662106D01*
X208096467Y-43036922D01*
X208101056Y-43034101D01*
X208105906Y-43031758D01*
X208164666Y-42994995D01*
X209248157Y-42238230D01*
X209252386Y-42234892D01*
X209256929Y-42232000D01*
X209310999Y-42188633D01*
X210298798Y-41310624D01*
X210302605Y-41306820D01*
X210306783Y-41303414D01*
X210355423Y-41254034D01*
X211234039Y-40266776D01*
X211237380Y-40262549D01*
X211241129Y-40258682D01*
X211283676Y-40203965D01*
X212038156Y-39125159D01*
X231045000Y-39125159D01*
X231045000Y-39914841D01*
X231347199Y-40644412D01*
X231905588Y-41202801D01*
X232635159Y-41505000D01*
X233424841Y-41505000D01*
X234154412Y-41202801D01*
X234712801Y-40644412D01*
X235015000Y-39914841D01*
X235015000Y-39125159D01*
X234712801Y-38395588D01*
X234154412Y-37837199D01*
X233424841Y-37535000D01*
X232635159Y-37535000D01*
X231905588Y-37837199D01*
X231347199Y-38395588D01*
X231045000Y-39125159D01*
X212038156Y-39125159D01*
X212041107Y-39120940D01*
X212043933Y-39116350D01*
X212047204Y-39112074D01*
X212083077Y-39052766D01*
X212708977Y-37888767D01*
X212711248Y-37883879D01*
X212713997Y-37879252D01*
X212742705Y-37816164D01*
X213228527Y-36587090D01*
X213230212Y-36581969D01*
X213232403Y-36577053D01*
X213253555Y-36511046D01*
X213592662Y-35233685D01*
X213593738Y-35228406D01*
X213595341Y-35223264D01*
X213608647Y-35155241D01*
X213714901Y-34414925D01*
X251840566Y-34410077D01*
X251858219Y-34554542D01*
X251858219Y-34554542D01*
G37*
X251858219Y-34554542D02*
X251863343Y-34582415D01*
X251867411Y-34610445D01*
X251868902Y-34617461D01*
X252151558Y-35913085D01*
X252161796Y-35949371D01*
X252171623Y-35985644D01*
X252173943Y-35992419D01*
X252173946Y-35992430D01*
X252173950Y-35992439D01*
X252610209Y-37244713D01*
X252624708Y-37279448D01*
X252638844Y-37314335D01*
X252641966Y-37320793D01*
X253225513Y-38511595D01*
X253244091Y-38544355D01*
X253262306Y-38577274D01*
X253266181Y-38583310D01*
X253988561Y-39695381D01*
X254010935Y-39725665D01*
X254032977Y-39756163D01*
X254037550Y-39761690D01*
X254888298Y-40778923D01*
X254914150Y-40806302D01*
X254939695Y-40833929D01*
X254944890Y-40838857D01*
X254944899Y-40838867D01*
X254944908Y-40838875D01*
X255911693Y-41746526D01*
X255940663Y-41770614D01*
X255969326Y-41794959D01*
X255975074Y-41799227D01*
X255975085Y-41799236D01*
X255975096Y-41799243D01*
X257043920Y-42584172D01*
X257075543Y-42604585D01*
X257106954Y-42625331D01*
X257113185Y-42628884D01*
X258268578Y-43279730D01*
X258302464Y-43296216D01*
X258336101Y-43313018D01*
X258342699Y-43315791D01*
X258342714Y-43315798D01*
X258342729Y-43315803D01*
X259567930Y-43823124D01*
X259603502Y-43835403D01*
X259638962Y-43848059D01*
X259645861Y-43850024D01*
X260923152Y-44206483D01*
X260959965Y-44214404D01*
X260996665Y-44222703D01*
X261003750Y-44223825D01*
X261765001Y-44340218D01*
X261765001Y-70503000D01*
X248425504Y-70503000D01*
X248820414Y-70108090D01*
X249115000Y-69396895D01*
X249115000Y-68627105D01*
X248820414Y-67915910D01*
X248276090Y-67371586D01*
X247564895Y-67077000D01*
X246795105Y-67077000D01*
X246083910Y-67371586D01*
X245539586Y-67915910D01*
X245245000Y-68627105D01*
X245245000Y-69396895D01*
X245539586Y-70108090D01*
X245934496Y-70503000D01*
X220425504Y-70503000D01*
X220820414Y-70108090D01*
X221115000Y-69396895D01*
X221115000Y-68627105D01*
X220820414Y-67915910D01*
X220276090Y-67371586D01*
X219564895Y-67077000D01*
X218795105Y-67077000D01*
X218083910Y-67371586D01*
X217539586Y-67915910D01*
X217245000Y-68627105D01*
X217245000Y-69396895D01*
X217539586Y-70108090D01*
X217934496Y-70503000D01*
X203445000Y-70503000D01*
X203445000Y-65775970D01*
X206945635Y-65775970D01*
X207105418Y-66094739D01*
X207896187Y-66404723D01*
X208745387Y-66388497D01*
X209454582Y-66094739D01*
X209614365Y-65775970D01*
X208280000Y-64441605D01*
X206945635Y-65775970D01*
X203445000Y-65775970D01*
X203445000Y-63878187D01*
X206137277Y-63878187D01*
X206153503Y-64727387D01*
X206447261Y-65436582D01*
X206766030Y-65596365D01*
X208100395Y-64262000D01*
X208459605Y-64262000D01*
X209793970Y-65596365D01*
X210112739Y-65436582D01*
X210422723Y-64645813D01*
X210406497Y-63796613D01*
X210112739Y-63087418D01*
X209793970Y-62927635D01*
X208459605Y-64262000D01*
X208100395Y-64262000D01*
X206766030Y-62927635D01*
X206447261Y-63087418D01*
X206137277Y-63878187D01*
X203445000Y-63878187D01*
X203445000Y-62748030D01*
X206945635Y-62748030D01*
X208280000Y-64082395D01*
X209614365Y-62748030D01*
X209454582Y-62429261D01*
X208663813Y-62119277D01*
X207814613Y-62135503D01*
X207105418Y-62429261D01*
X206945635Y-62748030D01*
X203445000Y-62748030D01*
X203445000Y-56845159D01*
X208155000Y-56845159D01*
X208155000Y-57634841D01*
X208457199Y-58364412D01*
X209015588Y-58922801D01*
X209745159Y-59225000D01*
X210534841Y-59225000D01*
X211264412Y-58922801D01*
X211822801Y-58364412D01*
X212125000Y-57634841D01*
X212125000Y-56845159D01*
X212096005Y-56775159D01*
X253985000Y-56775159D01*
X253985000Y-57564841D01*
X254287199Y-58294412D01*
X254845588Y-58852801D01*
X255575159Y-59155000D01*
X256364841Y-59155000D01*
X257094412Y-58852801D01*
X257652801Y-58294412D01*
X257955000Y-57564841D01*
X257955000Y-56775159D01*
X257652801Y-56045588D01*
X257094412Y-55487199D01*
X256364841Y-55185000D01*
X255575159Y-55185000D01*
X254845588Y-55487199D01*
X254287199Y-56045588D01*
X253985000Y-56775159D01*
X212096005Y-56775159D01*
X211822801Y-56115588D01*
X211264412Y-55557199D01*
X210534841Y-55255000D01*
X209745159Y-55255000D01*
X209015588Y-55557199D01*
X208457199Y-56115588D01*
X208155000Y-56845159D01*
X203445000Y-56845159D01*
X203445000Y-50062000D01*
X206132560Y-50062000D01*
X206132560Y-53062000D01*
X206181843Y-53309765D01*
X206322191Y-53519809D01*
X206532235Y-53660157D01*
X206780000Y-53709440D01*
X209780000Y-53709440D01*
X210027765Y-53660157D01*
X210237809Y-53519809D01*
X210378157Y-53309765D01*
X210427440Y-53062000D01*
X210427440Y-50062000D01*
X210378157Y-49814235D01*
X210237809Y-49604191D01*
X210027765Y-49463843D01*
X209780000Y-49414560D01*
X206780000Y-49414560D01*
X206532235Y-49463843D01*
X206322191Y-49604191D01*
X206181843Y-49814235D01*
X206132560Y-50062000D01*
X203445000Y-50062000D01*
X203445000Y-46427105D01*
X231245000Y-46427105D01*
X231245000Y-47196895D01*
X231539586Y-47908090D01*
X232083910Y-48452414D01*
X232795105Y-48747000D01*
X233564895Y-48747000D01*
X234276090Y-48452414D01*
X234820414Y-47908090D01*
X235115000Y-47196895D01*
X235115000Y-46427105D01*
X234820414Y-45715910D01*
X234276090Y-45171586D01*
X233564895Y-44877000D01*
X232795105Y-44877000D01*
X232083910Y-45171586D01*
X231539586Y-45715910D01*
X231245000Y-46427105D01*
X203445000Y-46427105D01*
X203445000Y-44667696D01*
X204198004Y-44560094D01*
X204203285Y-44559021D01*
X204208644Y-44558488D01*
X204276459Y-44544157D01*
X205554027Y-44205836D01*
X205559145Y-44204155D01*
X205564406Y-44203000D01*
X205630086Y-44180855D01*
X206859459Y-43695790D01*
X206864350Y-43693521D01*
X206869436Y-43691762D01*
X206932084Y-43662106D01*
X208096467Y-43036922D01*
X208101056Y-43034101D01*
X208105906Y-43031758D01*
X208164666Y-42994995D01*
X209248157Y-42238230D01*
X209252386Y-42234892D01*
X209256929Y-42232000D01*
X209310999Y-42188633D01*
X210298798Y-41310624D01*
X210302605Y-41306820D01*
X210306783Y-41303414D01*
X210355423Y-41254034D01*
X211234039Y-40266776D01*
X211237380Y-40262549D01*
X211241129Y-40258682D01*
X211283676Y-40203965D01*
X212038156Y-39125159D01*
X231045000Y-39125159D01*
X231045000Y-39914841D01*
X231347199Y-40644412D01*
X231905588Y-41202801D01*
X232635159Y-41505000D01*
X233424841Y-41505000D01*
X234154412Y-41202801D01*
X234712801Y-40644412D01*
X235015000Y-39914841D01*
X235015000Y-39125159D01*
X234712801Y-38395588D01*
X234154412Y-37837199D01*
X233424841Y-37535000D01*
X232635159Y-37535000D01*
X231905588Y-37837199D01*
X231347199Y-38395588D01*
X231045000Y-39125159D01*
X212038156Y-39125159D01*
X212041107Y-39120940D01*
X212043933Y-39116350D01*
X212047204Y-39112074D01*
X212083077Y-39052766D01*
X212708977Y-37888767D01*
X212711248Y-37883879D01*
X212713997Y-37879252D01*
X212742705Y-37816164D01*
X213228527Y-36587090D01*
X213230212Y-36581969D01*
X213232403Y-36577053D01*
X213253555Y-36511046D01*
X213592662Y-35233685D01*
X213593738Y-35228406D01*
X213595341Y-35223264D01*
X213608647Y-35155241D01*
X213714901Y-34414925D01*
X251840566Y-34410077D01*
X251858219Y-34554542D01*
G04 #@! TO.N,Net-(D2-Pad2)*
G36*
X229743000Y-83439000D02*
X218567000Y-83439000D01*
X218567000Y-73787000D01*
X229743000Y-73787000D01*
X229743000Y-83439000D01*
X229743000Y-83439000D01*
G37*
X229743000Y-83439000D02*
X218567000Y-83439000D01*
X218567000Y-73787000D01*
X229743000Y-73787000D01*
X229743000Y-83439000D01*
G04 #@! TO.N,Net-(D1-Pad1)*
G36*
X224199193Y-105123000D02*
X213753203Y-105123000D01*
X213775807Y-102727000D01*
X224221797Y-102727000D01*
X224199193Y-105123000D01*
X224199193Y-105123000D01*
G37*
X224199193Y-105123000D02*
X213753203Y-105123000D01*
X213775807Y-102727000D01*
X224221797Y-102727000D01*
X224199193Y-105123000D01*
G04 #@! TO.N,boostout+*
G36*
X225573000Y-108648000D02*
X216775881Y-108648000D01*
X216753129Y-106077000D01*
X225573000Y-106077000D01*
X225573000Y-108648000D01*
X225573000Y-108648000D01*
G37*
X225573000Y-108648000D02*
X216775881Y-108648000D01*
X216753129Y-106077000D01*
X225573000Y-106077000D01*
X225573000Y-108648000D01*
G04 #@! TD*
M02*
