G04 #@! TF.GenerationSoftware,KiCad,Pcbnew,(5.0.2)-1*
G04 #@! TF.CreationDate,2019-04-21T19:49:24-04:00*
G04 #@! TF.ProjectId,_saved__saved_tDCS,5f736176-6564-45f5-9f73-617665645f74,rev?*
G04 #@! TF.SameCoordinates,Original*
G04 #@! TF.FileFunction,Legend,Bot*
G04 #@! TF.FilePolarity,Positive*
%FSLAX46Y46*%
G04 Gerber Fmt 4.6, Leading zero omitted, Abs format (unit mm)*
G04 Created by KiCad (PCBNEW (5.0.2)-1) date 4/21/2019 7:49:24 PM*
%MOMM*%
%LPD*%
G01*
G04 APERTURE LIST*
%ADD10C,0.120000*%
%ADD11C,0.150000*%
G04 APERTURE END LIST*
D10*
G04 #@! TO.C,C8*
X250891422Y-89460000D02*
X251408578Y-89460000D01*
X250891422Y-88040000D02*
X251408578Y-88040000D01*
G04 #@! TO.C,BT1*
X204150000Y-124625000D02*
X258650000Y-124625000D01*
X258650000Y-124625000D02*
X258650000Y-94425000D01*
X258650000Y-94425000D02*
X204150000Y-94425000D01*
X204150000Y-94425000D02*
X204150000Y-124625000D01*
G04 #@! TO.C,C8*
D11*
X251316666Y-90757142D02*
X251364285Y-90804761D01*
X251507142Y-90852380D01*
X251602380Y-90852380D01*
X251745238Y-90804761D01*
X251840476Y-90709523D01*
X251888095Y-90614285D01*
X251935714Y-90423809D01*
X251935714Y-90280952D01*
X251888095Y-90090476D01*
X251840476Y-89995238D01*
X251745238Y-89900000D01*
X251602380Y-89852380D01*
X251507142Y-89852380D01*
X251364285Y-89900000D01*
X251316666Y-89947619D01*
X250745238Y-90280952D02*
X250840476Y-90233333D01*
X250888095Y-90185714D01*
X250935714Y-90090476D01*
X250935714Y-90042857D01*
X250888095Y-89947619D01*
X250840476Y-89900000D01*
X250745238Y-89852380D01*
X250554761Y-89852380D01*
X250459523Y-89900000D01*
X250411904Y-89947619D01*
X250364285Y-90042857D01*
X250364285Y-90090476D01*
X250411904Y-90185714D01*
X250459523Y-90233333D01*
X250554761Y-90280952D01*
X250745238Y-90280952D01*
X250840476Y-90328571D01*
X250888095Y-90376190D01*
X250935714Y-90471428D01*
X250935714Y-90661904D01*
X250888095Y-90757142D01*
X250840476Y-90804761D01*
X250745238Y-90852380D01*
X250554761Y-90852380D01*
X250459523Y-90804761D01*
X250411904Y-90757142D01*
X250364285Y-90661904D01*
X250364285Y-90471428D01*
X250411904Y-90376190D01*
X250459523Y-90328571D01*
X250554761Y-90280952D01*
G04 #@! TO.C,BT1*
X232205714Y-127233571D02*
X232062857Y-127281190D01*
X232015238Y-127328809D01*
X231967619Y-127424047D01*
X231967619Y-127566904D01*
X232015238Y-127662142D01*
X232062857Y-127709761D01*
X232158095Y-127757380D01*
X232539047Y-127757380D01*
X232539047Y-126757380D01*
X232205714Y-126757380D01*
X232110476Y-126805000D01*
X232062857Y-126852619D01*
X232015238Y-126947857D01*
X232015238Y-127043095D01*
X232062857Y-127138333D01*
X232110476Y-127185952D01*
X232205714Y-127233571D01*
X232539047Y-127233571D01*
X231681904Y-126757380D02*
X231110476Y-126757380D01*
X231396190Y-127757380D02*
X231396190Y-126757380D01*
X230253333Y-127757380D02*
X230824761Y-127757380D01*
X230539047Y-127757380D02*
X230539047Y-126757380D01*
X230634285Y-126900238D01*
X230729523Y-126995476D01*
X230824761Y-127043095D01*
G04 #@! TD*
M02*
