G04 #@! TF.GenerationSoftware,KiCad,Pcbnew,(5.0.2)-1*
G04 #@! TF.CreationDate,2019-03-20T14:53:53-04:00*
G04 #@! TF.ProjectId,_saved__saved_tDCS,5f736176-6564-45f5-9f73-617665645f74,rev?*
G04 #@! TF.SameCoordinates,Original*
G04 #@! TF.FileFunction,Soldermask,Top*
G04 #@! TF.FilePolarity,Negative*
%FSLAX46Y46*%
G04 Gerber Fmt 4.6, Leading zero omitted, Abs format (unit mm)*
G04 Created by KiCad (PCBNEW (5.0.2)-1) date 3/20/2019 2:53:53 PM*
%MOMM*%
%LPD*%
G01*
G04 APERTURE LIST*
%ADD10C,0.100000*%
G04 APERTURE END LIST*
D10*
G36*
X67681649Y-123413717D02*
X67720827Y-123417576D01*
X67784012Y-123436743D01*
X67871629Y-123463321D01*
X68010608Y-123537608D01*
X68132422Y-123637578D01*
X68232392Y-123759392D01*
X68306679Y-123898371D01*
X68352424Y-124049174D01*
X68367870Y-124206000D01*
X68352424Y-124362826D01*
X68306679Y-124513629D01*
X68232392Y-124652608D01*
X68132422Y-124774422D01*
X68010608Y-124874392D01*
X67871629Y-124948679D01*
X67796228Y-124971551D01*
X67720827Y-124994424D01*
X67681649Y-124998283D01*
X67603295Y-125006000D01*
X67524705Y-125006000D01*
X67446351Y-124998283D01*
X67407173Y-124994424D01*
X67331772Y-124971551D01*
X67256371Y-124948679D01*
X67117392Y-124874392D01*
X66995578Y-124774422D01*
X66895608Y-124652608D01*
X66821321Y-124513629D01*
X66775576Y-124362826D01*
X66760130Y-124206000D01*
X66775576Y-124049174D01*
X66821321Y-123898371D01*
X66895608Y-123759392D01*
X66995578Y-123637578D01*
X67117392Y-123537608D01*
X67256371Y-123463321D01*
X67343988Y-123436743D01*
X67407173Y-123417576D01*
X67446351Y-123413717D01*
X67524705Y-123406000D01*
X67603295Y-123406000D01*
X67681649Y-123413717D01*
X67681649Y-123413717D01*
G37*
G36*
X60177352Y-123436743D02*
X60322941Y-123497048D01*
X60453973Y-123584601D01*
X60565399Y-123696027D01*
X60652952Y-123827059D01*
X60713257Y-123972648D01*
X60744000Y-124127205D01*
X60744000Y-124284795D01*
X60713257Y-124439352D01*
X60652952Y-124584941D01*
X60565399Y-124715973D01*
X60453973Y-124827399D01*
X60322941Y-124914952D01*
X60177352Y-124975257D01*
X60022795Y-125006000D01*
X59865205Y-125006000D01*
X59710648Y-124975257D01*
X59565059Y-124914952D01*
X59434027Y-124827399D01*
X59322601Y-124715973D01*
X59235048Y-124584941D01*
X59174743Y-124439352D01*
X59144000Y-124284795D01*
X59144000Y-124127205D01*
X59174743Y-123972648D01*
X59235048Y-123827059D01*
X59322601Y-123696027D01*
X59434027Y-123584601D01*
X59565059Y-123497048D01*
X59710648Y-123436743D01*
X59865205Y-123406000D01*
X60022795Y-123406000D01*
X60177352Y-123436743D01*
X60177352Y-123436743D01*
G37*
G36*
X53955224Y-121235282D02*
X54134769Y-121289747D01*
X54300241Y-121378193D01*
X54445278Y-121497222D01*
X54564307Y-121642259D01*
X54652753Y-121807731D01*
X54707218Y-121987276D01*
X54725608Y-122174000D01*
X54707218Y-122360724D01*
X54652753Y-122540269D01*
X54564307Y-122705741D01*
X54445278Y-122850778D01*
X54300241Y-122969807D01*
X54134769Y-123058253D01*
X53955224Y-123112718D01*
X53815289Y-123126500D01*
X53626711Y-123126500D01*
X53486776Y-123112718D01*
X53307231Y-123058253D01*
X53141759Y-122969807D01*
X52996722Y-122850778D01*
X52877693Y-122705741D01*
X52789247Y-122540269D01*
X52734782Y-122360724D01*
X52716392Y-122174000D01*
X52734782Y-121987276D01*
X52789247Y-121807731D01*
X52877693Y-121642259D01*
X52996722Y-121497222D01*
X53141759Y-121378193D01*
X53307231Y-121289747D01*
X53486776Y-121235282D01*
X53626711Y-121221500D01*
X53815289Y-121221500D01*
X53955224Y-121235282D01*
X53955224Y-121235282D01*
G37*
G36*
X73414521Y-121054586D02*
X73578309Y-121122429D01*
X73725720Y-121220926D01*
X73851074Y-121346280D01*
X73949571Y-121493691D01*
X74017414Y-121657479D01*
X74052000Y-121831356D01*
X74052000Y-122008644D01*
X74017414Y-122182521D01*
X73949571Y-122346309D01*
X73851074Y-122493720D01*
X73725720Y-122619074D01*
X73578309Y-122717571D01*
X73414521Y-122785414D01*
X73240644Y-122820000D01*
X73063356Y-122820000D01*
X72889479Y-122785414D01*
X72725691Y-122717571D01*
X72578280Y-122619074D01*
X72452926Y-122493720D01*
X72354429Y-122346309D01*
X72286586Y-122182521D01*
X72252000Y-122008644D01*
X72252000Y-121831356D01*
X72286586Y-121657479D01*
X72354429Y-121493691D01*
X72452926Y-121346280D01*
X72578280Y-121220926D01*
X72725691Y-121122429D01*
X72889479Y-121054586D01*
X73063356Y-121020000D01*
X73240644Y-121020000D01*
X73414521Y-121054586D01*
X73414521Y-121054586D01*
G37*
G36*
X76592000Y-122820000D02*
X74792000Y-122820000D01*
X74792000Y-121020000D01*
X76592000Y-121020000D01*
X76592000Y-122820000D01*
X76592000Y-122820000D01*
G37*
G36*
X89652649Y-121127717D02*
X89691827Y-121131576D01*
X89755012Y-121150743D01*
X89842629Y-121177321D01*
X89981608Y-121251608D01*
X90103422Y-121351578D01*
X90203392Y-121473392D01*
X90277679Y-121612371D01*
X90277679Y-121612372D01*
X90323424Y-121763173D01*
X90328964Y-121819424D01*
X90338870Y-121920000D01*
X90323424Y-122076826D01*
X90277679Y-122227629D01*
X90203392Y-122366608D01*
X90103422Y-122488422D01*
X89981608Y-122588392D01*
X89842629Y-122662679D01*
X89767228Y-122685551D01*
X89691827Y-122708424D01*
X89652649Y-122712283D01*
X89574295Y-122720000D01*
X89495705Y-122720000D01*
X89417351Y-122712283D01*
X89378173Y-122708424D01*
X89302772Y-122685551D01*
X89227371Y-122662679D01*
X89088392Y-122588392D01*
X88966578Y-122488422D01*
X88866608Y-122366608D01*
X88792321Y-122227629D01*
X88746576Y-122076826D01*
X88731130Y-121920000D01*
X88741036Y-121819424D01*
X88746576Y-121763173D01*
X88792321Y-121612372D01*
X88792321Y-121612371D01*
X88866608Y-121473392D01*
X88966578Y-121351578D01*
X89088392Y-121251608D01*
X89227371Y-121177321D01*
X89314988Y-121150743D01*
X89378173Y-121131576D01*
X89417351Y-121127717D01*
X89495705Y-121120000D01*
X89574295Y-121120000D01*
X89652649Y-121127717D01*
X89652649Y-121127717D01*
G37*
G36*
X82148352Y-121150743D02*
X82293941Y-121211048D01*
X82424973Y-121298601D01*
X82536399Y-121410027D01*
X82623952Y-121541059D01*
X82684257Y-121686648D01*
X82715000Y-121841205D01*
X82715000Y-121998795D01*
X82684257Y-122153352D01*
X82623952Y-122298941D01*
X82536399Y-122429973D01*
X82424973Y-122541399D01*
X82293941Y-122628952D01*
X82148352Y-122689257D01*
X81993795Y-122720000D01*
X81836205Y-122720000D01*
X81681648Y-122689257D01*
X81536059Y-122628952D01*
X81405027Y-122541399D01*
X81293601Y-122429973D01*
X81206048Y-122298941D01*
X81145743Y-122153352D01*
X81115000Y-121998795D01*
X81115000Y-121841205D01*
X81145743Y-121686648D01*
X81206048Y-121541059D01*
X81293601Y-121410027D01*
X81405027Y-121298601D01*
X81536059Y-121211048D01*
X81681648Y-121150743D01*
X81836205Y-121120000D01*
X81993795Y-121120000D01*
X82148352Y-121150743D01*
X82148352Y-121150743D01*
G37*
G36*
X67554649Y-120238717D02*
X67593827Y-120242576D01*
X67657012Y-120261743D01*
X67744629Y-120288321D01*
X67883608Y-120362608D01*
X68005422Y-120462578D01*
X68105392Y-120584392D01*
X68179679Y-120723371D01*
X68179679Y-120723372D01*
X68225424Y-120874173D01*
X68240870Y-121031000D01*
X68225424Y-121187827D01*
X68206076Y-121251608D01*
X68179679Y-121338629D01*
X68105392Y-121477608D01*
X68005422Y-121599422D01*
X67883608Y-121699392D01*
X67744629Y-121773679D01*
X67669227Y-121796552D01*
X67593827Y-121819424D01*
X67554649Y-121823283D01*
X67476295Y-121831000D01*
X67397705Y-121831000D01*
X67319351Y-121823283D01*
X67280173Y-121819424D01*
X67204773Y-121796552D01*
X67129371Y-121773679D01*
X66990392Y-121699392D01*
X66868578Y-121599422D01*
X66768608Y-121477608D01*
X66694321Y-121338629D01*
X66667924Y-121251608D01*
X66648576Y-121187827D01*
X66633130Y-121031000D01*
X66648576Y-120874173D01*
X66694321Y-120723372D01*
X66694321Y-120723371D01*
X66768608Y-120584392D01*
X66868578Y-120462578D01*
X66990392Y-120362608D01*
X67129371Y-120288321D01*
X67216988Y-120261743D01*
X67280173Y-120242576D01*
X67319351Y-120238717D01*
X67397705Y-120231000D01*
X67476295Y-120231000D01*
X67554649Y-120238717D01*
X67554649Y-120238717D01*
G37*
G36*
X60050352Y-120261743D02*
X60195941Y-120322048D01*
X60326973Y-120409601D01*
X60438399Y-120521027D01*
X60525952Y-120652059D01*
X60586257Y-120797648D01*
X60617000Y-120952205D01*
X60617000Y-121109795D01*
X60586257Y-121264352D01*
X60525952Y-121409941D01*
X60438399Y-121540973D01*
X60326973Y-121652399D01*
X60195941Y-121739952D01*
X60050352Y-121800257D01*
X59895795Y-121831000D01*
X59738205Y-121831000D01*
X59583648Y-121800257D01*
X59438059Y-121739952D01*
X59307027Y-121652399D01*
X59195601Y-121540973D01*
X59108048Y-121409941D01*
X59047743Y-121264352D01*
X59017000Y-121109795D01*
X59017000Y-120952205D01*
X59047743Y-120797648D01*
X59108048Y-120652059D01*
X59195601Y-120521027D01*
X59307027Y-120409601D01*
X59438059Y-120322048D01*
X59583648Y-120261743D01*
X59738205Y-120231000D01*
X59895795Y-120231000D01*
X60050352Y-120261743D01*
X60050352Y-120261743D01*
G37*
G36*
X53955224Y-118695282D02*
X54134769Y-118749747D01*
X54300241Y-118838193D01*
X54445278Y-118957222D01*
X54564307Y-119102259D01*
X54652753Y-119267731D01*
X54707218Y-119447276D01*
X54725608Y-119634000D01*
X54707218Y-119820724D01*
X54652753Y-120000269D01*
X54564307Y-120165741D01*
X54445278Y-120310778D01*
X54300241Y-120429807D01*
X54134769Y-120518253D01*
X53955224Y-120572718D01*
X53815289Y-120586500D01*
X53626711Y-120586500D01*
X53486776Y-120572718D01*
X53307231Y-120518253D01*
X53141759Y-120429807D01*
X52996722Y-120310778D01*
X52877693Y-120165741D01*
X52789247Y-120000269D01*
X52734782Y-119820724D01*
X52716392Y-119634000D01*
X52734782Y-119447276D01*
X52789247Y-119267731D01*
X52877693Y-119102259D01*
X52996722Y-118957222D01*
X53141759Y-118838193D01*
X53307231Y-118749747D01*
X53486776Y-118695282D01*
X53626711Y-118681500D01*
X53815289Y-118681500D01*
X53955224Y-118695282D01*
X53955224Y-118695282D01*
G37*
G36*
X67670352Y-116959743D02*
X67815941Y-117020048D01*
X67946973Y-117107601D01*
X68058399Y-117219027D01*
X68145952Y-117350059D01*
X68206257Y-117495648D01*
X68237000Y-117650205D01*
X68237000Y-117807795D01*
X68206257Y-117962352D01*
X68145952Y-118107941D01*
X68058399Y-118238973D01*
X67946973Y-118350399D01*
X67815941Y-118437952D01*
X67670352Y-118498257D01*
X67515795Y-118529000D01*
X67358205Y-118529000D01*
X67203648Y-118498257D01*
X67058059Y-118437952D01*
X66927027Y-118350399D01*
X66815601Y-118238973D01*
X66728048Y-118107941D01*
X66667743Y-117962352D01*
X66637000Y-117807795D01*
X66637000Y-117650205D01*
X66667743Y-117495648D01*
X66728048Y-117350059D01*
X66815601Y-117219027D01*
X66927027Y-117107601D01*
X67058059Y-117020048D01*
X67203648Y-116959743D01*
X67358205Y-116929000D01*
X67515795Y-116929000D01*
X67670352Y-116959743D01*
X67670352Y-116959743D01*
G37*
G36*
X59934649Y-116936717D02*
X59973827Y-116940576D01*
X60037012Y-116959743D01*
X60124629Y-116986321D01*
X60263608Y-117060608D01*
X60385422Y-117160578D01*
X60485392Y-117282392D01*
X60559679Y-117421371D01*
X60605424Y-117572174D01*
X60620870Y-117729000D01*
X60605424Y-117885826D01*
X60559679Y-118036629D01*
X60485392Y-118175608D01*
X60385422Y-118297422D01*
X60263608Y-118397392D01*
X60124629Y-118471679D01*
X60092121Y-118481540D01*
X59973827Y-118517424D01*
X59934649Y-118521283D01*
X59856295Y-118529000D01*
X59777705Y-118529000D01*
X59699351Y-118521283D01*
X59660173Y-118517424D01*
X59541879Y-118481540D01*
X59509371Y-118471679D01*
X59370392Y-118397392D01*
X59248578Y-118297422D01*
X59148608Y-118175608D01*
X59074321Y-118036629D01*
X59028576Y-117885826D01*
X59013130Y-117729000D01*
X59028576Y-117572174D01*
X59074321Y-117421371D01*
X59148608Y-117282392D01*
X59248578Y-117160578D01*
X59370392Y-117060608D01*
X59509371Y-116986321D01*
X59596988Y-116959743D01*
X59660173Y-116940576D01*
X59699351Y-116936717D01*
X59777705Y-116929000D01*
X59856295Y-116929000D01*
X59934649Y-116936717D01*
X59934649Y-116936717D01*
G37*
G36*
X84557913Y-116986596D02*
X84557916Y-116986597D01*
X84557917Y-116986597D01*
X84656880Y-117016617D01*
X84748086Y-117065367D01*
X84828027Y-117130973D01*
X84828028Y-117130975D01*
X84828030Y-117130976D01*
X84877231Y-117190929D01*
X84893633Y-117210914D01*
X84942383Y-117302119D01*
X84970382Y-117394420D01*
X84972404Y-117401086D01*
X84980000Y-117478208D01*
X84980000Y-117979791D01*
X84972404Y-118056914D01*
X84972403Y-118056917D01*
X84972403Y-118056918D01*
X84942383Y-118155881D01*
X84893633Y-118247086D01*
X84828027Y-118327027D01*
X84748086Y-118392633D01*
X84656881Y-118441383D01*
X84557918Y-118471403D01*
X84557917Y-118471403D01*
X84557914Y-118471404D01*
X84455000Y-118481540D01*
X84352087Y-118471404D01*
X84352084Y-118471403D01*
X84352083Y-118471403D01*
X84253120Y-118441383D01*
X84161915Y-118392633D01*
X84081974Y-118327027D01*
X84049171Y-118287056D01*
X84016366Y-118247084D01*
X83967618Y-118155883D01*
X83939618Y-118063580D01*
X83930240Y-118040941D01*
X83916626Y-118020567D01*
X83899299Y-118003240D01*
X83878925Y-117989626D01*
X83856286Y-117980248D01*
X83832252Y-117975468D01*
X83807748Y-117975468D01*
X83783714Y-117980248D01*
X83761075Y-117989626D01*
X83740701Y-118003240D01*
X83723374Y-118020567D01*
X83709760Y-118040941D01*
X83700382Y-118063579D01*
X83672383Y-118155881D01*
X83623633Y-118247086D01*
X83558027Y-118327027D01*
X83478086Y-118392633D01*
X83386881Y-118441383D01*
X83287918Y-118471403D01*
X83287917Y-118471403D01*
X83287914Y-118471404D01*
X83185000Y-118481540D01*
X83082087Y-118471404D01*
X83082084Y-118471403D01*
X83082083Y-118471403D01*
X82983120Y-118441383D01*
X82891915Y-118392633D01*
X82811974Y-118327027D01*
X82779171Y-118287056D01*
X82746366Y-118247084D01*
X82697617Y-118155882D01*
X82684618Y-118113029D01*
X82675240Y-118090389D01*
X82661626Y-118070015D01*
X82644299Y-118052688D01*
X82623925Y-118039074D01*
X82601286Y-118029696D01*
X82577252Y-118024916D01*
X82552748Y-118024916D01*
X82528715Y-118029696D01*
X82506075Y-118039074D01*
X82485701Y-118052688D01*
X82468374Y-118070015D01*
X82454760Y-118090389D01*
X82445382Y-118113028D01*
X82440602Y-118137062D01*
X82440000Y-118149314D01*
X82440000Y-118479000D01*
X81390000Y-118479000D01*
X81390000Y-116979000D01*
X82440000Y-116979000D01*
X82440000Y-117308687D01*
X82442402Y-117333073D01*
X82449515Y-117356522D01*
X82461066Y-117378133D01*
X82476612Y-117397075D01*
X82495554Y-117412621D01*
X82517165Y-117424172D01*
X82540614Y-117431285D01*
X82565000Y-117433687D01*
X82589386Y-117431285D01*
X82612835Y-117424172D01*
X82634446Y-117412621D01*
X82653388Y-117397075D01*
X82668934Y-117378133D01*
X82680485Y-117356522D01*
X82684618Y-117344972D01*
X82697617Y-117302119D01*
X82720513Y-117259283D01*
X82746367Y-117210914D01*
X82811973Y-117130973D01*
X82811975Y-117130972D01*
X82811976Y-117130970D01*
X82891913Y-117065368D01*
X82891912Y-117065368D01*
X82891914Y-117065367D01*
X82983119Y-117016617D01*
X83082082Y-116986597D01*
X83082083Y-116986597D01*
X83082086Y-116986596D01*
X83185000Y-116976460D01*
X83287913Y-116986596D01*
X83287916Y-116986597D01*
X83287917Y-116986597D01*
X83386880Y-117016617D01*
X83478086Y-117065367D01*
X83558027Y-117130973D01*
X83558028Y-117130975D01*
X83558030Y-117130976D01*
X83607231Y-117190929D01*
X83623633Y-117210914D01*
X83672383Y-117302119D01*
X83700382Y-117394420D01*
X83709760Y-117417059D01*
X83723374Y-117437433D01*
X83740701Y-117454760D01*
X83761075Y-117468374D01*
X83783714Y-117477752D01*
X83807748Y-117482532D01*
X83832252Y-117482532D01*
X83856286Y-117477752D01*
X83878925Y-117468374D01*
X83899299Y-117454760D01*
X83916626Y-117437433D01*
X83930240Y-117417059D01*
X83939617Y-117394420D01*
X83967616Y-117302122D01*
X83978162Y-117282392D01*
X84016367Y-117210914D01*
X84081973Y-117130973D01*
X84081975Y-117130972D01*
X84081976Y-117130970D01*
X84161913Y-117065368D01*
X84161912Y-117065368D01*
X84161914Y-117065367D01*
X84253119Y-117016617D01*
X84352082Y-116986597D01*
X84352083Y-116986597D01*
X84352086Y-116986596D01*
X84455000Y-116976460D01*
X84557913Y-116986596D01*
X84557913Y-116986596D01*
G37*
G36*
X70729649Y-116809717D02*
X70768827Y-116813576D01*
X70832012Y-116832743D01*
X70919629Y-116859321D01*
X71058608Y-116933608D01*
X71180422Y-117033578D01*
X71280392Y-117155392D01*
X71354679Y-117294371D01*
X71373532Y-117356522D01*
X71400424Y-117445173D01*
X71405395Y-117495648D01*
X71415870Y-117602000D01*
X71400424Y-117758826D01*
X71354679Y-117909629D01*
X71280392Y-118048608D01*
X71180422Y-118170422D01*
X71058608Y-118270392D01*
X70919629Y-118344679D01*
X70844227Y-118367552D01*
X70768827Y-118390424D01*
X70746398Y-118392633D01*
X70651295Y-118402000D01*
X70572705Y-118402000D01*
X70477602Y-118392633D01*
X70455173Y-118390424D01*
X70379773Y-118367552D01*
X70304371Y-118344679D01*
X70165392Y-118270392D01*
X70043578Y-118170422D01*
X69943608Y-118048608D01*
X69869321Y-117909629D01*
X69823576Y-117758826D01*
X69808130Y-117602000D01*
X69818605Y-117495648D01*
X69823576Y-117445173D01*
X69850468Y-117356522D01*
X69869321Y-117294371D01*
X69943608Y-117155392D01*
X70043578Y-117033578D01*
X70165392Y-116933608D01*
X70304371Y-116859321D01*
X70391988Y-116832743D01*
X70455173Y-116813576D01*
X70494351Y-116809717D01*
X70572705Y-116802000D01*
X70651295Y-116802000D01*
X70729649Y-116809717D01*
X70729649Y-116809717D01*
G37*
G36*
X78465352Y-116832743D02*
X78610941Y-116893048D01*
X78741973Y-116980601D01*
X78853399Y-117092027D01*
X78940952Y-117223059D01*
X79001257Y-117368648D01*
X79032000Y-117523205D01*
X79032000Y-117680795D01*
X79001257Y-117835352D01*
X78940952Y-117980941D01*
X78853399Y-118111973D01*
X78741973Y-118223399D01*
X78610941Y-118310952D01*
X78465352Y-118371257D01*
X78310795Y-118402000D01*
X78153205Y-118402000D01*
X77998648Y-118371257D01*
X77853059Y-118310952D01*
X77722027Y-118223399D01*
X77610601Y-118111973D01*
X77523048Y-117980941D01*
X77462743Y-117835352D01*
X77432000Y-117680795D01*
X77432000Y-117523205D01*
X77462743Y-117368648D01*
X77523048Y-117223059D01*
X77610601Y-117092027D01*
X77722027Y-116980601D01*
X77853059Y-116893048D01*
X77998648Y-116832743D01*
X78153205Y-116802000D01*
X78310795Y-116802000D01*
X78465352Y-116832743D01*
X78465352Y-116832743D01*
G37*
G36*
X54721000Y-118046500D02*
X52721000Y-118046500D01*
X52721000Y-116141500D01*
X54721000Y-116141500D01*
X54721000Y-118046500D01*
X54721000Y-118046500D01*
G37*
G36*
X72346015Y-115131668D02*
X72477049Y-115185944D01*
X72594975Y-115264740D01*
X72695260Y-115365025D01*
X72774056Y-115482951D01*
X72828332Y-115613985D01*
X72856000Y-115753085D01*
X72856000Y-115894915D01*
X72828332Y-116034015D01*
X72774056Y-116165049D01*
X72695260Y-116282975D01*
X72594975Y-116383260D01*
X72477049Y-116462056D01*
X72346015Y-116516332D01*
X72206915Y-116544000D01*
X72065085Y-116544000D01*
X71925985Y-116516332D01*
X71794951Y-116462056D01*
X71677025Y-116383260D01*
X71576740Y-116282975D01*
X71497944Y-116165049D01*
X71443668Y-116034015D01*
X71416000Y-115894915D01*
X71416000Y-115753085D01*
X71443668Y-115613985D01*
X71497944Y-115482951D01*
X71576740Y-115365025D01*
X71677025Y-115264740D01*
X71794951Y-115185944D01*
X71925985Y-115131668D01*
X72065085Y-115104000D01*
X72206915Y-115104000D01*
X72346015Y-115131668D01*
X72346015Y-115131668D01*
G37*
G36*
X74886015Y-115131668D02*
X75017049Y-115185944D01*
X75134975Y-115264740D01*
X75235260Y-115365025D01*
X75314056Y-115482951D01*
X75368332Y-115613985D01*
X75396000Y-115753085D01*
X75396000Y-115894915D01*
X75368332Y-116034015D01*
X75314056Y-116165049D01*
X75235260Y-116282975D01*
X75134975Y-116383260D01*
X75017049Y-116462056D01*
X74886015Y-116516332D01*
X74746915Y-116544000D01*
X74605085Y-116544000D01*
X74465985Y-116516332D01*
X74334951Y-116462056D01*
X74217025Y-116383260D01*
X74116740Y-116282975D01*
X74037944Y-116165049D01*
X73983668Y-116034015D01*
X73956000Y-115894915D01*
X73956000Y-115753085D01*
X73983668Y-115613985D01*
X74037944Y-115482951D01*
X74116740Y-115365025D01*
X74217025Y-115264740D01*
X74334951Y-115185944D01*
X74465985Y-115131668D01*
X74605085Y-115104000D01*
X74746915Y-115104000D01*
X74886015Y-115131668D01*
X74886015Y-115131668D01*
G37*
G36*
X77426015Y-115131668D02*
X77557049Y-115185944D01*
X77674975Y-115264740D01*
X77775260Y-115365025D01*
X77854056Y-115482951D01*
X77908332Y-115613985D01*
X77936000Y-115753085D01*
X77936000Y-115894915D01*
X77908332Y-116034015D01*
X77854056Y-116165049D01*
X77775260Y-116282975D01*
X77674975Y-116383260D01*
X77557049Y-116462056D01*
X77426015Y-116516332D01*
X77286915Y-116544000D01*
X77145085Y-116544000D01*
X77005985Y-116516332D01*
X76874951Y-116462056D01*
X76757025Y-116383260D01*
X76656740Y-116282975D01*
X76577944Y-116165049D01*
X76523668Y-116034015D01*
X76496000Y-115894915D01*
X76496000Y-115753085D01*
X76523668Y-115613985D01*
X76577944Y-115482951D01*
X76656740Y-115365025D01*
X76757025Y-115264740D01*
X76874951Y-115185944D01*
X77005985Y-115131668D01*
X77145085Y-115104000D01*
X77286915Y-115104000D01*
X77426015Y-115131668D01*
X77426015Y-115131668D01*
G37*
G36*
X59669352Y-113022743D02*
X59814941Y-113083048D01*
X59945973Y-113170601D01*
X60057399Y-113282027D01*
X60144952Y-113413059D01*
X60205257Y-113558648D01*
X60236000Y-113713205D01*
X60236000Y-113870795D01*
X60205257Y-114025352D01*
X60144952Y-114170941D01*
X60057399Y-114301973D01*
X59945973Y-114413399D01*
X59814941Y-114500952D01*
X59669352Y-114561257D01*
X59514795Y-114592000D01*
X59357205Y-114592000D01*
X59202648Y-114561257D01*
X59057059Y-114500952D01*
X58926027Y-114413399D01*
X58814601Y-114301973D01*
X58727048Y-114170941D01*
X58666743Y-114025352D01*
X58636000Y-113870795D01*
X58636000Y-113713205D01*
X58666743Y-113558648D01*
X58727048Y-113413059D01*
X58814601Y-113282027D01*
X58926027Y-113170601D01*
X59057059Y-113083048D01*
X59202648Y-113022743D01*
X59357205Y-112992000D01*
X59514795Y-112992000D01*
X59669352Y-113022743D01*
X59669352Y-113022743D01*
G37*
G36*
X67173649Y-112999717D02*
X67212827Y-113003576D01*
X67276012Y-113022743D01*
X67363629Y-113049321D01*
X67502608Y-113123608D01*
X67624422Y-113223578D01*
X67724392Y-113345392D01*
X67798679Y-113484371D01*
X67844424Y-113635174D01*
X67859870Y-113792000D01*
X67844424Y-113948826D01*
X67798679Y-114099629D01*
X67724392Y-114238608D01*
X67624422Y-114360422D01*
X67502608Y-114460392D01*
X67363629Y-114534679D01*
X67288227Y-114557552D01*
X67212827Y-114580424D01*
X67173649Y-114584283D01*
X67095295Y-114592000D01*
X67016705Y-114592000D01*
X66938351Y-114584283D01*
X66899173Y-114580424D01*
X66823773Y-114557552D01*
X66748371Y-114534679D01*
X66609392Y-114460392D01*
X66487578Y-114360422D01*
X66387608Y-114238608D01*
X66313321Y-114099629D01*
X66267576Y-113948826D01*
X66252130Y-113792000D01*
X66267576Y-113635174D01*
X66313321Y-113484371D01*
X66387608Y-113345392D01*
X66487578Y-113223578D01*
X66609392Y-113123608D01*
X66748371Y-113049321D01*
X66835988Y-113022743D01*
X66899173Y-113003576D01*
X66938351Y-112999717D01*
X67016705Y-112992000D01*
X67095295Y-112992000D01*
X67173649Y-112999717D01*
X67173649Y-112999717D01*
G37*
G36*
X78926723Y-110392782D02*
X79106268Y-110447247D01*
X79271741Y-110535693D01*
X79416778Y-110654722D01*
X79535807Y-110799759D01*
X79624253Y-110965231D01*
X79678718Y-111144776D01*
X79692500Y-111284711D01*
X79692500Y-111473288D01*
X79678718Y-111613223D01*
X79624253Y-111792768D01*
X79535807Y-111958241D01*
X79416778Y-112103278D01*
X79271741Y-112222307D01*
X79106269Y-112310753D01*
X78926724Y-112365218D01*
X78740000Y-112383608D01*
X78553277Y-112365218D01*
X78373732Y-112310753D01*
X78208264Y-112222309D01*
X78208263Y-112222308D01*
X78208259Y-112222306D01*
X78063222Y-112103278D01*
X78063221Y-112103276D01*
X78063219Y-112103275D01*
X77944193Y-111958241D01*
X77855747Y-111792769D01*
X77801282Y-111613224D01*
X77787500Y-111473289D01*
X77787500Y-111284712D01*
X77801282Y-111144777D01*
X77855747Y-110965232D01*
X77944193Y-110799759D01*
X78063222Y-110654722D01*
X78208259Y-110535693D01*
X78373731Y-110447247D01*
X78553276Y-110392782D01*
X78740000Y-110374392D01*
X78926723Y-110392782D01*
X78926723Y-110392782D01*
G37*
G36*
X81466723Y-110392782D02*
X81646268Y-110447247D01*
X81811741Y-110535693D01*
X81956778Y-110654722D01*
X82075807Y-110799759D01*
X82164253Y-110965231D01*
X82218718Y-111144776D01*
X82232500Y-111284711D01*
X82232500Y-111473288D01*
X82218718Y-111613223D01*
X82164253Y-111792768D01*
X82075807Y-111958241D01*
X81956778Y-112103278D01*
X81811741Y-112222307D01*
X81646269Y-112310753D01*
X81466724Y-112365218D01*
X81280000Y-112383608D01*
X81093277Y-112365218D01*
X80913732Y-112310753D01*
X80748264Y-112222309D01*
X80748263Y-112222308D01*
X80748259Y-112222306D01*
X80603222Y-112103278D01*
X80603221Y-112103276D01*
X80603219Y-112103275D01*
X80484193Y-111958241D01*
X80395747Y-111792769D01*
X80341282Y-111613224D01*
X80327500Y-111473289D01*
X80327500Y-111284712D01*
X80341282Y-111144777D01*
X80395747Y-110965232D01*
X80484193Y-110799759D01*
X80603222Y-110654722D01*
X80748259Y-110535693D01*
X80913731Y-110447247D01*
X81093276Y-110392782D01*
X81280000Y-110374392D01*
X81466723Y-110392782D01*
X81466723Y-110392782D01*
G37*
G36*
X77152500Y-112379000D02*
X75247500Y-112379000D01*
X75247500Y-110379000D01*
X77152500Y-110379000D01*
X77152500Y-112379000D01*
X77152500Y-112379000D01*
G37*
G36*
X54014630Y-110414299D02*
X54174855Y-110462903D01*
X54322520Y-110541831D01*
X54451949Y-110648051D01*
X54558169Y-110777480D01*
X54637097Y-110925145D01*
X54685701Y-111085370D01*
X54702112Y-111252000D01*
X54685701Y-111418630D01*
X54637097Y-111578855D01*
X54558169Y-111726520D01*
X54451949Y-111855949D01*
X54322520Y-111962169D01*
X54174855Y-112041097D01*
X54014630Y-112089701D01*
X53889752Y-112102000D01*
X53806248Y-112102000D01*
X53681370Y-112089701D01*
X53521145Y-112041097D01*
X53373480Y-111962169D01*
X53244051Y-111855949D01*
X53137831Y-111726520D01*
X53058903Y-111578855D01*
X53010299Y-111418630D01*
X52993888Y-111252000D01*
X53010299Y-111085370D01*
X53058903Y-110925145D01*
X53137831Y-110777480D01*
X53244051Y-110648051D01*
X53373480Y-110541831D01*
X53521145Y-110462903D01*
X53681370Y-110414299D01*
X53806248Y-110402000D01*
X53889752Y-110402000D01*
X54014630Y-110414299D01*
X54014630Y-110414299D01*
G37*
G36*
X89750000Y-111721000D02*
X88050000Y-111721000D01*
X88050000Y-110021000D01*
X89750000Y-110021000D01*
X89750000Y-111721000D01*
X89750000Y-111721000D01*
G37*
G36*
X91606630Y-110033299D02*
X91766855Y-110081903D01*
X91914520Y-110160831D01*
X92043949Y-110267051D01*
X92150169Y-110396480D01*
X92229097Y-110544145D01*
X92277701Y-110704370D01*
X92294112Y-110871000D01*
X92277701Y-111037630D01*
X92229097Y-111197855D01*
X92150169Y-111345520D01*
X92043949Y-111474949D01*
X91914520Y-111581169D01*
X91766855Y-111660097D01*
X91606630Y-111708701D01*
X91481752Y-111721000D01*
X91398248Y-111721000D01*
X91273370Y-111708701D01*
X91113145Y-111660097D01*
X90965480Y-111581169D01*
X90836051Y-111474949D01*
X90729831Y-111345520D01*
X90650903Y-111197855D01*
X90602299Y-111037630D01*
X90585888Y-110871000D01*
X90602299Y-110704370D01*
X90650903Y-110544145D01*
X90729831Y-110396480D01*
X90836051Y-110267051D01*
X90965480Y-110160831D01*
X91113145Y-110081903D01*
X91273370Y-110033299D01*
X91398248Y-110021000D01*
X91481752Y-110021000D01*
X91606630Y-110033299D01*
X91606630Y-110033299D01*
G37*
G36*
X54014630Y-107874299D02*
X54174855Y-107922903D01*
X54322520Y-108001831D01*
X54451949Y-108108051D01*
X54558169Y-108237480D01*
X54637097Y-108385145D01*
X54685701Y-108545370D01*
X54702112Y-108712000D01*
X54685701Y-108878630D01*
X54637097Y-109038855D01*
X54558169Y-109186520D01*
X54451949Y-109315949D01*
X54322520Y-109422169D01*
X54174855Y-109501097D01*
X54014630Y-109549701D01*
X53889752Y-109562000D01*
X53806248Y-109562000D01*
X53681370Y-109549701D01*
X53521145Y-109501097D01*
X53373480Y-109422169D01*
X53244051Y-109315949D01*
X53137831Y-109186520D01*
X53058903Y-109038855D01*
X53010299Y-108878630D01*
X52993888Y-108712000D01*
X53010299Y-108545370D01*
X53058903Y-108385145D01*
X53137831Y-108237480D01*
X53244051Y-108108051D01*
X53373480Y-108001831D01*
X53521145Y-107922903D01*
X53681370Y-107874299D01*
X53806248Y-107862000D01*
X53889752Y-107862000D01*
X54014630Y-107874299D01*
X54014630Y-107874299D01*
G37*
G36*
X62162724Y-106963782D02*
X62342269Y-107018247D01*
X62507741Y-107106693D01*
X62652778Y-107225722D01*
X62771807Y-107370759D01*
X62860253Y-107536232D01*
X62914718Y-107715777D01*
X62928500Y-107855712D01*
X62928500Y-108044289D01*
X62914718Y-108184224D01*
X62860253Y-108363769D01*
X62771807Y-108529241D01*
X62652778Y-108674278D01*
X62507741Y-108793307D01*
X62342268Y-108881753D01*
X62162723Y-108936218D01*
X61976000Y-108954608D01*
X61789276Y-108936218D01*
X61609731Y-108881753D01*
X61444259Y-108793307D01*
X61299222Y-108674278D01*
X61180193Y-108529241D01*
X61091747Y-108363768D01*
X61037282Y-108184223D01*
X61023500Y-108044288D01*
X61023500Y-107855711D01*
X61037282Y-107715776D01*
X61091747Y-107536231D01*
X61180193Y-107370759D01*
X61299219Y-107225725D01*
X61299221Y-107225724D01*
X61299222Y-107225722D01*
X61444259Y-107106694D01*
X61444263Y-107106692D01*
X61444264Y-107106691D01*
X61609732Y-107018247D01*
X61789277Y-106963782D01*
X61976000Y-106945392D01*
X62162724Y-106963782D01*
X62162724Y-106963782D01*
G37*
G36*
X59622724Y-106963782D02*
X59802269Y-107018247D01*
X59967741Y-107106693D01*
X60112778Y-107225722D01*
X60231807Y-107370759D01*
X60320253Y-107536232D01*
X60374718Y-107715777D01*
X60388500Y-107855712D01*
X60388500Y-108044289D01*
X60374718Y-108184224D01*
X60320253Y-108363769D01*
X60231807Y-108529241D01*
X60112778Y-108674278D01*
X59967741Y-108793307D01*
X59802268Y-108881753D01*
X59622723Y-108936218D01*
X59436000Y-108954608D01*
X59249276Y-108936218D01*
X59069731Y-108881753D01*
X58904259Y-108793307D01*
X58759222Y-108674278D01*
X58640193Y-108529241D01*
X58551747Y-108363768D01*
X58497282Y-108184223D01*
X58483500Y-108044288D01*
X58483500Y-107855711D01*
X58497282Y-107715776D01*
X58551747Y-107536231D01*
X58640193Y-107370759D01*
X58759219Y-107225725D01*
X58759221Y-107225724D01*
X58759222Y-107225722D01*
X58904259Y-107106694D01*
X58904263Y-107106692D01*
X58904264Y-107106691D01*
X59069732Y-107018247D01*
X59249277Y-106963782D01*
X59436000Y-106945392D01*
X59622724Y-106963782D01*
X59622724Y-106963782D01*
G37*
G36*
X65468500Y-108950000D02*
X63563500Y-108950000D01*
X63563500Y-106950000D01*
X65468500Y-106950000D01*
X65468500Y-108950000D01*
X65468500Y-108950000D01*
G37*
G36*
X91927352Y-106672743D02*
X92072941Y-106733048D01*
X92203973Y-106820601D01*
X92315399Y-106932027D01*
X92402952Y-107063059D01*
X92463257Y-107208648D01*
X92494000Y-107363205D01*
X92494000Y-107520795D01*
X92463257Y-107675352D01*
X92402952Y-107820941D01*
X92315399Y-107951973D01*
X92203973Y-108063399D01*
X92072941Y-108150952D01*
X91927352Y-108211257D01*
X91772795Y-108242000D01*
X91615205Y-108242000D01*
X91460648Y-108211257D01*
X91315059Y-108150952D01*
X91184027Y-108063399D01*
X91072601Y-107951973D01*
X90985048Y-107820941D01*
X90924743Y-107675352D01*
X90894000Y-107520795D01*
X90894000Y-107363205D01*
X90924743Y-107208648D01*
X90985048Y-107063059D01*
X91072601Y-106932027D01*
X91184027Y-106820601D01*
X91315059Y-106733048D01*
X91460648Y-106672743D01*
X91615205Y-106642000D01*
X91772795Y-106642000D01*
X91927352Y-106672743D01*
X91927352Y-106672743D01*
G37*
G36*
X88371352Y-106545743D02*
X88516941Y-106606048D01*
X88647973Y-106693601D01*
X88759399Y-106805027D01*
X88846952Y-106936059D01*
X88907257Y-107081648D01*
X88938000Y-107236205D01*
X88938000Y-107393795D01*
X88907257Y-107548352D01*
X88846952Y-107693941D01*
X88759399Y-107824973D01*
X88647973Y-107936399D01*
X88516941Y-108023952D01*
X88371352Y-108084257D01*
X88216795Y-108115000D01*
X88059205Y-108115000D01*
X87904648Y-108084257D01*
X87759059Y-108023952D01*
X87628027Y-107936399D01*
X87516601Y-107824973D01*
X87429048Y-107693941D01*
X87368743Y-107548352D01*
X87338000Y-107393795D01*
X87338000Y-107236205D01*
X87368743Y-107081648D01*
X87429048Y-106936059D01*
X87516601Y-106805027D01*
X87628027Y-106693601D01*
X87759059Y-106606048D01*
X87904648Y-106545743D01*
X88059205Y-106515000D01*
X88216795Y-106515000D01*
X88371352Y-106545743D01*
X88371352Y-106545743D01*
G37*
G36*
X54014630Y-105334299D02*
X54174855Y-105382903D01*
X54322520Y-105461831D01*
X54451949Y-105568051D01*
X54558169Y-105697480D01*
X54637097Y-105845145D01*
X54685701Y-106005370D01*
X54702112Y-106172000D01*
X54685701Y-106338630D01*
X54637097Y-106498855D01*
X54558169Y-106646520D01*
X54451949Y-106775949D01*
X54322520Y-106882169D01*
X54174855Y-106961097D01*
X54014630Y-107009701D01*
X53889752Y-107022000D01*
X53806248Y-107022000D01*
X53681370Y-107009701D01*
X53521145Y-106961097D01*
X53373480Y-106882169D01*
X53244051Y-106775949D01*
X53137831Y-106646520D01*
X53058903Y-106498855D01*
X53010299Y-106338630D01*
X52993888Y-106172000D01*
X53010299Y-106005370D01*
X53058903Y-105845145D01*
X53137831Y-105697480D01*
X53244051Y-105568051D01*
X53373480Y-105461831D01*
X53521145Y-105382903D01*
X53681370Y-105334299D01*
X53806248Y-105322000D01*
X53889752Y-105322000D01*
X54014630Y-105334299D01*
X54014630Y-105334299D01*
G37*
G36*
X71666000Y-106210000D02*
X70066000Y-106210000D01*
X70066000Y-104610000D01*
X71666000Y-104610000D01*
X71666000Y-106210000D01*
X71666000Y-106210000D01*
G37*
G36*
X81772000Y-105648000D02*
X79772000Y-105648000D01*
X79772000Y-103648000D01*
X81772000Y-103648000D01*
X81772000Y-105648000D01*
X81772000Y-105648000D01*
G37*
G36*
X54014630Y-102794299D02*
X54174855Y-102842903D01*
X54322520Y-102921831D01*
X54451949Y-103028051D01*
X54558169Y-103157480D01*
X54637097Y-103305145D01*
X54685701Y-103465370D01*
X54702112Y-103632000D01*
X54685701Y-103798630D01*
X54637097Y-103958855D01*
X54558169Y-104106520D01*
X54451949Y-104235949D01*
X54322520Y-104342169D01*
X54174855Y-104421097D01*
X54014630Y-104469701D01*
X53889752Y-104482000D01*
X53806248Y-104482000D01*
X53681370Y-104469701D01*
X53521145Y-104421097D01*
X53373480Y-104342169D01*
X53244051Y-104235949D01*
X53137831Y-104106520D01*
X53058903Y-103958855D01*
X53010299Y-103798630D01*
X52993888Y-103632000D01*
X53010299Y-103465370D01*
X53058903Y-103305145D01*
X53137831Y-103157480D01*
X53244051Y-103028051D01*
X53373480Y-102921831D01*
X53521145Y-102842903D01*
X53681370Y-102794299D01*
X53806248Y-102782000D01*
X53889752Y-102782000D01*
X54014630Y-102794299D01*
X54014630Y-102794299D01*
G37*
G36*
X71099352Y-101140743D02*
X71244941Y-101201048D01*
X71375973Y-101288601D01*
X71487399Y-101400027D01*
X71574952Y-101531059D01*
X71635257Y-101676648D01*
X71666000Y-101831205D01*
X71666000Y-101988795D01*
X71635257Y-102143352D01*
X71574952Y-102288941D01*
X71487399Y-102419973D01*
X71375973Y-102531399D01*
X71244941Y-102618952D01*
X71099352Y-102679257D01*
X70944795Y-102710000D01*
X70787205Y-102710000D01*
X70632648Y-102679257D01*
X70487059Y-102618952D01*
X70356027Y-102531399D01*
X70244601Y-102419973D01*
X70157048Y-102288941D01*
X70096743Y-102143352D01*
X70066000Y-101988795D01*
X70066000Y-101831205D01*
X70096743Y-101676648D01*
X70157048Y-101531059D01*
X70244601Y-101400027D01*
X70356027Y-101288601D01*
X70487059Y-101201048D01*
X70632648Y-101140743D01*
X70787205Y-101110000D01*
X70944795Y-101110000D01*
X71099352Y-101140743D01*
X71099352Y-101140743D01*
G37*
G36*
X54698000Y-101942000D02*
X52998000Y-101942000D01*
X52998000Y-100242000D01*
X54698000Y-100242000D01*
X54698000Y-101942000D01*
X54698000Y-101942000D01*
G37*
G36*
X80947770Y-98663372D02*
X81063689Y-98686429D01*
X81245678Y-98761811D01*
X81409463Y-98871249D01*
X81548751Y-99010537D01*
X81658189Y-99174322D01*
X81733571Y-99356311D01*
X81739749Y-99387371D01*
X81769746Y-99538174D01*
X81772000Y-99549509D01*
X81772000Y-99746491D01*
X81733571Y-99939689D01*
X81658189Y-100121678D01*
X81548751Y-100285463D01*
X81409463Y-100424751D01*
X81245678Y-100534189D01*
X81063689Y-100609571D01*
X80947770Y-100632628D01*
X80870493Y-100648000D01*
X80673507Y-100648000D01*
X80596230Y-100632628D01*
X80480311Y-100609571D01*
X80298322Y-100534189D01*
X80134537Y-100424751D01*
X79995249Y-100285463D01*
X79885811Y-100121678D01*
X79810429Y-99939689D01*
X79772000Y-99746491D01*
X79772000Y-99549509D01*
X79774255Y-99538174D01*
X79804251Y-99387371D01*
X79810429Y-99356311D01*
X79885811Y-99174322D01*
X79995249Y-99010537D01*
X80134537Y-98871249D01*
X80298322Y-98761811D01*
X80480311Y-98686429D01*
X80596230Y-98663372D01*
X80673507Y-98648000D01*
X80870493Y-98648000D01*
X80947770Y-98663372D01*
X80947770Y-98663372D01*
G37*
G36*
X91811649Y-99029717D02*
X91850827Y-99033576D01*
X91926228Y-99056449D01*
X92001629Y-99079321D01*
X92140608Y-99153608D01*
X92262422Y-99253578D01*
X92362392Y-99375392D01*
X92436679Y-99514371D01*
X92443899Y-99538173D01*
X92482424Y-99665173D01*
X92497870Y-99822000D01*
X92485639Y-99946189D01*
X92482424Y-99978826D01*
X92436679Y-100129629D01*
X92362392Y-100268608D01*
X92262422Y-100390422D01*
X92140608Y-100490392D01*
X92001629Y-100564679D01*
X91926228Y-100587551D01*
X91850827Y-100610424D01*
X91811649Y-100614283D01*
X91733295Y-100622000D01*
X91654705Y-100622000D01*
X91576351Y-100614283D01*
X91537173Y-100610424D01*
X91461772Y-100587551D01*
X91386371Y-100564679D01*
X91247392Y-100490392D01*
X91125578Y-100390422D01*
X91025608Y-100268608D01*
X90951321Y-100129629D01*
X90905576Y-99978826D01*
X90902362Y-99946189D01*
X90890130Y-99822000D01*
X90905576Y-99665173D01*
X90944101Y-99538173D01*
X90951321Y-99514371D01*
X91025608Y-99375392D01*
X91125578Y-99253578D01*
X91247392Y-99153608D01*
X91386371Y-99079321D01*
X91461772Y-99056449D01*
X91537173Y-99033576D01*
X91576351Y-99029717D01*
X91654705Y-99022000D01*
X91733295Y-99022000D01*
X91811649Y-99029717D01*
X91811649Y-99029717D01*
G37*
G36*
X88255649Y-98902717D02*
X88294827Y-98906576D01*
X88370228Y-98929449D01*
X88445629Y-98952321D01*
X88584608Y-99026608D01*
X88706422Y-99126578D01*
X88806392Y-99248392D01*
X88880679Y-99387371D01*
X88880679Y-99387372D01*
X88925060Y-99533675D01*
X88926424Y-99538174D01*
X88941870Y-99695000D01*
X88926424Y-99851826D01*
X88880679Y-100002629D01*
X88806392Y-100141608D01*
X88706422Y-100263422D01*
X88584608Y-100363392D01*
X88445629Y-100437679D01*
X88370227Y-100460552D01*
X88294827Y-100483424D01*
X88255649Y-100487283D01*
X88177295Y-100495000D01*
X88098705Y-100495000D01*
X88020351Y-100487283D01*
X87981173Y-100483424D01*
X87905773Y-100460552D01*
X87830371Y-100437679D01*
X87691392Y-100363392D01*
X87569578Y-100263422D01*
X87469608Y-100141608D01*
X87395321Y-100002629D01*
X87349576Y-99851826D01*
X87334130Y-99695000D01*
X87349576Y-99538174D01*
X87350941Y-99533675D01*
X87395321Y-99387372D01*
X87395321Y-99387371D01*
X87469608Y-99248392D01*
X87569578Y-99126578D01*
X87691392Y-99026608D01*
X87830371Y-98952321D01*
X87905772Y-98929449D01*
X87981173Y-98906576D01*
X88020351Y-98902717D01*
X88098705Y-98895000D01*
X88177295Y-98895000D01*
X88255649Y-98902717D01*
X88255649Y-98902717D01*
G37*
G36*
X59928000Y-100060000D02*
X57928000Y-100060000D01*
X57928000Y-98060000D01*
X59928000Y-98060000D01*
X59928000Y-100060000D01*
X59928000Y-100060000D01*
G37*
G36*
X64103770Y-98075372D02*
X64219689Y-98098429D01*
X64401678Y-98173811D01*
X64565463Y-98283249D01*
X64704751Y-98422537D01*
X64814189Y-98586322D01*
X64889571Y-98768311D01*
X64910046Y-98871249D01*
X64928000Y-98961507D01*
X64928000Y-99158493D01*
X64912628Y-99235770D01*
X64889571Y-99351689D01*
X64814189Y-99533678D01*
X64704751Y-99697463D01*
X64565463Y-99836751D01*
X64401678Y-99946189D01*
X64219689Y-100021571D01*
X64103770Y-100044628D01*
X64026493Y-100060000D01*
X63829507Y-100060000D01*
X63752230Y-100044628D01*
X63636311Y-100021571D01*
X63454322Y-99946189D01*
X63290537Y-99836751D01*
X63151249Y-99697463D01*
X63041811Y-99533678D01*
X62966429Y-99351689D01*
X62943372Y-99235770D01*
X62928000Y-99158493D01*
X62928000Y-98961507D01*
X62945954Y-98871249D01*
X62966429Y-98768311D01*
X63041811Y-98586322D01*
X63151249Y-98422537D01*
X63290537Y-98283249D01*
X63454322Y-98173811D01*
X63636311Y-98098429D01*
X63752230Y-98075372D01*
X63829507Y-98060000D01*
X64026493Y-98060000D01*
X64103770Y-98075372D01*
X64103770Y-98075372D01*
G37*
G36*
X53980323Y-95790767D02*
X54107561Y-95829364D01*
X54224824Y-95892042D01*
X54327606Y-95976394D01*
X54411958Y-96079176D01*
X54474636Y-96196439D01*
X54513233Y-96323677D01*
X54526266Y-96456000D01*
X54513233Y-96588323D01*
X54474636Y-96715561D01*
X54411958Y-96832824D01*
X54327606Y-96935606D01*
X54224824Y-97019958D01*
X54107561Y-97082636D01*
X53980323Y-97121233D01*
X53881159Y-97131000D01*
X53814841Y-97131000D01*
X53715677Y-97121233D01*
X53588439Y-97082636D01*
X53471176Y-97019958D01*
X53368394Y-96935606D01*
X53284042Y-96832824D01*
X53221364Y-96715561D01*
X53182767Y-96588323D01*
X53169734Y-96456000D01*
X53182767Y-96323677D01*
X53221364Y-96196439D01*
X53284042Y-96079176D01*
X53368394Y-95976394D01*
X53471176Y-95892042D01*
X53588439Y-95829364D01*
X53715677Y-95790767D01*
X53814841Y-95781000D01*
X53881159Y-95781000D01*
X53980323Y-95790767D01*
X53980323Y-95790767D01*
G37*
G36*
X90004000Y-96100000D02*
X88304000Y-96100000D01*
X88304000Y-94400000D01*
X90004000Y-94400000D01*
X90004000Y-96100000D01*
X90004000Y-96100000D01*
G37*
G36*
X91860630Y-94412299D02*
X92020855Y-94460903D01*
X92168520Y-94539831D01*
X92297949Y-94646051D01*
X92404169Y-94775480D01*
X92483097Y-94923145D01*
X92531701Y-95083370D01*
X92548112Y-95250000D01*
X92531701Y-95416630D01*
X92483097Y-95576855D01*
X92404169Y-95724520D01*
X92297949Y-95853949D01*
X92168520Y-95960169D01*
X92020855Y-96039097D01*
X91860630Y-96087701D01*
X91735752Y-96100000D01*
X91652248Y-96100000D01*
X91527370Y-96087701D01*
X91367145Y-96039097D01*
X91219480Y-95960169D01*
X91090051Y-95853949D01*
X90983831Y-95724520D01*
X90904903Y-95576855D01*
X90856299Y-95416630D01*
X90839888Y-95250000D01*
X90856299Y-95083370D01*
X90904903Y-94923145D01*
X90983831Y-94775480D01*
X91090051Y-94646051D01*
X91219480Y-94539831D01*
X91367145Y-94460903D01*
X91527370Y-94412299D01*
X91652248Y-94400000D01*
X91735752Y-94400000D01*
X91860630Y-94412299D01*
X91860630Y-94412299D01*
G37*
G36*
X53980323Y-93790767D02*
X54107561Y-93829364D01*
X54224824Y-93892042D01*
X54327606Y-93976394D01*
X54411958Y-94079176D01*
X54474636Y-94196439D01*
X54513233Y-94323677D01*
X54526266Y-94456000D01*
X54513233Y-94588323D01*
X54474636Y-94715561D01*
X54411958Y-94832824D01*
X54327606Y-94935606D01*
X54224824Y-95019958D01*
X54107561Y-95082636D01*
X53980323Y-95121233D01*
X53881159Y-95131000D01*
X53814841Y-95131000D01*
X53715677Y-95121233D01*
X53588439Y-95082636D01*
X53471176Y-95019958D01*
X53368394Y-94935606D01*
X53284042Y-94832824D01*
X53221364Y-94715561D01*
X53182767Y-94588323D01*
X53169734Y-94456000D01*
X53182767Y-94323677D01*
X53221364Y-94196439D01*
X53284042Y-94079176D01*
X53368394Y-93976394D01*
X53471176Y-93892042D01*
X53588439Y-93829364D01*
X53715677Y-93790767D01*
X53814841Y-93781000D01*
X53881159Y-93781000D01*
X53980323Y-93790767D01*
X53980323Y-93790767D01*
G37*
G36*
X80048000Y-94780000D02*
X78448000Y-94780000D01*
X78448000Y-93180000D01*
X80048000Y-93180000D01*
X80048000Y-94780000D01*
X80048000Y-94780000D01*
G37*
G36*
X76981352Y-93210743D02*
X77126941Y-93271048D01*
X77257973Y-93358601D01*
X77369399Y-93470027D01*
X77456952Y-93601059D01*
X77517257Y-93746648D01*
X77548000Y-93901205D01*
X77548000Y-94058795D01*
X77517257Y-94213352D01*
X77456952Y-94358941D01*
X77369399Y-94489973D01*
X77257973Y-94601399D01*
X77126941Y-94688952D01*
X76981352Y-94749257D01*
X76826795Y-94780000D01*
X76669205Y-94780000D01*
X76514648Y-94749257D01*
X76369059Y-94688952D01*
X76238027Y-94601399D01*
X76126601Y-94489973D01*
X76039048Y-94358941D01*
X75978743Y-94213352D01*
X75948000Y-94058795D01*
X75948000Y-93901205D01*
X75978743Y-93746648D01*
X76039048Y-93601059D01*
X76126601Y-93470027D01*
X76238027Y-93358601D01*
X76369059Y-93271048D01*
X76514648Y-93210743D01*
X76669205Y-93180000D01*
X76826795Y-93180000D01*
X76981352Y-93210743D01*
X76981352Y-93210743D01*
G37*
G36*
X68192000Y-93673000D02*
X67092000Y-93673000D01*
X67092000Y-89073000D01*
X68192000Y-89073000D01*
X68192000Y-93673000D01*
X68192000Y-93673000D01*
G37*
G36*
X69892000Y-93673000D02*
X68792000Y-93673000D01*
X68792000Y-89073000D01*
X69892000Y-89073000D01*
X69892000Y-93673000D01*
X69892000Y-93673000D01*
G37*
G36*
X73292000Y-93673000D02*
X72192000Y-93673000D01*
X72192000Y-89073000D01*
X73292000Y-89073000D01*
X73292000Y-93673000D01*
X73292000Y-93673000D01*
G37*
G36*
X66492000Y-93673000D02*
X65392000Y-93673000D01*
X65392000Y-89073000D01*
X66492000Y-89073000D01*
X66492000Y-93673000D01*
X66492000Y-93673000D01*
G37*
G36*
X71592000Y-93673000D02*
X70492000Y-93673000D01*
X70492000Y-89073000D01*
X71592000Y-89073000D01*
X71592000Y-93673000D01*
X71592000Y-93673000D01*
G37*
G36*
X54523000Y-93131000D02*
X53173000Y-93131000D01*
X53173000Y-91781000D01*
X54523000Y-91781000D01*
X54523000Y-93131000D01*
X54523000Y-93131000D01*
G37*
G36*
X84699649Y-88361717D02*
X84738827Y-88365576D01*
X84802012Y-88384743D01*
X84889629Y-88411321D01*
X85028608Y-88485608D01*
X85150422Y-88585578D01*
X85250392Y-88707392D01*
X85324679Y-88846371D01*
X85345978Y-88916585D01*
X85370424Y-88997173D01*
X85373933Y-89032799D01*
X85385870Y-89154000D01*
X85370424Y-89310826D01*
X85324679Y-89461629D01*
X85250392Y-89600608D01*
X85150422Y-89722422D01*
X85028608Y-89822392D01*
X84889629Y-89896679D01*
X84814227Y-89919552D01*
X84738827Y-89942424D01*
X84699649Y-89946283D01*
X84621295Y-89954000D01*
X84542705Y-89954000D01*
X84464351Y-89946283D01*
X84425173Y-89942424D01*
X84349773Y-89919552D01*
X84274371Y-89896679D01*
X84135392Y-89822392D01*
X84013578Y-89722422D01*
X83913608Y-89600608D01*
X83839321Y-89461629D01*
X83793576Y-89310826D01*
X83778130Y-89154000D01*
X83790067Y-89032799D01*
X83793576Y-88997173D01*
X83818022Y-88916585D01*
X83839321Y-88846371D01*
X83913608Y-88707392D01*
X84013578Y-88585578D01*
X84135392Y-88485608D01*
X84274371Y-88411321D01*
X84361988Y-88384743D01*
X84425173Y-88365576D01*
X84464351Y-88361717D01*
X84542705Y-88354000D01*
X84621295Y-88354000D01*
X84699649Y-88361717D01*
X84699649Y-88361717D01*
G37*
G36*
X77195352Y-88384743D02*
X77340941Y-88445048D01*
X77471973Y-88532601D01*
X77583399Y-88644027D01*
X77670952Y-88775059D01*
X77731257Y-88920648D01*
X77762000Y-89075205D01*
X77762000Y-89232795D01*
X77731257Y-89387352D01*
X77670952Y-89532941D01*
X77583399Y-89663973D01*
X77471973Y-89775399D01*
X77340941Y-89862952D01*
X77195352Y-89923257D01*
X77040795Y-89954000D01*
X76883205Y-89954000D01*
X76728648Y-89923257D01*
X76583059Y-89862952D01*
X76452027Y-89775399D01*
X76340601Y-89663973D01*
X76253048Y-89532941D01*
X76192743Y-89387352D01*
X76162000Y-89232795D01*
X76162000Y-89075205D01*
X76192743Y-88920648D01*
X76253048Y-88775059D01*
X76340601Y-88644027D01*
X76452027Y-88532601D01*
X76583059Y-88445048D01*
X76728648Y-88384743D01*
X76883205Y-88354000D01*
X77040795Y-88354000D01*
X77195352Y-88384743D01*
X77195352Y-88384743D01*
G37*
G36*
X55613999Y-88033999D02*
X55613998Y-88033999D01*
X55614000Y-88034000D01*
X55614001Y-88034001D01*
X55614605Y-88040137D01*
X55614605Y-88527863D01*
X55612799Y-88546203D01*
X55612197Y-88558453D01*
X55612197Y-88576872D01*
X55610988Y-88589150D01*
X55594263Y-88673232D01*
X55590678Y-88685048D01*
X55557870Y-88764255D01*
X55552053Y-88775140D01*
X55504421Y-88846425D01*
X55496585Y-88855973D01*
X55435973Y-88916585D01*
X55426425Y-88924421D01*
X55355140Y-88972053D01*
X55344255Y-88977870D01*
X55265048Y-89010678D01*
X55253232Y-89014263D01*
X55169150Y-89030988D01*
X55156872Y-89032197D01*
X55138453Y-89032197D01*
X55126203Y-89032799D01*
X55107863Y-89034605D01*
X54620137Y-89034605D01*
X54601797Y-89032799D01*
X54589547Y-89032197D01*
X54571128Y-89032197D01*
X54558850Y-89030988D01*
X54474768Y-89014263D01*
X54462952Y-89010678D01*
X54383745Y-88977870D01*
X54372860Y-88972053D01*
X54301575Y-88924421D01*
X54292027Y-88916585D01*
X54231415Y-88855973D01*
X54223579Y-88846425D01*
X54175947Y-88775140D01*
X54170130Y-88764255D01*
X54137322Y-88685048D01*
X54133737Y-88673232D01*
X54117012Y-88589150D01*
X54115803Y-88576872D01*
X54115803Y-88558453D01*
X54115201Y-88546203D01*
X54113395Y-88527863D01*
X54113395Y-88040137D01*
X54113999Y-88034001D01*
X54114000Y-88034000D01*
X54114002Y-88033999D01*
X54114001Y-88033999D01*
X54120137Y-88033395D01*
X55607863Y-88033395D01*
X55613999Y-88033999D01*
X55613999Y-88033999D01*
G37*
G36*
X55126203Y-86735201D02*
X55138453Y-86735803D01*
X55156872Y-86735803D01*
X55169150Y-86737012D01*
X55253232Y-86753737D01*
X55265048Y-86757322D01*
X55344255Y-86790130D01*
X55355140Y-86795947D01*
X55426425Y-86843579D01*
X55435973Y-86851415D01*
X55496585Y-86912027D01*
X55504421Y-86921575D01*
X55552053Y-86992860D01*
X55557870Y-87003745D01*
X55590678Y-87082952D01*
X55594263Y-87094768D01*
X55610988Y-87178850D01*
X55612197Y-87191128D01*
X55612197Y-87209547D01*
X55612799Y-87221797D01*
X55614605Y-87240137D01*
X55614605Y-87727863D01*
X55614001Y-87733999D01*
X55613999Y-87734001D01*
X55607863Y-87734605D01*
X54120137Y-87734605D01*
X54114001Y-87734001D01*
X54113999Y-87733999D01*
X54113395Y-87727863D01*
X54113395Y-87240137D01*
X54115201Y-87221797D01*
X54115803Y-87209547D01*
X54115803Y-87191128D01*
X54117012Y-87178850D01*
X54133737Y-87094768D01*
X54137322Y-87082952D01*
X54170130Y-87003745D01*
X54175947Y-86992860D01*
X54223579Y-86921575D01*
X54231415Y-86912027D01*
X54292027Y-86851415D01*
X54301575Y-86843579D01*
X54372860Y-86795947D01*
X54383745Y-86790130D01*
X54462952Y-86757322D01*
X54474768Y-86753737D01*
X54558850Y-86737012D01*
X54571128Y-86735803D01*
X54589547Y-86735803D01*
X54601797Y-86735201D01*
X54620137Y-86733395D01*
X55107863Y-86733395D01*
X55126203Y-86735201D01*
X55126203Y-86735201D01*
G37*
G36*
X62268000Y-87668000D02*
X60668000Y-87668000D01*
X60668000Y-86068000D01*
X62268000Y-86068000D01*
X62268000Y-87668000D01*
X62268000Y-87668000D01*
G37*
G36*
X59201352Y-86098743D02*
X59346941Y-86159048D01*
X59477973Y-86246601D01*
X59589399Y-86358027D01*
X59676952Y-86489059D01*
X59737257Y-86634648D01*
X59768000Y-86789205D01*
X59768000Y-86946795D01*
X59737257Y-87101352D01*
X59676952Y-87246941D01*
X59589399Y-87377973D01*
X59477973Y-87489399D01*
X59346941Y-87576952D01*
X59201352Y-87637257D01*
X59046795Y-87668000D01*
X58889205Y-87668000D01*
X58734648Y-87637257D01*
X58589059Y-87576952D01*
X58458027Y-87489399D01*
X58346601Y-87377973D01*
X58259048Y-87246941D01*
X58198743Y-87101352D01*
X58168000Y-86946795D01*
X58168000Y-86789205D01*
X58198743Y-86634648D01*
X58259048Y-86489059D01*
X58346601Y-86358027D01*
X58458027Y-86246601D01*
X58589059Y-86159048D01*
X58734648Y-86098743D01*
X58889205Y-86068000D01*
X59046795Y-86068000D01*
X59201352Y-86098743D01*
X59201352Y-86098743D01*
G37*
G36*
X90324203Y-85865201D02*
X90336453Y-85865803D01*
X90354872Y-85865803D01*
X90367150Y-85867012D01*
X90451232Y-85883737D01*
X90463048Y-85887322D01*
X90542255Y-85920130D01*
X90553140Y-85925947D01*
X90624425Y-85973579D01*
X90633973Y-85981415D01*
X90694585Y-86042027D01*
X90702421Y-86051575D01*
X90750053Y-86122860D01*
X90755870Y-86133745D01*
X90788678Y-86212952D01*
X90792263Y-86224768D01*
X90808988Y-86308850D01*
X90810197Y-86321128D01*
X90810197Y-86339547D01*
X90810799Y-86351797D01*
X90812605Y-86370137D01*
X90812605Y-86857863D01*
X90810799Y-86876203D01*
X90810197Y-86888453D01*
X90810197Y-86906872D01*
X90808988Y-86919150D01*
X90792263Y-87003232D01*
X90788678Y-87015048D01*
X90755870Y-87094255D01*
X90750053Y-87105140D01*
X90702421Y-87176425D01*
X90694585Y-87185973D01*
X90633973Y-87246585D01*
X90624425Y-87254421D01*
X90553140Y-87302053D01*
X90542255Y-87307870D01*
X90463048Y-87340678D01*
X90451232Y-87344263D01*
X90367150Y-87360988D01*
X90354872Y-87362197D01*
X90336453Y-87362197D01*
X90324203Y-87362799D01*
X90305863Y-87364605D01*
X89818137Y-87364605D01*
X89812001Y-87364001D01*
X89811999Y-87363999D01*
X89811395Y-87357863D01*
X89811395Y-85870137D01*
X89811999Y-85864001D01*
X89812000Y-85864000D01*
X89812002Y-85863999D01*
X89812001Y-85863999D01*
X89818137Y-85863395D01*
X90305863Y-85863395D01*
X90324203Y-85865201D01*
X90324203Y-85865201D01*
G37*
G36*
X89511999Y-85863999D02*
X89511998Y-85863999D01*
X89512000Y-85864000D01*
X89512001Y-85864001D01*
X89512605Y-85870137D01*
X89512605Y-87357863D01*
X89512001Y-87363999D01*
X89511999Y-87364001D01*
X89505863Y-87364605D01*
X89018137Y-87364605D01*
X88999797Y-87362799D01*
X88987547Y-87362197D01*
X88969128Y-87362197D01*
X88956850Y-87360988D01*
X88872768Y-87344263D01*
X88860952Y-87340678D01*
X88781745Y-87307870D01*
X88770860Y-87302053D01*
X88699575Y-87254421D01*
X88690027Y-87246585D01*
X88629415Y-87185973D01*
X88621579Y-87176425D01*
X88573947Y-87105140D01*
X88568130Y-87094255D01*
X88535322Y-87015048D01*
X88531737Y-87003232D01*
X88515012Y-86919150D01*
X88513803Y-86906872D01*
X88513803Y-86888453D01*
X88513201Y-86876203D01*
X88511395Y-86857863D01*
X88511395Y-86370137D01*
X88513201Y-86351797D01*
X88513803Y-86339547D01*
X88513803Y-86321128D01*
X88515012Y-86308850D01*
X88531737Y-86224768D01*
X88535322Y-86212952D01*
X88568130Y-86133745D01*
X88573947Y-86122860D01*
X88621579Y-86051575D01*
X88629415Y-86042027D01*
X88690027Y-85981415D01*
X88699575Y-85973579D01*
X88770860Y-85925947D01*
X88781745Y-85920130D01*
X88860952Y-85887322D01*
X88872768Y-85883737D01*
X88956850Y-85867012D01*
X88969128Y-85865803D01*
X88987547Y-85865803D01*
X88999797Y-85865201D01*
X89018137Y-85863395D01*
X89505863Y-85863395D01*
X89511999Y-85863999D01*
X89511999Y-85863999D01*
G37*
G36*
X74742000Y-86923000D02*
X63942000Y-86923000D01*
X63942000Y-77523000D01*
X74742000Y-77523000D01*
X74742000Y-86923000D01*
X74742000Y-86923000D01*
G37*
G36*
X77079649Y-84551717D02*
X77118827Y-84555576D01*
X77182012Y-84574743D01*
X77269629Y-84601321D01*
X77408608Y-84675608D01*
X77530422Y-84775578D01*
X77630392Y-84897392D01*
X77704679Y-85036371D01*
X77750424Y-85187174D01*
X77765870Y-85344000D01*
X77750424Y-85500826D01*
X77704679Y-85651629D01*
X77630392Y-85790608D01*
X77530422Y-85912422D01*
X77408608Y-86012392D01*
X77269629Y-86086679D01*
X77194227Y-86109552D01*
X77118827Y-86132424D01*
X77079649Y-86136283D01*
X77001295Y-86144000D01*
X76922705Y-86144000D01*
X76844351Y-86136283D01*
X76805173Y-86132424D01*
X76729773Y-86109552D01*
X76654371Y-86086679D01*
X76515392Y-86012392D01*
X76393578Y-85912422D01*
X76293608Y-85790608D01*
X76219321Y-85651629D01*
X76173576Y-85500826D01*
X76158130Y-85344000D01*
X76173576Y-85187174D01*
X76219321Y-85036371D01*
X76293608Y-84897392D01*
X76393578Y-84775578D01*
X76515392Y-84675608D01*
X76654371Y-84601321D01*
X76741988Y-84574743D01*
X76805173Y-84555576D01*
X76844351Y-84551717D01*
X76922705Y-84544000D01*
X77001295Y-84544000D01*
X77079649Y-84551717D01*
X77079649Y-84551717D01*
G37*
G36*
X84815352Y-84574743D02*
X84960941Y-84635048D01*
X85091973Y-84722601D01*
X85203399Y-84834027D01*
X85290952Y-84965059D01*
X85351257Y-85110648D01*
X85382000Y-85265205D01*
X85382000Y-85422795D01*
X85351257Y-85577352D01*
X85290952Y-85722941D01*
X85203399Y-85853973D01*
X85091973Y-85965399D01*
X84960941Y-86052952D01*
X84815352Y-86113257D01*
X84660795Y-86144000D01*
X84503205Y-86144000D01*
X84348648Y-86113257D01*
X84203059Y-86052952D01*
X84072027Y-85965399D01*
X83960601Y-85853973D01*
X83873048Y-85722941D01*
X83812743Y-85577352D01*
X83782000Y-85422795D01*
X83782000Y-85265205D01*
X83812743Y-85110648D01*
X83873048Y-84965059D01*
X83960601Y-84834027D01*
X84072027Y-84722601D01*
X84203059Y-84635048D01*
X84348648Y-84574743D01*
X84503205Y-84544000D01*
X84660795Y-84544000D01*
X84815352Y-84574743D01*
X84815352Y-84574743D01*
G37*
G36*
X58536000Y-82814000D02*
X56186000Y-82814000D01*
X56186000Y-77714000D01*
X58536000Y-77714000D01*
X58536000Y-82814000D01*
X58536000Y-82814000D01*
G37*
G36*
X62686000Y-82814000D02*
X60336000Y-82814000D01*
X60336000Y-77714000D01*
X62686000Y-77714000D01*
X62686000Y-82814000D01*
X62686000Y-82814000D01*
G37*
G36*
X54698000Y-82130000D02*
X52998000Y-82130000D01*
X52998000Y-80430000D01*
X54698000Y-80430000D01*
X54698000Y-82130000D01*
X54698000Y-82130000D01*
G37*
G36*
X77118950Y-78671717D02*
X77275655Y-78687151D01*
X77449874Y-78740000D01*
X77577257Y-78778641D01*
X77725828Y-78858054D01*
X77855213Y-78927212D01*
X78098845Y-79127155D01*
X78298788Y-79370787D01*
X78367946Y-79500172D01*
X78447359Y-79648743D01*
X78447359Y-79648744D01*
X78538849Y-79950345D01*
X78569741Y-80264000D01*
X78538849Y-80577655D01*
X78477856Y-80778722D01*
X78447359Y-80879257D01*
X78367946Y-81027828D01*
X78298788Y-81157213D01*
X78098845Y-81400845D01*
X77855213Y-81600788D01*
X77725828Y-81669946D01*
X77577257Y-81749359D01*
X77476722Y-81779856D01*
X77275655Y-81840849D01*
X77118950Y-81856283D01*
X77040598Y-81864000D01*
X76883402Y-81864000D01*
X76805050Y-81856283D01*
X76648345Y-81840849D01*
X76447278Y-81779856D01*
X76346743Y-81749359D01*
X76198172Y-81669946D01*
X76068787Y-81600788D01*
X75825155Y-81400845D01*
X75625212Y-81157213D01*
X75556054Y-81027828D01*
X75476641Y-80879257D01*
X75446144Y-80778722D01*
X75385151Y-80577655D01*
X75354259Y-80264000D01*
X75385151Y-79950345D01*
X75476641Y-79648744D01*
X75476641Y-79648743D01*
X75556054Y-79500172D01*
X75625212Y-79370787D01*
X75825155Y-79127155D01*
X76068787Y-78927212D01*
X76198172Y-78858054D01*
X76346743Y-78778641D01*
X76474126Y-78740000D01*
X76648345Y-78687151D01*
X76805050Y-78671717D01*
X76883402Y-78664000D01*
X77040598Y-78664000D01*
X77118950Y-78671717D01*
X77118950Y-78671717D01*
G37*
G36*
X91262000Y-81864000D02*
X88062000Y-81864000D01*
X88062000Y-78664000D01*
X91262000Y-78664000D01*
X91262000Y-81864000D01*
X91262000Y-81864000D01*
G37*
G36*
X54014630Y-77902299D02*
X54174855Y-77950903D01*
X54322520Y-78029831D01*
X54451949Y-78136051D01*
X54558169Y-78265480D01*
X54637097Y-78413145D01*
X54685701Y-78573370D01*
X54702112Y-78740000D01*
X54685701Y-78906630D01*
X54637097Y-79066855D01*
X54558169Y-79214520D01*
X54451949Y-79343949D01*
X54322520Y-79450169D01*
X54174855Y-79529097D01*
X54014630Y-79577701D01*
X53889752Y-79590000D01*
X53806248Y-79590000D01*
X53681370Y-79577701D01*
X53521145Y-79529097D01*
X53373480Y-79450169D01*
X53244051Y-79343949D01*
X53137831Y-79214520D01*
X53058903Y-79066855D01*
X53010299Y-78906630D01*
X52993888Y-78740000D01*
X53010299Y-78573370D01*
X53058903Y-78413145D01*
X53137831Y-78265480D01*
X53244051Y-78136051D01*
X53373480Y-78029831D01*
X53521145Y-77950903D01*
X53681370Y-77902299D01*
X53806248Y-77890000D01*
X53889752Y-77890000D01*
X54014630Y-77902299D01*
X54014630Y-77902299D01*
G37*
M02*
