M48
;DRILL file {KiCad (5.0.2)-1} date 4/17/2019 11:18:19 PM
;FORMAT={-:-/ absolute / metric / decimal}
FMAT,2
METRIC,TZ
T1C0.400
T2C0.800
T3C1.000
T4C1.100
T5C1.600
T6C2.400
%
G90
G05
T1
X211.275Y-109.575
X212.4Y-106.4
X212.6Y-104.65
X214.175Y-100.075
X214.2Y-104.65
X215.2Y-100.075
X215.25Y-104.65
X215.9Y-81.915
X216.175Y-100.075
X216.325Y-102.975
X216.35Y-103.875
X216.375Y-104.825
X216.45Y-95.7
X216.58Y-101.13
X217.3Y-106.45
X217.3Y-107.35
X217.325Y-102.975
X217.325Y-103.85
X217.325Y-104.875
X217.4Y-108.35
X217.6Y-101.1
X218.5Y-108.35
X218.8Y-101.26
X219.202Y-85.598
X219.202Y-86.868
X219.202Y-88.138
X219.202Y-89.408
X219.202Y-90.678
X219.5Y-113.525
X219.55Y-74.7
X219.55Y-76.2
X219.55Y-76.2
X219.55Y-77.7
X219.55Y-77.7
X219.55Y-79.2
X219.55Y-79.2
X219.55Y-80.7
X219.55Y-80.7
X219.55Y-82.2
X219.55Y-82.2
X219.55Y-110.425
X219.7Y-108.4
X220.025Y-107.325
X220.075Y-103.075
X220.075Y-103.964
X220.075Y-104.853
X220.15Y-106.45
X220.472Y-90.932
X220.964Y-103.075
X220.964Y-103.964
X220.964Y-104.853
X221.Y-106.45
X221.025Y-107.339
X221.025Y-108.228
X221.05Y-74.7
X221.05Y-74.7
X221.05Y-76.2
X221.05Y-76.2
X221.05Y-77.7
X221.05Y-77.7
X221.05Y-79.2
X221.05Y-79.2
X221.05Y-80.7
X221.05Y-80.7
X221.05Y-82.2
X221.05Y-82.2
X221.742Y-90.932
X221.853Y-103.075
X221.853Y-103.964
X221.853Y-104.853
X221.914Y-106.45
X221.914Y-107.339
X221.914Y-108.228
X222.55Y-74.7
X222.55Y-74.7
X222.55Y-76.2
X222.55Y-76.2
X222.55Y-77.7
X222.55Y-77.7
X222.55Y-79.2
X222.55Y-79.2
X222.55Y-80.7
X222.55Y-80.7
X222.55Y-82.2
X222.55Y-82.2
X222.742Y-103.075
X222.742Y-103.964
X222.742Y-104.853
X222.803Y-106.45
X222.803Y-107.339
X222.81Y-108.22
X223.631Y-103.075
X223.631Y-103.964
X223.631Y-104.853
X223.692Y-106.45
X223.692Y-107.339
X223.692Y-108.228
X224.05Y-74.7
X224.05Y-74.7
X224.05Y-76.2
X224.05Y-76.2
X224.05Y-77.7
X224.05Y-77.7
X224.05Y-79.2
X224.05Y-79.2
X224.05Y-80.7
X224.05Y-80.7
X224.05Y-82.2
X224.05Y-82.2
X224.581Y-106.45
X224.581Y-107.339
X224.581Y-108.228
X225.55Y-74.7
X225.55Y-74.7
X225.55Y-76.2
X225.55Y-76.2
X225.55Y-77.7
X225.55Y-77.7
X225.55Y-79.2
X225.55Y-79.2
X225.55Y-80.7
X225.55Y-80.7
X225.55Y-82.2
X225.55Y-82.2
X227.05Y-74.7
X227.05Y-76.2
X227.05Y-77.7
X227.05Y-79.2
X227.05Y-80.7
X227.05Y-82.2
X228.55Y-74.7
X228.55Y-76.2
X228.55Y-77.7
X228.55Y-79.2
X228.55Y-80.7
X228.55Y-82.2
X228.9Y-92.2
X229.825Y-110.325
X238.125Y-76.2
X238.45Y-98.6
X251.25Y-94.15
X254.6Y-107.2
X255.208Y-80.812
X256.19Y-83.34
X256.81Y-80.87
X257.1Y-107.2
X257.14Y-85.28
X257.175Y-78.74
X259.9Y-74.075
X260.35Y-99.06
X261.379Y-97.294
T2
X243.839Y-77.546
X243.839Y-80.086
X243.839Y-82.626
X243.839Y-85.166
X243.839Y-87.706
X243.839Y-90.246
X243.839Y-92.786
X243.839Y-95.326
X243.839Y-97.866
X243.839Y-100.406
X243.839Y-102.946
X243.839Y-105.486
X243.839Y-108.026
X243.839Y-110.566
X243.839Y-113.106
X259.079Y-77.546
X259.079Y-80.086
X259.079Y-82.626
X259.079Y-85.166
X259.079Y-87.706
X259.079Y-90.246
X259.079Y-92.786
X259.079Y-95.326
X259.079Y-97.866
X259.079Y-100.406
X259.079Y-102.946
X259.079Y-105.486
X259.079Y-108.026
X259.079Y-110.566
X259.079Y-113.106
X248.6Y-98.7
X253.48Y-98.7
X205.65Y-86.2
X205.65Y-88.74
X205.65Y-91.28
X208.28Y-79.502
X208.28Y-82.002
X235.075Y-95.795
X235.075Y-98.335
X235.075Y-100.875
X224.19Y-94.72
X227.69Y-94.72
X247.424Y-85.305
X247.424Y-92.925
X249.964Y-85.305
X249.964Y-92.925
X252.504Y-85.305
X252.504Y-92.925
X255.044Y-85.305
X255.044Y-92.925
X226.9Y-101.6
X226.9Y-105.1
X210.6Y-92.85
X210.6Y-95.39
X210.6Y-97.93
T3
X223.325Y-110.1
X223.325Y-115.1
X206.05Y-100.56
X206.05Y-103.1
X235.8Y-107.125
X235.8Y-113.625
X213.6Y-84.37
X213.6Y-89.37
X204.216Y-75.692
X206.756Y-75.692
X209.296Y-75.692
X237.65Y-89.225
X240.19Y-89.225
T4
X248.694Y-82.257
X251.234Y-82.257
X253.774Y-82.257
X218.23Y-94.09
X218.23Y-96.63
X218.23Y-99.17
T5
X232.9Y-75.36
X232.9Y-90.6
T6
X255.778Y-103.124
X255.778Y-115.824
X208.28Y-51.562
X208.28Y-64.262
T0
M30
